<?xml version="1.0" encoding="utf-8"?>
<!-- Generator: Adobe Illustrator 23.0.1, SVG Export Plug-In . SVG Version: 6.00 Build 0)  -->
<svg version="1.1" id="Layer_1" xmlns="http://www.w3.org/2000/svg" xmlns:xlink="http://www.w3.org/1999/xlink" x="0px" y="0px"
	 viewBox="0 0 30 30" style="enable-background:new 0 0 30 30;" xml:space="preserve">
<style type="text/css">
	.st0{clip-path:url(#SVGID_2_);}
	.st1{fill:#0284C7;}
	.st2{clip-path:url(#SVGID_4_);}
</style>
<g>
	<g>
		<path d="M15,27.7c-0.9,0-1.7-0.3-2.4-0.8c-0.2-0.1-0.2-0.4-0.1-0.5c0.1-0.2,0.4-0.2,0.5-0.1c0.6,0.4,1.2,0.6,1.9,0.6
			c1.8,0,3.2-1.5,3.2-3.2c0-1.8-1.5-3.2-3.2-3.2c-1.8,0-3.2,1.5-3.2,3.2c0,0.5,0.1,1,0.4,1.5c0.1,0.2,0,0.4-0.2,0.5
			c-0.2,0.1-0.4,0-0.5-0.2C11.1,25,11,24.4,11,23.7c0-2.2,1.8-4,4-4s4,1.8,4,4S17.2,27.7,15,27.7z"/>
	</g>
	<g>
		<path class="st1" d="M15,25.9c-0.2,0-0.4-0.2-0.4-0.3c-0.2,0-0.4-0.1-0.6-0.3c-0.2-0.1-0.2-0.3-0.1-0.5c0.1-0.2,0.3-0.2,0.5-0.1
			c0.2,0.1,0.3,0.2,0.6,0.1c0.3,0,0.4-0.2,0.4-0.4c0-0.1,0-0.3-0.2-0.4c-0.3-0.1-0.7-0.3-0.9-0.5c-0.3-0.2-0.4-0.5-0.3-0.9
			c0.1-0.4,0.3-0.7,0.7-0.8v-0.1c0-0.2,0.2-0.4,0.4-0.4c0.2,0,0.4,0.2,0.4,0.4v0.1c0.2,0.1,0.4,0.2,0.5,0.3l-0.5,0.5l0,0
			c0,0-0.2-0.2-0.5-0.1c-0.1,0-0.2,0.2-0.2,0.2c0,0.1,0,0.2,0,0.2c0.2,0.1,0.5,0.2,0.7,0.3c0.5,0.2,0.8,0.7,0.7,1.2
			c-0.1,0.4-0.4,0.8-0.8,0.9v0C15.3,25.8,15.2,25.9,15,25.9z M21.9,11.3c-0.2,0-0.4-0.2-0.4-0.4V8.7H20V11c0,0.2-0.2,0.4-0.4,0.4
			c-0.2,0-0.4-0.2-0.4-0.4V8.4c0-0.2,0.2-0.4,0.4-0.4h2.3c0.2,0,0.4,0.2,0.4,0.4V11C22.3,11.2,22.1,11.3,21.9,11.3z M18.1,11.3
			c-0.2,0-0.4-0.2-0.4-0.4V7.7h-1.6V11c0,0.2-0.2,0.4-0.4,0.4s-0.4-0.2-0.4-0.4V7.3c0-0.2,0.2-0.4,0.4-0.4h2.3
			c0.2,0,0.4,0.2,0.4,0.4V11C18.5,11.2,18.3,11.3,18.1,11.3z M14.2,11.3c-0.2,0-0.4-0.2-0.4-0.4V6.9h-1.6v1c0,0.2-0.2,0.4-0.4,0.4
			c-0.2,0-0.4-0.2-0.4-0.4V6.5c0-0.2,0.2-0.4,0.4-0.4h2.3c0.2,0,0.4,0.2,0.4,0.4V11C14.6,11.2,14.4,11.3,14.2,11.3z M11.9,11.3
			c-0.2,0-0.4-0.2-0.4-0.4V9.6c0-0.2,0.2-0.4,0.4-0.4c0.2,0,0.4,0.2,0.4,0.4V11C12.3,11.2,12.1,11.3,11.9,11.3z M10.4,11.3
			c-0.2,0-0.4-0.2-0.4-0.4V8.4H8.4V11c0,0.2-0.2,0.4-0.4,0.4c-0.2,0-0.4-0.2-0.4-0.4V8.1c0-0.2,0.2-0.4,0.4-0.4h2.3
			c0.2,0,0.4,0.2,0.4,0.4V11C10.7,11.2,10.6,11.3,10.4,11.3z"/>
	</g>
	<g>
		<path d="M9.2,6.6c-0.6,0-1.1-0.5-1.1-1.1c0-0.6,0.5-1.1,1.1-1.1c0.6,0,1.1,0.5,1.1,1.1C10.4,6.1,9.8,6.6,9.2,6.6z M9.2,5.1
			C9,5.1,8.8,5.3,8.8,5.5c0,0.2,0.2,0.4,0.4,0.4c0.2,0,0.4-0.2,0.4-0.4C9.6,5.3,9.4,5.1,9.2,5.1z"/>
	</g>
	<g>
		<path d="M20.8,7.1c-0.6,0-1.1-0.5-1.1-1.1c0-0.6,0.5-1.1,1.1-1.1c0.6,0,1.1,0.5,1.1,1.1C21.9,6.6,21.4,7.1,20.8,7.1z M20.8,5.6
			c-0.2,0-0.4,0.2-0.4,0.4c0,0.2,0.2,0.4,0.4,0.4c0.2,0,0.4-0.2,0.4-0.4C21.2,5.8,21,5.6,20.8,5.6z"/>
	</g>
	<g>
		<path d="M13.1,4.6c-0.6,0-1.1-0.5-1.1-1.1c0-0.6,0.5-1.1,1.1-1.1c0.6,0,1.1,0.5,1.1,1.1C14.2,4.1,13.7,4.6,13.1,4.6z M13.1,3
			c-0.2,0-0.4,0.2-0.4,0.4c0,0.2,0.2,0.4,0.4,0.4c0.2,0,0.4-0.2,0.4-0.4C13.5,3.2,13.3,3,13.1,3z"/>
	</g>
	<g>
		<path d="M16.9,6.1c-0.6,0-1.1-0.5-1.1-1.1s0.5-1.1,1.1-1.1c0.6,0,1.1,0.5,1.1,1.1S17.6,6.1,16.9,6.1z M16.9,4.6
			c-0.2,0-0.4,0.2-0.4,0.4s0.2,0.4,0.4,0.4s0.4-0.2,0.4-0.4S17.1,4.6,16.9,4.6z"/>
	</g>
	<g>
		<path d="M16.2,20.6c-0.2,0-0.4-0.2-0.4-0.4v-2c0-0.1,0.1-0.2,0.2-0.3l3.1-2.1c0.2-0.1,0.4-0.1,0.5,0.1c0.1,0.2,0.1,0.4-0.1,0.5
			l-2.9,2v1.8C16.6,20.5,16.4,20.6,16.2,20.6z M13.8,20.6c-0.2,0-0.4-0.2-0.4-0.4v-1.8l-6.1-4.1c-0.1-0.1-0.2-0.2-0.2-0.3v-1.2
			c-0.6-0.1-1-0.5-1-1.1c0-0.6,0.5-1.1,1.1-1.1h15.4c0.6,0,1.1,0.5,1.1,1.1c0,0.6-0.4,1.1-1,1.1v1.2c0,0.1-0.1,0.2-0.2,0.3l-1.8,1.2
			c-0.2,0.1-0.4,0.1-0.5-0.1c-0.1-0.2-0.1-0.4,0.1-0.5l1.6-1.1v-1H7.9v1L14,18c0.1,0.1,0.2,0.2,0.2,0.3v2
			C14.1,20.5,14,20.6,13.8,20.6z M7.3,11.4c-0.2,0-0.4,0.2-0.4,0.4c0,0.2,0.2,0.4,0.4,0.4h15.4c0.2,0,0.4-0.2,0.4-0.4
			c0-0.2-0.2-0.4-0.4-0.4H7.3z M20,6.2C20,6.2,20,6.2,20,6.2l-2.5-0.6c-0.2-0.1-0.3-0.3-0.3-0.5c0.1-0.2,0.3-0.3,0.5-0.3l2.4,0.6
			c0.2,0.1,0.3,0.3,0.3,0.5C20.4,6,20.2,6.2,20,6.2z M21.5,6c-0.1,0-0.3-0.1-0.3-0.2c-0.1-0.2,0-0.4,0.2-0.5l2-0.9
			c0.2-0.1,0.4,0,0.5,0.2c0.1,0.2,0,0.4-0.2,0.5l-2,0.9C21.6,6,21.5,6,21.5,6z M8.5,5.8C8.4,5.8,8.4,5.8,8.5,5.8l-2-0.2
			c-0.2,0-0.4-0.2-0.3-0.4c0-0.2,0.2-0.4,0.4-0.3L8.5,5c0.2,0,0.4,0.2,0.3,0.4C8.8,5.6,8.6,5.8,8.5,5.8z M9.9,5.5
			c-0.1,0-0.3-0.1-0.3-0.2c-0.1-0.2,0-0.4,0.2-0.5l2.5-1.3c0.2-0.1,0.4,0,0.5,0.2c0.1,0.2,0,0.4-0.2,0.5l-2.5,1.3
			C10,5.5,10,5.5,9.9,5.5z M16.2,5.1c0,0-0.1,0-0.1,0l-2.4-1c-0.2-0.1-0.3-0.3-0.2-0.5c0.1-0.2,0.3-0.3,0.5-0.2l2.4,1
			c0.2,0.1,0.3,0.3,0.2,0.5C16.5,5,16.4,5.1,16.2,5.1z"/>
	</g>
</g>
</svg>
