<?xml version="1.0" encoding="utf-8"?>
<!-- Generator: Adobe Illustrator 26.0.1, SVG Export Plug-In . SVG Version: 6.00 Build 0)  -->
<svg version="1.1" id="Layer_1" xmlns="http://www.w3.org/2000/svg" xmlns:xlink="http://www.w3.org/1999/xlink" x="0px" y="0px"
	 viewBox="0 0 123 122" style="enable-background:new 0 0 123 122;" xml:space="preserve">
<style type="text/css">
	.st0{fill:#FFFFFF;}
	.st1{fill:#0A83C6;}
</style>
<g>
	<path d="M102.5,73.3l-57,12c-4.1,0.9-5,0.9-7.6-2.8L6.2,42.8c-1,0.9-1.1,3.3-0.3,4.3l31.1,39c2.7,3.3,3.2,3.3,7.3,2.3L106,75
		c0.6-0.1,0.6,0,0.5-0.5c0-0.1,0-0.2-0.1-0.3c-0.1-0.6,0.1-0.5-0.7-0.6C104.7,73.5,103.6,73.4,102.5,73.3L102.5,73.3z M59.3,61.9
		l0.1-0.1c-0.6-1.6,2.5-4.7,3.7-5.5c0.9-0.6,1.8-1.1,2.7-1.7c-0.9-2.5,0.8-4.7,2.2-6.5c1.9-2.4,4.3-5.6,6.7-6.3
		c3.6-1.1,8.5-0.6,12-0.3l4-2.5L85.6,34c-1-1-1.4-1.2-2.8-0.9L7.4,42.4l31.4,39.4c2.4,2.9,2.5,3.2,6.4,2.3L99,72.8
		c-1.7-0.3-3.4-0.8-5.1-1.4c-9.5-3.8-8-8.7-13.5-12.3c-1.5,0-2.6,1.3-3.2,2.6c-0.5,0.9-0.2,0.7-0.3,1.7c-0.4,2.3-3.8,2.5-4.9,0.5
		c-0.2-0.4-0.4-1-0.4-1.6c-0.6,0.7-1.4,1.1-2.4,1c-1.4-0.1-2.1-1.1-2.1-2.4c0,0,0,0,0-0.1L66,61.5c-1.2,0.8-3.2,1.1-4.6,1.2
		c-0.6,0-1.1-0.1-1.4-0.3l-0.2,0.1C59.3,62.9,58.9,62.2,59.3,61.9L59.3,61.9z M86,50.1c0-0.8,1.2-0.8,1.2,0c0,0.2,0,0.5-0.1,0.7
		c0.9-0.1,1.9-0.3,3.1-0.7c0.7-0.3,1.1,0.9,0.4,1.1c-4,1.5-6.5,0.3-10.3,0.3c-2.8,0-5.9,0.5-8.2,0.7c-1.7,0.2-3.5,0.9-3.5,2.8
		c0.1,1.9,2.3,2.7,3.9,2.8c2.7,0.1,5.7-0.6,8.2,0.2c5.6,1.8,4.5,7.7,13.5,8.2c0.8,0,0.7,1.2-0.1,1.2c-3.9-0.2-6.1-1.4-7.6-2.8
		c1.5,2,3.5,4.1,7.9,5.8c2,0.8,4.1,1.3,6.3,1.6c2.6,0.4,6.1,0.7,7.8,0.9c0.8-1.9,1.3-4,1.7-6.1c0.4-2.1,0.8-4.2,0.8-6.3
		c-1.7-0.5-3.2-1.2-4.7-2.1c-2.9-1.9-5.2-4.4-7.5-7c-2.1-2.5-4.3-4.9-7.1-6.9l-9.1,6.1c1,0.1,2.1,0.3,3.1,0.3
		C85.9,50.6,86,50.3,86,50.1L86,50.1z M22.8,70.1l-4,0.6c-2.7,0.4-1,4.1,2.8,3.5l3.9-0.7L22.8,70.1z M26.3,74.6l-4.6,0.8
		c-5.6,0.8-7.3-5.2-3.2-5.9l3.3-0.5L5,47.9c-1.5-1.9-1-6.2,1.8-6.6l75.9-9.4c1.9-0.2,2.5-0.2,3.8,1.2l5.4,5.3l5.3-3.3
		c1.2-0.7,4-2.1,5.2-0.8c1.3,1.4-1.2,3.7-2.4,4.5l-4.6,3.1l15.2,14.9c0.5,0.5,0.5,0.5,1.2,0.6l6.6,1.4c0.8,0.2,0.5,1.3-0.3,1.2
		l-4.6-1c-1.4-0.3-1.4-0.5-1.4,0.8c0,0.3,0,0.6,0,0.9c-0.1,1.6-0.4,3.9-0.9,6.3c-0.5,2.4-1.1,4.6-1.7,6.1c-0.1,0.4-0.2,0.5-0.3,0.8
		c-0.5,0.9-0.3,1,0.9,1.2l5.7,1.2c0.8,0.2,0.5,1.3-0.2,1.2l-7.6-1.6l-8,1.7c0.2,1.7-1.3,2.5-2.8,2.8l-39.8,8.8
		c-1.7,0.4-4,0.5-4.8-1.4l-7.9,1.7c-4.6,1.1-5.5,1.2-8.5-2.7L26.3,74.6L26.3,74.6z M53.8,87.5c0.7,0.9,2.4,0.7,3.4,0.4l39.7-8.8
		c0.8-0.2,1.8-0.5,1.8-1.4L53.8,87.5L53.8,87.5z M110.1,57.9L94.4,42.5l-1.6,1.1c2.7,2,4.9,4.4,7,6.8c2.2,2.5,4.4,5,7.2,6.8
		c0.9,0.5,1.8,1,2.7,1.4C109.8,58.4,109.9,58.1,110.1,57.9z M65.7,60.3l3.6-2.4c-1-0.6-1.7-1.6-1.8-2.8l-3.6,2.2
		C63.3,57.7,65.2,60.6,65.7,60.3L65.7,60.3z M64.6,60.9c-0.8-0.7-1.5-1.7-1.8-2.7c-0.3,0.2-1.4,1.5-1.9,2.3c-0.6,0.9-0.5,1,0.5,1
		C62.4,61.5,63.6,61.3,64.6,60.9z M78.1,58.6c-0.8,0-1.7,0-2.5,0.1c-2,0.1-3.4,3.1-2.6,4.6c0.6,1.1,2.5,1,2.7-0.1
		c0.1-0.7,0-1.6,0-2.3c0-0.5,0.5-0.7,0.9-0.5C77,59.7,77.5,59.1,78.1,58.6L78.1,58.6z M73,58.9c-0.8,0-1.6-0.1-2.4-0.3l-2,1.3
		c-0.1,0.3-0.2,0.6-0.2,1c0,1.9,2.5,1.6,2.7-0.2c0-0.3,0-0.6,0.2-1c0.2-0.5,0.8-0.5,1.1-0.1C72.5,59.3,72.7,59.1,73,58.9z
		 M80.6,50.3l18.6-12.5c0.6-0.5,2.6-2,2.2-2.7c-0.6-0.6-3.1,0.7-3.7,1L74.5,50.7c0.2,0,0.4,0,0.6-0.1C76.9,50.4,78.8,50.2,80.6,50.3
		L80.6,50.3z M72.5,49.6c0-0.8,1.2-0.8,1.2,0c0,0.1,0,0.1,0,0.2l1.5-0.9c0.5-0.4,0.7-1.7,1-2.4c0.3-0.7,1.4-0.4,1.1,0.4
		c-0.1,0.3-0.2,0.5-0.2,0.8l8.1-5.1c-3.2-0.3-7.1-0.4-10,0.4c-2,0.6-4.4,3.6-6.1,5.9c-1.1,1.4-2.6,3.2-2.1,5.1l0.7-0.5
		c0.6-1.5,2.1-2.3,3.7-2.6C72.1,50.9,72.5,50.5,72.5,49.6L72.5,49.6z"/>
	<g>
		<ellipse transform="matrix(0.9235 -0.3835 0.3835 0.9235 -17.6307 14.0247)" class="st0" cx="26.4" cy="51.2" rx="4" ry="4.1"/>
		<path class="st1" d="M24.5,46.6c-2.4,1.1-3.4,3.8-2.3,6.2c1.1,2.4,3.8,3.4,6.2,2.3s3.4-3.8,2.3-6.2C29.6,46.5,26.9,45.5,24.5,46.6
			z M25.8,50.2c0.1,0.1,0.3,0.1,0.6,0.2c0.6,0,1,0,1.3,0.2c0.3,0.1,0.6,0.4,0.8,0.8c0.2,0.4,0.2,0.8,0.1,1.1
			c-0.1,0.3-0.3,0.6-0.7,0.8l0.3,0.7l-0.5,0.2l-0.3-0.7c-0.4,0.1-0.8,0.1-1.2,0c-0.3-0.1-0.7-0.4-0.9-1l0,0l0.9-0.4
			c0.1,0.3,0.3,0.5,0.5,0.6c0.2,0.1,0.3,0.1,0.5,0s0.3-0.2,0.3-0.4c0.1-0.1,0-0.3-0.1-0.5s-0.2-0.3-0.4-0.4
			c-0.1-0.1-0.3-0.1-0.6-0.1c-0.6,0-1,0-1.3-0.1c-0.3-0.1-0.6-0.4-0.8-0.8c-0.2-0.4-0.2-0.8-0.1-1.1c0.1-0.3,0.3-0.6,0.7-0.8
			l-0.3-0.7l0.5-0.2l0.3,0.8c0.4-0.1,0.8-0.1,1.1,0.1c0.3,0.2,0.6,0.5,0.8,0.9l-1,0.5c-0.1-0.2-0.3-0.5-0.4-0.6
			c-0.2-0.1-0.3-0.1-0.5,0c-0.1,0.1-0.3,0.2-0.2,0.3c0,0.1,0,0.3,0.1,0.5C25.6,50,25.7,50.1,25.8,50.2z"/>
	</g>
	<g>
		<ellipse transform="matrix(0.9235 -0.3835 0.3835 0.9235 -15.917 18.232)" class="st0" cx="37.8" cy="49" rx="4" ry="4.1"/>
		<path class="st1" d="M35.9,44.4c-2.4,1.1-3.4,3.8-2.3,6.2c1.1,2.4,3.8,3.4,6.2,2.3c2.4-1.1,3.4-3.8,2.3-6.2
			C41,44.3,38.3,43.3,35.9,44.4z M37.2,48c0.1,0.1,0.3,0.1,0.6,0.2c0.6,0,1,0,1.3,0.2c0.3,0.1,0.6,0.4,0.8,0.8
			c0.2,0.4,0.2,0.8,0.1,1.1s-0.3,0.6-0.7,0.8l0.3,0.7l-0.5,0.2l-0.3-0.7c-0.4,0.1-0.8,0.1-1.2,0c-0.3-0.1-0.7-0.4-0.9-1l0,0l0.9-0.4
			c0.1,0.3,0.3,0.5,0.5,0.6c0.2,0.1,0.3,0.1,0.5,0s0.3-0.2,0.3-0.4c0.1-0.1,0-0.3-0.1-0.5s-0.2-0.3-0.4-0.4
			c-0.1-0.1-0.3-0.1-0.6-0.1c-0.6,0-1,0-1.3-0.1c-0.3-0.1-0.6-0.4-0.8-0.8c-0.2-0.4-0.2-0.8-0.1-1.1s0.3-0.6,0.7-0.8l-0.3-0.7
			l0.5-0.2l0.3,0.8c0.4-0.1,0.8-0.1,1.1,0.1c0.3,0.2,0.6,0.5,0.8,0.9l-1,0.5c-0.1-0.2-0.3-0.5-0.4-0.6c-0.2-0.1-0.3-0.1-0.5,0
			c-0.1,0.1-0.3,0.2-0.2,0.3c0,0.1,0,0.3,0.1,0.5C37,47.8,37.1,47.9,37.2,48z"/>
	</g>
	<g>
		<ellipse transform="matrix(0.9235 -0.3835 0.3835 0.9235 -20.2234 17.9087)" class="st0" cx="34.8" cy="59.7" rx="4" ry="4.1"/>
		<path class="st1" d="M32.9,55c-2.4,1.1-3.4,3.8-2.3,6.2c1.1,2.4,3.8,3.4,6.2,2.3c2.4-1.1,3.4-3.8,2.3-6.2C38,55,35.3,53.9,32.9,55
			z M34.2,58.6c0.1,0.1,0.3,0.1,0.6,0.2c0.6,0,1,0,1.3,0.2c0.3,0.1,0.6,0.4,0.8,0.8c0.2,0.4,0.2,0.8,0.1,1.1
			c-0.1,0.3-0.3,0.6-0.7,0.8l0.3,0.7l-0.5,0.2L35.8,62c-0.4,0.1-0.8,0.1-1.2,0c-0.3-0.1-0.7-0.4-0.9-1l0,0l0.9-0.4
			c0.1,0.3,0.3,0.5,0.5,0.6c0.2,0.1,0.3,0.1,0.5,0c0.2-0.1,0.3-0.2,0.3-0.4c0.1-0.1,0-0.3-0.1-0.5c-0.1-0.2-0.2-0.3-0.4-0.4
			c-0.1-0.1-0.3-0.1-0.6-0.1c-0.6,0-1,0-1.3-0.1c-0.3-0.1-0.6-0.4-0.8-0.8c-0.2-0.4-0.2-0.8-0.1-1.1c0.1-0.3,0.3-0.6,0.7-0.8
			L33.2,56l0.5-0.2l0.3,0.8c0.4-0.1,0.8-0.1,1.1,0.1c0.3,0.2,0.6,0.5,0.8,0.9l-1,0.5c-0.1-0.2-0.3-0.5-0.4-0.6
			c-0.2-0.1-0.3-0.1-0.5,0c-0.1,0.1-0.3,0.2-0.2,0.3c0,0.1,0,0.3,0.1,0.5C34,58.4,34.1,58.6,34.2,58.6z"/>
	</g>
	<g>
		<ellipse transform="matrix(0.9235 -0.3835 0.3835 0.9235 -18.5097 22.116)" class="st0" cx="46.2" cy="57.5" rx="4" ry="4.1"/>
		<path class="st1" d="M44.3,52.8C42,53.9,40.9,56.6,42,59c1.1,2.4,3.8,3.4,6.2,2.3c2.4-1.1,3.4-3.8,2.3-6.2
			C49.5,52.8,46.7,51.7,44.3,52.8z M45.6,56.4c0.1,0.1,0.3,0.1,0.6,0.2c0.6,0,1,0,1.3,0.2c0.3,0.1,0.6,0.4,0.8,0.8
			c0.2,0.4,0.2,0.8,0.1,1.1c-0.1,0.3-0.3,0.6-0.7,0.8l0.3,0.7l-0.5,0.2l-0.3-0.7c-0.4,0.1-0.8,0.1-1.2,0c-0.3-0.1-0.7-0.4-0.9-1l0,0
			l0.9-0.4c0.1,0.3,0.3,0.5,0.5,0.6c0.2,0.1,0.3,0.1,0.5,0s0.3-0.2,0.3-0.4c0.1-0.1,0-0.3-0.1-0.5c-0.1-0.2-0.2-0.3-0.4-0.4
			c-0.1-0.1-0.3-0.1-0.6-0.1c-0.6,0-1,0-1.3-0.1c-0.3-0.1-0.6-0.4-0.8-0.8c-0.2-0.4-0.2-0.8-0.1-1.1c0.1-0.3,0.3-0.6,0.7-0.8
			l-0.3-0.7l0.5-0.2l0.3,0.8c0.4-0.1,0.8-0.1,1.1,0.1s0.6,0.5,0.8,0.9l-1,0.5c-0.1-0.2-0.3-0.5-0.4-0.6c-0.2-0.1-0.3-0.1-0.5,0
			c-0.1,0.1-0.3,0.2-0.2,0.3c0,0.1,0,0.3,0.1,0.5C45.4,56.3,45.6,56.4,45.6,56.4z"/>
	</g>
	<g>
		<ellipse transform="matrix(0.9235 -0.3835 0.3835 0.9235 -14.0754 22.2893)" class="st0" cx="48.9" cy="46.4" rx="4" ry="4.1"/>
		<path class="st1" d="M47,41.8c-2.4,1.1-3.4,3.8-2.3,6.2c1.1,2.4,3.8,3.4,6.2,2.3c2.4-1.1,3.4-3.8,2.3-6.2
			C52.1,41.7,49.4,40.7,47,41.8z M48.3,45.4c0.1,0.1,0.3,0.1,0.6,0.2c0.6,0,1,0,1.3,0.2c0.3,0.1,0.6,0.4,0.8,0.8
			c0.2,0.4,0.2,0.8,0.1,1.1c-0.1,0.3-0.3,0.6-0.7,0.8l0.3,0.7l-0.5,0.2l-0.3-0.7c-0.4,0.1-0.8,0.1-1.2,0c-0.3-0.1-0.7-0.4-0.9-1l0,0
			l0.9-0.4c0.1,0.3,0.3,0.5,0.5,0.6c0.2,0.1,0.3,0.1,0.5,0s0.3-0.2,0.3-0.4c0.1-0.1,0-0.3-0.1-0.5c-0.1-0.2-0.2-0.3-0.4-0.4
			c-0.1-0.1-0.3-0.1-0.6-0.1c-0.6,0-1,0-1.3-0.1c-0.3-0.1-0.6-0.4-0.8-0.8c-0.2-0.4-0.2-0.8-0.1-1.1c0.1-0.3,0.3-0.6,0.7-0.8
			l-0.3-0.7l0.5-0.2l0.3,0.8c0.4-0.1,0.8-0.1,1.1,0.1c0.3,0.2,0.6,0.5,0.8,0.9l-1,0.5c-0.1-0.2-0.3-0.5-0.4-0.6
			c-0.2-0.1-0.3-0.1-0.5,0c-0.1,0.1-0.3,0.2-0.2,0.3c0,0.1,0,0.3,0.1,0.5C48.1,45.2,48.2,45.3,48.3,45.4z"/>
	</g>
</g>
</svg>
