<?xml version="1.0" encoding="utf-8"?>
<!-- Generator: Adobe Illustrator 26.0.1, SVG Export Plug-In . SVG Version: 6.00 Build 0)  -->
<svg version="1.1" id="Layer_1" xmlns="http://www.w3.org/2000/svg" xmlns:xlink="http://www.w3.org/1999/xlink" x="0px" y="0px"
	 viewBox="0 0 123 122" style="enable-background:new 0 0 123 122;" xml:space="preserve">
<style type="text/css">
	.st0{fill:#0A83C6;}
	.st1{fill:none;stroke:#0A83C6;stroke-miterlimit:10;}
</style>
<path d="M96.3,28.5v-1.7c0-3.1-2.1-5.2-5.2-5.2H12.8c-3.2,0-5.2,2.1-5.2,5.3c0,18,0,35.9,0,53.9c0,3.2,2.1,5.3,5.3,5.3
	c8.7,0,17.4,0,26,0H40c-0.7,2.5-1.4,4.8-2.1,7.2c-2,0-4,0-6,0c-1,0-1.5,0.5-1.5,1.5c0,1.4,0,2.7,0,4.1c0,1,0.5,1.5,1.6,1.5
	c13.3,0,26.5,0,39.8,0c1.1,0,1.6-0.5,1.6-1.6c0-1.3,0-2.5,0-3.8c0-1.3-0.5-1.8-1.8-1.8c-1.9,0-3.8,0-5.7,0c-0.7-2.4-1.4-4.7-2-7.2
	H65c8.7,0,17.4,0,26,0c3.1,0,5.2-2.1,5.2-5.2v-8.1l-2.9,0.1v1.7h-83v-1c0-15.4,0-30.8,0-46.3c0-2.1,0.8-2.8,2.9-2.8h77.3
	c2.1,0,2.9,0.8,2.9,2.8v1.2H96.3z M70.5,96.1v1.3H33.4v-1.3H70.5z M41,93.1c0.7-2.4,1.3-4.7,2-7.1h17.8c0.7,2.3,1.3,4.7,2,7.1H41z
	 M93.4,77.5c0,1.3,0.1,2.6,0,3.9c-0.1,1-0.9,1.7-2,1.8c-0.3,0-0.6,0-0.9,0H13.4c-2.3,0-3-0.7-3-3c0-0.9,0-1.7,0-2.7H93.4z"/>
<g>
	<path class="st0" d="M114.4,38.2c-6.1-0.6-7.9-4.1-8-4.2c-0.2-0.4-0.6-0.7-1-0.7c-0.5,0-0.9,0.2-1.1,0.7c0,0-1.7,3.6-8,4.2
		c-0.6,0-1,0.6-1,1.2v6.4c0,1.9,0.6,3.6,1.4,5.1c0.7,0,1.3,0,1.8,0c2.2,0,4,1.8,4,4c0,0.7-0.1,1.2-0.4,1.8c1.4,1,2.6,1.6,2.7,1.7
		c0.2,0.1,0.3,0.1,0.5,0.1c0.2,0,0.4,0,0.5-0.1c0.4-0.2,9.5-5,9.5-12.7v-6.4C115.4,38.8,114.9,38.3,114.4,38.2z M110,44.1l-5.1,5.2
		c-0.2,0.2-0.5,0.3-0.8,0.3s-0.6-0.1-0.8-0.3l-2.6-2.6c-0.5-0.5-0.5-1.2,0-1.7s1.2-0.5,1.7,0l1.7,1.7l4.3-4.3c0.5-0.5,1.2-0.5,1.7,0
		C110.5,42.9,110.5,43.6,110,44.1z"/>
	<path class="st0" d="M100.2,54.9c0-0.9-0.7-1.7-1.7-1.7s-5.5,0-6.5,0c-0.5,0-0.9-0.5-0.7-1c0.5-1.5,1.4-4.2,1.5-5
		c0.4-2.1-2.8-2.7-3.5-1.1c-0.6,1.5-3,6.2-5.8,7.9c-0.3,0.2-0.5,0.6-0.5,1v9.5c0,0.5,2.2,2.2,5.4,2.2h7.2h1.7c0.9,0,1.7-0.7,1.7-1.7
		c0-0.8-0.5-1.4-1.2-1.6c0,0,0,0,0,0c0.9,0,1.7-0.7,1.7-1.7c0-0.8-0.5-1.5-1.2-1.6c0,0,0,0,0,0c0.9,0,1.7-0.7,1.7-1.7
		c0-0.8-0.5-1.5-1.2-1.6c0,0,0,0,0,0C99.4,56.6,100.2,55.9,100.2,54.9z"/>
	<path class="st0" d="M79.6,53.8h-2.7c-0.6,0-1,0.5-1,1v10c0,0.6,0.5,1,1,1h2.7c0.6,0,1-0.5,1-1v-10C80.6,54.3,80.2,53.8,79.6,53.8z
		"/>
</g>
<path class="st0" d="M66.8,55.9H31c-0.8,0-1.5-0.7-1.5-1.5v0c0-0.8,0.7-1.5,1.5-1.5h35.9c0.8,0,1.5,0.7,1.5,1.5v0
	C68.4,55.2,67.7,55.9,66.8,55.9z"/>
<path class="st0" d="M64.6,64.2H34.4c-0.8,0-1.5-0.7-1.5-1.5v0c0-0.8,0.7-1.5,1.5-1.5h30.2c0.8,0,1.5,0.7,1.5,1.5v0
	C66.1,63.5,65.4,64.2,64.6,64.2z"/>
<path class="st0" d="M23.2,64.1h-5.1c-0.8,0-1.5-0.7-1.5-1.5v0c0-0.8,0.7-1.5,1.5-1.5h5.1c0.8,0,1.5,0.7,1.5,1.5v0
	C24.8,63.4,24.1,64.1,23.2,64.1z"/>
<path class="st0" d="M20.9,72.1h-5.1c-0.8,0-1.5-0.7-1.5-1.5l0,0c0-0.8,0.7-1.5,1.5-1.5h5.1c0.8,0,1.5,0.7,1.5,1.5l0,0
	C22.4,71.4,21.7,72.1,20.9,72.1z"/>
<path class="st0" d="M20.9,55.8h-5.1c-0.8,0-1.5-0.7-1.5-1.5v0c0-0.8,0.7-1.5,1.5-1.5h5.1c0.8,0,1.5,0.7,1.5,1.5v0
	C22.4,55.1,21.7,55.8,20.9,55.8z"/>
<path class="st0" d="M59,72.2H30.7c-0.8,0-1.5-0.7-1.5-1.5l0,0c0-0.8,0.7-1.5,1.5-1.5H59c0.8,0,1.5,0.7,1.5,1.5l0,0
	C60.5,71.5,59.9,72.2,59,72.2z"/>
<g>
	<path class="st1" d="M45.5,45.1c0.4,0.4,1,0.7,1.6,0.7s1.2-0.2,1.6-0.7c0.9-0.9,0.9-2.3,0-3.2L45.7,39l2.9-2.9
		c0.9-0.9,0.9-2.3,0-3.2c-0.9-0.9-2.3-0.9-3.2,0L41,37.4c-0.9,0.9-0.9,2.3,0,3.2L45.5,45.1z"/>
	<path class="st1" d="M55.2,45.1c0.4,0.4,1,0.7,1.6,0.7s1.2-0.2,1.6-0.7l4.5-4.5c0.9-0.9,0.9-2.3,0-3.2l-4.5-4.5
		c-0.9-0.9-2.3-0.9-3.2,0c-0.9,0.9-0.9,2.3,0,3.2l2.9,2.9l-2.9,2.9C54.3,42.8,54.3,44.2,55.2,45.1z"/>
	<line class="st1" x1="52.6" y1="36.8" x2="51.3" y2="41.2"/>
</g>
</svg>
