<?xml version="1.0" encoding="utf-8"?>
<!-- Generator: Adobe Illustrator 26.0.1, SVG Export Plug-In . SVG Version: 6.00 Build 0)  -->
<svg version="1.1" id="Layer_1" xmlns="http://www.w3.org/2000/svg" xmlns:xlink="http://www.w3.org/1999/xlink" x="0px" y="0px"
	 viewBox="0 0 123 122" style="enable-background:new 0 0 123 122;" xml:space="preserve">
<style type="text/css">
	.st0{fill:none;stroke:#000000;stroke-width:2;stroke-miterlimit:10;}
	.st1{fill:#0283C6;}
	.st2{fill:#0A83C6;}
	.st3{fill:#0A83C6;stroke:#FFFFFF;stroke-miterlimit:10;}
	.st4{fill:#FFFFFF;}
</style>
<g>
	<path class="st0" d="M5.5,96.5c2-3.5,4-6.8,5.9-10.1c1.2-2.1,2.5-4.1,3.7-6.3c0.5-0.9,1.1-1.2,2.1-1.2c8.7,0,17.4,0,26.1,0
		c20.7,0,41.3,0,62,0c1.5,0,2.2,0.5,2.9,1.7c2.9,5,5.8,10,8.8,14.9c0.2,0.3,0.3,0.5,0.5,0.9C80.1,96.5,42.9,96.5,5.5,96.5z
		 M75.8,94.5c-0.3-1.1-0.5-2.1-0.8-3.1c-0.4-1.3-0.4-3.1-1.3-3.8c-0.8-0.7-2.6-0.2-3.9-0.2c-6.5,0-12.9,0-19.4,0
		c-0.5,0-1.2,0.3-1.3,0.7c-0.7,2.1-1.2,4.2-1.8,6.4C56.8,94.5,66.2,94.5,75.8,94.5z"/>
	<path class="st0" d="M17.7,75.5c0-0.6,0-1,0-1.5c0-16.1,0-32.2,0-48.3c0-3.5,1.7-5.2,5.2-5.2c25.6,0,51.3,0,76.9,0
		c0.4,0,0.9,0,1.3,0c2.4,0.2,4.2,2,4.2,4.4c0,16.7,0,33.3,0,50c0,0.1,0,0.3-0.1,0.5C76.1,75.5,47,75.5,17.7,75.5z M100.4,71
		c0-0.6,0-1.1,0-1.6c0-14.1,0-28.2,0-42.4c0-2,0-2-1.9-2c-24.7,0-49.3,0-74,0c-0.6,0-1.1,0.1-1.7,0.1c0,15.3,0,30.6,0,45.8
		C48.6,71,74.4,71,100.4,71z"/>
	<path class="st0" d="M5.7,99.4c37.3,0,74.3,0,111.5,0c-1.2,1.4-2.5,1.9-4.1,2c-0.7,0.1-1.3,0-2,0c-33.3,0-66.6,0-99.9,0
		C9.2,101.5,7.4,101,5.7,99.4z"/>
</g>
<path class="st1" d="M69.1,59.7c0-0.2-0.1-0.5-0.2-0.6c-0.1-0.2-0.3-0.4-0.5-0.5c-0.2-0.1-0.3-0.2-0.5-0.4c-0.1-0.1-0.2-0.1-0.3-0.2
	c-0.1-0.1-0.2-0.1-0.3-0.2c-0.4,0.2-0.7,0.6-0.9,1.1c-0.1,0.2-0.2,0.5-0.3,0.7c0,0,0,0.1,0,0.1c0,0.2-0.1,0.3-0.2,0.5
	c0,0,0,0.1,0,0.1c0,0.5,0,0.9,0,1.4c0.2,0.1,0.4,0.1,0.8,0.1c0.1,0,0.3,0,0.4-0.1c-0.3-0.2-0.5-0.3-0.8-0.5c0,0-0.1,0-0.1,0
	c0.1-0.5,0.3-0.9,0.4-1.3v0c0.1-0.5,0.3-0.9,0.4-1.4c0.1,0,0.2,0.1,0.3,0.1c0.9,0.4,1.3,1,1.3,2.3c0,0.2,0,0.4,0,0.6
	c0.2,0,0.3,0,0.5,0c0,0,0,0,0.1,0v-0.1c0-0.5,0-0.9,0-1.4C69.1,59.9,69.1,59.8,69.1,59.7z M68.9,62.1c-0.2,0.1-0.4,0.5-0.5,0.9
	c0.4,0,0.7-0.3,0.7-0.8v0C69,62.1,69,62.1,68.9,62.1z M61.3,59.4c-0.2-0.4-0.4-0.8-0.7-1c0.3,0.9,0.5,1.6,0.7,2.4
	c0-0.2,0-0.5,0.1-0.7c0-0.1,0.1-0.1,0.1-0.2C61.5,59.7,61.4,59.6,61.3,59.4z M60.7,61.6c-0.2,0.2-0.5,0.3-0.8,0.5
	c-0.2,0.1-0.5,0.3-0.7,0.5c0-0.2,0-0.4,0-0.6c0-0.2,0-0.4,0-0.6c0,0-0.1,0-0.1,0c-0.1-0.8-0.2-1.5-0.3-2.3c0,0,0,0,0,0.1
	c0,0.1-0.1,0.1-0.1,0.2c-0.1,0.2-0.1,0.5-0.1,0.8c0,0,0,0.1,0,0.1c0,0.2,0,0.4,0,0.7v0.6c0,0.2,0,0.4,0,0.5c0,0,0,0.1,0,0.1
	c0,0.2,0.1,0.4,0.1,0.6c0.1,0.2,0.2,0.3,0.4,0.3h0c0.2,0,0.5,0,0.8-0.2c0.3-0.2,0.6-0.4,0.9-0.5c0.2-0.1,0.4-0.2,0.6-0.4v-0.1
	C61.1,61.6,60.9,61.6,60.7,61.6z M59.9,58.1c-0.1,0.1-0.3,0.2-0.5,0.3c0,0-0.1,0-0.1,0.1c0.2,0.1,0.5,0.1,0.6,0.2
	c0.2-0.1,0.3-0.3,0.5-0.5C60.3,58.2,60.1,58.2,59.9,58.1z"/>
<path class="st2" d="M69.1,61.5c0,0.2,0,0.4,0,0.6c-0.1,0-0.1-0.1-0.2,0c-0.2,0.1-0.4,0.5-0.5,0.9h0c-0.2,0-0.3,0-0.5-0.1
	c0,0-0.1,0-0.1-0.1c-1.7-1.6-3.8-1.2-5.8-1.2c-0.2,0-0.4,0.1-0.6,0.2c0,0,0,0,0,0v-0.1c-0.2,0-0.5-0.1-0.7-0.1
	c0.3-0.2,0.5-0.3,0.8-0.5c0-0.1-0.1-0.2-0.1-0.3c0-0.2,0-0.5,0.1-0.7c0-0.1,0.1-0.1,0.1-0.2c-0.1-0.2-0.2-0.4-0.2-0.6
	c-0.2-0.4-0.4-0.8-0.7-1h0c0,0-0.1,0-0.1-0.1c-0.2-0.1-0.3-0.1-0.6-0.2c0.5-0.4,0.6-1,0.5-1.8c-0.5-3.6,0.7-6.7,2.7-9.6
	c0.5-0.6,0.9-0.6,1.4,0.1c2.2,3.1,3.2,6.5,2.6,10.3c0,0.3,0,0.5,0.1,0.6c-0.4,0.2-0.7,0.6-0.9,1.1c-0.1,0.2-0.2,0.5-0.3,0.7
	c0,0,0,0.1,0,0.1c0.4-1.4,0.6-2.8,0.7-4.3c0.1-3.2-1-5.9-2.9-8.5c-3.3,4.3-3.7,8.9-1.9,13.7c0.1,0.2,0.4,0.4,0.7,0.4
	c0.8,0,1.6,0,2.4,0c0.5,0,0.7-0.2,0.9-0.6c0-0.1,0.1-0.2,0.1-0.3c0,0,0,0.1,0,0.1c0,0.5,0,0.9,0,1.4c0.2,0.1,0.4,0.1,0.8,0.1
	c0.1,0,0.3,0,0.4-0.1c0.5,0.3,0.9,0.6,1.4,0.9c0.1-0.4,0.1-0.8,0.1-1.1C68.7,61.4,68.9,61.4,69.1,61.5
	C69.1,61.4,69.1,61.5,69.1,61.5z"/>
<path class="st1" d="M64,63.9c0,0.4,0,0.8,0,1.3c0,0.1-0.2,0.2-0.2,0.4c-0.1-0.1-0.3-0.2-0.3-0.3c0-0.9,0-1.8,0-2.7
	c0-0.1,0.2-0.2,0.3-0.3c0.1,0.1,0.2,0.2,0.2,0.3C64,63,64,63.5,64,63.9C64,63.9,64,63.9,64,63.9z"/>
<path class="st1" d="M62.4,64.2c-0.3-0.3-0.5-1.7-0.2-2c0.1-0.1,0.4-0.1,0.4,0C62.8,62.5,62.6,63.9,62.4,64.2z"/>
<path class="st1" d="M65.3,63.1c0,0.2,0,0.5,0,0.7c0,0.1-0.2,0.2-0.3,0.3c-0.1-0.1-0.3-0.2-0.3-0.3c0-0.5,0-1,0-1.5
	c0-0.1,0.2-0.2,0.3-0.3c0.1,0.1,0.2,0.2,0.2,0.3C65.3,62.6,65.3,62.9,65.3,63.1C65.3,63.1,65.3,63.1,65.3,63.1z"/>
<path class="st1" d="M63.7,51c-0.9,0-1.7,0.8-1.7,1.7c0,1,0.8,1.7,1.7,1.7c1,0,1.7-0.7,1.7-1.7C65.5,51.7,64.7,50.9,63.7,51z
	 M63.8,53.8c-0.6,0-1.1-0.4-1.2-1.1c0-0.6,0.5-1.2,1.1-1.2c0.6,0,1.2,0.5,1.2,1.2C64.9,53.3,64.4,53.8,63.8,53.8z"/>
<path class="st2" d="M75.6,60.3c-0.2-0.3-0.2-0.6,0-0.9c2-3.3,2.5-6.8,1.7-10.5c-0.2-0.8-0.6-1-1.2-0.6c-3,1.8-5.3,4.2-6.3,7.7
	c-0.3,1-0.8,1.5-1.8,1.6c-0.2,0-0.4,0.1-0.6,0.2c-0.4,0.2-0.7,0.6-0.9,1.1c-0.1,0.2-0.2,0.5-0.3,0.7c0,0,0,0.1,0,0.1
	C66,59.7,66,59.9,65.9,60c0,0,0,0.1,0,0.1c0,0,0,0.1,0,0.1c0,0.5,0,0.9,0,1.4c0.2,0.1,0.4,0.1,0.8,0.1c0.1,0,0.3,0,0.4-0.1
	c-0.3-0.2-0.5-0.3-0.8-0.5c-0.1,0-0.2,0-0.2,0c0.2-0.5,0.4-1,0.6-1.4v0c0.2-0.4,0.4-0.8,0.6-1.2c0,0,0,0,0-0.1
	c0.1-0.2,0.3-0.3,0.6-0.3c0.3-0.1,0.8-0.2,1.2-0.4c-0.1,0.5-0.1,0.9-0.1,1.3c-0.1,0.6-0.1,1.1-0.2,1.7c0,0-0.1,0-0.1,0
	c0,0.2,0,0.4,0,0.6c0.2,0,0.3,0,0.5,0c0,0,0,0,0.1,0c1.8,0.8,3.9,1.2,4.8,3.4c0,0,0,0.1,0.1,0.1c0.4,0.5,1,0.5,1.3-0.2
	c0.3-0.7,0.6-1.3,0.9-2c0.3-0.6,0.2-1.1-0.1-1.6C75.9,60.9,75.7,60.6,75.6,60.3z M73,61.9c-0.3,0.3-0.6,0.4-1,0.2
	c-0.7-0.4-1.5-0.6-2.2-1c-0.2-0.1-0.4-0.4-0.4-0.7c0.3-5.2,2.5-9.2,7.2-11.8c0.7,3.1,0.7,6.1-0.7,9C75.1,59.1,74.2,60.6,73,61.9z
	 M74.6,64.8c-0.5-0.8-1-1.5-1.5-2.2c0.7-0.8,1.2-1.5,1.8-2.1C76,61.6,76,62.6,74.6,64.8z"/>
<path class="st2" d="M69.9,64.4c-0.2,0.4-0.3,0.8-0.5,1.2c-0.1,0.1-0.2,0.2-0.4,0.2c-0.1-0.1-0.2-0.3-0.1-0.4
	c0.3-0.8,0.7-1.7,1.1-2.5c0-0.1,0.3-0.1,0.4-0.1c0,0.1,0.1,0.3,0.1,0.4C70.3,63.6,70.1,64,69.9,64.4C69.9,64.4,69.9,64.4,69.9,64.4z
	"/>
<path class="st2" d="M68.3,64c-0.1-0.2,0-0.6,0.1-1h0c0.1-0.4,0.3-0.8,0.5-0.9c0,0,0.1,0,0.2,0c0.1,0,0.2,0.1,0.2,0.2
	C69.4,62.6,68.7,63.8,68.3,64z"/>
<path class="st2" d="M71.4,64.2c-0.1,0.2-0.2,0.4-0.3,0.6c-0.1,0.1-0.3,0.1-0.4,0.2c0-0.1-0.2-0.3-0.1-0.4c0.2-0.5,0.4-1,0.6-1.4
	c0-0.1,0.3-0.1,0.4-0.1c0,0.1,0.1,0.3,0.1,0.4C71.7,63.7,71.5,64,71.4,64.2C71.4,64.2,71.4,64.2,71.4,64.2z"/>
<path class="st2" d="M74.8,52.4C74,52,73,52.5,72.6,53.3c-0.4,0.9,0,1.9,0.9,2.2c0.9,0.4,1.9,0,2.2-0.9
	C76.2,53.8,75.7,52.7,74.8,52.4z M75.2,54.4C75,55,74.3,55.3,73.8,55c-0.6-0.2-0.8-0.9-0.6-1.4c0.2-0.6,0.9-0.9,1.5-0.7
	C75.2,53.1,75.5,53.9,75.2,54.4z"/>
<path class="st2" d="M60.7,61.6c-0.2,0.2-0.5,0.3-0.8,0.5c0.3,0,0.6,0.1,0.9,0.1c0.2-0.1,0.4-0.2,0.6-0.4v-0.1
	C61.1,61.6,60.9,61.6,60.7,61.6z M61.3,59.4c-0.2-0.4-0.4-0.8-0.7-1h0c0,0-0.1,0-0.1-0.1c-0.2-0.1-0.3-0.1-0.6-0.2c0,0,0,0,0,0
	c-1-0.1-1.5-0.6-1.8-1.6c-1-3.5-3.3-5.9-6.3-7.7c-0.7-0.4-1.1-0.2-1.2,0.6c-0.8,3.7-0.4,7.2,1.7,10.5c0.2,0.4,0.2,0.6,0,0.9
	c-0.2,0.3-0.3,0.6-0.5,0.8c-0.3,0.5-0.4,1-0.1,1.6c0.3,0.7,0.6,1.3,0.9,2c0.3,0.6,0.9,0.7,1.3,0.2c0,0,0.1-0.1,0.1-0.1
	c0.9-2.1,2.9-2.6,4.7-3.3c0,0,0.1,0,0.1-0.1c0.1-0.1,0.3-0.1,0.4,0c0-0.2,0-0.4,0-0.6c0,0-0.1,0-0.1,0c-0.1-0.8-0.2-1.5-0.3-2.3
	c0-0.2-0.1-0.5-0.1-0.7c0.2,0.1,0.4,0.1,0.6,0.2c0.2,0.1,0.5,0.1,0.6,0.2c0.2,0.1,0.4,0.2,0.6,0.4c0.4,0.5,0.6,1.1,0.8,1.8
	c0,0,0-0.1,0-0.1c0-0.2,0-0.5,0.1-0.7c0-0.1,0.1-0.1,0.1-0.2C61.5,59.7,61.4,59.6,61.3,59.4z M53.2,65.4c-1.4-2.3-1.4-3.2-0.3-4.3
	c0.6,0.7,1.1,1.4,1.8,2.1C54.2,63.9,53.7,64.6,53.2,65.4z M58,61.7c-0.7,0.4-1.5,0.6-2.2,1c-0.4,0.2-0.7,0.1-1-0.2
	c-1.2-1.3-2.1-2.7-2.9-4.3c-1.4-2.9-1.4-5.8-0.7-8.9c4.7,2.6,6.9,6.7,7.2,11.8C58.4,61.2,58.2,61.6,58,61.7z"/>
<path class="st2" d="M57.8,65c0.2,0.4,0.3,0.8,0.5,1.2c0.1,0.1,0.2,0.2,0.4,0.2c0.1-0.1,0.2-0.3,0.1-0.4c-0.3-0.8-0.7-1.7-1.1-2.5
	c0-0.1-0.3-0.1-0.4-0.1c0,0.1-0.1,0.3-0.1,0.4C57.4,64.1,57.6,64.5,57.8,65C57.8,65,57.8,65,57.8,65z"/>
<path class="st2" d="M59.4,64.5c0.2-0.4-0.2-1.8-0.6-1.9c-0.1,0-0.3,0.1-0.4,0.2C58.4,63.1,59.1,64.4,59.4,64.5z"/>
<path class="st2" d="M56.3,64.7c0.1,0.2,0.2,0.4,0.3,0.6c0.1,0.1,0.3,0.1,0.4,0.2c0-0.1,0.2-0.3,0.1-0.4c-0.2-0.5-0.4-1-0.6-1.4
	c0-0.1-0.3-0.1-0.4-0.1c0,0.1-0.1,0.3-0.1,0.4C56.1,64.3,56.2,64.5,56.3,64.7C56.3,64.7,56.3,64.7,56.3,64.7z"/>
<path class="st2" d="M55.2,53.9c-0.3-0.9-1.4-1.3-2.2-0.9c-0.9,0.4-1.3,1.4-0.9,2.3c0.4,0.9,1.4,1.2,2.2,0.9
	C55.1,55.7,55.5,54.8,55.2,53.9z M54,55.6c-0.6,0.2-1.2,0-1.5-0.6c-0.3-0.6,0-1.3,0.6-1.5c0.6-0.2,1.3,0.1,1.5,0.7
	C54.8,54.7,54.6,55.3,54,55.6z"/>
<g>
	<path class="st2" d="M71.4,39.8c-0.2,0.5-0.7,0.8-1.1,0.9c-0.7,0.3-1.5,0.4-2.3,0.5c-0.7,0.1-1.5,0.1-2.2,0.1c0,0-0.1,0-0.1,0
		c0,0.1,0,0.1,0,0.2c0,0.4,0,0.9,0,1.3c0,0.4-0.2,0.7-0.5,0.9c-0.5,0.4-1.1,0.5-1.7,0.6c-1.5,0.3-2.9,0.3-4.4,0.2
		c-0.8-0.1-1.6-0.2-2.3-0.4c-0.4-0.1-0.7-0.3-1.1-0.5c-0.2-0.2-0.3-0.4-0.3-0.7c0-2.8,0-5.6,0-8.4c0-0.5,0.2-0.8,0.6-1
		c0.6-0.3,1.2-0.5,1.9-0.6c1-0.2,2-0.2,3.1-0.2c0.1,0,0.1,0,0.2,0c0-0.1,0-0.1,0-0.2c0-0.4,0-0.9,0-1.3c0-0.5,0.2-0.8,0.6-1.1
		c0.5-0.3,1.1-0.5,1.7-0.6c0.7-0.1,1.4-0.2,2.1-0.3c0,0,0.1,0,0.1,0c0.1,0,0.2,0.1,0.2,0.2c0,0.1-0.1,0.2-0.2,0.2
		c-0.3,0-0.6,0-0.9,0.1c-0.9,0.1-1.7,0.2-2.5,0.5c-0.1,0.1-0.3,0.1-0.4,0.2c-0.4,0.3-0.4,0.5,0,0.8c0.2,0.1,0.4,0.2,0.6,0.3
		c0.8,0.3,1.6,0.4,2.4,0.5c0.8,0,1.6,0.1,2.4,0c1,0,2-0.2,2.9-0.5c0.2-0.1,0.4-0.2,0.6-0.3c0.3-0.2,0.3-0.5,0-0.7
		c-0.3-0.2-0.6-0.3-0.9-0.4c-0.8-0.3-1.7-0.4-2.5-0.4c-0.2,0-0.3,0-0.5,0c-0.1,0-0.2-0.1-0.2-0.2c0-0.1,0.1-0.2,0.3-0.2
		c1.3,0.1,2.5,0.2,3.7,0.7c0.2,0.1,0.3,0.2,0.5,0.3c0.2,0.1,0.3,0.3,0.4,0.6c0,1.5,0,3,0,4.6c-0.1,0.1-0.2,0.2-0.3,0.1
		c-0.1-0.1-0.2-0.2-0.2-0.3c0-0.2,0-0.4,0-0.6c-1.7,0.9-3.5,0.9-5.3,0.9c0,0.8,0,1.6,0,2.4c0,0,0.1,0,0.1,0c0.9,0,1.9,0,2.8-0.2
		c0.7-0.1,1.3-0.2,1.9-0.5c0.3-0.2,0.5-0.4,0.5-0.8c0-0.1,0-0.3,0.2-0.3c0.1-0.1,0.2,0,0.3,0.1C71.4,37.5,71.4,38.6,71.4,39.8z
		 M55.7,35c0,0.1,0,0.1,0,0.2c0,0.6,0,1.2,0,1.8c0,0.3,0.1,0.5,0.4,0.6c0.4,0.2,0.8,0.4,1.2,0.5c1,0.2,2,0.3,3,0.3
		c1.2,0,2.3-0.1,3.4-0.4c0.4-0.1,0.8-0.2,1.1-0.5c0.1-0.1,0.2-0.2,0.2-0.4c0-0.6,0-1.2,0-1.9c0-0.1,0-0.1,0-0.2
		c-0.6,0.4-1.3,0.6-2,0.7c-1.7,0.3-3.3,0.3-5,0.1C57.4,35.7,56.5,35.5,55.7,35z M55.7,37.9c0,0.1,0,0.1,0,0.2c0,0.6,0,1.2,0,1.8
		c0,0.3,0.1,0.5,0.3,0.6c0.3,0.2,0.7,0.3,1.1,0.4c0.9,0.3,1.8,0.3,2.7,0.4c1.3,0,2.7,0,4-0.4c0.4-0.1,0.8-0.2,1.2-0.5
		c0.1-0.1,0.2-0.2,0.2-0.4c0-0.6,0-1.2,0-1.9c0-0.1,0-0.1,0-0.2c-0.1,0-0.1,0-0.1,0.1c0,0-0.1,0-0.1,0.1c-0.7,0.4-1.5,0.5-2.3,0.6
		c-1.5,0.2-3,0.2-4.5,0C57.3,38.6,56.5,38.4,55.7,37.9z M55.7,40.9c0,0.7,0,1.4,0,2.1c0,0.2,0.1,0.3,0.2,0.4
		c0.2,0.1,0.4,0.2,0.6,0.3c0.6,0.3,1.3,0.4,2,0.5c0.9,0.1,1.8,0.1,2.6,0.1c0.9,0,1.8-0.1,2.7-0.4c0.4-0.1,0.8-0.2,1.1-0.5
		c0.1-0.1,0.2-0.2,0.2-0.4c0-0.6,0-1.3,0-1.9c0,0,0-0.1,0-0.2C65,41,64.8,41,64.7,41.1c-0.9,0.4-1.8,0.5-2.8,0.6
		c-1.1,0.1-2.1,0.1-3.2,0C57.7,41.6,56.7,41.4,55.7,40.9z M60.4,35.5c0.6,0,1.1-0.1,1.7-0.1c0.8-0.1,1.5-0.2,2.3-0.5
		c0.2-0.1,0.5-0.2,0.7-0.4c0.2-0.1,0.2-0.3,0-0.4c-0.1-0.1-0.3-0.2-0.4-0.3c-0.7-0.4-1.5-0.5-2.3-0.6c-1.1-0.1-2.1-0.1-3.2-0.1
		c-0.8,0.1-1.6,0.2-2.4,0.4c-0.3,0.1-0.7,0.2-0.9,0.5c-0.2,0.2-0.1,0.3,0,0.4c0.1,0.1,0.1,0.1,0.2,0.1c0.3,0.2,0.7,0.3,1,0.4
		C58.2,35.4,59.3,35.5,60.4,35.5z M61.5,32.6c0.1,0,0.1,0,0.2,0c0.7,0.1,1.3,0.2,2,0.3c0.5,0.1,1,0.3,1.4,0.5c0.4,0.2,0.6,0.5,0.6,1
		c0,0.2,0,0.4,0,0.6c0.1,0,0.1,0,0.2,0c0.6,0,1.1,0,1.7-0.1c0.8-0.1,1.6-0.2,2.3-0.4c0.3-0.1,0.6-0.3,0.9-0.4
		c0.1-0.1,0.2-0.2,0.2-0.3c0-0.7,0-1.3,0-2c0,0,0,0,0-0.1c-0.2,0.1-0.3,0.2-0.5,0.2c-0.9,0.4-1.8,0.5-2.8,0.6
		c-1.1,0.1-2.2,0.1-3.3,0c-0.8-0.1-1.7-0.2-2.5-0.6c-0.1-0.1-0.3-0.1-0.4-0.2C61.5,32,61.5,32.3,61.5,32.6z M65.6,40.9
		c0.1,0,0.1,0,0.1,0c0.6,0,1.2,0,1.8-0.1c0.8-0.1,1.6-0.2,2.4-0.5c0.3-0.1,0.5-0.2,0.7-0.4c0.1-0.1,0.2-0.2,0.2-0.4
		c0-0.6,0-1.2,0-1.9c0-0.1,0-0.1,0-0.2c-1.7,0.8-3.5,0.9-5.3,0.9C65.6,39.2,65.6,40,65.6,40.9z"/>
</g>
<circle class="st3" cx="69.3" cy="43" r="4.3"/>
<g>
	<path class="st4" d="M70.9,44.2C70.9,44.2,70.9,44.2,70.9,44.2c0.3,0,0.5,0,0.6,0c0,0,0.1,0,0.1,0c0,0,0,0.1,0,0.1
		c-0.5,0.6-0.9,1.1-1.4,1.7c-0.1,0.1-0.1,0.1-0.2,0c-0.4-0.6-0.9-1.1-1.3-1.7c0,0,0,0,0,0c0,0,0-0.1,0-0.1c0,0,0,0,0.1,0
		c0.2,0,0.4,0,0.6,0c0,0,0,0,0.1,0c0,0,0,0,0-0.1c0-0.7,0-1.3,0-2c0-0.1,0-0.1,0.1-0.1c0.4,0,0.8,0,1.2,0c0.1,0,0.1,0,0.1,0.1
		C70.9,42.8,70.9,43.5,70.9,44.2C70.9,44.2,70.9,44.2,70.9,44.2z"/>
	<path class="st4" d="M67.7,41.9C67.7,41.9,67.7,41.9,67.7,41.9c-0.3,0-0.5,0-0.6,0c0,0-0.1,0-0.1,0c0,0,0-0.1,0-0.1
		c0.5-0.6,0.9-1.1,1.4-1.7c0.1-0.1,0.1-0.1,0.2,0c0.5,0.6,0.9,1.1,1.4,1.7c0,0,0,0,0,0c0,0,0,0.1,0,0.1c0,0,0,0-0.1,0
		c-0.2,0-0.4,0-0.6,0c0,0,0,0-0.1,0c0,0,0,0,0,0.1c0,0.7,0,1.3,0,2c0,0.1,0,0.1-0.1,0.1c-0.4,0-0.8,0-1.2,0c-0.1,0-0.1,0-0.1-0.1
		C67.7,43.3,67.7,42.6,67.7,41.9C67.7,41.9,67.7,41.9,67.7,41.9z"/>
</g>
</svg>
