<?xml version="1.0" encoding="utf-8"?>
<!-- Generator: Adobe Illustrator 26.0.1, SVG Export Plug-In . SVG Version: 6.00 Build 0)  -->
<svg version="1.1" id="Layer_1" xmlns="http://www.w3.org/2000/svg" xmlns:xlink="http://www.w3.org/1999/xlink" x="0px" y="0px"
	 viewBox="0 0 123 122" style="enable-background:new 0 0 123 122;" xml:space="preserve">
<style type="text/css">
	.st0{fill:none;stroke:#000000;stroke-width:3;stroke-miterlimit:10;}
	.st1{fill:#0A83C6;}
</style>
<g>
	<g>
		<circle cx="23.6" cy="33.6" r="6.6"/>
	</g>
	<g>
		<path class="st0" d="M53.1,90.1l-4.4-19.4c-0.1-0.4-0.3-0.8-0.5-1.1c-0.7-1.4-2.2-2.4-3.9-2.4H31V50.3c0-3.4-2.7-6.1-6.1-6.1h-0.9
			c-3.4,0-6.1,2.7-6.1,6.1v18.5c0,4.4,3.5,7.9,7.9,7.9h0.3H31h11.1l4.1,15.3c0.5,1.9,2,3.1,3.9,2.6l0.7-0.2
			C52.8,93.9,53.6,92,53.1,90.1z"/>
	</g>
	<g>
		<path class="st1" d="M33.2,86.4c-8.4,0-15-2.4-19.6-7.3c-9-9.5-6.9-24.5-6.8-25.2c0.2-1.5,1.7-2.6,3.2-2.4
			c1.5,0.2,2.6,1.7,2.4,3.2l0,0c0,0.1-1.8,13,5.3,20.5c4.2,4.4,10.9,6.2,19.8,5.3c1.5-0.2,2.9,1,3.1,2.5c0.2,1.5-1,2.9-2.5,3.1
			C36.4,86.3,34.8,86.4,33.2,86.4z"/>
	</g>
	<g>
		<circle cx="99.4" cy="34.4" r="6.6"/>
	</g>
	<g>
		<path class="st0" d="M69.9,90.9l4.4-19.4c0.1-0.4,0.3-0.8,0.5-1.1c0.7-1.4,2.2-2.4,3.9-2.4H92V51.1c0-3.4,2.7-6.1,6.1-6.1h0.9
			c3.4,0,6.1,2.7,6.1,6.1v18.5c0,4.4-3.5,7.9-7.9,7.9h-0.3H92H80.8l-4.1,15.3c-0.5,1.9-2,3.1-3.9,2.6l-0.7-0.2
			C70.2,94.7,69.4,92.8,69.9,90.9z"/>
	</g>
	<g>
		<path class="st1" d="M89.8,87.2c-1.6,0-3.2-0.1-4.9-0.3c-1.5-0.2-2.7-1.5-2.5-3.1s1.5-2.7,3.1-2.5c8.9,0.9,15.6-0.9,19.8-5.3
			c7.1-7.5,5.4-20.4,5.3-20.5c-0.2-1.5,0.8-3,2.4-3.2c1.5-0.2,3,0.8,3.2,2.4c0.1,0.6,2.2,15.7-6.8,25.2
			C104.7,84.8,98.2,87.2,89.8,87.2z"/>
	</g>
	<g>
		<path class="st0" d="M82.3,52.3H41.1c-2.5,0-4.6,2.1-4.6,4.6c0,2.5,2.1,4.6,4.6,4.6h16v31.1c0,1.1,0.9,2,2,2h5.3c1.1,0,2-0.9,2-2
			V61.5h15.9c2.5,0,4.6-2.1,4.6-4.6C86.9,54.4,84.9,52.3,82.3,52.3z"/>
	</g>
	<path class="st1" d="M57.6,33.1"/>
	<path class="st1" d="M40.1,48.6c1.7,0,3.2-1.4,3.2-3.2c0-0.3-0.1-0.6-0.2-0.9c4-3.3,11.2-9,14.5-11.5c0.5,0.4,1.1,0.6,1.8,0.6
		c0.6,0,1.1-0.2,1.5-0.4c2.1,1.8,5.7,4.8,8.2,7c0,0.2-0.1,0.3-0.1,0.5c0,1.7,1.4,3.2,3.2,3.2c1.7,0,3.2-1.4,3.2-3.2
		c0-0.3-0.1-0.6-0.2-0.9l8.2-7.4c0.4,0.2,0.9,0.4,1.4,0.4c1.7,0,3.2-1.4,3.2-3.2c0-1.7-1.4-3.2-3.2-3.2c-1.7,0-3.2,1.4-3.2,3.2
		c0,0.4,0.1,0.8,0.2,1.2c-2.3,2.1-5.8,5.2-8,7.2c-0.5-0.3-1-0.6-1.7-0.6c-0.7,0-1.4,0.3-1.9,0.7c-2.1-1.8-5.5-4.7-7.9-6.7
		c0.1-0.3,0.2-0.7,0.2-1.1c0-1.7-1.4-3.2-3.2-3.2c-1.7,0-3.2,1.4-3.2,3.2c0,0.4,0.1,0.7,0.2,1.1L41.9,42.9c-0.5-0.3-1.1-0.6-1.7-0.6
		c-1.7,0-3.2,1.4-3.2,3.2C37,47.2,38.4,48.6,40.1,48.6z"/>
</g>
</svg>
