<?xml version="1.0" encoding="utf-8"?>
<svg width="29" height="32" viewBox="0 0 29 32" fill="none" xmlns="http://www.w3.org/2000/svg"
    class="h-6 md:h-8 text-sky-700 inline-block">
    <mask id="mask0_875_42" maskUnits="userSpaceOnUse" x="12" y="15" width="5" height="4">
        <path d="M16.2069 18.5535H12.6445L12.6823 15.7615H16.2447L16.2069 18.5535Z" fill="white">
        </path>
    </mask>
    <g mask="url(#mask0_875_42)">
        <path
            d="M7.22392 18.6072C7.22392 18.4765 7.22392 18.3757 7.22392 18.2745C7.22392 16.2163 7.22392 14.1581 7.22392 12.0994C7.22392 11.655 7.32004 11.53 7.75203 11.4059C8.70231 11.1331 9.65208 10.8556 10.605 10.5921C10.7884 10.5414 10.8483 10.4634 10.8458 10.2727C10.8349 9.48936 10.8401 8.70546 10.8416 7.92157C10.8427 7.47924 11.0292 7.29115 11.4695 7.29063C13.4419 7.2896 15.4137 7.2896 17.3861 7.29063C17.8419 7.29063 18.0243 7.47614 18.0248 7.93656C18.0264 8.72045 18.0321 9.50383 18.0202 10.2877C18.0176 10.4737 18.0884 10.5399 18.2537 10.5864C19.2226 10.8572 20.19 11.1357 21.1563 11.4152C21.534 11.5243 21.642 11.6716 21.642 12.0658C21.6425 14.1328 21.6425 16.1997 21.6425 18.2667C21.6425 18.3685 21.6425 18.4703 21.6425 18.6072C21.7639 18.6072 21.8637 18.6072 21.9634 18.6072C23.5307 18.6072 25.098 18.6067 26.6657 18.6078C27.1535 18.6083 27.3551 18.7922 27.3184 19.2836C27.2626 20.0376 27.1815 20.7905 27.0853 21.5408C27.0404 21.8927 26.8533 22.0229 26.5004 22.0275C26.2679 22.0306 26.0353 22.0244 25.8028 22.0301C25.4855 22.0384 25.27 22.195 25.1491 22.489C24.8938 23.1091 24.637 23.7281 24.3776 24.3467C24.2536 24.6422 24.3068 24.9032 24.5239 25.1316C24.684 25.3 24.8541 25.4592 25.0148 25.6266C25.2576 25.8793 25.2798 26.1056 25.0861 26.3904C24.1699 27.737 23.0382 28.8697 21.6947 29.7895C21.381 30.0045 21.1656 29.9827 20.8907 29.7151C20.7305 29.559 20.5765 29.3957 20.4137 29.2423C20.176 29.0185 19.9083 28.9767 19.6045 29.1064C19.0035 29.3621 18.3995 29.6107 17.7949 29.8577C17.4735 29.9889 17.319 30.1987 17.3128 30.547C17.3086 30.7796 17.3153 31.0121 17.3102 31.2446C17.3029 31.565 17.1644 31.7381 16.8482 31.8022C15.3894 32.0988 13.925 32.1184 12.4564 31.8833C12.3035 31.859 12.1505 31.8327 11.9996 31.7986C11.702 31.7314 11.5635 31.5614 11.5558 31.2524C11.5501 31.0198 11.5568 30.7873 11.5532 30.5548C11.5475 30.2039 11.3956 29.9905 11.0778 29.8603C10.4732 29.6128 9.86911 29.3642 9.26711 29.1105C8.94467 28.9751 8.69405 29.0113 8.43826 29.2552C8.2698 29.4154 8.11116 29.5859 7.94271 29.7456C7.70191 29.9734 7.47041 29.9926 7.1986 29.8076C5.84474 28.8862 4.70585 27.7494 3.78347 26.3961C3.58659 26.1072 3.60416 25.8834 3.84496 25.6323C4.00567 25.4644 4.17516 25.3047 4.33586 25.1368C4.56943 24.8918 4.60663 24.6205 4.47021 24.3058C4.21391 23.7147 3.97156 23.1168 3.72818 22.52C3.59227 22.1867 3.38403 22.0348 3.01869 22.0286C2.79494 22.025 2.57068 22.0306 2.34693 22.0265C2.0219 22.0208 1.82606 21.888 1.7873 21.5728C1.69015 20.7708 1.60696 19.9668 1.5465 19.1617C1.51963 18.8062 1.75681 18.6083 2.14023 18.6078C3.73334 18.6057 5.32645 18.6067 6.92008 18.6067C7.00689 18.6072 7.09267 18.6072 7.22392 18.6072ZM7.47712 28.7353C7.54998 28.6692 7.60218 28.6248 7.65075 28.5772C8.31166 27.9328 8.98445 27.8341 9.82054 28.2217C10.3424 28.4635 10.8788 28.6769 11.4173 28.8795C12.1273 29.1461 12.5768 29.7538 12.5887 30.5109C12.5903 30.6209 12.5887 30.731 12.5887 30.8318C13.3375 31.0364 14.882 31.056 15.9594 30.9072C16.2012 30.8736 16.2881 30.8095 16.2839 30.5475C16.2715 29.7419 16.7268 29.1492 17.4859 28.8671C18.0331 28.6635 18.5726 28.4356 19.1038 28.1922C19.8623 27.845 20.5734 27.9514 21.1702 28.5302C21.2415 28.5994 21.3165 28.6651 21.3924 28.7343C22.3417 28.0424 23.1442 27.2461 23.8495 26.3454C23.9978 26.1563 23.9942 26.0535 23.8206 25.8835C23.2294 25.3042 23.1297 24.5787 23.4738 23.8222C23.7229 23.2749 23.9461 22.7153 24.1652 22.1552C24.3957 21.5651 24.8029 21.1816 25.4199 21.0395C25.6018 20.9977 25.7971 21.0158 25.9826 20.9853C26.0462 20.9749 26.1428 20.9057 26.1506 20.8525C26.2064 20.4628 26.2431 20.0701 26.2885 19.6583C25.0313 19.6583 23.8051 19.6583 22.5597 19.6583C22.4548 21.0369 22.0564 22.3143 21.3196 23.4796C20.5878 24.6371 19.6267 25.5579 18.4367 26.2359C17.2383 26.9185 15.9465 27.2766 14.5683 27.2952C12.7629 27.32 11.115 26.8079 9.66138 25.7362C7.61664 24.2294 6.52374 22.1779 6.29792 19.6624C5.05206 19.6624 3.82636 19.6624 2.57791 19.6624C2.62545 20.112 2.67093 20.5378 2.71898 20.9925C2.86315 20.9925 2.98149 20.9899 3.10034 20.993C3.81964 21.0106 4.42578 21.4503 4.68725 22.1175C4.91978 22.7091 5.16213 23.2977 5.41688 23.88C5.72744 24.5901 5.61376 25.297 5.07687 25.8602C5.00142 25.9393 4.9265 26.0194 4.84589 26.1051C5.59154 27.1293 6.4545 27.9959 7.47712 28.7353ZM7.33812 19.6567C7.58254 22.0213 8.63359 23.8976 10.6406 25.1404C13.1137 26.6725 15.6721 26.689 18.1607 25.1812C20.2055 23.9426 21.2787 22.0508 21.5278 19.6562C16.7841 19.6567 12.0813 19.6567 7.33812 19.6567ZM11.8978 8.33393C11.8978 11.7702 11.8978 15.1818 11.8978 18.5886C12.2425 18.5886 12.5655 18.5886 12.9086 18.5886C12.9086 17.9174 12.906 17.2642 12.9096 16.6116C12.9117 16.2225 13.1101 16.0266 13.5023 16.0246C14.1224 16.021 14.742 16.021 15.3621 16.0246C15.7641 16.0266 15.9558 16.224 15.9579 16.6348C15.9604 17.1945 15.9584 17.7541 15.9589 18.3137C15.9589 18.4047 15.9589 18.4956 15.9589 18.5917C16.3191 18.5917 16.6415 18.5917 16.9707 18.5917C16.9707 15.1647 16.9707 11.7537 16.9707 8.33393C15.2727 8.33393 13.5953 8.33393 11.8978 8.33393ZM20.5878 18.5933C20.5972 18.5432 20.6054 18.5184 20.6054 18.493C20.6065 16.4964 20.6049 14.5002 20.6111 12.5035C20.6116 12.3402 20.5243 12.3025 20.3998 12.2679C19.7626 12.0901 19.126 11.9082 18.4889 11.7294C18.3442 11.6886 18.1979 11.6535 18.0398 11.6121C18.0398 13.9566 18.0398 16.268 18.0398 18.5933C18.8935 18.5933 19.7326 18.5933 20.5878 18.5933ZM10.8292 11.6183C10.7496 11.6343 10.683 11.6431 10.6189 11.6612C9.91614 11.8607 9.21595 12.0689 8.51009 12.257C8.31683 12.3082 8.25327 12.3883 8.2543 12.5898C8.26205 14.5085 8.25895 16.4276 8.25895 18.3463C8.25895 18.4279 8.25895 18.5101 8.25895 18.5907C9.13948 18.5907 9.97866 18.5907 10.8292 18.5907C10.8292 16.2623 10.8292 13.9509 10.8292 11.6183ZM14.9146 17.0813C14.5756 17.0813 14.265 17.0813 13.9612 17.0813C13.9612 17.5986 13.9612 18.0926 13.9612 18.584C14.2909 18.584 14.6019 18.584 14.9146 18.584C14.9146 18.0729 14.9146 17.5851 14.9146 17.0813Z"
            fill="#0284C7">
        </path>
    </g>
    <path
        d="M7.23808 18.5633C7.23808 18.4326 7.23808 18.3318 7.23808 18.2305C7.23808 16.1723 7.23808 14.1142 7.23808 12.0555C7.23808 11.6111 7.3342 11.486 7.76619 11.362C8.71648 11.0892 9.66624 10.8117 10.6191 10.5481C10.8026 10.4975 10.8625 10.4195 10.8599 10.2288C10.8491 9.44541 10.8542 8.66152 10.8558 7.87763C10.8568 7.4353 11.0434 7.2472 11.4836 7.24669C13.456 7.24565 15.4279 7.24565 17.4003 7.24669C17.8561 7.24669 18.0385 7.4322 18.039 7.89261C18.0405 8.67651 18.0462 9.45988 18.0343 10.2438C18.0317 10.4298 18.1025 10.4959 18.2679 10.5425C19.2368 10.8132 20.2041 11.0917 21.1704 11.3713C21.5482 11.4803 21.6562 11.6276 21.6562 12.0219C21.6567 14.0888 21.6567 16.1558 21.6567 18.2228C21.6567 18.3246 21.6567 18.4264 21.6567 18.5633C21.7781 18.5633 21.8778 18.5633 21.9776 18.5633C23.5448 18.5633 25.1121 18.5628 26.6799 18.5638C27.1677 18.5643 27.3692 18.7483 27.3325 19.2397C27.2767 19.9936 27.1956 20.7465 27.0995 21.4968C27.0545 21.8487 26.8675 21.9789 26.5145 21.9836C26.282 21.9867 26.0495 21.9805 25.817 21.9862C25.4997 21.9944 25.2842 22.151 25.1633 22.445C24.908 23.0651 24.6512 23.6842 24.3918 24.3027C24.2678 24.5983 24.321 24.8592 24.538 25.0876C24.6982 25.2561 24.8682 25.4153 25.0289 25.5827C25.2718 25.8354 25.294 26.0617 25.1002 26.3464C24.184 27.693 23.0524 28.8257 21.7089 29.7455C21.3952 29.9605 21.1797 29.9388 20.9048 29.6711C20.7446 29.5151 20.5906 29.3518 20.4279 29.1983C20.1902 28.9746 19.9225 28.9327 19.6187 29.0624C19.0177 29.3182 18.4136 29.5667 17.809 29.8138C17.4876 29.945 17.3331 30.1548 17.3269 30.5031C17.3228 30.7356 17.3295 30.9681 17.3243 31.2007C17.3171 31.5211 17.1786 31.6942 16.8624 31.7582C15.4036 32.0549 13.9392 32.0745 12.4706 31.8394C12.3176 31.8151 12.1647 31.7887 12.0138 31.7546C11.7161 31.6875 11.5777 31.5174 11.5699 31.2084C11.5642 30.9759 11.5709 30.7434 11.5673 30.5108C11.5616 30.16 11.4097 29.9466 11.0919 29.8163C10.4873 29.5688 9.88327 29.3203 9.28127 29.0665C8.95883 28.9312 8.70821 28.9673 8.45242 29.2112C8.28396 29.3714 8.12532 29.5419 7.95687 29.7016C7.71607 29.9295 7.48457 29.9486 7.21276 29.7636C5.8589 28.8423 4.72001 27.7055 3.79763 26.3521C3.60075 26.0633 3.61832 25.8395 3.85912 25.5884C4.01983 25.4204 4.18932 25.2608 4.35002 25.0928C4.58359 24.8479 4.62079 24.5766 4.48437 24.2619C4.22807 23.6707 3.98572 23.0729 3.74234 22.476C3.60643 22.1427 3.39819 21.9908 3.03285 21.9846C2.8091 21.981 2.58484 21.9867 2.36109 21.9826C2.03606 21.9769 1.84022 21.8441 1.80146 21.5289C1.70431 20.7269 1.62112 19.9228 1.56066 19.1178C1.53379 18.7622 1.77097 18.5643 2.15439 18.5638C3.7475 18.5617 5.34061 18.5628 6.93424 18.5628C7.02053 18.5633 7.10631 18.5633 7.23808 18.5633ZM7.49077 28.6914C7.56363 28.6252 7.61582 28.5808 7.66439 28.5333C8.3253 27.8889 8.9981 27.7902 9.83418 28.1778C10.3561 28.4196 10.8925 28.633 11.4309 28.8356C12.1409 29.1022 12.5905 29.7099 12.6024 30.4669C12.6039 30.577 12.6024 30.687 12.6024 30.7878C13.3511 30.9924 14.8957 31.0121 15.9731 30.8632C16.2149 30.8297 16.3017 30.7656 16.2976 30.5036C16.2852 29.698 16.7404 29.1053 17.4995 28.8232C18.0467 28.6196 18.5862 28.3917 19.1174 28.1483C19.876 27.801 20.587 27.9075 21.1839 28.4862C21.2552 28.5555 21.3301 28.6211 21.4061 28.6904C22.3553 27.9984 23.1578 27.2021 23.8632 26.3015C24.0115 26.1123 24.0078 26.0095 23.8342 25.8395C23.2431 25.2602 23.1433 24.5347 23.4875 23.7782C23.7366 23.231 23.9598 22.6714 24.1789 22.1112C24.4094 21.5211 24.8165 21.1377 25.4335 20.9956C25.6154 20.9537 25.8107 20.9718 25.9963 20.9413C26.0598 20.931 26.1564 20.8617 26.1642 20.8085C26.22 20.4189 26.2567 20.0262 26.3022 19.6143C25.0449 19.6143 23.8187 19.6143 22.5734 19.6143C22.4685 20.993 22.0701 22.2704 21.3332 23.4356C20.6015 24.5931 19.6404 25.514 18.4503 26.1919C17.252 26.8745 15.9601 27.2326 14.582 27.2512C12.7765 27.276 11.1286 26.764 9.67503 25.6922C7.63029 24.1854 6.53738 22.134 6.31157 19.6185C5.06571 19.6185 3.84 19.6185 2.59156 19.6185C2.6391 20.068 2.68457 20.4938 2.73263 20.9486C2.8768 20.9486 2.99513 20.946 3.11398 20.9491C3.83328 20.9666 4.43942 21.4064 4.70089 22.0735C4.93342 22.6652 5.17577 23.2537 5.43053 23.8361C5.74109 24.5461 5.6274 25.253 5.09051 25.8162C5.01507 25.8953 4.94014 25.9754 4.85953 26.0612C5.60518 27.0854 6.46814 27.9519 7.49077 28.6914ZM7.35228 19.6128C7.5967 21.9774 8.64775 23.8537 10.6548 25.0964C13.1279 26.6286 15.6863 26.6451 18.1749 25.1373C20.2196 23.8986 21.2929 22.0068 21.542 19.6123C16.7983 19.6128 12.0954 19.6128 7.35228 19.6128ZM15.972 18.5478C16.3322 18.5478 16.6546 18.5478 16.9838 18.5478C16.9838 15.1208 16.9838 11.7098 16.9838 8.28998C15.2863 8.28998 13.6095 8.28998 11.9115 8.28998C11.9115 11.7263 11.9115 15.1378 11.9115 18.5447C12.2561 18.5447 12.5791 18.5447 12.9222 18.5447M20.602 18.5488C20.6113 18.4987 20.6196 18.4739 20.6196 18.4486C20.6206 16.4519 20.6191 14.4557 20.6253 12.459C20.6258 12.2958 20.5385 12.258 20.4139 12.2234C19.7768 12.0456 19.1402 11.8638 18.503 11.685C18.3583 11.6441 18.2121 11.609 18.054 11.5677C18.054 13.9121 18.054 16.2235 18.054 18.5488C18.9076 18.5488 19.7463 18.5488 20.602 18.5488ZM10.8429 11.5744C10.7633 11.5904 10.6966 11.5992 10.6325 11.6173C9.92978 11.8167 9.2296 12.025 8.52373 12.2131C8.33047 12.2642 8.26691 12.3443 8.26794 12.5459C8.2757 14.4645 8.27259 16.3837 8.27259 18.3023C8.27259 18.384 8.27259 18.4661 8.27259 18.5468C9.15312 18.5468 9.99231 18.5468 10.8429 18.5468C10.8429 16.2183 10.8429 13.9069 10.8429 11.5744Z"
        fill="black">
    </path>
    <path
        d="M5.15475 15.9682C4.81628 15.9682 4.49332 15.9682 4.1378 15.9682C4.1378 15.8643 4.1378 15.7729 4.1378 15.6814C4.1378 14.6143 4.1316 13.5473 4.14349 12.4802C4.14555 12.2751 4.07941 12.1722 3.897 12.0906C3.54407 11.9319 3.19889 11.7562 2.85784 11.5733C2.7023 11.4901 2.5943 11.4953 2.44341 11.6048C1.87448 12.0172 1.13606 11.9919 0.595033 11.5671C0.0720923 11.1568 -0.134604 10.4448 0.0896615 9.82622C0.322195 9.18443 0.943316 8.77207 1.63626 8.79998C2.42171 8.8315 3.08985 9.50171 3.09709 10.2923C3.09916 10.4871 3.16271 10.5812 3.33117 10.6613C3.82828 10.8969 4.31711 11.1501 4.81008 11.3945C5.03693 11.5072 5.17335 11.6731 5.17283 11.9392C5.17077 13.247 5.17128 14.5554 5.17025 15.8633C5.17025 15.8881 5.16301 15.9134 5.15475 15.9682ZM1.55927 10.8613C1.83624 10.8571 2.06671 10.6246 2.06774 10.3476C2.06877 10.0619 1.82126 9.82261 1.5355 9.83294C1.26059 9.84276 1.03375 10.0836 1.04046 10.359C1.04718 10.636 1.28436 10.8649 1.55927 10.8613Z"
        fill="#0284C7">
    </path>
    <path
        d="M24.757 15.9661C24.4056 15.9661 24.0826 15.9661 23.7359 15.9661C23.7312 15.8793 23.723 15.7966 23.7224 15.714C23.7214 14.4836 23.7276 13.2532 23.7183 12.0234C23.7157 11.7072 23.8408 11.5093 24.1234 11.3749C24.62 11.1387 25.1057 10.8788 25.6018 10.6401C25.7465 10.5709 25.7946 10.4871 25.7956 10.3259C25.8018 9.44126 26.5382 8.7602 27.4295 8.79947C28.2765 8.83667 28.9379 9.58801 28.8862 10.453C28.8345 11.3129 28.0563 11.9893 27.1923 11.8803C26.9231 11.8462 26.6725 11.6772 26.4079 11.5857C26.3092 11.5516 26.1769 11.5206 26.0922 11.5589C25.7083 11.7315 25.3393 11.9371 24.9574 12.1144C24.8004 12.1872 24.7518 12.2802 24.7533 12.4497C24.7611 13.5251 24.7575 14.6004 24.7575 15.6757C24.757 15.7682 24.757 15.8607 24.757 15.9661ZM27.3525 10.8613C27.628 10.8551 27.8569 10.6179 27.8538 10.3414C27.8507 10.0655 27.6166 9.83346 27.3406 9.83295C27.0539 9.83243 26.8156 10.0794 26.8265 10.3652C26.8373 10.6416 27.0766 10.8675 27.3525 10.8613Z"
        fill="#0284C7">
    </path>
    <path
        d="M9.30338 10.3358C8.94941 10.3358 8.62696 10.3358 8.27145 10.3358C8.27145 10.2319 8.27145 10.1404 8.27145 10.0485C8.27145 9.08473 8.27661 8.12101 8.26473 7.15781C8.26318 7.03741 8.18722 6.90874 8.11953 6.80022C8.06165 6.70773 7.95985 6.64417 7.88751 6.55942C7.61932 6.24369 7.36767 6.05353 6.87263 6.18324C6.23446 6.35066 5.57355 5.89955 5.29864 5.27636C5.02322 4.65265 5.19581 3.9287 5.72754 3.47449C6.22826 3.04662 6.96254 2.9934 7.53354 3.34272C8.10867 3.69462 8.4058 4.3886 8.20944 5.03659C8.13244 5.29031 8.19807 5.4288 8.37324 5.58795C8.628 5.81842 8.8719 6.06335 9.10185 6.31862C9.19434 6.42145 9.29304 6.56769 9.29459 6.69533C9.30958 7.89933 9.30338 9.10282 9.30338 10.3358ZM6.71399 5.17714C6.98993 5.18024 7.22712 4.95288 7.23538 4.67694C7.24417 4.3917 7.00233 4.14625 6.71606 4.14935C6.44012 4.15245 6.20862 4.38653 6.2081 4.66247C6.20759 4.93893 6.43857 5.17404 6.71399 5.17714Z"
        fill="#0284C7"></path>
    <path
        d="M20.6227 10.3357H19.6016C19.5964 10.2417 19.5882 10.158 19.5882 10.0748C19.5871 9.00721 19.5928 7.93911 19.584 6.87152C19.582 6.61832 19.6636 6.42557 19.8445 6.25505C20.1013 6.0127 20.3395 5.75174 20.5979 5.51094C20.7276 5.38951 20.7503 5.28513 20.6971 5.10737C20.5049 4.46661 20.6759 3.90595 21.1838 3.48016C21.6835 3.06108 22.2607 2.9846 22.8498 3.27759C23.4451 3.57369 23.7391 4.07802 23.7174 4.74307C23.6849 5.74089 22.6932 6.43384 21.7187 6.13723C21.5533 6.08711 21.4665 6.12586 21.3347 6.22353C20.7751 6.63692 20.5632 7.15624 20.6015 7.84092C20.6046 7.90087 20.6077 7.96081 20.6077 8.02075C20.6082 8.45636 20.6108 10.3239 20.6227 10.3357ZM22.1693 5.17713C22.4457 5.17868 22.6808 4.94925 22.686 4.67279C22.6912 4.39634 22.4638 4.1576 22.1884 4.14985C21.9011 4.14158 21.6572 4.3798 21.6587 4.66711C21.6603 4.94356 21.8923 5.17558 22.1693 5.17713Z"
        fill="#0284C7"></path>
    <path
        d="M14.9389 6.72116C14.6014 6.72116 14.3017 6.72116 13.9684 6.72116C13.9643 6.63125 13.9565 6.54082 13.9565 6.45091C13.9555 5.39159 13.9519 4.33279 13.9596 3.27347C13.9607 3.09726 13.9121 3.00167 13.7478 2.91692C13.1566 2.61153 12.8326 1.95217 12.9375 1.32175C13.0434 0.686673 13.5571 0.139962 14.1565 0.0252457C14.866 -0.110657 15.6054 0.314103 15.8726 1.01119C16.1336 1.69122 15.8798 2.49268 15.2442 2.85543C14.9983 2.99598 14.9275 3.14584 14.9321 3.41661C14.9492 4.41495 14.9389 5.41433 14.9389 6.41267C14.9389 6.5062 14.9389 6.59973 14.9389 6.72116ZM14.434 2.0767C14.7084 2.06999 14.9358 1.8359 14.9347 1.56151C14.9337 1.27627 14.6893 1.03961 14.4056 1.04942C14.1183 1.05924 13.9452 1.26904 13.9596 1.58993C13.9741 1.89946 14.1534 2.08394 14.434 2.0767Z"
        fill="#0284C7"></path>
    <path
        d="M4.14648 18.0279C4.14648 17.6864 4.14648 17.3696 4.14648 17.0332C4.4834 17.0332 4.81256 17.0332 5.15671 17.0332C5.15671 17.3624 5.15671 17.6848 5.15671 18.0279C4.82651 18.0279 4.49735 18.0279 4.14648 18.0279Z"
        fill="#40B7E6"></path>
    <path
        d="M23.7422 17.0219C24.0838 17.0219 24.4005 17.0219 24.7369 17.0219C24.7369 17.3588 24.7369 17.6879 24.7369 18.0321C24.4077 18.0321 24.0853 18.0321 23.7422 18.0321C23.7422 17.7019 23.7422 17.3732 23.7422 17.0219Z"
        fill="#0284C7"></path>
    <path
        d="M20.6022 18.5488C19.747 18.5488 18.9079 18.5488 18.0542 18.5488C18.0542 16.2235 18.0542 13.9127 18.0542 11.5677C18.2123 11.6085 18.3586 11.6442 18.5032 11.685C19.1404 11.8638 19.7765 12.0457 20.4142 12.2234C20.5387 12.2581 20.6255 12.2958 20.6255 12.4591C20.6198 14.4557 20.6214 16.4519 20.6198 18.4486C20.6198 18.4739 20.611 18.4987 20.6022 18.5488ZM20.0969 12.95C19.5755 12.95 19.0748 12.95 18.5699 12.95C18.5699 13.292 18.5699 13.615 18.5699 13.9462C19.0861 13.9462 19.5868 13.9462 20.0969 13.9462C20.0969 13.6104 20.0969 13.2936 20.0969 12.95ZM18.5751 15.0066C18.5751 15.3409 18.5751 15.6525 18.5751 15.9657C19.0903 15.9657 19.5853 15.9657 20.086 15.9657C20.086 15.638 20.086 15.3265 20.086 15.0066C19.577 15.0066 19.0887 15.0066 18.5751 15.0066Z"
        fill="white"></path>
    <path
        d="M12.9404 9.84381C13.9476 9.84381 14.9412 9.84381 15.9541 9.84381C15.9541 10.174 15.9541 10.497 15.9541 10.8427C14.9593 10.8427 13.9594 10.8427 12.9404 10.8427C12.9404 10.5218 12.9404 10.1988 12.9404 9.84381Z"
        fill="#0284C7"></path>
    <path
        d="M12.9312 12.9096C12.9312 12.5758 12.9312 12.2591 12.9312 11.9196C13.9352 11.9196 14.9356 11.9196 15.9541 11.9196C15.9541 12.241 15.9541 12.5639 15.9541 12.9096C14.9594 12.9096 13.9589 12.9096 12.9312 12.9096Z"
        fill="#0284C7"></path>
    <path
        d="M15.9519 14.9901C14.9385 14.9901 13.9505 14.9901 12.9424 14.9901C12.9424 14.6526 12.9424 14.324 12.9424 13.9793C13.9433 13.9793 14.9375 13.9793 15.9519 13.9793C15.9519 14.3105 15.9519 14.6392 15.9519 14.9901Z"
        fill="#0284C7"></path>
    <path
        d="M20.0968 12.95C20.0968 13.2936 20.0968 13.6103 20.0968 13.9462C19.5868 13.9462 19.0855 13.9462 18.5698 13.9462C18.5698 13.615 18.5698 13.2925 18.5698 12.95C19.0742 12.95 19.5754 12.95 20.0968 12.95Z"
        fill="#0284C7"></path>
    <path
        d="M18.5752 15.0066C19.0888 15.0066 19.5772 15.0066 20.0861 15.0066C20.0861 15.3265 20.0861 15.638 20.0861 15.9657C19.5849 15.9657 19.0904 15.9657 18.5752 15.9657C18.5752 15.6525 18.5752 15.3409 18.5752 15.0066Z"
        fill="#0284C7"></path>
    <path
        d="M8.80225 13.9467C8.80225 13.6139 8.80225 13.291 8.80225 12.9494C9.30865 12.9494 9.80989 12.9494 10.3251 12.9494C10.3251 13.2822 10.3251 13.6051 10.3251 13.9467C9.81867 13.9467 9.31795 13.9467 8.80225 13.9467Z"
        fill="#0284C7"></path>
    <path
        d="M8.79639 15.9594C8.79639 15.6396 8.79639 15.3404 8.79639 15.0195C9.30331 15.0195 9.80455 15.0195 10.3228 15.0195C10.3228 15.3264 10.3228 15.6323 10.3228 15.9594C9.8247 15.9594 9.32398 15.9594 8.79639 15.9594Z"
        fill="#0284C7">
    </path>
</svg>
