<svg width="43" height="43" viewBox="0 0 43 43" fill="none" xmlns="http://www.w3.org/2000/svg"
    class="w-12 text-sky-600 min-w-[48px]">
    <path fill-rule="evenodd" clip-rule="evenodd"
        d="M30.4165 1.91089C30.4165 1.49668 30.7523 1.16089 31.1665 1.16089H33.0853C33.4995 1.16089 33.8353 1.49668 33.8353 1.91089C33.8353 2.3251 33.4995 2.66089 33.0853 2.66089H32.8759V5.49905C34.077 5.63785 35.2163 6.10764 36.1645 6.85556L38.1832 4.84649L38.0399 4.70386C37.7463 4.41167 37.7452 3.93679 38.0373 3.6432C38.3295 3.34961 38.8044 3.34848 39.098 3.64067L39.7746 4.31404L39.778 4.31742L40.4529 4.98912C40.7465 5.28131 40.7476 5.75618 40.4554 6.04977C40.1632 6.34337 39.6884 6.3445 39.3948 6.0523L39.2464 5.90463L37.2271 7.91428C37.9759 8.85673 38.447 9.98892 38.5868 11.1831H41.446V10.9783C41.446 10.5641 41.7818 10.2283 42.196 10.2283C42.6102 10.2283 42.946 10.5641 42.946 10.9783V12.888C42.946 13.3022 42.6102 13.638 42.196 13.638C41.7818 13.638 41.446 13.3022 41.446 12.888V12.6831H38.5868C38.447 13.8773 37.9759 15.0095 37.2271 15.9519L39.2464 17.9616L39.3948 17.8139C39.6884 17.5217 40.1632 17.5229 40.4554 17.8164C40.7476 18.11 40.7465 18.5849 40.4529 18.8771L39.778 19.5488L39.7746 19.5522L39.098 20.2255C38.8044 20.5177 38.3295 20.5166 38.0373 20.223C37.7452 19.9294 37.7463 19.4546 38.0399 19.1624L38.1832 19.0197L36.1645 17.0107C35.2163 17.7586 34.077 18.2284 32.8759 18.3672V21.2053H33.0853C33.4995 21.2053 33.8353 21.5411 33.8353 21.9553C33.8353 22.3695 33.4995 22.7053 33.0853 22.7053H31.1665C30.7523 22.7053 30.4165 22.3695 30.4165 21.9553C30.4165 21.5411 30.7523 21.2053 31.1665 21.2053H31.3759V18.3672C30.1748 18.2284 29.0355 17.7586 28.0873 17.0107L26.0686 19.0197L26.2119 19.1624C26.5055 19.4546 26.5066 19.9294 26.2144 20.223C25.9222 20.5166 25.4474 20.5177 25.1538 20.2255L24.4775 19.5525L24.4738 19.5488L23.7989 18.8771C23.5053 18.5849 23.5041 18.11 23.7963 17.8164C24.0885 17.5229 24.5634 17.5217 24.857 17.8139L25.0054 17.9616L27.0246 15.9519C26.2758 15.0095 25.8047 13.8773 25.665 12.6831H22.8057V12.888C22.8057 13.3022 22.47 13.638 22.0557 13.638C21.6415 13.638 21.3057 13.3022 21.3057 12.888V10.9783C21.3057 10.5641 21.6415 10.2283 22.0557 10.2283C22.47 10.2283 22.8057 10.5641 22.8057 10.9783V11.1831H25.665C25.8047 9.98892 26.2758 8.85673 27.0246 7.91428L25.0054 5.90463L24.857 6.0523C24.5634 6.3445 24.0885 6.34337 23.7963 6.04977C23.5041 5.75618 23.5053 5.28131 23.7989 4.98912L24.4738 4.31742L24.4771 4.31412L25.1538 3.64067C25.4474 3.34848 25.9222 3.34961 26.2144 3.6432C26.5066 3.93679 26.5055 4.41167 26.2119 4.70386L26.0686 4.84649L28.0873 6.85556C29.0355 6.10764 30.1748 5.63785 31.3759 5.49905V2.66089H31.1665C30.7523 2.66089 30.4165 2.3251 30.4165 1.91089ZM32.1259 6.95587C30.7974 6.95587 29.5241 7.48112 28.5858 8.41493C27.6477 9.34862 27.1213 10.6142 27.1213 11.9331C27.1213 13.252 27.6477 14.5176 28.5858 15.4513C29.5241 16.3851 30.7974 16.9104 32.1259 16.9104C33.4543 16.9104 34.7277 16.3851 35.666 15.4513C36.6041 14.5176 37.1305 13.252 37.1305 11.9331C37.1305 10.6142 36.6041 9.34862 35.666 8.41493C34.7277 7.48112 33.4543 6.95587 32.1259 6.95587ZM15.4219 17.1055C15.5844 17.4865 15.4073 17.9271 15.0263 18.0896L8.4441 20.8977C6.6759 21.6514 5.26763 23.0528 4.5103 24.8104L2.35529 29.8142C1.95568 30.742 1.74977 31.7408 1.75 32.75V41.9998C1.75 42.414 1.41421 42.7498 1 42.7498C0.585787 42.7498 0.25 42.414 0.25 41.9998L0.25 32.7503C0.24975 31.5369 0.497343 30.336 0.977639 29.2209L3.13264 24.2171C4.04289 22.1045 5.73435 20.4222 7.8555 19.518L14.4377 16.7099C14.8187 16.5474 15.2593 16.7245 15.4219 17.1055ZM18.5049 24.8873C18.2198 24.8387 17.9278 24.8485 17.6468 24.9161C17.3658 24.9838 17.1018 25.1077 16.871 25.2803L13.8075 27.5674C13.4756 27.8152 13.0056 27.747 12.7578 27.4151C12.51 27.0832 12.5782 26.6133 12.9101 26.3655L15.9729 24.0788C16.367 23.7842 16.8172 23.573 17.2959 23.4578C17.7745 23.3426 18.2717 23.3259 18.757 23.4086C19.2423 23.4914 19.7057 23.6719 20.1189 23.9393C20.5319 24.2066 20.886 24.5552 21.1593 24.9639C21.5562 25.5567 21.7681 26.2534 21.7681 26.9664C21.7681 27.6795 21.5562 28.3762 21.1593 28.969L18.1473 33.4647C17.1371 34.9718 15.6914 36.1379 14.0019 36.8092L9.51685 38.5965C9.13206 38.7498 8.69583 38.5622 8.54249 38.1774C8.38915 37.7926 8.57677 37.3564 8.96156 37.2031L13.4473 35.4155C14.8556 34.8559 16.0603 33.8841 16.9011 32.6297M16.9011 32.6297L19.9128 28.1345C20.1446 27.7883 20.2681 27.3818 20.2681 26.9664C20.2681 26.551 20.1447 26.1446 19.9128 25.7984C19.7532 25.5596 19.5458 25.3552 19.3038 25.1985C19.0617 25.0419 18.7899 24.9359 18.5049 24.8873"
        fill="#00AEEF"></path>
    <path
        d="M42.1953 25.6V37.9C42.1953 38.9874 41.7612 40.0302 40.9887 40.7991C40.2161 41.568 39.1683 42 38.0757 42H18.8509C17.7583 42 16.7104 41.568 15.9379 40.7991C15.1653 40.0302 14.7313 38.9874 14.7313 37.9V35.6313M14.7313 25.9408V5.1C14.7313 4.01261 15.1653 2.96976 15.9379 2.20086C16.7104 1.43196 17.7583 1 18.8509 1H22.055"
        stroke="#404040" stroke-width="1.5" stroke-linecap="round" stroke-linejoin="round"></path>
</svg>