<?xml version="1.0" encoding="utf-8"?>
<!-- Generator: Adobe Illustrator 26.0.1, SVG Export Plug-In . SVG Version: 6.00 Build 0)  -->
<svg version="1.1" id="Layer_1" xmlns="http://www.w3.org/2000/svg" xmlns:xlink="http://www.w3.org/1999/xlink" x="0px" y="0px"
	 viewBox="0 0 123 122" style="enable-background:new 0 0 123 122;" xml:space="preserve">
<style type="text/css">
	.st0{fill:#0A83C6;}
</style>
<path d="M63.1,96.6c-0.1-1-0.7-1.6-1.6-1.6c-1,0-1.6,0.7-1.6,1.6c0,1.6,0,3.3,0,4.9v1.4l3.2,0c0-1.8,0-3.4,0-5.1
	C63.1,97.4,63.1,97,63.1,96.6z M63.1,96.6c-0.1-1-0.7-1.6-1.6-1.6c-1,0-1.6,0.7-1.6,1.6c0,1.6,0,3.3,0,4.9v1.4l3.2,0
	c0-1.8,0-3.4,0-5.1C63.1,97.4,63.1,97,63.1,96.6z M103.4,59.4c-2,0-3.9,0-5.8,0c-1.4,0-2.1,0.6-2.1,1.6c0,1,0.7,1.6,2.1,1.6
	c1.9,0,3.8,0,5.8,0h0.1L103.4,59.4z M63.1,96.6c-0.1-1-0.7-1.6-1.6-1.6c-1,0-1.6,0.7-1.6,1.6c0,1.6,0,3.3,0,4.9v1.4l3.2,0
	c0-1.8,0-3.4,0-5.1C63.1,97.4,63.1,97,63.1,96.6z M93.5,29.1c-8.3-8.3-18.5-12.7-30.3-13.3v-1.4c0-3.3,0-6.7,0-10
	c0-1.4-0.6-2.1-1.6-2.1c-1,0-1.6,0.7-1.6,2.1c0,3.4,0,6.8,0,10.1v1.3c-11.9,0.6-22.1,5-30.4,13.3c-8.3,8.3-12.6,18.5-13.2,30.3h-1.4
	c-3.2,0-6.4,0-9.6,0c-1.8,0-2.6,0.5-2.6,1.6c0,1.1,0.8,1.6,2.6,1.6c3.6,0,7.2,0,10.9,0c0.6,11.9,5,22,13.3,30.4
	c8.3,8.3,18.5,12.6,30.3,13.2V103c-10.5-0.6-19.5-4.3-27-11.4c-8.3-7.8-12.6-17.5-13.3-29c2,0,3.9,0.1,5.8,0c0.6,0,1.4-0.4,1.7-0.9
	c0.7-1-0.1-2.3-1.5-2.3c-1.5-0.1-3.1,0-4.7,0c-0.4,0-0.8,0-1.3,0c0-19.7,17-39.6,40.2-40.3V16l3.2,0v3.2l-3.2,0v4.1c0,0.7,0,1.3,0,2
	c0,1,0.5,1.6,1.6,1.7c1,0.1,1.6-0.6,1.6-1.7c0-1.8,0-3.7,0-5.5c0-0.2,0-0.4,0.1-0.7c20.5,0.2,39.7,17.9,40.2,40.2h3.3
	C106.1,47.5,101.8,37.4,93.5,29.1z M16.3,62.6v-3.3l3.2,0l0,3.2L16.3,62.6z M63.1,97.9c0-0.4,0-0.9,0-1.3c-0.1-1-0.7-1.6-1.6-1.6
	c-1,0-1.6,0.7-1.6,1.6c0,1.6,0,3.3,0,4.9v1.4l3.2,0C63.1,101.2,63.1,99.5,63.1,97.9z M63.1,96.6c-0.1-1-0.7-1.6-1.6-1.6
	c-1,0-1.6,0.7-1.6,1.6c0,1.6,0,3.3,0,4.9v1.4l3.2,0c0-1.8,0-3.4,0-5.1C63.1,97.4,63.1,97,63.1,96.6z M103.4,62.6c0,0.1,0,0.2,0,0.2
	c-0.5,9.8-3.9,18.4-10.3,25.7c-7.9,9-17.9,13.7-30,14.4v3.2c11.9-0.6,22-4.9,30.3-13.3c8.3-8.3,12.6-18.5,13.3-30.3H103.4z
	 M103.4,59.4c-2,0-3.9,0-5.8,0c-1.4,0-2.1,0.6-2.1,1.6c0,1,0.7,1.6,2.1,1.6c1.9,0,3.8,0,5.8,0h0.1L103.4,59.4z M118.3,59.4
	c-2.9,0-5.8,0-8.7,0h-2.8l0,3.2c3.9,0,7.8,0,11.6,0c1.2,0,2-0.7,1.9-1.7C120.2,60,119.5,59.4,118.3,59.4z M97.6,59.4
	c-1.4,0-2.1,0.6-2.1,1.6c0,1,0.7,1.6,2.1,1.6c1.9,0,3.8,0,5.8,0h0.1l-0.1-3.2C101.4,59.4,99.5,59.4,97.6,59.4z M103.4,59.4
	c-2,0-3.9,0-5.8,0c-1.4,0-2.1,0.6-2.1,1.6c0,1,0.7,1.6,2.1,1.6c1.9,0,3.8,0,5.8,0h0.1L103.4,59.4z M63.1,96.6
	c-0.1-1-0.7-1.6-1.6-1.6c-1,0-1.6,0.7-1.6,1.6c0,1.6,0,3.3,0,4.9v1.4l3.2,0c0-1.8,0-3.4,0-5.1C63.1,97.4,63.1,97,63.1,96.6z
	 M59.9,106.2v1.3c0,3.4,0,6.8,0,10.1c0,1.3,0.6,2,1.6,2c1,0,1.7-0.7,1.7-2.1c0-3.4,0-6.8,0-10.1v-1.3L59.9,106.2z M63.1,96.6
	c-0.1-1-0.7-1.6-1.6-1.6c-1,0-1.6,0.7-1.6,1.6c0,1.6,0,3.3,0,4.9v1.4l3.2,0c0-1.8,0-3.4,0-5.1C63.1,97.4,63.1,97,63.1,96.6z"/>
<path d="M61.3,91.3c-7.2,0-14.4,0-21.5,0c-2,0-2.4-0.4-2.4-2.4c0-3.3,0-6.7,0-10c0-3.2,1-6.1,3.1-8.5c2.1-2.3,4.6-3.6,7.8-3.6
	c1.9,0,3.7-0.1,5.6,0c0.6,0,1.4,0.3,1.8,0.7c3.5,3.3,8,3.3,11.5,0c0.4-0.4,1.1-0.7,1.7-0.7c1.5-0.1,3.1,0,4.7,0
	c5.9,0,10.1,3.4,11.4,9.1c0.2,1.1,0.3,2.2,0.3,3.3c0,3.2,0,6.4,0,9.7c0,2-0.4,2.4-2.4,2.4C75.8,91.3,68.5,91.3,61.3,91.3z M82.1,88
	c0-3,0-5.9,0-8.8c0-0.7-0.1-1.5-0.2-2.2c-0.8-4.5-3.9-7-8.4-7c-1,0-2-0.1-3,0c-0.7,0.1-1.4,0.3-2,0.7c-3.7,2.9-9,3.5-12.8,0.8
	c-1.8-1.3-3.5-1.7-5.6-1.5c-0.2,0-0.5,0-0.7,0c-4.9,0-8.3,2.9-8.7,7.8c-0.2,2.6-0.1,5.3-0.1,7.9c0,0.8,0,1.5,0,2.3c1.8,0,3.4,0,5,0
	c0-2.4,0-4.8,0-7.1c0-1.7,0.5-2.4,1.6-2.4c1.1,0,1.6,0.8,1.6,2.4c0,1.7,0,3.3,0,5c0,0.7,0,1.4,0,2.1c8.5,0,16.8,0,25.2,0
	c0-2.6,0-5.1,0-7.7c0-1.2,0.7-1.9,1.7-1.8c0.9,0,1.6,0.7,1.6,1.8c0,2.1,0,4.2,0,6.3c0,0.5,0,1,0,1.5C79,88,80.5,88,82.1,88z"/>
<path d="M77.2,48.5c-0.2-1.4-0.4-2.7-0.6-4.1c-1.1-8-7.2-13.6-15-13.6c-7.3,0-13.4,4.9-15,12.3c-0.3,1.5-0.4,3.2-0.8,4.7
	c-0.4,1.8,0,3.2,1.2,4.5c0.4,0.4,0.8,1,1,1.6c1.2,4.2,3.7,7.5,7.5,9.7c4.1,2.3,8.2,2.2,12.1-0.3c3.6-2.3,6-5.6,7.2-9.7
	c0.2-0.5,0.5-1,0.9-1.4C76.8,51.1,77.4,50,77.2,48.5z M73.5,49.8c-1.1,0.5-1.4,1.5-1.6,2.5c-0.9,3.8-3.1,6.7-6.6,8.6
	c-1.2,0.6-2.5,0.9-3.2,1.1c-2.9-0.1-4.8-0.9-6.4-2.3c-2.5-2.1-4.2-4.7-4.7-7.9c-0.1-0.8-0.5-1.4-1.3-1.7c-0.7-0.2-0.9-0.7-0.6-1.5
	c0.2-0.6,0.3-1.4,0.3-2c0.4-4.9,2.3-9,6.9-11.2c7.4-3.7,15.6,0.7,17.1,9c0.3,1.6,0.5,3.1,0.7,4.7C74,49.2,73.7,49.7,73.5,49.8z"/>
<g>
	<path class="st0" d="M66.8,44c0.3-0.3,0.6-0.6,0.8-0.8c1.5,2.1,1.8,5.9-0.6,8.7c-2.7,3-7.1,3.4-10.1,1c-3.1-2.5-3.8-6.9-1.4-10.1
		c2.4-3.3,6.7-3.9,9.9-1.9c-0.3,0.3-0.5,0.5-0.8,0.8c0,0-0.2,0-0.2,0c-0.7-0.4-1.4-0.6-2.1-0.7c-1.6-0.2-3.1,0.1-4.4,1.1
		c-1.5,1-2.3,2.4-2.6,4.2c-0.5,3.4,1.8,6.4,5,7c3.3,0.6,6.4-1.5,7.2-4.6c0.4-1.5,0.2-3-0.6-4.4C66.9,44.1,66.9,44.1,66.8,44z"/>
	<path class="st0" d="M65.2,44.8c1.2,1.9,0.7,4.4-1,5.8c-1.7,1.4-4.3,1.2-5.8-0.4c-1.6-1.7-1.7-4.2-0.1-6c1.5-1.7,3.9-1.9,5.6-0.8
		c-0.3,0.2-0.5,0.5-0.7,0.7c-0.1,0.1-0.2,0.1-0.3,0.1c-1.9-0.8-3.9,0.3-4.4,2.3c-0.4,1.8,1,3.7,2.9,3.9c1.7,0.1,3.3-1,3.5-2.9
		c0.1-0.5,0-1.1-0.2-1.6c-0.1-0.1-0.1-0.2,0-0.3C64.7,45.3,64.9,45,65.2,44.8z"/>
	<path class="st0" d="M62.1,45.8c0.8-0.8,1.6-1.6,2.3-2.4c0.1-0.1,0.1-0.2,0.1-0.3c-0.1-0.4,0.1-0.7,0.4-1c0.8-0.7,1.5-1.5,2.2-2.2
		c0,0,0.1-0.1,0.2-0.2c0,0.5,0,1,0,1.4c0.5,0,0.9,0,1.5,0c-0.1,0.1-0.1,0.1-0.1,0.1c-0.8,0.8-1.7,1.7-2.5,2.5
		c-0.1,0.1-0.2,0.1-0.3,0.1c-0.4-0.1-0.7,0.1-1,0.4c-0.6,0.7-1.3,1.3-1.9,1.9c-0.1,0.1-0.1,0.2-0.1,0.3c0.3,0.8-0.1,1.7-1,2
		c-0.8,0.2-1.7-0.3-1.8-1.2c-0.2-1,0.8-2,1.9-1.7C61.9,45.7,62,45.7,62.1,45.8z"/>
</g>
</svg>
