<?xml version="1.0" encoding="utf-8"?>
<!-- Generator: Adobe Illustrator 23.0.1, SVG Export Plug-In . SVG Version: 6.00 Build 0)  -->
<svg version="1.1" id="Layer_1" xmlns="http://www.w3.org/2000/svg" xmlns:xlink="http://www.w3.org/1999/xlink" x="0px" y="0px"
	 viewBox="0 0 30 30" style="enable-background:new 0 0 30 30;" xml:space="preserve">
<style type="text/css">
	.st0{clip-path:url(#SVGID_2_);}
	.st1{fill:#0284C7;}
	.st2{stroke:#000000;stroke-width:0.25;stroke-miterlimit:10;}
	.st3{clip-path:url(#SVGID_4_);fill:#0284C7;stroke:#0284C7;stroke-width:0.25;stroke-miterlimit:10;}
	.st4{clip-path:url(#SVGID_6_);fill:#0284C7;stroke:#0284C7;stroke-width:0.25;stroke-miterlimit:10;}
</style>
<g>
	<defs>
		<rect id="SVGID_1_" x="7.7" y="35.9" width="16.3" height="3.7"/>
	</defs>
	<clipPath id="SVGID_2_">
		<use xlink:href="#SVGID_1_"  style="overflow:visible;"/>
	</clipPath>
	<g class="st0">
		<path class="st1" d="M25.5,21.5c-0.1-0.2-0.3-0.3-0.5-0.3c0,0,0,0,0,0c-0.2,0.1-0.3,0.3-0.3,0.5c0.1,0.3,0.1,0.6,0.1,0.9
			c0,0.6-0.1,1.1-0.4,1.6c-0.3,0.5-0.7,0.9-1.1,1.1l-0.2,0.1C23,25.5,23,25.6,23,25.7v0.5h-0.9v-1.6c0.4-0.1,0.7-0.5,0.7-1v-0.8
			c0-0.6-0.5-1.1-1.1-1.1h0c-0.6,0-1.1,0.5-1.1,1.1v0.8c0,0.5,0.3,0.9,0.7,1v1.6h-0.9v-0.5c0-0.1-0.1-0.3-0.2-0.3l-0.2-0.1
			c-0.5-0.3-0.8-0.7-1.1-1.1c-0.3-0.5-0.4-1-0.4-1.6c0-1.7,1.4-3.2,3.2-3.2c0.8,0,1.6,0.3,2.2,0.9c0.2,0.1,0.4,0.1,0.5,0
			c0.1-0.2,0.1-0.4,0-0.5c0,0,0,0,0,0c-0.7-0.7-1.7-1.1-2.7-1.1c-2.2,0-3.9,1.8-3.9,3.9c0,0.7,0.2,1.4,0.5,2c0.3,0.6,0.8,1,1.4,1.4
			v0.3c-0.2,0.1-0.3,0.3-0.3,0.5v1.7c0,0.3,0.3,0.6,0.6,0.6h0.6v0.5c0,0.4,0.3,0.7,0.7,0.7h1.1c0.4,0,0.7-0.3,0.7-0.7v-0.5h0.6
			c0.3,0,0.6-0.3,0.6-0.6v-1.7c0-0.2-0.1-0.4-0.3-0.5V26c0.6-0.3,1-0.8,1.4-1.4c0.3-0.6,0.5-1.3,0.5-2
			C25.6,22.2,25.6,21.9,25.5,21.5z M21.4,22.8c0-0.2,0.1-0.3,0.3-0.3h0c0.2,0,0.3,0.1,0.3,0.3v0.8c0,0.2-0.1,0.3-0.3,0.3h0
			c-0.2,0-0.3-0.1-0.3-0.3V22.8z M22.1,29.6h-0.9v-0.4h0.9V29.6z M23.3,28.4h-3.2V27h3.2L23.3,28.4z"/>
		<path class="st1" d="M21.7,18.2c0.2,0,0.4-0.2,0.4-0.4v-0.6c0-0.2-0.2-0.4-0.4-0.4s-0.4,0.2-0.4,0.4v0.6
			C21.3,18.1,21.5,18.2,21.7,18.2z"/>
		<path class="st1" d="M19.4,18.4c0.1,0.1,0.2,0.2,0.3,0.2c0.1,0,0.1,0,0.2,0c0.2-0.1,0.3-0.3,0.2-0.5l-0.3-0.6
			c-0.1-0.2-0.3-0.3-0.5-0.2c-0.2,0.1-0.3,0.3-0.2,0.5c0,0,0,0,0,0L19.4,18.4z"/>
		<path class="st1" d="M17.3,19.3l0.5,0.4c0.1,0.1,0.2,0.1,0.3,0.1c0.1,0,0.2,0,0.3-0.1c0.1-0.2,0.1-0.4,0-0.5l-0.5-0.4
			c-0.2-0.1-0.4-0.1-0.5,0c0,0,0,0,0,0C17.2,18.9,17.2,19.2,17.3,19.3L17.3,19.3z"/>
		<path class="st1" d="M16.3,21.4l0.6,0.2c0.2,0.1,0.4,0,0.5-0.2c0,0,0,0,0,0c0.1-0.2,0-0.4-0.2-0.5c0,0,0,0,0,0l-0.6-0.2
			c-0.2-0.1-0.4,0-0.5,0.2S16.1,21.3,16.3,21.4C16.3,21.4,16.3,21.4,16.3,21.4L16.3,21.4z"/>
		<path class="st1" d="M16.2,23.7C16.2,23.7,16.3,23.7,16.2,23.7l0.7-0.1c0.2,0,0.4-0.2,0.3-0.4c0,0,0,0,0,0c0-0.2-0.2-0.4-0.4-0.3
			c0,0,0,0,0,0l-0.6,0.1c-0.2,0-0.4,0.2-0.3,0.4C15.9,23.5,16,23.7,16.2,23.7L16.2,23.7z"/>
		<path class="st1" d="M16.8,25.1c-0.2,0.1-0.2,0.3-0.1,0.5c0,0,0,0,0,0c0.1,0.2,0.3,0.2,0.5,0.1l0.5-0.3c0.2-0.1,0.2-0.3,0.1-0.5
			c0,0,0,0,0,0c-0.1-0.2-0.3-0.2-0.5-0.1c0,0,0,0,0,0L16.8,25.1z"/>
		<path class="st1" d="M23.5,18.6c0.2,0.1,0.4,0,0.5-0.2l0.3-0.6c0.1-0.2,0-0.4-0.2-0.5c-0.2-0.1-0.4,0-0.5,0.2l0,0l-0.3,0.6
			C23.2,18.3,23.3,18.5,23.5,18.6C23.5,18.6,23.5,18.6,23.5,18.6L23.5,18.6z"/>
		<path class="st1" d="M25.3,19.8c0.1,0,0.2,0,0.3-0.1l0.5-0.4c0.2-0.1,0.2-0.4,0-0.5c-0.1-0.2-0.4-0.2-0.5,0c0,0,0,0,0,0L25,19.2
			c-0.2,0.1-0.2,0.4,0,0.5C25.1,19.8,25.2,19.8,25.3,19.8z"/>
		<path class="st1" d="M25.9,21.3c0.1,0.2,0.2,0.3,0.4,0.3c0,0,0.1,0,0.1,0l0.6-0.2c0.2-0.1,0.3-0.3,0.2-0.5
			c-0.1-0.2-0.3-0.3-0.5-0.2l-0.6,0.2C26,20.9,25.9,21.1,25.9,21.3C25.9,21.3,25.9,21.3,25.9,21.3L25.9,21.3z"/>
		<path class="st1" d="M27.2,22.9l-0.6-0.1c-0.2,0-0.4,0.1-0.4,0.3c0,0.2,0.1,0.4,0.3,0.4c0,0,0,0,0,0l0.6,0.1
			c0.2,0,0.4-0.1,0.4-0.3C27.5,23.1,27.4,22.9,27.2,22.9C27.2,22.9,27.2,22.9,27.2,22.9z"/>
		<path class="st1" d="M26.6,25.1L26,24.8c-0.2-0.1-0.4,0-0.5,0.1c-0.1,0.2,0,0.4,0.1,0.5c0,0,0,0,0,0l0.5,0.3
			c0.2,0.1,0.4,0,0.5-0.1C26.8,25.5,26.8,25.2,26.6,25.1L26.6,25.1z"/>
		<path d="M5.7,25.6h3.9c0.2,0,0.4-0.2,0.4-0.4s-0.2-0.4-0.4-0.4H5.7c-0.2,0-0.4,0.2-0.4,0.4c0,0,0,0,0,0
			C5.3,25.5,5.5,25.6,5.7,25.6z"/>
		<path class="st1" d="M14.1,28.9c-1.2,0-2.3,1-2.3,2.3c0,1.2,1,2.3,2.3,2.3c1.2,0,2.3-1,2.3-2.3C16.4,29.9,15.4,28.9,14.1,28.9z
			 M14.1,32.7c-0.8,0-1.5-0.7-1.5-1.5c0-0.5,0.2-0.9,0.6-1.2c0.2,1.1,1.1,1.9,2.2,1.9c0,0,0,0,0,0C15.2,32.3,14.7,32.7,14.1,32.7z
			 M15.4,31.1c-0.8,0-1.5-0.6-1.5-1.4c0.1,0,0.1,0,0.2,0c0.8,0,1.5,0.6,1.5,1.4C15.6,31.1,15.5,31.1,15.4,31.1z"/>
		<path class="st1" d="M23.4,37.2L23.4,37.2l-1.9-1.1c-0.3-0.1-0.7-0.2-1-0.2h-6.6v-1.2c0.1,0,0.2,0,0.3,0c2.3,0,4.4-1.2,5.5-3.2
			c0.1-0.2,0.1-0.4,0-0.6c-1.1-2-3.2-3.2-5.5-3.2c-0.1,0-0.2,0-0.3,0v-4.7c0-0.4-0.3-0.6-0.6-0.6h-7c-0.2,0-0.4,0.2-0.4,0.4
			C5.8,22.9,6,23,6.2,23h6.9v4.7c-0.3,0-0.5,0.1-0.8,0.2v-0.3c0-0.4-0.3-0.6-0.6-0.6h-8c-0.4,0-0.6,0.3-0.6,0.6v5.3
			c0,0.4,0.3,0.6,0.6,0.6h6.8c0.8,0.5,1.6,0.9,2.6,1.1v1.3H8.5c-0.3,0-0.5,0.2-0.7,0.4H3.9c-0.2,0-0.4,0.2-0.4,0.4S3.7,37,3.9,37
			h3.8v1H3.9c-0.2,0-0.4,0.2-0.4,0.4s0.2,0.4,0.4,0.4h3.8c0,0.4,0.4,0.7,0.8,0.7h4.6V41H2.2V23h2.1c0.2,0,0.4-0.2,0.4-0.4
			c0-0.2-0.2-0.4-0.4-0.4H2.1c-0.4,0-0.6,0.3-0.6,0.6v18.2c0,0.4,0.3,0.6,0.6,0.6h11.1c0.4,0,0.6-0.3,0.6-0.6v-1.6h6.6
			c0.3,0,0.7-0.1,1-0.2l1.9-1.1c0.2-0.1,0.3-0.3,0.3-0.5C23.7,37.5,23.6,37.3,23.4,37.2z M3.8,32.8v-5.1h7.7v0.5
			c-1.2,0.5-2.2,1.5-2.9,2.6c-0.1,0.2-0.1,0.4,0,0.6c0.3,0.5,0.6,0.9,1,1.3H3.8z M9.3,31.2L9.3,31.2c1-1.7,2.8-2.8,4.8-2.8
			c2,0,3.8,1.1,4.8,2.8c-1,1.7-2.8,2.8-4.8,2.8C12.2,33.9,10.3,32.9,9.3,31.2z M10.1,38.8H8.5c0,0,0,0,0,0v-2.1c0,0,0,0,0,0h1.6
			L10.1,38.8z M19.9,38.8h-9.1v-0.7h5.7c0.2,0,0.4-0.2,0.4-0.4c0-0.2-0.2-0.4-0.4-0.4h-5.7v-0.7h9.1v0.7h-1.6
			c-0.2,0-0.4,0.2-0.4,0.4c0,0.2,0.2,0.4,0.4,0.4h1.6V38.8z M21.5,38.4l-0.4,0.2c-0.1,0.1-0.2,0.1-0.4,0.1v-2.1
			c0.1,0,0.3,0.1,0.4,0.1l0.4,0.2L21.5,38.4z M22.3,38v-0.5l0.5,0.3L22.3,38z"/>
	</g>
</g>
<g>
	<path class="st2" d="M5.5,7.2c-0.3,0-0.6-0.3-0.6-0.6C4.9,6.3,5.2,6,5.5,6c0.3,0,0.6,0.3,0.6,0.6S5.8,7.2,5.5,7.2z M7.9,7.2
		c-0.3,0-0.6-0.3-0.6-0.6C7.3,6.3,7.5,6,7.9,6c0.3,0,0.6,0.3,0.6,0.6C8.5,6.9,8.2,7.2,7.9,7.2z M10.2,7.2c-0.3,0-0.6-0.3-0.6-0.6
		C9.6,6.3,9.9,6,10.2,6c0.3,0,0.6,0.3,0.6,0.6C10.8,6.9,10.5,7.2,10.2,7.2z M27.7,8.9c-0.2,0-0.3-0.1-0.3-0.3v-3
		c0-0.4-0.3-0.7-0.7-0.7H3.3c-0.4,0-0.7,0.3-0.7,0.7v3c0,0.2-0.1,0.3-0.3,0.3C2.2,8.9,2,8.8,2,8.6v-3c0-0.7,0.6-1.3,1.3-1.3h23.3
		c0.7,0,1.3,0.6,1.3,1.3v3C28,8.8,27.8,8.9,27.7,8.9L27.7,8.9z M26.7,25.7H3.3c-0.7,0-1.3-0.6-1.3-1.3V8.6c0-0.2,0.1-0.3,0.3-0.3
		h25.4c0.2,0,0.3,0.1,0.3,0.3v15.8C28,25.1,27.4,25.7,26.7,25.7z M2.6,8.9v15.5c0,0.4,0.3,0.7,0.7,0.7h23.3c0.4,0,0.7-0.3,0.7-0.7
		V8.9H2.6z M25.1,17.2H4.9c-0.2,0-0.3-0.1-0.3-0.3v-6.1c0-0.2,0.1-0.3,0.3-0.3h20.3c0.2,0,0.3,0.1,0.3,0.3v6.1
		C25.4,17,25.3,17.2,25.1,17.2L25.1,17.2z M5.2,16.6h19.7v-5.5H5.2L5.2,16.6z M16,16c-0.1,0-0.1,0-0.2-0.1l-3-2.2l-2.6,1.9
		c-0.1,0.1-0.3,0.1-0.4-0.1c-0.1-0.1-0.1-0.3,0.1-0.4l2.8-2.1c0.1-0.1,0.2-0.1,0.4,0l3.1,2.4c0.1,0.1,0.2,0.3,0.1,0.4
		C16.2,16,16.1,16,16,16L16,16z M25.1,15.7c-0.1,0-0.1,0-0.2-0.1L22.7,14l-1.6,1.2c-0.1,0.1-0.3,0.1-0.4-0.1s-0.1-0.3,0.1-0.4
		l1.8-1.3c0.1-0.1,0.2-0.1,0.4,0l2.5,1.8c0.1,0.1,0.2,0.3,0.1,0.4C25.3,15.7,25.2,15.7,25.1,15.7L25.1,15.7z M12.1,17.2
		c-0.1,0-0.1,0-0.2-0.1l-4-2.9L5,16.3c-0.1,0.1-0.3,0.1-0.4-0.1c-0.1-0.1-0.1-0.3,0.1-0.4c0,0,0,0,0,0l3-2.3c0.1-0.1,0.2-0.1,0.4,0
		l4.1,3.1c0.1,0.1,0.2,0.3,0.1,0.4C12.2,17.1,12.1,17.2,12.1,17.2L12.1,17.2z M14.8,17.2c-0.2,0-0.3-0.1-0.3-0.3
		c0-0.1,0-0.2,0.1-0.2l4.1-3.7c0.1-0.1,0.3-0.1,0.4,0l4.1,3.7c0.1,0.1,0.1,0.3,0,0.4c0,0,0,0,0,0c-0.1,0.1-0.3,0.1-0.4,0
		c0,0,0,0,0,0L19,13.5l-4,3.6C15,17.1,14.9,17.2,14.8,17.2z M15.9,13.6c-0.5,0-1-0.4-1-1s0.4-1,1-1s1,0.4,1,1S16.4,13.6,15.9,13.6
		L15.9,13.6z M15.9,12.3c-0.2,0-0.4,0.2-0.4,0.4c0,0.2,0.2,0.4,0.4,0.4c0.2,0,0.4-0.2,0.4-0.4C16.2,12.4,16.1,12.3,15.9,12.3z
		 M10.3,23.5H5c-0.2,0-0.3-0.1-0.3-0.3v-4.7c0-0.2,0.1-0.3,0.3-0.3h5.3c0.2,0,0.3,0.1,0.3,0.3v4.7C10.6,23.4,10.5,23.5,10.3,23.5
		L10.3,23.5z M5.3,23H10v-4.1H5.3L5.3,23z M17.6,23.5h-5.3c-0.2,0-0.3-0.1-0.3-0.3v-4.7c0-0.2,0.1-0.3,0.3-0.3h5.3
		c0.2,0,0.3,0.1,0.3,0.3v4.7C17.9,23.4,17.8,23.5,17.6,23.5z M12.7,23h4.7v-4.1h-4.7V23z M25,23.5h-5.3c-0.2,0-0.3-0.1-0.3-0.3v-4.7
		c0-0.2,0.1-0.3,0.3-0.3H25c0.2,0,0.3,0.1,0.3,0.3v4.7C25.3,23.4,25.1,23.5,25,23.5z M20,23h4.7v-4.1H20V23z"/>
	<g>
		<defs>
			<rect id="SVGID_3_" x="3.6" y="10.1" width="22.5" height="13.8"/>
		</defs>
		<clipPath id="SVGID_4_">
			<use xlink:href="#SVGID_3_"  style="overflow:visible;"/>
		</clipPath>
		<path class="st3" d="M5.5,7.2c-0.3,0-0.6-0.3-0.6-0.6C4.9,6.3,5.2,6,5.5,6c0.3,0,0.6,0.3,0.6,0.6S5.8,7.2,5.5,7.2z M7.9,7.2
			c-0.3,0-0.6-0.3-0.6-0.6C7.3,6.3,7.5,6,7.9,6c0.3,0,0.6,0.3,0.6,0.6C8.5,6.9,8.2,7.2,7.9,7.2z M10.2,7.2c-0.3,0-0.6-0.3-0.6-0.6
			C9.6,6.3,9.9,6,10.2,6c0.3,0,0.6,0.3,0.6,0.6C10.8,6.9,10.5,7.2,10.2,7.2z M27.7,8.9c-0.2,0-0.3-0.1-0.3-0.3v-3
			c0-0.4-0.3-0.7-0.7-0.7H3.3c-0.4,0-0.7,0.3-0.7,0.7v3c0,0.2-0.1,0.3-0.3,0.3C2.2,8.9,2,8.8,2,8.6v-3c0-0.7,0.6-1.3,1.3-1.3h23.3
			c0.7,0,1.3,0.6,1.3,1.3v3C28,8.8,27.8,8.9,27.7,8.9L27.7,8.9z M26.7,25.7H3.3c-0.7,0-1.3-0.6-1.3-1.3V8.6c0-0.2,0.1-0.3,0.3-0.3
			h25.4c0.2,0,0.3,0.1,0.3,0.3v15.8C28,25.1,27.4,25.7,26.7,25.7z M2.6,8.9v15.5c0,0.4,0.3,0.7,0.7,0.7h23.3c0.4,0,0.7-0.3,0.7-0.7
			V8.9H2.6z M25.1,17.2H4.9c-0.2,0-0.3-0.1-0.3-0.3v-6.1c0-0.2,0.1-0.3,0.3-0.3h20.3c0.2,0,0.3,0.1,0.3,0.3v6.1
			C25.4,17,25.3,17.2,25.1,17.2L25.1,17.2z M5.2,16.6h19.7v-5.5H5.2L5.2,16.6z M16,16c-0.1,0-0.1,0-0.2-0.1l-3-2.2l-2.6,1.9
			c-0.1,0.1-0.3,0.1-0.4-0.1c-0.1-0.1-0.1-0.3,0.1-0.4l2.8-2.1c0.1-0.1,0.2-0.1,0.4,0l3.1,2.4c0.1,0.1,0.2,0.3,0.1,0.4
			C16.2,16,16.1,16,16,16L16,16z M25.1,15.7c-0.1,0-0.1,0-0.2-0.1L22.7,14l-1.6,1.2c-0.1,0.1-0.3,0.1-0.4-0.1s-0.1-0.3,0.1-0.4
			l1.8-1.3c0.1-0.1,0.2-0.1,0.4,0l2.5,1.8c0.1,0.1,0.2,0.3,0.1,0.4C25.3,15.7,25.2,15.7,25.1,15.7L25.1,15.7z M12.1,17.2
			c-0.1,0-0.1,0-0.2-0.1l-4-2.9L5,16.3c-0.1,0.1-0.3,0.1-0.4-0.1c-0.1-0.1-0.1-0.3,0.1-0.4c0,0,0,0,0,0l3-2.3c0.1-0.1,0.2-0.1,0.4,0
			l4.1,3.1c0.1,0.1,0.2,0.3,0.1,0.4C12.2,17.1,12.1,17.2,12.1,17.2L12.1,17.2z M14.8,17.2c-0.2,0-0.3-0.1-0.3-0.3
			c0-0.1,0-0.2,0.1-0.2l4.1-3.7c0.1-0.1,0.3-0.1,0.4,0l4.1,3.7c0.1,0.1,0.1,0.3,0,0.4c0,0,0,0,0,0c-0.1,0.1-0.3,0.1-0.4,0
			c0,0,0,0,0,0L19,13.5l-4,3.6C15,17.1,14.9,17.2,14.8,17.2z M15.9,13.6c-0.5,0-1-0.4-1-1s0.4-1,1-1s1,0.4,1,1S16.4,13.6,15.9,13.6
			L15.9,13.6z M15.9,12.3c-0.2,0-0.4,0.2-0.4,0.4c0,0.2,0.2,0.4,0.4,0.4c0.2,0,0.4-0.2,0.4-0.4C16.2,12.4,16.1,12.3,15.9,12.3z
			 M10.3,23.5H5c-0.2,0-0.3-0.1-0.3-0.3v-4.7c0-0.2,0.1-0.3,0.3-0.3h5.3c0.2,0,0.3,0.1,0.3,0.3v4.7C10.6,23.4,10.5,23.5,10.3,23.5
			L10.3,23.5z M5.3,23H10v-4.1H5.3L5.3,23z M17.6,23.5h-5.3c-0.2,0-0.3-0.1-0.3-0.3v-4.7c0-0.2,0.1-0.3,0.3-0.3h5.3
			c0.2,0,0.3,0.1,0.3,0.3v4.7C17.9,23.4,17.8,23.5,17.6,23.5z M12.7,23h4.7v-4.1h-4.7V23z M25,23.5h-5.3c-0.2,0-0.3-0.1-0.3-0.3
			v-4.7c0-0.2,0.1-0.3,0.3-0.3H25c0.2,0,0.3,0.1,0.3,0.3v4.7C25.3,23.4,25.1,23.5,25,23.5z M20,23h4.7v-4.1H20V23z"/>
	</g>
	<g>
		<defs>
			<rect id="SVGID_5_" x="4.2" y="5.6" width="7.8" height="1.9"/>
		</defs>
		<clipPath id="SVGID_6_">
			<use xlink:href="#SVGID_5_"  style="overflow:visible;"/>
		</clipPath>
		<path class="st4" d="M5.5,7.2c-0.3,0-0.6-0.3-0.6-0.6C4.9,6.3,5.2,6,5.5,6c0.3,0,0.6,0.3,0.6,0.6S5.8,7.2,5.5,7.2z M7.9,7.2
			c-0.3,0-0.6-0.3-0.6-0.6C7.3,6.3,7.5,6,7.9,6c0.3,0,0.6,0.3,0.6,0.6C8.5,6.9,8.2,7.2,7.9,7.2z M10.2,7.2c-0.3,0-0.6-0.3-0.6-0.6
			C9.6,6.3,9.9,6,10.2,6c0.3,0,0.6,0.3,0.6,0.6C10.8,6.9,10.5,7.2,10.2,7.2z M27.7,8.9c-0.2,0-0.3-0.1-0.3-0.3v-3
			c0-0.4-0.3-0.7-0.7-0.7H3.3c-0.4,0-0.7,0.3-0.7,0.7v3c0,0.2-0.1,0.3-0.3,0.3C2.2,8.9,2,8.8,2,8.6v-3c0-0.7,0.6-1.3,1.3-1.3h23.3
			c0.7,0,1.3,0.6,1.3,1.3v3C28,8.8,27.8,8.9,27.7,8.9L27.7,8.9z M26.7,25.7H3.3c-0.7,0-1.3-0.6-1.3-1.3V8.6c0-0.2,0.1-0.3,0.3-0.3
			h25.4c0.2,0,0.3,0.1,0.3,0.3v15.8C28,25.1,27.4,25.7,26.7,25.7z M2.6,8.9v15.5c0,0.4,0.3,0.7,0.7,0.7h23.3c0.4,0,0.7-0.3,0.7-0.7
			V8.9H2.6z M25.1,17.2H4.9c-0.2,0-0.3-0.1-0.3-0.3v-6.1c0-0.2,0.1-0.3,0.3-0.3h20.3c0.2,0,0.3,0.1,0.3,0.3v6.1
			C25.4,17,25.3,17.2,25.1,17.2L25.1,17.2z M5.2,16.6h19.7v-5.5H5.2L5.2,16.6z M16,16c-0.1,0-0.1,0-0.2-0.1l-3-2.2l-2.6,1.9
			c-0.1,0.1-0.3,0.1-0.4-0.1c-0.1-0.1-0.1-0.3,0.1-0.4l2.8-2.1c0.1-0.1,0.2-0.1,0.4,0l3.1,2.4c0.1,0.1,0.2,0.3,0.1,0.4
			C16.2,16,16.1,16,16,16L16,16z M25.1,15.7c-0.1,0-0.1,0-0.2-0.1L22.7,14l-1.6,1.2c-0.1,0.1-0.3,0.1-0.4-0.1s-0.1-0.3,0.1-0.4
			l1.8-1.3c0.1-0.1,0.2-0.1,0.4,0l2.5,1.8c0.1,0.1,0.2,0.3,0.1,0.4C25.3,15.7,25.2,15.7,25.1,15.7L25.1,15.7z M12.1,17.2
			c-0.1,0-0.1,0-0.2-0.1l-4-2.9L5,16.3c-0.1,0.1-0.3,0.1-0.4-0.1c-0.1-0.1-0.1-0.3,0.1-0.4c0,0,0,0,0,0l3-2.3c0.1-0.1,0.2-0.1,0.4,0
			l4.1,3.1c0.1,0.1,0.2,0.3,0.1,0.4C12.2,17.1,12.1,17.2,12.1,17.2L12.1,17.2z M14.8,17.2c-0.2,0-0.3-0.1-0.3-0.3
			c0-0.1,0-0.2,0.1-0.2l4.1-3.7c0.1-0.1,0.3-0.1,0.4,0l4.1,3.7c0.1,0.1,0.1,0.3,0,0.4c0,0,0,0,0,0c-0.1,0.1-0.3,0.1-0.4,0
			c0,0,0,0,0,0L19,13.5l-4,3.6C15,17.1,14.9,17.2,14.8,17.2z M15.9,13.6c-0.5,0-1-0.4-1-1s0.4-1,1-1s1,0.4,1,1S16.4,13.6,15.9,13.6
			L15.9,13.6z M15.9,12.3c-0.2,0-0.4,0.2-0.4,0.4c0,0.2,0.2,0.4,0.4,0.4c0.2,0,0.4-0.2,0.4-0.4C16.2,12.4,16.1,12.3,15.9,12.3z
			 M10.3,23.5H5c-0.2,0-0.3-0.1-0.3-0.3v-4.7c0-0.2,0.1-0.3,0.3-0.3h5.3c0.2,0,0.3,0.1,0.3,0.3v4.7C10.6,23.4,10.5,23.5,10.3,23.5
			L10.3,23.5z M5.3,23H10v-4.1H5.3L5.3,23z M17.6,23.5h-5.3c-0.2,0-0.3-0.1-0.3-0.3v-4.7c0-0.2,0.1-0.3,0.3-0.3h5.3
			c0.2,0,0.3,0.1,0.3,0.3v4.7C17.9,23.4,17.8,23.5,17.6,23.5z M12.7,23h4.7v-4.1h-4.7V23z M25,23.5h-5.3c-0.2,0-0.3-0.1-0.3-0.3
			v-4.7c0-0.2,0.1-0.3,0.3-0.3H25c0.2,0,0.3,0.1,0.3,0.3v4.7C25.3,23.4,25.1,23.5,25,23.5z M20,23h4.7v-4.1H20V23z"/>
	</g>
</g>
</svg>
