<?xml version="1.0" encoding="utf-8"?>
<!-- Generator: Adobe Illustrator 23.0.1, SVG Export Plug-In . SVG Version: 6.00 Build 0)  -->
<svg version="1.1" id="Layer_1" xmlns="http://www.w3.org/2000/svg" xmlns:xlink="http://www.w3.org/1999/xlink" x="0px" y="0px"
	 viewBox="0 0 30 30" style="enable-background:new 0 0 30 30;" xml:space="preserve">
<style type="text/css">
	.st0{fill:#0284C7;}
	.st1{clip-path:url(#SVGID_2_);}
</style>
<g>
	<path class="st0" d="M26,7.2C25.9,7,25.7,6.9,25.5,7c0,0,0,0,0,0c-0.2,0.1-0.3,0.3-0.3,0.5c0.1,0.3,0.1,0.6,0.1,0.9
		c0,0.6-0.1,1.1-0.4,1.6c-0.3,0.5-0.7,0.9-1.1,1.1l-0.2,0.1c-0.1,0.1-0.2,0.2-0.2,0.3v0.5h-0.9v-1.6c0.4-0.1,0.7-0.5,0.7-1V8.5
		c0-0.6-0.5-1.1-1.1-1.1h0c-0.6,0-1.1,0.5-1.1,1.1v0.8c0,0.5,0.3,0.9,0.7,1v1.6h-0.9v-0.5c0-0.1-0.1-0.3-0.2-0.3L20.6,11
		c-0.5-0.3-0.8-0.7-1.1-1.1c-0.3-0.5-0.4-1-0.4-1.6c0-1.7,1.4-3.2,3.2-3.2c0.8,0,1.6,0.3,2.2,0.9c0.2,0.1,0.4,0.1,0.5,0
		c0.1-0.2,0.1-0.4,0-0.5c0,0,0,0,0,0c-0.7-0.7-1.7-1.1-2.7-1.1c-2.2,0-3.9,1.8-3.9,3.9c0,0.7,0.2,1.4,0.5,2c0.3,0.6,0.8,1,1.4,1.4
		V12c-0.2,0.1-0.3,0.3-0.3,0.5v1.7c0,0.3,0.3,0.6,0.6,0.6H21v0.5c0,0.4,0.3,0.7,0.7,0.7h1.1c0.4,0,0.7-0.3,0.7-0.7v-0.5H24
		c0.3,0,0.6-0.3,0.6-0.6v-1.7c0-0.2-0.1-0.4-0.3-0.5v-0.3c0.6-0.3,1-0.8,1.4-1.4c0.3-0.6,0.5-1.3,0.5-2C26.1,7.9,26.1,7.6,26,7.2z
		 M21.9,8.5c0-0.2,0.1-0.3,0.3-0.3h0c0.2,0,0.3,0.1,0.3,0.3v0.8c0,0.2-0.1,0.3-0.3,0.3h0c-0.2,0-0.3-0.1-0.3-0.3V8.5z M22.6,15.3
		h-0.9v-0.4h0.9V15.3z M23.8,14.1h-3.2v-1.4h3.2L23.8,14.1z"/>
	<path class="st0" d="M22.2,3.9c0.2,0,0.4-0.2,0.4-0.4V2.9c0-0.2-0.2-0.4-0.4-0.4s-0.4,0.2-0.4,0.4v0.6C21.8,3.8,22,3.9,22.2,3.9z"
		/>
	<path class="st0" d="M19.9,4.1c0.1,0.1,0.2,0.2,0.3,0.2c0.1,0,0.1,0,0.2,0c0.2-0.1,0.3-0.3,0.2-0.5l-0.3-0.6C20.2,3,20,3,19.8,3
		c-0.2,0.1-0.3,0.3-0.2,0.5c0,0,0,0,0,0L19.9,4.1z"/>
	<path class="st0" d="M17.9,5l0.5,0.4c0.1,0.1,0.2,0.1,0.3,0.1c0.1,0,0.2,0,0.3-0.1C19,5.3,19,5,18.8,4.9l-0.5-0.4
		c-0.2-0.1-0.4-0.1-0.5,0c0,0,0,0,0,0C17.7,4.6,17.7,4.9,17.9,5L17.9,5z"/>
	<path class="st0" d="M16.9,7.1l0.6,0.2c0.2,0.1,0.4,0,0.5-0.2c0,0,0,0,0,0c0.1-0.2,0-0.4-0.2-0.5c0,0,0,0,0,0l-0.6-0.2
		c-0.2-0.1-0.4,0-0.5,0.2C16.5,6.8,16.6,7,16.9,7.1C16.8,7.1,16.8,7.1,16.9,7.1L16.9,7.1z"/>
	<path class="st0" d="M16.7,9.4C16.8,9.4,16.8,9.4,16.7,9.4l0.7-0.1c0.2,0,0.4-0.2,0.3-0.4c0,0,0,0,0,0c0-0.2-0.2-0.4-0.4-0.3
		c0,0,0,0,0,0l-0.6,0.1c-0.2,0-0.4,0.2-0.3,0.4C16.4,9.2,16.6,9.4,16.7,9.4L16.7,9.4z"/>
	<path class="st0" d="M17.3,10.8c-0.2,0.1-0.2,0.3-0.1,0.5c0,0,0,0,0,0c0.1,0.2,0.3,0.2,0.5,0.1l0.5-0.3c0.2-0.1,0.2-0.3,0.1-0.5
		c0,0,0,0,0,0c-0.1-0.2-0.3-0.2-0.5-0.1c0,0,0,0,0,0L17.3,10.8z"/>
	<path class="st0" d="M24,4.3c0.2,0.1,0.4,0,0.5-0.2l0.3-0.6c0.1-0.2,0-0.4-0.2-0.5c-0.2-0.1-0.4,0-0.5,0.2l0,0l-0.3,0.6
		C23.7,4,23.8,4.2,24,4.3C24,4.3,24,4.3,24,4.3L24,4.3z"/>
	<path class="st0" d="M25.8,5.5c0.1,0,0.2,0,0.3-0.1L26.5,5c0.2-0.1,0.2-0.4,0-0.5c-0.1-0.2-0.4-0.2-0.5,0c0,0,0,0,0,0l-0.5,0.4
		c-0.2,0.1-0.2,0.4,0,0.5C25.6,5.5,25.7,5.5,25.8,5.5z"/>
	<path class="st0" d="M26.4,7c0.1,0.2,0.2,0.3,0.4,0.3c0,0,0.1,0,0.1,0l0.6-0.2c0.2-0.1,0.3-0.3,0.2-0.5c-0.1-0.2-0.3-0.3-0.5-0.2
		l-0.6,0.2C26.5,6.6,26.4,6.8,26.4,7C26.4,7,26.4,7,26.4,7L26.4,7z"/>
	<path class="st0" d="M27.7,8.6l-0.6-0.1c-0.2,0-0.4,0.1-0.4,0.3c0,0.2,0.1,0.4,0.3,0.4c0,0,0,0,0,0l0.6,0.1C27.8,9.4,28,9.3,28,9
		C28,8.8,27.9,8.6,27.7,8.6C27.7,8.6,27.7,8.6,27.7,8.6z"/>
	<path class="st0" d="M27.1,10.8l-0.5-0.3c-0.2-0.1-0.4,0-0.5,0.1c-0.1,0.2,0,0.4,0.1,0.5c0,0,0,0,0,0l0.5,0.3
		c0.2,0.1,0.4,0,0.5-0.1C27.4,11.2,27.3,10.9,27.1,10.8L27.1,10.8z"/>
	<path d="M6.2,11.3h3.9c0.2,0,0.4-0.2,0.4-0.4c0-0.2-0.2-0.4-0.4-0.4H6.2c-0.2,0-0.4,0.2-0.4,0.4c0,0,0,0,0,0
		C5.8,11.2,6,11.3,6.2,11.3z"/>
	<path d="M4.4,20.9h7.4c0.2,0,0.4-0.2,0.4-0.4c0-0.2-0.2-0.4-0.4-0.4l0,0H4.4c-0.2,0-0.4,0.2-0.4,0.4C4.1,20.8,4.2,20.9,4.4,20.9
		L4.4,20.9z"/>
	<path class="st0" d="M14.6,14.6c-1.2,0-2.3,1-2.3,2.3c0,1.2,1,2.3,2.3,2.3c1.2,0,2.3-1,2.3-2.3S15.9,14.6,14.6,14.6z M14.6,18.4
		c-0.8,0-1.5-0.7-1.5-1.5c0-0.5,0.2-0.9,0.6-1.2c0.2,1.1,1.1,1.9,2.2,1.9c0,0,0,0,0,0C15.7,18,15.2,18.4,14.6,18.4z M16,16.8
		c-0.8,0-1.5-0.6-1.5-1.4c0.1,0,0.1,0,0.2,0c0.8,0,1.5,0.6,1.5,1.4C16.1,16.8,16,16.8,16,16.8z"/>
	<path d="M23.9,22.9L23.9,22.9l-1.9-1.1c-0.3-0.1-0.7-0.2-1-0.2h-6.6v-1.2c0.1,0,0.2,0,0.3,0c2.3,0,4.4-1.2,5.5-3.2
		c0.1-0.2,0.1-0.4,0-0.6c-1.1-2-3.2-3.2-5.5-3.2c-0.1,0-0.2,0-0.3,0V8.6c0-0.4-0.3-0.6-0.6-0.6h-7C6.5,8,6.3,8.1,6.3,8.3
		c0,0.2,0.2,0.4,0.4,0.4h6.9v4.7c-0.3,0-0.5,0.1-0.8,0.2v-0.3c0-0.4-0.3-0.6-0.6-0.6h-8c-0.4,0-0.6,0.3-0.6,0.6v5.3
		c0,0.4,0.3,0.6,0.6,0.6H11c0.8,0.5,1.6,0.9,2.6,1.1v1.3H9c-0.3,0-0.5,0.2-0.7,0.4H4.4c-0.2,0-0.4,0.2-0.4,0.4s0.2,0.4,0.4,0.4h3.8
		v1H4.4c-0.2,0-0.4,0.2-0.4,0.4s0.2,0.4,0.4,0.4h3.8c0,0.4,0.4,0.7,0.8,0.7h4.6v1.5H2.7v-18h2.1c0.2,0,0.4-0.2,0.4-0.4
		C5.3,8.1,5.1,8,4.9,8H2.6C2.3,8,2,8.3,2,8.6v18.2c0,0.4,0.3,0.6,0.6,0.6h11.1c0.4,0,0.6-0.3,0.6-0.6v-1.6H21c0.3,0,0.7-0.1,1-0.2
		l1.9-1.1c0.2-0.1,0.3-0.3,0.3-0.5C24.2,23.2,24.1,23,23.9,22.9z M4.3,18.5v-5.1H12v0.5c-1.2,0.5-2.2,1.5-2.9,2.6
		C9,16.7,9,17,9.1,17.2c0.3,0.5,0.6,0.9,1,1.3H4.3z M9.8,16.9L9.8,16.9c1-1.7,2.8-2.8,4.8-2.8c2,0,3.8,1.1,4.8,2.8
		c-1,1.7-2.8,2.8-4.8,2.8C12.7,19.6,10.8,18.6,9.8,16.9z M10.6,24.5H9c0,0,0,0,0,0v-2.1c0,0,0,0,0,0h1.6L10.6,24.5z M20.4,24.5h-9.1
		v-0.7h5.7c0.2,0,0.4-0.2,0.4-0.4c0-0.2-0.2-0.4-0.4-0.4h-5.7v-0.7h9.1V23h-1.6c-0.2,0-0.4,0.2-0.4,0.4c0,0.2,0.2,0.4,0.4,0.4h1.6
		V24.5z M22,24.1l-0.4,0.2c-0.1,0.1-0.2,0.1-0.4,0.1v-2.1c0.1,0,0.3,0.1,0.4,0.1l0.4,0.2L22,24.1z M22.8,23.7v-0.5l0.5,0.3
		L22.8,23.7z"/>
</g>
<g>
	<defs>
		<rect id="SVGID_1_" x="8.2" y="21.6" width="16.3" height="3.7"/>
	</defs>
	<clipPath id="SVGID_2_">
		<use xlink:href="#SVGID_1_"  style="overflow:visible;"/>
	</clipPath>
	<g class="st1">
		<path class="st0" d="M26,7.2C25.9,7,25.7,6.9,25.5,7c0,0,0,0,0,0c-0.2,0.1-0.3,0.3-0.3,0.5c0.1,0.3,0.1,0.6,0.1,0.9
			c0,0.6-0.1,1.1-0.4,1.6c-0.3,0.5-0.7,0.9-1.1,1.1l-0.2,0.1c-0.1,0.1-0.2,0.2-0.2,0.3v0.5h-0.9v-1.6c0.4-0.1,0.7-0.5,0.7-1V8.5
			c0-0.6-0.5-1.1-1.1-1.1h0c-0.6,0-1.1,0.5-1.1,1.1v0.8c0,0.5,0.3,0.9,0.7,1v1.6h-0.9v-0.5c0-0.1-0.1-0.3-0.2-0.3L20.6,11
			c-0.5-0.3-0.8-0.7-1.1-1.1c-0.3-0.5-0.4-1-0.4-1.6c0-1.7,1.4-3.2,3.2-3.2c0.8,0,1.6,0.3,2.2,0.9c0.2,0.1,0.4,0.1,0.5,0
			c0.1-0.2,0.1-0.4,0-0.5c0,0,0,0,0,0c-0.7-0.7-1.7-1.1-2.7-1.1c-2.2,0-3.9,1.8-3.9,3.9c0,0.7,0.2,1.4,0.5,2c0.3,0.6,0.8,1,1.4,1.4
			V12c-0.2,0.1-0.3,0.3-0.3,0.5v1.7c0,0.3,0.3,0.6,0.6,0.6H21v0.5c0,0.4,0.3,0.7,0.7,0.7h1.1c0.4,0,0.7-0.3,0.7-0.7v-0.5H24
			c0.3,0,0.6-0.3,0.6-0.6v-1.7c0-0.2-0.1-0.4-0.3-0.5v-0.3c0.6-0.3,1-0.8,1.4-1.4c0.3-0.6,0.5-1.3,0.5-2C26.1,7.9,26.1,7.6,26,7.2z
			 M21.9,8.5c0-0.2,0.1-0.3,0.3-0.3h0c0.2,0,0.3,0.1,0.3,0.3v0.8c0,0.2-0.1,0.3-0.3,0.3h0c-0.2,0-0.3-0.1-0.3-0.3V8.5z M22.6,15.3
			h-0.9v-0.4h0.9V15.3z M23.8,14.1h-3.2v-1.4h3.2L23.8,14.1z"/>
		<path class="st0" d="M22.2,3.9c0.2,0,0.4-0.2,0.4-0.4V2.9c0-0.2-0.2-0.4-0.4-0.4s-0.4,0.2-0.4,0.4v0.6C21.8,3.8,22,3.9,22.2,3.9z"
			/>
		<path class="st0" d="M19.9,4.1c0.1,0.1,0.2,0.2,0.3,0.2c0.1,0,0.1,0,0.2,0c0.2-0.1,0.3-0.3,0.2-0.5l-0.3-0.6C20.2,3,20,3,19.8,3
			c-0.2,0.1-0.3,0.3-0.2,0.5c0,0,0,0,0,0L19.9,4.1z"/>
		<path class="st0" d="M17.9,5l0.5,0.4c0.1,0.1,0.2,0.1,0.3,0.1c0.1,0,0.2,0,0.3-0.1C19,5.3,19,5,18.8,4.9l-0.5-0.4
			c-0.2-0.1-0.4-0.1-0.5,0c0,0,0,0,0,0C17.7,4.6,17.7,4.9,17.9,5L17.9,5z"/>
		<path class="st0" d="M16.9,7.1l0.6,0.2c0.2,0.1,0.4,0,0.5-0.2c0,0,0,0,0,0c0.1-0.2,0-0.4-0.2-0.5c0,0,0,0,0,0l-0.6-0.2
			c-0.2-0.1-0.4,0-0.5,0.2C16.5,6.8,16.6,7,16.9,7.1C16.8,7.1,16.8,7.1,16.9,7.1L16.9,7.1z"/>
		<path class="st0" d="M16.7,9.4C16.8,9.4,16.8,9.4,16.7,9.4l0.7-0.1c0.2,0,0.4-0.2,0.3-0.4c0,0,0,0,0,0c0-0.2-0.2-0.4-0.4-0.3
			c0,0,0,0,0,0l-0.6,0.1c-0.2,0-0.4,0.2-0.3,0.4C16.4,9.2,16.6,9.4,16.7,9.4L16.7,9.4z"/>
		<path class="st0" d="M17.3,10.8c-0.2,0.1-0.2,0.3-0.1,0.5c0,0,0,0,0,0c0.1,0.2,0.3,0.2,0.5,0.1l0.5-0.3c0.2-0.1,0.2-0.3,0.1-0.5
			c0,0,0,0,0,0c-0.1-0.2-0.3-0.2-0.5-0.1c0,0,0,0,0,0L17.3,10.8z"/>
		<path class="st0" d="M24,4.3c0.2,0.1,0.4,0,0.5-0.2l0.3-0.6c0.1-0.2,0-0.4-0.2-0.5c-0.2-0.1-0.4,0-0.5,0.2l0,0l-0.3,0.6
			C23.7,4,23.8,4.2,24,4.3C24,4.3,24,4.3,24,4.3L24,4.3z"/>
		<path class="st0" d="M25.8,5.5c0.1,0,0.2,0,0.3-0.1L26.5,5c0.2-0.1,0.2-0.4,0-0.5c-0.1-0.2-0.4-0.2-0.5,0c0,0,0,0,0,0l-0.5,0.4
			c-0.2,0.1-0.2,0.4,0,0.5C25.6,5.5,25.7,5.5,25.8,5.5z"/>
		<path class="st0" d="M26.4,7c0.1,0.2,0.2,0.3,0.4,0.3c0,0,0.1,0,0.1,0l0.6-0.2c0.2-0.1,0.3-0.3,0.2-0.5c-0.1-0.2-0.3-0.3-0.5-0.2
			l-0.6,0.2C26.5,6.6,26.4,6.8,26.4,7C26.4,7,26.4,7,26.4,7L26.4,7z"/>
		<path class="st0" d="M27.7,8.6l-0.6-0.1c-0.2,0-0.4,0.1-0.4,0.3c0,0.2,0.1,0.4,0.3,0.4c0,0,0,0,0,0l0.6,0.1C27.8,9.4,28,9.3,28,9
			C28,8.8,27.9,8.6,27.7,8.6C27.7,8.6,27.7,8.6,27.7,8.6z"/>
		<path class="st0" d="M27.1,10.8l-0.5-0.3c-0.2-0.1-0.4,0-0.5,0.1c-0.1,0.2,0,0.4,0.1,0.5c0,0,0,0,0,0l0.5,0.3
			c0.2,0.1,0.4,0,0.5-0.1C27.4,11.2,27.3,10.9,27.1,10.8L27.1,10.8z"/>
		<path d="M6.2,11.3h3.9c0.2,0,0.4-0.2,0.4-0.4c0-0.2-0.2-0.4-0.4-0.4H6.2c-0.2,0-0.4,0.2-0.4,0.4c0,0,0,0,0,0
			C5.8,11.2,6,11.3,6.2,11.3z"/>
		<path d="M4.4,20.9h7.4c0.2,0,0.4-0.2,0.4-0.4c0-0.2-0.2-0.4-0.4-0.4l0,0H4.4c-0.2,0-0.4,0.2-0.4,0.4C4.1,20.8,4.2,20.9,4.4,20.9
			L4.4,20.9z"/>
		<path class="st0" d="M14.6,14.6c-1.2,0-2.3,1-2.3,2.3c0,1.2,1,2.3,2.3,2.3c1.2,0,2.3-1,2.3-2.3S15.9,14.6,14.6,14.6z M14.6,18.4
			c-0.8,0-1.5-0.7-1.5-1.5c0-0.5,0.2-0.9,0.6-1.2c0.2,1.1,1.1,1.9,2.2,1.9c0,0,0,0,0,0C15.7,18,15.2,18.4,14.6,18.4z M16,16.8
			c-0.8,0-1.5-0.6-1.5-1.4c0.1,0,0.1,0,0.2,0c0.8,0,1.5,0.6,1.5,1.4C16.1,16.8,16,16.8,16,16.8z"/>
		<path class="st0" d="M23.9,22.9L23.9,22.9l-1.9-1.1c-0.3-0.1-0.7-0.2-1-0.2h-6.6v-1.2c0.1,0,0.2,0,0.3,0c2.3,0,4.4-1.2,5.5-3.2
			c0.1-0.2,0.1-0.4,0-0.6c-1.1-2-3.2-3.2-5.5-3.2c-0.1,0-0.2,0-0.3,0V8.6c0-0.4-0.3-0.6-0.6-0.6h-7C6.5,8,6.3,8.1,6.3,8.3
			c0,0.2,0.2,0.4,0.4,0.4h6.9v4.7c-0.3,0-0.5,0.1-0.8,0.2v-0.3c0-0.4-0.3-0.6-0.6-0.6h-8c-0.4,0-0.6,0.3-0.6,0.6v5.3
			c0,0.4,0.3,0.6,0.6,0.6H11c0.8,0.5,1.6,0.9,2.6,1.1v1.3H9c-0.3,0-0.5,0.2-0.7,0.4H4.4c-0.2,0-0.4,0.2-0.4,0.4s0.2,0.4,0.4,0.4h3.8
			v1H4.4c-0.2,0-0.4,0.2-0.4,0.4s0.2,0.4,0.4,0.4h3.8c0,0.4,0.4,0.7,0.8,0.7h4.6v1.5H2.7v-18h2.1c0.2,0,0.4-0.2,0.4-0.4
			C5.3,8.1,5.1,8,4.9,8H2.6C2.3,8,2,8.3,2,8.6v18.2c0,0.4,0.3,0.6,0.6,0.6h11.1c0.4,0,0.6-0.3,0.6-0.6v-1.6H21c0.3,0,0.7-0.1,1-0.2
			l1.9-1.1c0.2-0.1,0.3-0.3,0.3-0.5C24.2,23.2,24.1,23,23.9,22.9z M4.3,18.5v-5.1H12v0.5c-1.2,0.5-2.2,1.5-2.9,2.6
			C9,16.7,9,17,9.1,17.2c0.3,0.5,0.6,0.9,1,1.3H4.3z M9.8,16.9L9.8,16.9c1-1.7,2.8-2.8,4.8-2.8c2,0,3.8,1.1,4.8,2.8
			c-1,1.7-2.8,2.8-4.8,2.8C12.7,19.6,10.8,18.6,9.8,16.9z M10.6,24.5H9c0,0,0,0,0,0v-2.1c0,0,0,0,0,0h1.6L10.6,24.5z M20.4,24.5
			h-9.1v-0.7h5.7c0.2,0,0.4-0.2,0.4-0.4c0-0.2-0.2-0.4-0.4-0.4h-5.7v-0.7h9.1V23h-1.6c-0.2,0-0.4,0.2-0.4,0.4c0,0.2,0.2,0.4,0.4,0.4
			h1.6V24.5z M22,24.1l-0.4,0.2c-0.1,0.1-0.2,0.1-0.4,0.1v-2.1c0.1,0,0.3,0.1,0.4,0.1l0.4,0.2L22,24.1z M22.8,23.7v-0.5l0.5,0.3
			L22.8,23.7z"/>
	</g>
</g>
</svg>
