<svg width="46" height="46" viewBox="0 0 46 46" fill="none" xmlns="http://www.w3.org/2000/svg"
    class="w-12 text-sky-600 min-w-[48px]">
    <path
        d="M24.2762 34.6917V26.8334L21.414 23.7028L23.829 21.2878C24.0051 21.0934 24.0998 20.8386 24.0934 20.5763C24.0869 20.314 23.9798 20.0642 23.7943 19.8786C23.6087 19.6931 23.3589 19.586 23.0966 19.5795C22.8343 19.5731 22.5795 19.6677 22.3851 19.8439L18.5517 23.6773L22.2062 27.6767V34.7556L24.2762 34.6917Z"
        fill="#404040"></path>
    <path
        d="M30.487 37.2472H15.4731C15.202 37.2472 14.942 37.3549 14.7503 37.5466C14.5586 37.7383 14.4509 37.9983 14.4509 38.2694C14.4509 38.5405 14.5586 38.8005 14.7503 38.9922C14.942 39.1839 15.202 39.2916 15.4731 39.2916H30.487C30.7581 39.2916 31.0181 39.1839 31.2098 38.9922C31.4015 38.8005 31.5092 38.5405 31.5092 38.2694C31.5092 37.9983 31.4015 37.7383 31.2098 37.5466C31.0181 37.3549 30.7581 37.2472 30.487 37.2472Z"
        fill="#404040"></path>
    <path
        d="M28.1111 41.0806H17.8889C17.6178 41.0806 17.3578 41.1883 17.1661 41.38C16.9744 41.5717 16.8667 41.8317 16.8667 42.1028C16.8667 42.3739 16.9744 42.6339 17.1661 42.8256C17.3578 43.0173 17.6178 43.125 17.8889 43.125H28.1111C28.3822 43.125 28.6422 43.0173 28.8339 42.8256C29.0256 42.6339 29.1333 42.3739 29.1333 42.1028C29.1333 41.8317 29.0256 41.5717 28.8339 41.38C28.6422 41.1883 28.3822 41.0806 28.1111 41.0806Z"
        fill="#404040"></path>
    <path
        d="M20.0866 18.8473L23.575 15.3334C23.6776 15.2405 23.7602 15.1276 23.8179 15.0017C23.8756 14.8758 23.9071 14.7395 23.9105 14.6011C23.9139 14.4627 23.8892 14.325 23.8377 14.1964C23.7863 14.0678 23.7093 13.951 23.6114 13.8531C23.5135 13.7552 23.3967 13.6782 23.2681 13.6268C23.1395 13.5754 23.0019 13.5506 22.8634 13.554C22.725 13.5574 22.5887 13.5889 22.4628 13.6466C22.3369 13.7043 22.2241 13.7869 22.1311 13.8896L18.6427 17.3779C18.4666 17.5723 18.3719 17.8271 18.3783 18.0894C18.3848 18.3517 18.4919 18.6015 18.6774 18.7871C18.863 18.9726 19.1128 19.0797 19.3751 19.0862C19.6374 19.0926 19.8922 18.998 20.0866 18.8218V18.8473Z"
        fill="#404040"></path>
    <path
        d="M34.5008 16.4579V16.9051C34.5311 18.5664 34.186 20.213 33.4914 21.7223C33.104 22.4025 32.6773 23.0595 32.2136 23.6901C31.0733 25.2303 30.1251 26.9038 29.3897 28.6734C28.8245 30.6311 28.5195 32.6545 28.4825 34.6918H31.038C31.0748 32.9633 31.328 31.2462 31.7919 29.5807C32.4661 28.0072 33.3239 26.5189 34.3475 25.1468C34.8748 24.4037 35.3529 23.6269 35.7786 22.8212C36.6073 21.0484 37.0432 19.1175 37.0564 17.1607C36.1759 17.0467 35.3157 16.8102 34.5008 16.4579Z"
        fill="#404040"></path>
    <path
        d="M17.5183 34.6917C17.4813 32.6544 17.1763 30.6309 16.6111 28.6733C15.8736 26.8942 14.921 25.212 13.7745 23.6644C13.3107 23.0339 12.8841 22.3768 12.4967 21.6967C11.8101 20.1941 11.4696 18.5567 11.5 16.905C11.5038 14.8844 12.0399 12.9005 13.0543 11.153C14.0688 9.40545 15.5257 7.95608 17.2785 6.95079C19.0313 5.9455 21.018 5.41978 23.0386 5.42656C25.0592 5.43335 27.0424 5.9724 28.7883 6.98945C28.8531 6.11638 29.038 5.25643 29.3378 4.43389C27.1948 3.34032 24.807 2.81511 22.403 2.90856C19.9989 3.002 17.6591 3.71096 15.6075 4.96757C13.5559 6.22418 11.8612 7.98637 10.6856 10.0855C9.51001 12.1845 8.8929 14.5503 8.89334 16.9561C8.87107 18.9989 9.30774 21.0207 10.1711 22.8722C10.5989 23.6603 11.0769 24.42 11.6022 25.1467C12.6258 26.5188 13.4836 28.0071 14.1578 29.5806C14.6217 31.2461 14.8749 32.9632 14.9117 34.6917H17.5183Z"
        fill="#404040"></path>
    <path
        d="M38.3333 14.0556C41.8618 14.0556 44.7222 11.1952 44.7222 7.66672C44.7222 4.13823 41.8618 1.27783 38.3333 1.27783C34.8048 1.27783 31.9444 4.13823 31.9444 7.66672C31.9444 11.1952 34.8048 14.0556 38.3333 14.0556Z"
        fill="#00AEEF"></path>
</svg>