<?xml version="1.0" encoding="utf-8"?>
<!-- Generator: Adobe Illustrator 26.0.1, SVG Export Plug-In . SVG Version: 6.00 Build 0)  -->
<svg version="1.1" id="Layer_1" xmlns="http://www.w3.org/2000/svg" xmlns:xlink="http://www.w3.org/1999/xlink" x="0px" y="0px"
	 viewBox="0 0 123 122" style="enable-background:new 0 0 123 122;" xml:space="preserve">
<style type="text/css">
	.st0{fill:none;}
	.st1{fill:#0A83C6;}
</style>
<path class="st0" d="M105.3,82.8c-2.2,0-4.4,0-6.5,0c-2.9,0-4.3-1.4-4.3-4.3c0-9,0-18,0-27c0-0.4,0-0.9,0-1.4c-6.9,0-13.5,0-20.2,0
	c0,12.8,0,25.6,0,38.4c10.4,0,20.7,0,31,0C105.3,86.5,105.3,84.7,105.3,82.8z"/>
<path class="st0" d="M74.2,94.4c-0.1,1.1,0.3,1.4,1.4,1.4c9.5,0,19.1,0,28.6,0c0.4,0,0.8,0,1.2,0c0-1.4,0-2.5,0-3.8
	c-10.4,0-20.7,0-31.2,0C74.2,92.8,74.2,93.6,74.2,94.4z"/>
<path class="st0" d="M116.2,42.7c-6.1,0-12.1,0-18.3,0c0,1.3,0,2.5,0,3.7c6.1,0,12.2,0,18.3,0C116.2,45.2,116.2,44,116.2,42.7z"/>
<path class="st0" d="M48.7,103c4.9,0,9.8,0,14.7,0c0-3.7,0-7.3,0-11c-4.9,0-9.8,0-14.7,0C48.7,95.7,48.7,99.3,48.7,103z"/>
<path class="st0" d="M97.9,79.3c6.2,0,12.3,0,18.3,0c0-1.3,0-2.5,0-3.7c-6.1,0-12.2,0-18.3,0C97.9,76.8,97.9,78,97.9,79.3z"/>
<path class="st0" d="M97.9,72c6.1,0,12.2,0,18.3,0c0-7.3,0-14.6,0-22c-6.2,0-12.2,0-18.3,0C97.9,57.4,97.9,64.7,97.9,72z"/>
<path d="M6.8,88.4c0-2.5,0-4.9,0-7.4c20.1,0,40.1,0,60.2,0c0-1.2,0-2.2,0-3.4c-20.1,0-40.2,0-60.2,0c0-19.6,0-39,0-58.5
	c32.9,0,65.7,0,98.6,0c0,5.5,0,10.9,0,16.3c1.2,0,2.2,0,3.4,0c0-0.4,0-0.8,0-1.2c0-4.8,0-9.7,0-14.5c0-2.8-1.3-4-4-4
	c-32.4,0-64.8,0-97.2,0c-3,0-4.3,1.3-4.3,4.3c0,22.5,0,44.9,0,67.4c0,3,1.9,4.7,4.7,4.7c11.9-0.1,23.9,0,35.8,0c0.5,0,0.9,0,1.4,0
	c0,3.8,0,7.4,0,11.2c-2.4,0-4.7,0-7.1,0c0,1.2,0,2.3,0,3.3c12.1,0,24.2,0,36.3,0c0-1.1,0-2.2,0-3.4c-2.5,0-4.9,0-7.5,0
	c0-2,0-3.8,0-5.6c0-1.8,0-3.6,0-5.5c1.3,0,2,0,3.4,0l0-3.6C48.8,88.4,28.1,88.4,6.8,88.4z M63.4,103c-4.9,0-9.7,0-14.7,0
	c0-3.7,0-7.3,0-11c4.9,0,9.8,0,14.7,0C63.4,95.7,63.4,99.3,63.4,103z"/>
<g>
	<path d="M13.3,28.4h4.3c0.7,0,1.3-0.5,1.3-1.2c0-0.7-0.6-1.2-1.3-1.2c0,0,0,0,0,0h-4.3c-0.7,0-1.3,0.5-1.3,1.2
		C12,27.9,12.6,28.4,13.3,28.4z"/>
	<path d="M56,26H21.8c-0.7,0-1.3,0.5-1.3,1.2c0,0.7,0.6,1.2,1.3,1.2H56c0.7,0,1.3-0.5,1.3-1.2C57.3,26.6,56.7,26,56,26z"/>
	<path d="M13.3,35h41.9c0.7,0,1.3-0.5,1.3-1.2c0,0,0,0,0,0c0-0.6-0.6-1.2-1.3-1.2c0,0,0,0,0,0H13.3c-0.7,0-1.3,0.5-1.3,1.1
		c0,0,0,0,0,0C12,34.5,12.6,35,13.3,35C13.3,35,13.3,35,13.3,35z"/>
	<path d="M13.3,41.6h38.5c0.7,0,1.3-0.5,1.3-1.2c0-0.6-0.6-1.2-1.3-1.2H13.3c-0.7,0-1.3,0.5-1.3,1.2c0,0,0,0,0,0
		C12,41.1,12.6,41.6,13.3,41.6C13.3,41.6,13.3,41.6,13.3,41.6z"/>
	<path d="M56,45.8H13.3c-0.7,0-1.3,0.5-1.3,1.2c0,0.7,0.6,1.2,1.3,1.2H56c0.7,0,1.3-0.5,1.3-1.2C57.3,46.4,56.7,45.8,56,45.8z"/>
</g>
<path class="st1" d="M84.2,41.9l0.3-3.6c0-0.1,0-0.3-0.1-0.4c-0.1-0.1-0.3-0.1-0.4-0.1l-1.1,0.4c-0.4-1.2-1.2-2.2-2.2-2.9
	c-2.2-1.3-5.4-1.1-9.6,0.6c-3.3,1.3-5.7,1.4-7.1,0.2c-1.7-1.4-1.5-4.2-1.4-4.8c0.9-0.5,1.3-1.5,0.9-2.5c-0.5-1-1.7-1.4-2.7-0.9
	c-0.9,0.4-1.3,1.5-1.1,2.4c0.3,0.8,1.2,1.3,2.1,1.2c-0.1,1.1,0,2.3,0.4,3.4c0.3,0.7,0.7,1.3,1.3,1.8c1.7,1.3,4.3,1.3,7.9-0.1
	c3.9-1.5,7-1.7,8.9-0.6c0.9,0.5,1.6,1.4,1.9,2.4L81,39c-0.1,0.1-0.2,0.2-0.2,0.3c0,0.1,0,0.1,0.1,0.2c0,0.1,0,0.1,0.1,0.2l2.7,2.4
	c0.1,0.1,0.3,0.1,0.4,0.1C84.1,42.1,84.2,42,84.2,41.9z M60.4,30c-0.2-0.6,0.1-1.3,0.7-1.6c0.6-0.2,1.3,0.1,1.6,0.7
	c0.2,0.6-0.1,1.3-0.7,1.6C61.3,30.9,60.6,30.6,60.4,30L60.4,30z M81.9,39.5l1.8-0.7L83.5,41L81.9,39.5z"/>
<path class="st1" d="M46.1,59.3l-0.3,3.4c0,0.1,0,0.3,0.1,0.3c0.1,0.1,0.3,0.1,0.4,0l1-0.4c0.3,1.1,1.1,2.1,2.1,2.7
	c2.1,1.2,5.1,1,9.1-0.5c3.1-1.2,5.4-1.3,6.7-0.2c1.6,1.3,1.4,3.9,1.3,4.6c-0.8,0.4-1.2,1.5-0.9,2.3c0.5,1,1.6,1.3,2.6,0.9
	c0.8-0.4,1.3-1.4,1-2.3c-0.3-0.8-1.1-1.3-1.9-1.2c0.1-1.1,0-2.2-0.4-3.2c-0.2-0.7-0.7-1.3-1.2-1.7c-1.6-1.3-4.1-1.2-7.4,0.1
	c-3.7,1.4-6.6,1.6-8.4,0.6c-0.9-0.5-1.5-1.3-1.8-2.3l1.1-0.4c0.1-0.1,0.2-0.2,0.2-0.3c0-0.1,0-0.1-0.1-0.2c0-0.1,0-0.1-0.1-0.2
	L46.7,59c-0.1-0.1-0.3-0.1-0.4-0.1C46.2,59,46.1,59.1,46.1,59.3z M68.4,70.4c0.2,0.6-0.1,1.3-0.7,1.5c-0.6,0.2-1.3-0.1-1.5-0.7
	c-0.2-0.6,0.1-1.3,0.7-1.5C67.5,69.5,68.2,69.8,68.4,70.4L68.4,70.4z M48.3,61.5l-1.7,0.7l0.2-2L48.3,61.5z"/>
<path class="st1" d="M115.6,39.2c-5.6,0.1-11.3,0-16.9,0c-2.9,0-4.2,1.3-4.2,4.2c0,1,0,2,0,3.1c-0.6,0-1,0-1.4,0c-6,0-12,0-18,0
	c-3.1,0-4.4,1.3-4.4,4.3c0,12,0,24,0,36c0,0.5,0,1,0,1.5l0,3.6c0,1.2,0,1.9,0,3c0,2.8,1.5,4.2,4.3,4.2c9.9,0,19.8,0,29.7,0
	c2.6,0,4.1-1.4,4.1-4.1c0-3.7,0-7.3,0-11c0-0.4,0-0.8,0-1.3c2.2,0,4.3-0.1,6.4,0c2.3,0.1,3.8-0.7,4.5-2.9c0-12.7,0-25.5,0-38.2
	C118.9,40,117.5,39.2,115.6,39.2z M97.9,42.7c6.1,0,12.2,0,18.3,0c0,1.2,0,2.4,0,3.7c-6.1,0-12.1,0-18.3,0
	C97.9,45.3,97.9,44,97.9,42.7z M74.3,50c6.7,0,13.3,0,20.2,0c0,0.5,0,1,0,1.4c0,9,0,18,0,27c0,2.9,1.4,4.3,4.3,4.3
	c2.2,0,4.3,0,6.5,0c0,1.9,0,3.7,0,5.6c-10.3,0-20.6,0-31,0C74.3,75.6,74.3,62.9,74.3,50z M105.3,95.8c-0.4,0-0.8,0-1.2,0
	c-9.5,0-19.1,0-28.6,0c-1.1,0-1.5-0.3-1.4-1.4c0.1-0.8,0-1.6,0-2.4c10.4,0,20.7,0,31.2,0C105.3,93.3,105.3,94.4,105.3,95.8z
	 M116.2,79.3c-6.1,0-12.1,0-18.3,0c0-1.3,0-2.4,0-3.7c6.1,0,12.2,0,18.3,0C116.2,76.8,116.2,78,116.2,79.3z M116.2,72
	c-6.1,0-12.2,0-18.3,0c0-7.3,0-14.6,0-22c6.1,0,12.1,0,18.3,0C116.2,57.4,116.2,64.6,116.2,72z"/>
</svg>
