<?xml version="1.0" encoding="utf-8"?>
<!-- Generator: Adobe Illustrator 26.0.1, SVG Export Plug-In . SVG Version: 6.00 Build 0)  -->
<svg version="1.1" id="Layer_1" xmlns="http://www.w3.org/2000/svg" xmlns:xlink="http://www.w3.org/1999/xlink" x="0px" y="0px"
	 viewBox="0 0 123 122" style="enable-background:new 0 0 123 122;" xml:space="preserve">
<style type="text/css">
	.st0{fill:none;stroke:#1D1E1C;stroke-width:3;stroke-miterlimit:10;}
	.st1{fill:#1D1E1C;}
	.st2{fill:#0A83C6;}
	.st3{fill:#FFFFFF;}
</style>
<path class="st0" d="M24.8,114h73.3c3.5,0,6.4-2.9,6.4-6.4V14.4c0-3.5-2.9-6.4-6.4-6.4H24.8c-3.5,0-6.4,2.9-6.4,6.4v93.3
	C18.4,111.2,21.3,114,24.8,114z"/>
<path class="st1" d="M94.5,39.7H59.3c-0.9,0-1.7-0.8-1.7-1.7v0c0-0.9,0.8-1.7,1.7-1.7h35.1c0.9,0,1.7,0.8,1.7,1.7v0
	C96.2,39,95.4,39.7,94.5,39.7z"/>
<path class="st1" d="M87.6,66.4H59.1c-0.9,0-1.7-0.8-1.7-1.7l0,0c0-0.9,0.8-1.7,1.7-1.7h28.5c0.9,0,1.7,0.8,1.7,1.7l0,0
	C89.3,65.6,88.5,66.4,87.6,66.4z"/>
<path class="st1" d="M80.8,75.6H59.1c-0.9,0-1.7-0.8-1.7-1.7v0c0-0.9,0.8-1.7,1.7-1.7h21.7c0.9,0,1.7,0.8,1.7,1.7v0
	C82.6,74.8,81.8,75.6,80.8,75.6z"/>
<path class="st1" d="M94.5,49.4H59.3c-0.9,0-1.7-0.8-1.7-1.7v0c0-0.9,0.8-1.7,1.7-1.7h35.1c0.9,0,1.7,0.8,1.7,1.7v0
	C96.2,48.6,95.4,49.4,94.5,49.4z"/>
<path class="st1" d="M94.5,91.1H59.3c-0.9,0-1.7-0.8-1.7-1.7l0,0c0-0.9,0.8-1.7,1.7-1.7h35.1c0.9,0,1.7,0.8,1.7,1.7l0,0
	C96.2,90.3,95.4,91.1,94.5,91.1z"/>
<path class="st1" d="M94.5,100.8H59.3c-0.9,0-1.7-0.8-1.7-1.7v0c0-0.9,0.8-1.7,1.7-1.7h35.1c0.9,0,1.7,0.8,1.7,1.7v0
	C96.2,100,95.4,100.8,94.5,100.8z"/>
<g>
	<path class="st2" d="M42.4,43.1c0,4.1-3.3,7.4-7.4,7.4c-4.1,0-7.4-3.3-7.4-7.4c0-4.1,3.3-7.4,7.4-7.4c1.5,0,3,0.5,4.1,1.3
		c0.5,0.3,0.9,0.7,1.3,1.1C41.7,39.4,42.4,41.1,42.4,43.1z"/>
	<path class="st3" d="M40.5,38c-1.9,2.3-3.6,4.8-5,7.5c-0.2,0.4-0.4,0.8-0.7,1.1c-0.4,0.6-0.5,0.6-0.9,0c-0.5-1-1-2.1-1.5-3.1
		c-0.2-0.4-0.4-0.8-0.6-1.2c-0.3-0.6-0.8-1.1-1.6-1c0.4-1.2,1.7-1.7,2.7-0.9c0.6,0.5,1.1,1.2,1.6,1.8c0.7-1,1.5-2,2.4-3
		c0.7-0.9,1.4-1.7,2.2-2.4C39.6,37.2,40.1,37.6,40.5,38z"/>
</g>
<g>
	<path class="st2" d="M42.4,94.9c0,4.1-3.3,7.4-7.4,7.4c-4.1,0-7.4-3.3-7.4-7.4c0-4.1,3.3-7.4,7.4-7.4c1.5,0,3,0.5,4.1,1.3
		c0.5,0.3,0.9,0.7,1.3,1.1C41.7,91.2,42.4,93,42.4,94.9z"/>
	<path class="st3" d="M40.5,89.9c-1.9,2.3-3.6,4.8-5,7.5c-0.2,0.4-0.4,0.8-0.7,1.1c-0.4,0.6-0.5,0.6-0.9,0c-0.5-1-1-2.1-1.5-3.1
		c-0.2-0.4-0.4-0.8-0.6-1.2c-0.3-0.6-0.8-1.1-1.6-1c0.4-1.2,1.7-1.7,2.7-0.9c0.6,0.5,1.1,1.2,1.6,1.8c0.7-1,1.5-2,2.4-3
		c0.7-0.9,1.4-1.7,2.2-2.4C39.6,89.1,40.1,89.4,40.5,89.9z"/>
</g>
<g>
	<path class="st2" d="M42.4,68.8c0,4.1-3.3,7.4-7.4,7.4c-4.1,0-7.4-3.3-7.4-7.4c0-4.1,3.3-7.4,7.4-7.4c1.5,0,3,0.5,4.1,1.3
		c0.5,0.3,0.9,0.7,1.3,1.1C41.7,65.1,42.4,66.8,42.4,68.8z"/>
	<g>
		<path class="st3" d="M39.5,71.9l-1.4,1.4c0,0-0.1,0-0.2,0l-2.9-2.9c0,0-0.1,0-0.2,0L32,73.3c0,0-0.1,0-0.2,0l-1.4-1.4
			c0,0,0-0.1,0-0.2l2.9-2.9c0,0,0-0.1,0-0.2l-2.9-2.9c0,0,0-0.1,0-0.2l1.4-1.4c0,0,0.1,0,0.2,0l2.9,2.9c0,0,0.1,0,0.2,0l2.9-2.9
			c0,0,0.1,0,0.2,0l1.4,1.4c0,0,0,0.1,0,0.2l-2.9,2.9c0,0,0,0.1,0,0.2l2.9,2.9C39.6,71.8,39.6,71.9,39.5,71.9z"/>
	</g>
</g>
</svg>
