<svg width="30" height="30" viewBox="0 0 30 30" fill="none" xmlns="http://www.w3.org/2000/svg">
<g clip-path="url(#clip0_32_2)">
<path d="M19.4002 11.0001C19.4002 10.8001 19.6002 10.6001 19.8002 10.6001H27.9002C28.1002 10.6001 28.3002 10.8001 28.3002 11.0001C28.3002 11.2001 28.1002 11.4001 27.9002 11.4001H19.8002C19.6002 11.4001 19.4002 11.2001 19.4002 11.0001ZM1.7002 7.5001C1.7002 4.3001 4.30019 1.6001 7.60019 1.6001C10.9002 1.6001 13.5002 4.2001 13.5002 7.5001C13.5002 10.8001 10.9002 13.4001 7.60019 13.4001C4.30019 13.4001 1.7002 10.8001 1.7002 7.5001ZM12.5002 8.0001H8.3002L10.5002 11.7001C11.6002 10.8001 12.4002 9.5001 12.5002 8.0001ZM8.0002 2.5001V7.1001H12.6002C12.3002 4.7001 10.4002 2.7001 8.0002 2.5001ZM2.5002 7.5001C2.5002 10.3001 4.8002 12.5001 7.5002 12.5001C8.3002 12.5001 9.0002 12.3001 9.7002 12.0001L7.2002 7.8001C7.2002 7.7001 7.10019 7.7001 7.10019 7.6001V2.6001C4.5002 2.7001 2.5002 4.9001 2.5002 7.5001ZM19.9002 2.8001H28.0002C28.2002 2.8001 28.4002 2.6001 28.4002 2.4001C28.4002 2.2001 28.2002 2.0001 28.0002 2.0001H19.9002C19.7002 2.0001 19.5002 2.2001 19.5002 2.4001C19.4002 2.6001 19.6002 2.8001 19.9002 2.8001ZM19.9002 4.5001H23.9002C24.1002 4.5001 24.3002 4.3001 24.3002 4.1001C24.3002 3.9001 24.1002 3.7001 23.9002 3.7001H19.9002C19.7002 3.7001 19.5002 3.9001 19.5002 4.1001C19.5002 4.3001 19.6002 4.5001 19.9002 4.5001ZM15.3002 4.4001V2.1001C15.3002 1.9001 15.5002 1.7001 15.7002 1.7001H18.0002C18.2002 1.7001 18.4002 1.9001 18.4002 2.1001V4.4001C18.4002 4.6001 18.2002 4.8001 18.0002 4.8001H15.7002C15.5002 4.8001 15.3002 4.6001 15.3002 4.4001ZM16.1002 4.0001H17.6002V2.5001H16.1002V4.0001ZM19.9002 7.1001H28.0002C28.2002 7.1001 28.4002 6.9001 28.4002 6.7001C28.4002 6.5001 28.2002 6.3001 28.0002 6.3001H19.9002C19.7002 6.3001 19.5002 6.5001 19.5002 6.7001C19.5002 6.9001 19.6002 7.1001 19.9002 7.1001ZM19.9002 8.8001H23.9002C24.1002 8.8001 24.3002 8.6001 24.3002 8.4001C24.3002 8.2001 24.1002 8.0001 23.9002 8.0001H19.9002C19.7002 8.0001 19.5002 8.2001 19.5002 8.4001C19.4002 8.6001 19.6002 8.8001 19.9002 8.8001ZM15.3002 8.7001V6.4001C15.3002 6.2001 15.5002 6.0001 15.7002 6.0001H18.0002C18.2002 6.0001 18.4002 6.2001 18.4002 6.4001V8.7001C18.4002 8.9001 18.2002 9.1001 18.0002 9.1001H15.7002C15.5002 9.1001 15.3002 8.9001 15.3002 8.7001ZM16.1002 8.3001H17.6002V6.8001H16.1002V8.3001ZM5.3002 18.4001V27.9001C5.3002 28.1001 5.1002 28.3001 4.9002 28.3001H2.1002C1.9002 28.3001 1.7002 28.1001 1.7002 27.9001V18.4001C1.7002 18.2001 1.9002 18.0001 2.1002 18.0001H4.9002C5.1002 18.0001 5.3002 18.2001 5.3002 18.4001ZM4.4002 18.8001H2.5002V27.5001H4.4002V18.8001ZM28.1002 25.9001L27.0002 27.0001C26.8002 27.2001 26.6002 27.3001 26.4002 27.3001C26.2002 27.3001 25.9002 27.2001 25.8002 27.0001L22.9002 24.1001C22.7002 23.9001 22.6002 23.7001 22.6002 23.5001C22.6002 23.4001 22.6002 23.3001 22.7002 23.1001L21.6002 22.0001C21.2002 22.3001 20.8002 22.5001 20.3002 22.7001V27.8001C20.3002 28.0001 20.1002 28.2001 19.9002 28.2001H17.0002C16.8002 28.2001 16.6002 28.0001 16.6002 27.8001V23.0001C16.1002 22.9001 15.6002 22.7001 15.2002 22.4001V27.9001C15.2002 28.1001 15.0002 28.3001 14.8002 28.3001H12.0002C11.8002 28.3001 11.6002 28.1001 11.6002 27.9001V19.8001C11.6002 19.6001 11.8002 19.4001 12.0002 19.4001H12.6002C12.4002 18.8001 12.3002 18.1001 12.3002 17.5001C12.3002 15.3001 13.5002 13.4001 15.4002 12.4001V10.8001C15.4002 10.6001 15.6002 10.4001 15.8002 10.4001H18.0002C18.2002 10.4001 18.4002 10.6001 18.4002 10.8001V11.8001C19.2002 11.9001 19.9002 12.1001 20.6002 12.4001H23.9002C24.1002 12.4001 24.3002 12.6001 24.3002 12.8001C24.3002 13.0001 24.1002 13.2001 23.9002 13.2001H21.8002C23.0002 14.3001 23.7002 15.8001 23.7002 17.5001C23.7002 18.6001 23.4002 19.6001 22.9002 20.5001L24.1002 21.6001C24.2002 21.5001 24.3002 21.5001 24.5002 21.5001C24.7002 21.5001 25.0002 21.6001 25.1002 21.8001L28.0002 24.7001C28.4002 25.0001 28.4002 25.6001 28.1002 25.9001ZM22.4002 21.1001C22.3002 21.2001 22.2002 21.4001 22.0002 21.5001L23.0002 22.5001L23.4002 22.1001L22.4002 21.1001ZM16.1002 12.0001C16.6002 11.8001 17.1002 11.7001 17.6002 11.7001V11.1001H16.1002V12.0001ZM13.0002 17.4001C13.0002 20.1001 15.2002 22.3001 17.9002 22.3001C20.6002 22.3001 22.8002 20.1001 22.8002 17.4001C22.8002 14.7001 20.6002 12.5001 17.9002 12.5001C15.2002 12.5001 13.0002 14.7001 13.0002 17.4001ZM14.3002 21.9001C13.8002 21.4001 13.3002 20.9001 12.9002 20.3001H12.3002V27.6001H14.2002V21.9001H14.3002ZM19.3002 23.1001C18.9002 23.2001 18.4002 23.3001 18.0002 23.3001C17.8002 23.3001 17.6002 23.3001 17.4002 23.3001V27.6001H19.3002V23.1001ZM27.5002 25.2001L24.6002 22.3001L23.5002 23.4001C23.5002 23.4001 23.5002 23.4001 23.5002 23.5001L26.4002 26.4001H26.5002L27.6002 25.3001C27.5002 25.3001 27.5002 25.3001 27.5002 25.2001ZM10.1002 16.0001V27.9001C10.1002 28.1001 9.9002 28.3001 9.7002 28.3001H6.9002C6.7002 28.3001 6.5002 28.1001 6.5002 27.9001V16.0001C6.5002 15.8001 6.7002 15.6001 6.9002 15.6001H9.7002C9.9002 15.6001 10.1002 15.7001 10.1002 16.0001ZM9.3002 16.4001H7.3002V27.5001H9.2002V16.4001H9.3002ZM13.7002 17.4001C13.7002 15.0001 15.6002 13.1001 18.0002 13.1001C20.4002 13.1001 22.3002 15.0001 22.3002 17.4001C22.3002 19.8001 20.4002 21.7001 18.0002 21.7001C15.6002 21.7001 13.7002 19.8001 13.7002 17.4001ZM18.0002 20.9001C18.9002 20.9001 19.7002 20.6001 20.3002 20.1001C20.0002 19.0001 19.1002 18.2001 18.0002 18.2001C16.9002 18.2001 15.9002 19.0001 15.7002 20.1001C16.3002 20.6001 17.1002 20.9001 18.0002 20.9001ZM18.0002 17.4001C18.5002 17.4001 19.0002 17.0001 19.0002 16.4001C19.0002 15.9001 18.6002 15.4001 18.0002 15.4001C17.4002 15.4001 17.0002 15.8001 17.0002 16.4001C17.0002 17.0001 17.5002 17.4001 18.0002 17.4001ZM14.5002 17.4001C14.5002 18.1001 14.7002 18.8001 15.1002 19.3001C15.4002 18.5001 16.0002 18.0001 16.7002 17.6001C16.4002 17.3001 16.2002 16.8001 16.2002 16.4001C16.2002 15.4001 17.0002 14.6001 18.0002 14.6001C19.0002 14.6001 19.8002 15.4001 19.8002 16.4001C19.8002 16.9001 19.6002 17.3001 19.3002 17.6001C20.0002 17.9001 20.6002 18.5001 20.9002 19.3001C21.3002 18.7001 21.5002 18.1001 21.5002 17.4001C21.5002 15.5001 19.9002 13.9001 18.0002 13.9001C16.1002 13.9001 14.5002 15.5001 14.5002 17.4001Z" fill="black"/>
<mask id="mask0_32_2" style="mask-type:luminance" maskUnits="userSpaceOnUse" x="11" y="11" width="19" height="18">
<path d="M15.2998 12.2998C15.2998 12.2998 16.6998 11.3998 18.3998 11.5998L20.1998 11.7998L20.5998 12.1998C20.5998 12.1998 21.3998 12.6998 21.7998 12.9998L23.3998 14.0998L24.8998 16.4998L24.3998 19.8998L29.2998 23.3998L29.0998 25.8998L28.5998 27.3998L26.9998 28.1998L25.6998 27.9998L23.4998 26.0998L21.8998 23.7998L20.1998 22.8998C20.1998 22.8998 18.5998 23.5998 16.5998 23.0998C16.5998 23.0998 15.0998 22.6998 14.2998 21.8998L12.9998 21.3998V20.2998C12.9998 20.2998 12.7998 19.7998 12.5998 19.4998L12.1998 18.8998L11.7998 15.1998L13.2998 12.7998L15.2998 12.2998Z" fill="white"/>
</mask>
<g mask="url(#mask0_32_2)">
<path d="M19.3997 10.9996C19.3997 10.7996 19.5997 10.5996 19.7997 10.5996H27.8997C28.0997 10.5996 28.2997 10.7996 28.2997 10.9996C28.2997 11.1996 28.0997 11.3996 27.8997 11.3996H19.7997C19.5997 11.3996 19.3997 11.1996 19.3997 10.9996ZM1.69971 7.49961C1.69971 4.29961 4.29971 1.59961 7.59971 1.59961C10.8997 1.59961 13.4997 4.19961 13.4997 7.49961C13.4997 10.7996 10.8997 13.3996 7.59971 13.3996C4.29971 13.3996 1.69971 10.7996 1.69971 7.49961ZM12.4997 7.99961H8.29971L10.4997 11.6996C11.5997 10.7996 12.3997 9.49961 12.4997 7.99961ZM7.99971 2.49961V7.09961H12.5997C12.2997 4.69961 10.3997 2.69961 7.99971 2.49961ZM2.49971 7.49961C2.49971 10.2996 4.79971 12.4996 7.49971 12.4996C8.29971 12.4996 8.99971 12.2996 9.69971 11.9996L7.19971 7.79961C7.19971 7.69961 7.09971 7.69961 7.09971 7.59961V2.59961C4.49971 2.69961 2.49971 4.89961 2.49971 7.49961ZM19.8997 2.79961H27.9997C28.1997 2.79961 28.3997 2.59961 28.3997 2.39961C28.3997 2.19961 28.1997 1.99961 27.9997 1.99961H19.8997C19.6997 1.99961 19.4997 2.19961 19.4997 2.39961C19.3997 2.59961 19.5997 2.79961 19.8997 2.79961ZM19.8997 4.49961H23.8997C24.0997 4.49961 24.2997 4.29961 24.2997 4.09961C24.2997 3.89961 24.0997 3.69961 23.8997 3.69961H19.8997C19.6997 3.69961 19.4997 3.89961 19.4997 4.09961C19.4997 4.29961 19.5997 4.49961 19.8997 4.49961ZM15.2997 4.39961V2.09961C15.2997 1.89961 15.4997 1.69961 15.6997 1.69961H17.9997C18.1997 1.69961 18.3997 1.89961 18.3997 2.09961V4.39961C18.3997 4.59961 18.1997 4.79961 17.9997 4.79961H15.6997C15.4997 4.79961 15.2997 4.59961 15.2997 4.39961ZM16.0997 3.99961H17.5997V2.49961H16.0997V3.99961ZM19.8997 7.09961H27.9997C28.1997 7.09961 28.3997 6.89961 28.3997 6.69961C28.3997 6.49961 28.1997 6.29961 27.9997 6.29961H19.8997C19.6997 6.29961 19.4997 6.49961 19.4997 6.69961C19.4997 6.89961 19.5997 7.09961 19.8997 7.09961ZM19.8997 8.79961H23.8997C24.0997 8.79961 24.2997 8.59961 24.2997 8.39961C24.2997 8.19961 24.0997 7.99961 23.8997 7.99961H19.8997C19.6997 7.99961 19.4997 8.19961 19.4997 8.39961C19.3997 8.59961 19.5997 8.79961 19.8997 8.79961ZM15.2997 8.69961V6.39961C15.2997 6.19961 15.4997 5.99961 15.6997 5.99961H17.9997C18.1997 5.99961 18.3997 6.19961 18.3997 6.39961V8.69961C18.3997 8.89961 18.1997 9.09961 17.9997 9.09961H15.6997C15.4997 9.09961 15.2997 8.89961 15.2997 8.69961ZM16.0997 8.29961H17.5997V6.79961H16.0997V8.29961ZM5.29971 18.3996V27.8996C5.29971 28.0996 5.09971 28.2996 4.89971 28.2996H2.09971C1.89971 28.2996 1.69971 28.0996 1.69971 27.8996V18.3996C1.69971 18.1996 1.89971 17.9996 2.09971 17.9996H4.89971C5.09971 17.9996 5.29971 18.1996 5.29971 18.3996ZM4.39971 18.7996H2.49971V27.4996H4.39971V18.7996ZM28.0997 25.8996L26.9997 26.9996C26.7997 27.1996 26.5997 27.2996 26.3997 27.2996C26.1997 27.2996 25.8997 27.1996 25.7997 26.9996L22.8997 24.0996C22.6997 23.8996 22.5997 23.6996 22.5997 23.4996C22.5997 23.3996 22.5997 23.2996 22.6997 23.0996L21.5997 21.9996C21.1997 22.2996 20.7997 22.4996 20.2997 22.6996V27.7996C20.2997 27.9996 20.0997 28.1996 19.8997 28.1996H16.9997C16.7997 28.1996 16.5997 27.9996 16.5997 27.7996V22.9996C16.0997 22.8996 15.5997 22.6996 15.1997 22.3996V27.8996C15.1997 28.0996 14.9997 28.2996 14.7997 28.2996H11.9997C11.7997 28.2996 11.5997 28.0996 11.5997 27.8996V19.7996C11.5997 19.5996 11.7997 19.3996 11.9997 19.3996H12.5997C12.3997 18.7996 12.2997 18.0996 12.2997 17.4996C12.2997 15.2996 13.4997 13.3996 15.3997 12.3996V10.7996C15.3997 10.5996 15.5997 10.3996 15.7997 10.3996H17.9997C18.1997 10.3996 18.3997 10.5996 18.3997 10.7996V11.7996C19.1997 11.8996 19.8997 12.0996 20.5997 12.3996H23.8997C24.0997 12.3996 24.2997 12.5996 24.2997 12.7996C24.2997 12.9996 24.0997 13.1996 23.8997 13.1996H21.7997C22.9997 14.2996 23.6997 15.7996 23.6997 17.4996C23.6997 18.5996 23.3997 19.5996 22.8997 20.4996L24.0997 21.5996C24.1997 21.4996 24.2997 21.4996 24.4997 21.4996C24.6997 21.4996 24.9997 21.5996 25.0997 21.7996L27.9997 24.6996C28.3997 24.9996 28.3997 25.5996 28.0997 25.8996ZM22.3997 21.0996C22.2997 21.1996 22.1997 21.3996 21.9997 21.4996L22.9997 22.4996L23.3997 22.0996L22.3997 21.0996ZM16.0997 11.9996C16.5997 11.7996 17.0997 11.6996 17.5997 11.6996V11.0996H16.0997V11.9996ZM12.9997 17.3996C12.9997 20.0996 15.1997 22.2996 17.8997 22.2996C20.5997 22.2996 22.7997 20.0996 22.7997 17.3996C22.7997 14.6996 20.5997 12.4996 17.8997 12.4996C15.1997 12.4996 12.9997 14.6996 12.9997 17.3996ZM14.2997 21.8996C13.7997 21.3996 13.2997 20.8996 12.8997 20.2996H12.2997V27.5996H14.1997V21.8996H14.2997ZM19.2997 23.0996C18.8997 23.1996 18.3997 23.2996 17.9997 23.2996C17.7997 23.2996 17.5997 23.2996 17.3997 23.2996V27.5996H19.2997V23.0996ZM27.4997 25.1996L24.5997 22.2996L23.4997 23.3996C23.4997 23.3996 23.4997 23.3996 23.4997 23.4996L26.3997 26.3996H26.4997L27.5997 25.2996C27.4997 25.2996 27.4997 25.2996 27.4997 25.1996ZM10.0997 15.9996V27.8996C10.0997 28.0996 9.89971 28.2996 9.69971 28.2996H6.89971C6.69971 28.2996 6.49971 28.0996 6.49971 27.8996V15.9996C6.49971 15.7996 6.69971 15.5996 6.89971 15.5996H9.69971C9.89971 15.5996 10.0997 15.6996 10.0997 15.9996ZM9.29971 16.3996H7.29971V27.4996H9.19971V16.3996H9.29971ZM13.6997 17.3996C13.6997 14.9996 15.5997 13.0996 17.9997 13.0996C20.3997 13.0996 22.2997 14.9996 22.2997 17.3996C22.2997 19.7996 20.3997 21.6996 17.9997 21.6996C15.5997 21.6996 13.6997 19.7996 13.6997 17.3996ZM17.9997 20.8996C18.8997 20.8996 19.6997 20.5996 20.2997 20.0996C19.9997 18.9996 19.0997 18.1996 17.9997 18.1996C16.8997 18.1996 15.8997 18.9996 15.6997 20.0996C16.2997 20.5996 17.0997 20.8996 17.9997 20.8996ZM17.9997 17.3996C18.4997 17.3996 18.9997 16.9996 18.9997 16.3996C18.9997 15.8996 18.5997 15.3996 17.9997 15.3996C17.3997 15.3996 16.9997 15.7996 16.9997 16.3996C16.9997 16.9996 17.4997 17.3996 17.9997 17.3996ZM14.4997 17.3996C14.4997 18.0996 14.6997 18.7996 15.0997 19.2996C15.3997 18.4996 15.9997 17.9996 16.6997 17.5996C16.3997 17.2996 16.1997 16.7996 16.1997 16.3996C16.1997 15.3996 16.9997 14.5996 17.9997 14.5996C18.9997 14.5996 19.7997 15.3996 19.7997 16.3996C19.7997 16.8996 19.5997 17.2996 19.2997 17.5996C19.9997 17.8996 20.5997 18.4996 20.8997 19.2996C21.2997 18.6996 21.4997 18.0996 21.4997 17.3996C21.4997 15.4996 19.8997 13.8996 17.9997 13.8996C16.0997 13.8996 14.4997 15.4996 14.4997 17.3996Z" fill="#0284C7"/>
</g>
<mask id="mask1_32_2" style="mask-type:luminance" maskUnits="userSpaceOnUse" x="1" y="1" width="14" height="13">
<path d="M14.4 7.4998C14.4 10.2998 10.4 13.7998 7.6 13.7998C4.8 13.7998 1 10.1998 1 7.4998C1 4.7998 4.9 1.2998 7.6 1.2998C10.3 1.2998 14.4 4.7998 14.4 7.4998Z" fill="white"/>
</mask>
<g mask="url(#mask1_32_2)">
<path d="M19.4002 10.9996C19.4002 10.7996 19.6002 10.5996 19.8002 10.5996H27.9002C28.1002 10.5996 28.3002 10.7996 28.3002 10.9996C28.3002 11.1996 28.1002 11.3996 27.9002 11.3996H19.8002C19.6002 11.3996 19.4002 11.1996 19.4002 10.9996ZM1.7002 7.49961C1.7002 4.29961 4.30019 1.59961 7.60019 1.59961C10.9002 1.59961 13.5002 4.19961 13.5002 7.49961C13.5002 10.7996 10.9002 13.3996 7.60019 13.3996C4.30019 13.3996 1.7002 10.7996 1.7002 7.49961ZM12.5002 7.99961H8.3002L10.5002 11.6996C11.6002 10.7996 12.4002 9.49961 12.5002 7.99961ZM8.0002 2.49961V7.09961H12.6002C12.3002 4.69961 10.4002 2.69961 8.0002 2.49961ZM2.5002 7.49961C2.5002 10.2996 4.8002 12.4996 7.5002 12.4996C8.3002 12.4996 9.0002 12.2996 9.7002 11.9996L7.2002 7.79961C7.2002 7.69961 7.10019 7.69961 7.10019 7.59961V2.59961C4.5002 2.69961 2.5002 4.89961 2.5002 7.49961ZM19.9002 2.79961H28.0002C28.2002 2.79961 28.4002 2.59961 28.4002 2.39961C28.4002 2.19961 28.2002 1.99961 28.0002 1.99961H19.9002C19.7002 1.99961 19.5002 2.19961 19.5002 2.39961C19.4002 2.59961 19.6002 2.79961 19.9002 2.79961ZM19.9002 4.49961H23.9002C24.1002 4.49961 24.3002 4.29961 24.3002 4.09961C24.3002 3.89961 24.1002 3.69961 23.9002 3.69961H19.9002C19.7002 3.69961 19.5002 3.89961 19.5002 4.09961C19.5002 4.29961 19.6002 4.49961 19.9002 4.49961ZM15.3002 4.39961V2.09961C15.3002 1.89961 15.5002 1.69961 15.7002 1.69961H18.0002C18.2002 1.69961 18.4002 1.89961 18.4002 2.09961V4.39961C18.4002 4.59961 18.2002 4.79961 18.0002 4.79961H15.7002C15.5002 4.79961 15.3002 4.59961 15.3002 4.39961ZM16.1002 3.99961H17.6002V2.49961H16.1002V3.99961ZM19.9002 7.09961H28.0002C28.2002 7.09961 28.4002 6.89961 28.4002 6.69961C28.4002 6.49961 28.2002 6.29961 28.0002 6.29961H19.9002C19.7002 6.29961 19.5002 6.49961 19.5002 6.69961C19.5002 6.89961 19.6002 7.09961 19.9002 7.09961ZM19.9002 8.79961H23.9002C24.1002 8.79961 24.3002 8.59961 24.3002 8.39961C24.3002 8.19961 24.1002 7.99961 23.9002 7.99961H19.9002C19.7002 7.99961 19.5002 8.19961 19.5002 8.39961C19.4002 8.59961 19.6002 8.79961 19.9002 8.79961ZM15.3002 8.69961V6.39961C15.3002 6.19961 15.5002 5.99961 15.7002 5.99961H18.0002C18.2002 5.99961 18.4002 6.19961 18.4002 6.39961V8.69961C18.4002 8.89961 18.2002 9.09961 18.0002 9.09961H15.7002C15.5002 9.09961 15.3002 8.89961 15.3002 8.69961ZM16.1002 8.29961H17.6002V6.79961H16.1002V8.29961ZM5.3002 18.3996V27.8996C5.3002 28.0996 5.1002 28.2996 4.9002 28.2996H2.1002C1.9002 28.2996 1.7002 28.0996 1.7002 27.8996V18.3996C1.7002 18.1996 1.9002 17.9996 2.1002 17.9996H4.9002C5.1002 17.9996 5.3002 18.1996 5.3002 18.3996ZM4.4002 18.7996H2.5002V27.4996H4.4002V18.7996ZM28.1002 25.8996L27.0002 26.9996C26.8002 27.1996 26.6002 27.2996 26.4002 27.2996C26.2002 27.2996 25.9002 27.1996 25.8002 26.9996L22.9002 24.0996C22.7002 23.8996 22.6002 23.6996 22.6002 23.4996C22.6002 23.3996 22.6002 23.2996 22.7002 23.0996L21.6002 21.9996C21.2002 22.2996 20.8002 22.4996 20.3002 22.6996V27.7996C20.3002 27.9996 20.1002 28.1996 19.9002 28.1996H17.0002C16.8002 28.1996 16.6002 27.9996 16.6002 27.7996V22.9996C16.1002 22.8996 15.6002 22.6996 15.2002 22.3996V27.8996C15.2002 28.0996 15.0002 28.2996 14.8002 28.2996H12.0002C11.8002 28.2996 11.6002 28.0996 11.6002 27.8996V19.7996C11.6002 19.5996 11.8002 19.3996 12.0002 19.3996H12.6002C12.4002 18.7996 12.3002 18.0996 12.3002 17.4996C12.3002 15.2996 13.5002 13.3996 15.4002 12.3996V10.7996C15.4002 10.5996 15.6002 10.3996 15.8002 10.3996H18.0002C18.2002 10.3996 18.4002 10.5996 18.4002 10.7996V11.7996C19.2002 11.8996 19.9002 12.0996 20.6002 12.3996H23.9002C24.1002 12.3996 24.3002 12.5996 24.3002 12.7996C24.3002 12.9996 24.1002 13.1996 23.9002 13.1996H21.8002C23.0002 14.2996 23.7002 15.7996 23.7002 17.4996C23.7002 18.5996 23.4002 19.5996 22.9002 20.4996L24.1002 21.5996C24.2002 21.4996 24.3002 21.4996 24.5002 21.4996C24.7002 21.4996 25.0002 21.5996 25.1002 21.7996L28.0002 24.6996C28.4002 24.9996 28.4002 25.5996 28.1002 25.8996ZM22.4002 21.0996C22.3002 21.1996 22.2002 21.3996 22.0002 21.4996L23.0002 22.4996L23.4002 22.0996L22.4002 21.0996ZM16.1002 11.9996C16.6002 11.7996 17.1002 11.6996 17.6002 11.6996V11.0996H16.1002V11.9996ZM13.0002 17.3996C13.0002 20.0996 15.2002 22.2996 17.9002 22.2996C20.6002 22.2996 22.8002 20.0996 22.8002 17.3996C22.8002 14.6996 20.6002 12.4996 17.9002 12.4996C15.2002 12.4996 13.0002 14.6996 13.0002 17.3996ZM14.3002 21.8996C13.8002 21.3996 13.3002 20.8996 12.9002 20.2996H12.3002V27.5996H14.2002V21.8996H14.3002ZM19.3002 23.0996C18.9002 23.1996 18.4002 23.2996 18.0002 23.2996C17.8002 23.2996 17.6002 23.2996 17.4002 23.2996V27.5996H19.3002V23.0996ZM27.5002 25.1996L24.6002 22.2996L23.5002 23.3996C23.5002 23.3996 23.5002 23.3996 23.5002 23.4996L26.4002 26.3996H26.5002L27.6002 25.2996C27.5002 25.2996 27.5002 25.2996 27.5002 25.1996ZM10.1002 15.9996V27.8996C10.1002 28.0996 9.9002 28.2996 9.7002 28.2996H6.9002C6.7002 28.2996 6.5002 28.0996 6.5002 27.8996V15.9996C6.5002 15.7996 6.7002 15.5996 6.9002 15.5996H9.7002C9.9002 15.5996 10.1002 15.6996 10.1002 15.9996ZM9.3002 16.3996H7.3002V27.4996H9.2002V16.3996H9.3002ZM13.7002 17.3996C13.7002 14.9996 15.6002 13.0996 18.0002 13.0996C20.4002 13.0996 22.3002 14.9996 22.3002 17.3996C22.3002 19.7996 20.4002 21.6996 18.0002 21.6996C15.6002 21.6996 13.7002 19.7996 13.7002 17.3996ZM18.0002 20.8996C18.9002 20.8996 19.7002 20.5996 20.3002 20.0996C20.0002 18.9996 19.1002 18.1996 18.0002 18.1996C16.9002 18.1996 15.9002 18.9996 15.7002 20.0996C16.3002 20.5996 17.1002 20.8996 18.0002 20.8996ZM18.0002 17.3996C18.5002 17.3996 19.0002 16.9996 19.0002 16.3996C19.0002 15.8996 18.6002 15.3996 18.0002 15.3996C17.4002 15.3996 17.0002 15.7996 17.0002 16.3996C17.0002 16.9996 17.5002 17.3996 18.0002 17.3996ZM14.5002 17.3996C14.5002 18.0996 14.7002 18.7996 15.1002 19.2996C15.4002 18.4996 16.0002 17.9996 16.7002 17.5996C16.4002 17.2996 16.2002 16.7996 16.2002 16.3996C16.2002 15.3996 17.0002 14.5996 18.0002 14.5996C19.0002 14.5996 19.8002 15.3996 19.8002 16.3996C19.8002 16.8996 19.6002 17.2996 19.3002 17.5996C20.0002 17.8996 20.6002 18.4996 20.9002 19.2996C21.3002 18.6996 21.5002 18.0996 21.5002 17.3996C21.5002 15.4996 19.9002 13.8996 18.0002 13.8996C16.1002 13.8996 14.5002 15.4996 14.5002 17.3996Z" fill="#0284C7"/>
</g>
</g>
<defs>
<clipPath id="clip0_32_2">
<rect width="30" height="30" fill="white"/>
</clipPath>
</defs>
</svg>
