<?xml version="1.0" encoding="utf-8"?>
<!-- Generator: Adobe Illustrator 23.0.1, SVG Export Plug-In . SVG Version: 6.00 Build 0)  -->
<svg version="1.1" id="Layer_1" xmlns="http://www.w3.org/2000/svg" xmlns:xlink="http://www.w3.org/1999/xlink" x="0px" y="0px"
	 viewBox="0 0 30 30" style="enable-background:new 0 0 30 30;" xml:space="preserve">
<style type="text/css">
	.st0{clip-path:url(#SVGID_2_);}
	.st1{fill:#0284C7;}
	.st2{clip-path:url(#SVGID_4_);}
</style>
<g>
	<g>
		<defs>
			<rect id="SVGID_1_" x="7.7" y="35.9" width="16.3" height="3.7"/>
		</defs>
		<clipPath id="SVGID_2_">
			<use xlink:href="#SVGID_1_"  style="overflow:visible;"/>
		</clipPath>
		<g class="st0">
			<path class="st1" d="M25.5,21.5c-0.1-0.2-0.3-0.3-0.5-0.3l0,0c-0.2,0.1-0.3,0.3-0.3,0.5c0.1,0.3,0.1,0.6,0.1,0.9
				c0,0.6-0.1,1.1-0.4,1.6s-0.7,0.9-1.1,1.1l-0.2,0.1C23,25.5,23,25.6,23,25.7v0.5h-0.9v-1.6c0.4-0.1,0.7-0.5,0.7-1v-0.8
				c0-0.6-0.5-1.1-1.1-1.1l0,0c-0.6,0-1.1,0.5-1.1,1.1v0.8c0,0.5,0.3,0.9,0.7,1v1.6h-0.9v-0.5c0-0.1-0.1-0.3-0.2-0.3L20,25.3
				c-0.5-0.3-0.8-0.7-1.1-1.1c-0.3-0.5-0.4-1-0.4-1.6c0-1.7,1.4-3.2,3.2-3.2c0.8,0,1.6,0.3,2.2,0.9c0.2,0.1,0.4,0.1,0.5,0
				c0.1-0.2,0.1-0.4,0-0.5l0,0c-0.7-0.7-1.7-1.1-2.7-1.1c-2.2,0-3.9,1.8-3.9,3.9c0,0.7,0.2,1.4,0.5,2s0.8,1,1.4,1.4v0.3
				c-0.2,0.1-0.3,0.3-0.3,0.5v1.7c0,0.3,0.3,0.6,0.6,0.6h0.6v0.5c0,0.4,0.3,0.7,0.7,0.7h1.1c0.4,0,0.7-0.3,0.7-0.7v-0.5h0.6
				c0.3,0,0.6-0.3,0.6-0.6v-1.7c0-0.2-0.1-0.4-0.3-0.5V26c0.6-0.3,1-0.8,1.4-1.4c0.3-0.6,0.5-1.3,0.5-2
				C25.6,22.2,25.6,21.9,25.5,21.5z M21.4,22.8c0-0.2,0.1-0.3,0.3-0.3l0,0c0.2,0,0.3,0.1,0.3,0.3v0.8c0,0.2-0.1,0.3-0.3,0.3l0,0
				c-0.2,0-0.3-0.1-0.3-0.3V22.8z M22.1,29.6h-0.9v-0.4h0.9V29.6z M23.3,28.4h-3.2V27h3.2V28.4z"/>
			<path class="st1" d="M21.7,18.2c0.2,0,0.4-0.2,0.4-0.4v-0.6c0-0.2-0.2-0.4-0.4-0.4s-0.4,0.2-0.4,0.4v0.6
				C21.3,18.1,21.5,18.2,21.7,18.2z"/>
			<path class="st1" d="M19.4,18.4c0.1,0.1,0.2,0.2,0.3,0.2c0.1,0,0.1,0,0.2,0c0.2-0.1,0.3-0.3,0.2-0.5l-0.3-0.6
				c-0.1-0.2-0.3-0.3-0.5-0.2c-0.2,0.1-0.3,0.3-0.2,0.5l0,0L19.4,18.4z"/>
			<path class="st1" d="M17.3,19.3l0.5,0.4c0.1,0.1,0.2,0.1,0.3,0.1c0.1,0,0.2,0,0.3-0.1c0.1-0.2,0.1-0.4,0-0.5l-0.5-0.4
				c-0.2-0.1-0.4-0.1-0.5,0l0,0C17.2,18.9,17.2,19.2,17.3,19.3L17.3,19.3z"/>
			<path class="st1" d="M16.3,21.4l0.6,0.2c0.2,0.1,0.4,0,0.5-0.2l0,0c0.1-0.2,0-0.4-0.2-0.5l0,0l-0.6-0.2c-0.2-0.1-0.4,0-0.5,0.2
				S16.1,21.3,16.3,21.4L16.3,21.4L16.3,21.4z"/>
			<path class="st1" d="M16.2,23.7C16.2,23.7,16.3,23.7,16.2,23.7l0.7-0.1c0.2,0,0.4-0.2,0.3-0.4l0,0c0-0.2-0.2-0.4-0.4-0.3l0,0
				L16.2,23c-0.2,0-0.4,0.2-0.3,0.4C15.9,23.5,16,23.7,16.2,23.7L16.2,23.7z"/>
			<path class="st1" d="M16.8,25.1c-0.2,0.1-0.2,0.3-0.1,0.5l0,0c0.1,0.2,0.3,0.2,0.5,0.1l0.5-0.3c0.2-0.1,0.2-0.3,0.1-0.5l0,0
				c-0.1-0.2-0.3-0.2-0.5-0.1l0,0L16.8,25.1z"/>
			<path class="st1" d="M23.5,18.6c0.2,0.1,0.4,0,0.5-0.2l0.3-0.6c0.1-0.2,0-0.4-0.2-0.5s-0.4,0-0.5,0.2l0,0l-0.3,0.6
				C23.2,18.3,23.3,18.5,23.5,18.6L23.5,18.6L23.5,18.6z"/>
			<path class="st1" d="M25.3,19.8c0.1,0,0.2,0,0.3-0.1l0.5-0.4c0.2-0.1,0.2-0.4,0-0.5c-0.1-0.2-0.4-0.2-0.5,0l0,0L25,19.2
				c-0.2,0.1-0.2,0.4,0,0.5C25.1,19.8,25.2,19.8,25.3,19.8z"/>
			<path class="st1" d="M25.9,21.3c0.1,0.2,0.2,0.3,0.4,0.3h0.1l0.6-0.2c0.2-0.1,0.3-0.3,0.2-0.5c-0.1-0.2-0.3-0.3-0.5-0.2l-0.6,0.2
				C26,20.9,25.9,21.1,25.9,21.3L25.9,21.3L25.9,21.3z"/>
			<path class="st1" d="M27.2,22.9l-0.6-0.1c-0.2,0-0.4,0.1-0.4,0.3c0,0.2,0.1,0.4,0.3,0.4l0,0l0.6,0.1c0.2,0,0.4-0.1,0.4-0.3
				S27.4,22.9,27.2,22.9L27.2,22.9z"/>
			<path class="st1" d="M26.6,25.1L26,24.8c-0.2-0.1-0.4,0-0.5,0.1c-0.1,0.2,0,0.4,0.1,0.5l0,0l0.5,0.3c0.2,0.1,0.4,0,0.5-0.1
				C26.8,25.5,26.8,25.2,26.6,25.1L26.6,25.1z"/>
			<path d="M5.7,25.6h3.9c0.2,0,0.4-0.2,0.4-0.4s-0.2-0.4-0.4-0.4H5.7c-0.2,0-0.4,0.2-0.4,0.4l0,0C5.3,25.5,5.5,25.6,5.7,25.6z"/>
			<path class="st1" d="M14.1,28.9c-1.2,0-2.3,1-2.3,2.3c0,1.2,1,2.3,2.3,2.3c1.2,0,2.3-1,2.3-2.3C16.4,29.9,15.4,28.9,14.1,28.9z
				 M14.1,32.7c-0.8,0-1.5-0.7-1.5-1.5c0-0.5,0.2-0.9,0.6-1.2c0.2,1.1,1.1,1.9,2.2,1.9l0,0C15.2,32.3,14.7,32.7,14.1,32.7z
				 M15.4,31.1c-0.8,0-1.5-0.6-1.5-1.4c0.1,0,0.1,0,0.2,0c0.8,0,1.5,0.6,1.5,1.4C15.6,31.1,15.5,31.1,15.4,31.1z"/>
			<path class="st1" d="M23.4,37.2L23.4,37.2l-1.9-1.1c-0.3-0.1-0.7-0.2-1-0.2h-6.6v-1.2c0.1,0,0.2,0,0.3,0c2.3,0,4.4-1.2,5.5-3.2
				c0.1-0.2,0.1-0.4,0-0.6c-1.1-2-3.2-3.2-5.5-3.2c-0.1,0-0.2,0-0.3,0V23c0-0.4-0.3-0.6-0.6-0.6h-7c-0.2,0-0.4,0.2-0.4,0.4
				C5.8,22.9,6,23,6.2,23h6.9v4.7c-0.3,0-0.5,0.1-0.8,0.2v-0.3c0-0.4-0.3-0.6-0.6-0.6h-8c-0.4,0-0.6,0.3-0.6,0.6v5.3
				c0,0.4,0.3,0.6,0.6,0.6h6.8c0.8,0.5,1.6,0.9,2.6,1.1v1.3H8.5c-0.3,0-0.5,0.2-0.7,0.4H3.9c-0.2,0-0.4,0.2-0.4,0.4S3.7,37,3.9,37
				h3.8v1H3.9c-0.2,0-0.4,0.2-0.4,0.4s0.2,0.4,0.4,0.4h3.8c0,0.4,0.4,0.7,0.8,0.7h4.6V41H2.2V23h2.1c0.2,0,0.4-0.2,0.4-0.4
				c0-0.2-0.2-0.4-0.4-0.4H2.1c-0.4,0-0.6,0.3-0.6,0.6V41c0,0.4,0.3,0.6,0.6,0.6h11.1c0.4,0,0.6-0.3,0.6-0.6v-1.6h6.6
				c0.3,0,0.7-0.1,1-0.2l1.9-1.1c0.2-0.1,0.3-0.3,0.3-0.5C23.7,37.5,23.6,37.3,23.4,37.2z M3.8,32.8v-5.1h7.7v0.5
				c-1.2,0.5-2.2,1.5-2.9,2.6c-0.1,0.2-0.1,0.4,0,0.6c0.3,0.5,0.6,0.9,1,1.3L3.8,32.8L3.8,32.8z M9.3,31.2L9.3,31.2
				c1-1.7,2.8-2.8,4.8-2.8s3.8,1.1,4.8,2.8c-1,1.7-2.8,2.8-4.8,2.8C12.2,33.9,10.3,32.9,9.3,31.2z M10.1,38.8H8.5l0,0v-2.1l0,0h1.6
				V38.8z M19.9,38.8h-9.1v-0.7h5.7c0.2,0,0.4-0.2,0.4-0.4s-0.2-0.4-0.4-0.4h-5.7v-0.7h9.1v0.7h-1.6c-0.2,0-0.4,0.2-0.4,0.4
				s0.2,0.4,0.4,0.4h1.6C19.9,38.1,19.9,38.8,19.9,38.8z M21.5,38.4l-0.4,0.2c-0.1,0.1-0.2,0.1-0.4,0.1v-2.1c0.1,0,0.3,0.1,0.4,0.1
				l0.4,0.2V38.4z M22.3,38v-0.5l0.5,0.3L22.3,38z"/>
		</g>
	</g>
</g>
<g>
	<g>
		<g>
			<defs>
				<rect id="SVGID_3_" x="1.7" y="644.4" width="36.5" height="36.5"/>
			</defs>
			<clipPath id="SVGID_4_">
				<use xlink:href="#SVGID_3_"  style="overflow:visible;"/>
			</clipPath>
			<g transform="matrix(1.33333 0 0 -1.33333 0 682.667)" class="st2">
				<g>
					<path d="M8.5,494.8c-0.2,0-0.4,0.1-0.6,0.2l-4.1,2.4c-0.4,0.2-0.6,0.6-0.6,1.1v4.7c0,0.4,0.2,0.8,0.6,1.1l4.1,2.4
						c0.4,0.2,0.8,0.2,1.2,0l4.1-2.4c0.4-0.2,0.6-0.6,0.6-1.1c0-0.2-0.1-0.3-0.3-0.3s-0.3,0.1-0.3,0.3c0,0.2-0.1,0.4-0.3,0.5
						L8.8,506c-0.2,0.1-0.4,0.1-0.6,0l-4.1-2.4c-0.2-0.1-0.3-0.3-0.3-0.5v-4.7c0-0.2,0.1-0.4,0.3-0.5l4.1-2.4c0.2-0.1,0.4-0.1,0.6,0
						l2,1.2c0.1,0.1,0.3,0,0.4-0.1c0.1-0.1,0-0.3-0.1-0.4l-2-1.2C8.9,494.9,8.7,494.8,8.5,494.8z M8.5,497c-0.2,0-0.4,0.1-0.6,0.2
						l-2.2,1.2c-0.4,0.2-0.6,0.6-0.6,1.1v2.5c0,0.4,0.2,0.8,0.6,1.1l2.2,1.2c0.4,0.2,0.8,0.2,1.2,0l2.2-1.2c0.4-0.2,0.6-0.6,0.6-1.1
						v-2.5l0,0c0-0.4-0.2-0.8-0.6-1.1l-2.2-1.2C8.9,497.1,8.7,497,8.5,497z M8.5,503.9c-0.1,0-0.2,0-0.3-0.1L6,502.5
						c-0.2-0.1-0.3-0.3-0.3-0.5v-2.5c0-0.2,0.1-0.4,0.3-0.5l2.2-1.2c0.2-0.1,0.4-0.1,0.6,0L11,499c0.2,0.1,0.3,0.3,0.3,0.5v2.5
						c0,0.2-0.1,0.4-0.3,0.5l-2.2,1.2C8.7,503.8,8.6,503.9,8.5,503.9z M11.6,499.5L11.6,499.5L11.6,499.5z"/>
				</g>
				<g>
					<path d="M15.7,506.2H6.1c-0.2,0-0.3,0.1-0.3,0.3c0,0.2,0.1,0.3,0.3,0.3h9.7c0.2,0,0.3-0.1,0.3-0.3
						C16,506.4,15.9,506.2,15.7,506.2z"/>
				</g>
				<g>
					<path d="M4.9,506.2H1.3c-0.2,0-0.3,0.1-0.3,0.3c0,0.2,0.1,0.3,0.3,0.3h3.6c0.2,0,0.3-0.1,0.3-0.3C5.2,506.4,5,506.2,4.9,506.2z
						"/>
				</g>
				<g>
					<path d="M15.7,494.7h-3.3c-0.2,0-0.3,0.1-0.3,0.3s0.1,0.3,0.3,0.3h3.3c0.2,0,0.3-0.1,0.3-0.3S15.9,494.7,15.7,494.7z"/>
				</g>
				<g>
					<path d="M11.3,494.7h-10c-0.2,0-0.3,0.1-0.3,0.3s0.1,0.3,0.3,0.3h10c0.2,0,0.3-0.1,0.3-0.3S11.5,494.7,11.3,494.7z"/>
				</g>
				<g>
					<path d="M13.5,492.8c-0.2,0-0.3,0.1-0.3,0.3v3.7c0,0.2,0.1,0.3,0.3,0.3s0.3-0.1,0.3-0.3v-3.7C13.8,493,13.7,492.8,13.5,492.8z"
						/>
				</g>
				<g>
					<path d="M13.5,500.7c-0.2,0-0.3,0.1-0.3,0.3v7.4c0,0.2,0.1,0.3,0.3,0.3s0.3-0.1,0.3-0.3V501C13.8,500.8,13.7,500.7,13.5,500.7z
						"/>
				</g>
				<g>
					<path d="M3.5,492.8c-0.2,0-0.3,0.1-0.3,0.3v15.2c0,0.2,0.1,0.3,0.3,0.3s0.3-0.1,0.3-0.3v-15.2C3.8,493,3.7,492.8,3.5,492.8z"/>
				</g>
				<g>
					<path d="M20.6,503.2c-0.1,0-0.2,0-0.2,0.1c-0.1,0.1-0.1,0.3,0,0.4l0.1,0.1c0.2,0.2,0.4,0.6,0.4,0.9c0,0.4-0.1,0.7-0.4,0.9
						c-0.5,0.5-1.4,0.5-1.9,0l-0.1-0.1c-0.1-0.1-0.3-0.1-0.4,0s-0.1,0.3,0,0.4l0.1,0.1c0.8,0.7,2,0.7,2.7,0c0.4-0.4,0.6-0.8,0.6-1.4
						c0-0.5-0.2-1-0.6-1.4l-0.1-0.1C20.8,503.2,20.7,503.2,20.6,503.2z"/>
				</g>
				<g>
					<path d="M12.5,496.2c-0.1,0-0.2,0-0.2,0.1l-1.1,1.1c-0.1,0.1-0.1,0.3,0,0.4s0.3,0.1,0.4,0l1.1-1.1c0.1-0.1,0.1-0.3,0-0.4
						C12.6,496.2,12.5,496.2,12.5,496.2z"/>
				</g>
				<g>
					<path d="M13.1,498c-0.1,0-0.2,0-0.2,0.1c-0.1,0.1-0.1,0.3,0,0.4l3.2,3.2c0.1,0.1,0.3,0.1,0.4,0s0.1-0.3,0-0.4l-3.2-3.2
						C13.3,498,13.2,498,13.1,498z"/>
				</g>
				<g>
					<path d="M17.3,502.2c-0.1,0-0.2,0-0.2,0.1c-0.1,0.1-0.1,0.3,0,0.4l1.1,1.1c0.1,0.1,0.3,0.1,0.4,0s0.1-0.3,0-0.4l-1.1-1.1
						C17.4,502.2,17.4,502.2,17.3,502.2z"/>
				</g>
				<g>
					<path d="M14.2,496.8L14.2,496.8c-0.2,0-0.3,0.2-0.3,0.4c0.1,0.4,0,0.6-0.1,0.7s-0.4,0.1-0.7,0.1c-0.1,0-0.2,0-0.3,0.1
						s-0.1,0.2-0.1,0.3c0.1,0.4,0,0.6-0.1,0.7s-0.4,0.1-0.7,0.1c-0.2,0-0.3,0.1-0.3,0.2c0,0.2,0.1,0.3,0.2,0.3c0.6,0.1,1,0,1.3-0.2
						c0.2-0.2,0.3-0.5,0.3-0.9c0.4,0,0.7-0.1,0.9-0.3c0.3-0.3,0.3-0.7,0.2-1.3C14.5,496.9,14.4,496.8,14.2,496.8z"/>
				</g>
				<g>
					<path d="M20.1,501.9c-0.3,0-0.6,0.1-0.8,0.3l-2.3,2.3c-0.4,0.4-0.4,1.1,0,1.5c0.2,0.2,0.5,0.3,0.8,0.3s0.6-0.1,0.8-0.3l2.3-2.3
						l0,0c0.2-0.2,0.3-0.5,0.3-0.8s-0.1-0.6-0.3-0.8C20.6,502,20.4,501.9,20.1,501.9z M17.8,505.7c-0.1,0-0.2,0-0.3-0.1
						c-0.2-0.2-0.2-0.5,0-0.7l2.3-2.3c0.1-0.1,0.2-0.1,0.3-0.1c0.1,0,0.2,0,0.3,0.1c0.1,0.1,0.1,0.2,0.1,0.3s0,0.2-0.1,0.3l-2.3,2.3
						C18,505.7,17.9,505.7,17.8,505.7z"/>
				</g>
				<g>
					<path d="M11.4,495.8c-0.2,0-0.4,0.1-0.5,0.2c-0.2,0.2-0.3,0.5-0.2,0.7l1,2.7c0,0,0,0.1,0.1,0.1l5.3,5.3c0.1,0.1,0.3,0.1,0.4,0
						l2.3-2.3c0.1-0.1,0.1-0.3,0-0.4l-5.3-5.3l-0.1-0.1l-2.7-1C11.5,495.9,11.4,495.8,11.4,495.8z M12.2,499.3l-1-2.7
						c0-0.1,0-0.1,0-0.1h0.1l2.7,1l5,5l-1.9,1.9L12.2,499.3z"/>
				</g>
			</g>
		</g>
	</g>
</g>
<g>
	<path d="M13.3,23.3H3.8c-1.1,0-2.1-0.9-2.1-2.1V3.8c0-1.1,0.9-2.1,2.1-2.1h0.8v0.8H3.8c-0.7,0-1.2,0.6-1.2,1.2v17.4
		c0,0.7,0.6,1.2,1.2,1.2h9.5V23.3z M5.5,1.8h0.8v0.8H5.5V1.8z M26.2,23.3v-0.8c0.7,0,1.2-0.6,1.2-1.2V3.8c0-0.7-0.6-1.2-1.2-1.2h-19
		V1.8h19c1.1,0,2.1,0.9,2.1,2.1v17.4C28.2,22.3,27.3,23.3,26.2,23.3z"/>
	<path d="M9.6,24.4l0.4-1.7l0.8,0.2l-0.4,1.7L9.6,24.4z"/>
	<path d="M13.3,26.6H9.2c-0.2,0-0.4-0.2-0.4-0.4v-0.8c0-0.7,0.6-1.2,1.2-1.2h3.3v0.8H10c-0.2,0-0.4,0.2-0.4,0.4v0.4h3.7V26.6z
		 M2.2,19.1h11.2V20H2.2V19.1z M3.4,20.8h0.8v0.8H3.4V20.8z M5.1,20.8h2.5v0.8H5.1V20.8z M24.5,28.2h-8.3c-1.1,0-2.1-0.9-2.1-2.1
		V9.6c0-1.1,0.9-2.1,2.1-2.1h8.3c1.1,0,2.1,0.9,2.1,2.1v16.5C26.6,27.3,25.7,28.2,24.5,28.2z M16.2,8.4c-0.7,0-1.2,0.6-1.2,1.2v16.5
		c0,0.7,0.6,1.2,1.2,1.2h8.3c0.7,0,1.2-0.6,1.2-1.2V9.6c0-0.7-0.6-1.2-1.2-1.2H16.2z"/>
	<path d="M22.4,11.7h-4.1c-0.8,0-1.1-0.7-1.2-1.2h-2.5V9.6h2.9c0.2,0,0.4,0.2,0.4,0.4c0,0,0,0.8,0.4,0.8h4.1c0.4,0,0.4-0.8,0.4-0.8
		c0-0.2,0.2-0.4,0.4-0.4h2.9v0.8h-2.5C23.5,11,23.2,11.7,22.4,11.7z"/>
	<rect x="18.7" y="9.2" width="3.3" height="0.8"/>
	<rect x="18.7" y="26.2" width="3.3" height="0.8"/>
	<rect x="14.6" y="24.9" width="11.6" height="0.8"/>
	<path class="st1" d="M12.9,7.1h-0.6c-0.1-0.2-0.2-0.5-0.3-0.7L12.5,6c0.2-0.2,0.2-0.4,0-0.6l-1.2-1.2c-0.2-0.2-0.4-0.2-0.6,0
		l-0.4,0.4c-0.2-0.1-0.4-0.2-0.7-0.3V3.8c0-0.2-0.2-0.4-0.4-0.4H7.6c-0.2,0-0.4,0.2-0.4,0.4v0.6C6.9,4.5,6.7,4.6,6.5,4.7L6,4.3
		c-0.2-0.2-0.4-0.2-0.6,0L4.3,5.5C4.1,5.6,4.1,5.9,4.3,6l0.4,0.4C4.6,6.7,4.5,6.9,4.4,7.1H3.8c-0.2,0-0.4,0.2-0.4,0.4v1.7
		c0,0.2,0.2,0.4,0.4,0.4h0.6c0.1,0.2,0.2,0.5,0.3,0.7l-0.4,0.4c-0.2,0.2-0.2,0.4,0,0.6l1.2,1.2c0.2,0.2,0.4,0.2,0.6,0L6.5,12
		c0.2,0.1,0.4,0.2,0.7,0.3v0.6c0,0.2,0.2,0.4,0.4,0.4h1.7c0.2,0,0.4-0.2,0.4-0.4v-0.6c0.2-0.1,0.5-0.2,0.7-0.3l0.4,0.4
		c0.2,0.2,0.4,0.2,0.6,0l1.2-1.2c0.2-0.2,0.2-0.4,0-0.6L12,10.3c0.1-0.2,0.2-0.4,0.3-0.7h0.6c0.2,0,0.4-0.2,0.4-0.4V7.6
		C13.3,7.3,13.2,7.1,12.9,7.1z M12.5,8.8H12c-0.2,0-0.4,0.1-0.4,0.3c-0.1,0.4-0.2,0.7-0.4,1c-0.1,0.2-0.1,0.4,0.1,0.5l0.4,0.4
		L11,11.6l-0.4-0.4c-0.1-0.1-0.3-0.2-0.5-0.1c-0.3,0.2-0.7,0.3-1,0.4c-0.2,0-0.3,0.2-0.3,0.4v0.5H8V12c0-0.2-0.1-0.4-0.3-0.4
		c-0.4-0.1-0.7-0.2-1-0.4c-0.2-0.1-0.4-0.1-0.5,0.1l-0.4,0.4L5.2,11l0.4-0.4c0.1-0.1,0.2-0.3,0.1-0.5c-0.2-0.3-0.3-0.7-0.4-1
		c0-0.2-0.2-0.3-0.4-0.3H4.2V8h0.5c0.2,0,0.4-0.1,0.4-0.3c0.1-0.4,0.2-0.7,0.4-1c0.1-0.2,0.1-0.4-0.1-0.5L5.2,5.8l0.6-0.6l0.4,0.4
		c0.1,0.1,0.3,0.2,0.5,0.1c0.3-0.2,0.7-0.3,1-0.4C7.8,5.1,8,4.9,8,4.8V4.2h0.8v0.5c0,0.2,0.1,0.4,0.3,0.4c0.4,0.1,0.7,0.2,1,0.4
		c0.2,0.1,0.4,0.1,0.5-0.1L11,5.2l0.6,0.6l-0.4,0.4c-0.1,0.1-0.2,0.3-0.1,0.5c0.2,0.3,0.3,0.7,0.4,1C11.6,7.8,11.8,8,12,8h0.5V8.8z"
		/>
	<path class="st1" d="M8.4,10.5c-1.1,0-2.1-0.9-2.1-2.1s0.9-2.1,2.1-2.1s2.1,0.9,2.1,2.1C10.4,9.5,9.5,10.4,8.4,10.5z M8.4,7.1
		c-0.7,0-1.2,0.6-1.2,1.2s0.6,1.2,1.2,1.2s1.2-0.6,1.2-1.2S9.1,7.1,8.4,7.1z M8.8,18.7H8v-1.7c0-0.2,0.2-0.4,0.4-0.4H9
		c0.1-0.2,0.2-0.5,0.3-0.7l-0.4-0.4c-0.2-0.2-0.2-0.4,0-0.6l1.2-1.2c0.2-0.2,0.4-0.2,0.6,0l0.4,0.4c0.2-0.1,0.4-0.2,0.7-0.3v-0.6
		c0-0.2,0.2-0.4,0.4-0.4h1.7v0.8h-1.2v0.5c0,0.2-0.1,0.4-0.3,0.4c-0.4,0.1-0.7,0.2-1,0.4c-0.2,0.1-0.4,0.1-0.5-0.1l-0.4-0.4
		l-0.6,0.6l0.4,0.4c0.1,0.1,0.2,0.3,0.1,0.5c-0.2,0.3-0.3,0.7-0.4,1c0,0.2-0.2,0.3-0.4,0.3H8.8V18.7z M11.7,17.9h-0.8
		c0-1.1,0.9-2.1,2.1-2.1v0.8C12.2,16.7,11.7,17.2,11.7,17.9z"/>
</g>
<g>
	<g>
		<path class="st1" d="M24.4,14.2c-0.6-0.6-1.5-0.6-2.1,0c0,0-0.1,0.1-0.1,0.1l-3.6,4.3c-0.7-0.1-1.3,0.2-1.7,0.9
			c-0.2,0.3-0.3,0.6-0.3,0.9c-0.1,0.5-0.3,1-0.5,1.4c0,0.1,0,0.2,0,0.2c0,0.1,0.1,0.1,0.2,0.1c0.1,0,0.2,0,0.4,0
			c1.4,0,2.3-0.3,2.9-1c0.4-0.5,0.4-1,0.4-1.3l4.4-3.5c0.3-0.3,0.5-0.6,0.6-1.1C24.8,14.9,24.7,14.5,24.4,14.2z M19.7,18.1l0.8,0.8
			l-0.8,0.6l-0.6-0.6L19.7,18.1z M19.1,21c-0.4,0.5-1.2,0.8-2.4,0.8c0.2-0.4,0.3-0.8,0.4-1.3c0-0.3,0.1-0.5,0.3-0.8
			c0.3-0.5,0.6-0.7,1-0.7c0.1,0,0.2,0,0.3,0l0.8,0.8C19.4,20,19.5,20.5,19.1,21L19.1,21z M24,16L24,16l-3.1,2.5L20,17.7l2.6-3.1
			c0.2-0.2,0.4-0.4,0.7-0.4c0.3,0,0.6,0.1,0.8,0.3c0.2,0.2,0.3,0.5,0.3,0.8C24.3,15.6,24.2,15.8,24,16L24,16z"/>
		<path class="st1" d="M16.6,22.3c-0.1,0-0.2,0-0.4,0c-0.1,0-0.2-0.1-0.3-0.2c0-0.1,0-0.2,0-0.3c0.3-0.4,0.4-0.9,0.5-1.4
			c0.1-0.4,0.2-0.7,0.3-0.9c0.4-0.7,1-1.1,1.8-0.9l3.5-4.3c0,0,0.1-0.1,0.1-0.1c0.6-0.6,1.6-0.6,2.2,0h0c0.3,0.3,0.5,0.7,0.4,1.2
			c0,0.4-0.2,0.8-0.6,1.1L20,20c0,0.3,0,0.9-0.4,1.4C19,22,18,22.3,16.6,22.3z M18.3,18.7c-0.5,0-1,0.3-1.3,0.9
			c-0.1,0.3-0.3,0.6-0.3,0.9c-0.1,0.6-0.3,1-0.5,1.5c0,0,0,0.1,0,0.2c0,0,0.1,0.1,0.1,0.1c0.1,0,0.2,0,0.3,0c1.3,0,2.3-0.3,2.8-0.9
			c0.4-0.5,0.4-1,0.4-1.3l0,0l4.4-3.6c0.3-0.2,0.5-0.6,0.5-1c0-0.4-0.1-0.8-0.4-1.1l0,0c-0.5-0.5-1.4-0.5-2,0c0,0-0.1,0.1-0.1,0.1
			l-3.6,4.3l0,0C18.5,18.7,18.4,18.7,18.3,18.7z M16.6,21.8l0.1-0.1c0.2-0.4,0.3-0.8,0.4-1.3c0-0.3,0.1-0.6,0.3-0.8
			c0.4-0.6,0.8-0.8,1.4-0.7l0,0l0,0l0.8,0.8l0,0c0,0.2,0.1,0.7-0.3,1.2c-0.4,0.5-1.3,0.8-2.5,0.8L16.6,21.8z M18.3,19.1
			c-0.4,0-0.7,0.2-0.9,0.7c-0.1,0.2-0.2,0.5-0.2,0.7c-0.1,0.4-0.2,0.8-0.3,1.2c1.1,0,1.9-0.3,2.2-0.8h0c0.3-0.4,0.3-0.9,0.3-1
			l-0.8-0.8C18.5,19.1,18.4,19.1,18.3,19.1z M19.7,19.6L19,18.9l0.7-0.9l0.1,0.1l0.8,0.8L19.7,19.6z M19.2,18.8l0.5,0.5l0.7-0.5
			l-0.7-0.6L19.2,18.8z M20.8,18.6l-0.9-0.9l0-0.1l2.6-3.1c0.2-0.2,0.5-0.4,0.8-0.4c0,0,0,0,0.1,0c0.3,0,0.6,0.1,0.8,0.3
			c0.2,0.2,0.3,0.5,0.3,0.8c0,0.3-0.2,0.6-0.4,0.8l0,0L20.8,18.6z M20.1,17.7l0.7,0.7l3.1-2.5c0.2-0.2,0.3-0.4,0.4-0.7
			c0-0.3-0.1-0.5-0.3-0.7c-0.2-0.2-0.4-0.3-0.7-0.3c-0.3,0-0.5,0.1-0.7,0.3L20.1,17.7z"/>
	</g>
</g>
</svg>
