<svg width="34" height="48" viewBox="0 0 34 48" fill="none" xmlns="http://www.w3.org/2000/svg"
    class="w-12 text-sky-600 min-w-[48px]">
    <path
        d="M23.655 45.6229L22.7322 47.0005C22.9827 47.1667 23.2739 47.2622 23.5747 47.2766C23.8755 47.2911 24.1745 47.2241 24.44 47.0827C24.7055 46.9413 24.9275 46.7308 25.0822 46.4737C25.237 46.2166 25.3187 45.9226 25.3188 45.6229H23.655ZM17 41.2073L17.9228 39.8296C17.6495 39.6483 17.3284 39.5516 17 39.5516C16.6716 39.5516 16.3505 39.6483 16.0772 39.8296L17 41.2073ZM10.345 45.6229H8.68124C8.68126 45.9226 8.76301 46.2166 8.91776 46.4737C9.07251 46.7308 9.29447 46.9413 9.55996 47.0827C9.82545 47.2241 10.1245 47.2911 10.4253 47.2766C10.7261 47.2622 11.0173 47.1667 11.2678 47.0005L10.345 45.6229ZM3.22413 20.2842L2.14602 21.5448L3.22413 20.2864V20.2842ZM3.22413 13.5593L2.14602 12.2986L3.22413 13.557V13.5593ZM20.3785 30.632L21.6452 31.705L20.3807 30.632H20.3785ZM13.6215 30.632L12.3548 31.705L13.6193 30.632H13.6215ZM30.7759 13.5593L31.854 12.2986L30.7759 13.557V13.5593ZM24.5778 44.2452L17.9228 39.8296L16.0772 42.585L22.7322 47.0005L24.5778 44.2452ZM16.0772 39.8296L9.42216 44.2452L11.2678 47.0005L17.9228 42.585L16.0772 39.8296ZM19.1119 4.28437L19.205 4.39475L21.7406 2.24879L21.6452 2.1384L19.1119 4.28437ZM24.3405 6.51202L24.4847 6.49877L24.2185 3.19814L24.0743 3.21138L24.3405 6.51202ZM27.4728 9.47044L27.4595 9.61616L30.7759 9.88109L30.7892 9.73759L27.4728 9.47044ZM29.5868 14.725L29.6978 14.8199L31.854 12.2986L31.7431 12.2037L29.5868 14.725ZM29.6978 19.0235L29.5868 19.1162L31.7431 21.6397L31.854 21.5448L29.6978 19.0235ZM27.4595 24.2273L27.4728 24.3708L30.7892 24.1058L30.7759 23.9623L27.4595 24.2273ZM24.4869 27.3446L24.3405 27.3314L24.0743 30.632L24.2185 30.6453L24.4847 27.3446H24.4869ZM19.2072 29.4487L19.1119 29.559L21.6452 31.705L21.7406 31.5946L19.2072 29.4487ZM14.8881 29.559L14.7928 29.4487L12.2594 31.5946L12.3548 31.705L14.8881 29.559ZM9.65952 27.3314L9.51533 27.3424L9.78153 30.6453L9.92572 30.6342L9.65952 27.3314ZM6.52723 24.373L6.54054 24.2273L3.22413 23.9623L3.21082 24.1058L6.52723 24.3708V24.373ZM4.41316 19.1184L4.30224 19.0235L2.14602 21.5448L2.25694 21.6397L4.41316 19.1184ZM4.30224 14.8199L4.41316 14.725L2.25694 12.2037L2.14602 12.2986L4.30224 14.8199ZM6.54054 9.61616L6.52723 9.47265L3.21082 9.73759L3.22413 9.88109L6.54054 9.61616ZM9.51311 6.49877L9.65952 6.51202L9.92572 3.21138L9.78153 3.19814L9.51533 6.49877H9.51311ZM14.7928 4.39475L14.8881 4.28437L12.3548 2.1384L12.2594 2.24879L14.7928 4.39475ZM9.65952 6.51202C10.623 6.58891 11.5911 6.43684 12.4839 6.06835C13.3768 5.69985 14.1689 5.12547 14.795 4.39255L12.2594 2.24879C11.9748 2.58171 11.6148 2.84258 11.2091 3.00994C10.8034 3.17729 10.3635 3.24633 9.92572 3.21138L9.65952 6.51202ZM6.52723 9.47265C6.4954 9.07426 6.55089 8.67154 6.68987 8.29659C6.82884 7.92164 7.04798 7.5812 7.33214 7.29882C7.61629 7.01644 7.95868 6.79885 8.33563 6.66109C8.71257 6.52334 9.11509 6.46871 9.51533 6.50098L9.78153 3.20034C8.90064 3.1297 8.01484 3.25038 7.18542 3.55403C6.35601 3.85769 5.60279 4.33707 4.97788 4.959C4.35298 5.58093 3.8713 6.33057 3.5662 7.15604C3.26109 7.9815 3.13984 8.86309 3.21082 9.73979L6.52723 9.47265ZM4.41316 14.725C5.14887 14.1019 5.72538 13.3138 6.09523 12.4256C6.46509 11.5374 6.61771 10.5745 6.54054 9.61616L3.22413 9.88109C3.29512 10.7642 2.93575 11.6297 2.25694 12.2037L4.41316 14.725ZM4.30224 19.0235C3.99631 18.7644 3.75059 18.4423 3.58209 18.0794C3.41358 17.7165 3.3263 17.3215 3.3263 16.9217C3.3263 16.5219 3.41358 16.1269 3.58209 15.764C3.75059 15.4011 3.99631 15.079 4.30224 14.8199L2.14602 12.2986C1.47328 12.8686 0.932962 13.5772 0.562432 14.3754C0.191901 15.1736 0 16.0424 0 16.9217C0 17.801 0.191901 18.6698 0.562432 19.468C0.932962 20.2662 1.47328 20.9748 2.14602 21.5448L4.30224 19.0235ZM6.54054 24.2273C6.6178 23.2683 6.46501 22.3049 6.09475 21.4163C5.72449 20.5277 5.14737 19.7393 4.41094 19.1162L2.25694 21.6397C2.93575 22.2138 3.29512 23.0792 3.22413 23.9623L6.54054 24.2273ZM9.51311 27.3446C9.11264 27.3767 8.70996 27.3217 8.33295 27.1835C7.95594 27.0454 7.61359 26.8273 7.32961 26.5445C7.04562 26.2616 6.82679 25.9208 6.68825 25.5454C6.54971 25.1701 6.49477 24.7693 6.52723 24.3708L3.21082 24.1058C3.13984 24.9825 3.26109 25.8641 3.5662 26.6896C3.8713 27.5151 4.35298 28.2647 4.97788 28.8866C5.60279 29.5086 6.35601 29.9879 7.18542 30.2916C8.01484 30.5952 8.90064 30.7159 9.78153 30.6453L9.51533 27.3424L9.51311 27.3446ZM19.1119 29.559C18.8515 29.8635 18.5279 30.1081 18.1632 30.2758C17.7986 30.4435 17.4017 30.5303 17 30.5303C16.5983 30.5303 16.2014 30.4435 15.8368 30.2758C15.4721 30.1081 15.1485 29.8635 14.8881 29.559L12.3548 31.705C12.9275 32.3745 13.6395 32.9123 14.4415 33.2811C15.2436 33.6498 16.1165 33.8408 17 33.8408C17.8835 33.8408 18.7564 33.6498 19.5585 33.2811C20.3605 32.9123 21.0725 32.3745 21.6452 31.705L19.1119 29.559ZM27.4728 24.3708C27.5049 24.7693 27.4497 25.1701 27.3109 25.5453C27.1721 25.9205 26.953 26.2612 26.6688 26.5439C26.3846 26.8265 26.0421 27.0443 25.665 27.1822C25.2878 27.3201 24.8851 27.377 24.4847 27.3446L24.2185 30.6453C25.0994 30.7159 25.9852 30.5952 26.8146 30.2916C27.644 29.9879 28.3972 29.5086 29.0221 28.8866C29.647 28.2647 30.1287 27.5151 30.4338 26.6896C30.7389 25.8641 30.8602 24.9825 30.7892 24.1058L27.4728 24.3708ZM29.5868 19.1162C28.8508 19.7396 28.2741 20.528 27.9043 21.4166C27.5344 22.3052 27.3819 23.2685 27.4595 24.2273L30.7759 23.9623C30.7049 23.0792 31.0643 22.2138 31.7431 21.6397L29.5868 19.1162ZM29.6978 14.8199C30.0037 15.079 30.2494 15.4011 30.4179 15.764C30.5864 16.1269 30.6737 16.5219 30.6737 16.9217C30.6737 17.3215 30.5864 17.7165 30.4179 18.0794C30.2494 18.4423 30.0037 18.7644 29.6978 19.0235L31.854 21.5448C32.5267 20.9748 33.067 20.2662 33.4376 19.468C33.8081 18.6698 34 17.801 34 16.9217C34 16.0424 33.8081 15.1736 33.4376 14.3754C33.067 13.5772 32.5267 12.8686 31.854 12.2986L29.6978 14.8199ZM27.4595 9.61616C27.3822 10.5751 27.535 11.5385 27.9053 12.4271C28.2755 13.3158 28.8526 14.1041 29.5891 14.7272L31.7431 12.2037C31.4086 11.9204 31.1464 11.5622 30.9783 11.1584C30.8101 10.7546 30.7408 10.3168 30.7759 9.88109L27.4595 9.61616ZM24.4869 6.49877C24.8874 6.46675 25.29 6.52173 25.6671 6.65989C26.0441 6.79805 26.3864 7.0161 26.6704 7.29894C26.9544 7.58178 27.1732 7.92266 27.3118 8.29798C27.4503 8.67331 27.5052 9.0719 27.4728 9.47044L30.7892 9.73759C30.8602 8.86088 30.7389 7.97929 30.4338 7.15383C30.1287 6.32836 29.647 5.57872 29.0221 4.95679C28.3972 4.33486 27.644 3.85548 26.8146 3.55182C25.9852 3.24817 25.0994 3.12749 24.2185 3.19814L24.4847 6.49877H24.4869ZM19.205 4.39475C19.8311 5.12696 20.6252 5.70073 21.5176 6.06882C22.41 6.43692 23.3775 6.58882 24.3405 6.51202L24.0743 3.21138C23.6365 3.24633 23.1966 3.17729 22.7909 3.00994C22.3852 2.84258 22.0252 2.58171 21.7406 2.24879L19.205 4.39475ZM21.6474 2.1384C21.0747 1.46811 20.3625 0.929702 19.56 0.56047C18.7576 0.191237 17.8841 0 17 0C16.1159 0 15.2424 0.191237 14.44 0.56047C13.6375 0.929702 12.9253 1.46811 12.3526 2.1384L14.8881 4.28437C15.1485 3.97989 15.4721 3.73534 15.8368 3.56764C16.2014 3.39993 16.5983 3.31307 17 3.31307C17.4017 3.31307 17.7986 3.39993 18.1632 3.56764C18.5279 3.73534 18.8515 3.97989 19.1119 4.28437L21.6452 2.1384H21.6474ZM14.7928 29.4487C14.2497 28.8136 13.581 28.2966 12.8284 27.9301C12.0757 27.5635 11.2553 27.3552 10.4182 27.3181L10.2718 30.6276C11.0349 30.6607 11.7581 31.0073 12.2594 31.5946L14.7928 29.4487ZM10.4182 27.3181C10.1653 27.307 9.9119 27.3114 9.65952 27.3314L9.92572 30.632C10.0408 30.6228 10.1565 30.6214 10.2718 30.6276L10.4182 27.3181ZM12.0087 45.6229V28.9718H8.68124V45.6229H12.0087ZM24.3427 27.3314C24.0896 27.3113 23.8355 27.3069 23.5818 27.3181L23.7282 30.6276C23.8435 30.6214 23.9592 30.6228 24.0743 30.632L24.3405 27.3314H24.3427ZM23.5818 27.3181C22.7443 27.3549 21.9235 27.5631 21.1704 27.9297C20.4174 28.2962 19.7506 28.8133 19.2072 29.4487L21.7406 31.5946C21.9875 31.3063 22.2913 31.0716 22.6333 30.9053C22.9753 30.7389 23.348 30.6444 23.7282 30.6276L23.5818 27.3181ZM21.9913 28.974V45.6229H25.3188V28.9718L21.9913 28.974Z"
        fill="#404040"></path>
    <path d="M21.8733 14L15.2183 20.6233L13 18.4156" stroke="url(#paint0_linear_844_25)"
        stroke-width="1.5" stroke-linecap="round" stroke-linejoin="round"></path>
    <defs>
        <linearGradient id="paint0_linear_844_25" x1="10.3095" y1="18.9341" x2="22.9222"
            y2="19.4851" gradientUnits="userSpaceOnUse">
            <stop stop-color="#00AEEF"></stop>
            <stop offset="1" stop-color="#00AEEF"></stop>
        </linearGradient>
    </defs>
</svg>