<?xml version="1.0" encoding="utf-8"?>
<svg width="32" height="32" viewBox="0 0 32 32" fill="none" xmlns="http://www.w3.org/2000/svg"
    class="h-6 md:h-8 text-sky-700 inline-block">
    <path
        d="M11.1997 10.6664H12.2666V11.7333H11.1997V10.6664ZM11.1997 12.7996H12.2666V13.8665H11.1997V12.7996ZM11.1997 14.9334H12.2666V16.0003H11.1997V14.9334ZM11.1997 17.0666H12.2666V18.1335H11.1997V17.0666ZM13.3329 10.6664H14.3998V11.7333H13.3329V10.6664ZM13.3329 12.7996H14.3998V13.8665H13.3329V12.7996ZM13.3329 14.9334H14.3998V16.0003H13.3329V14.9334ZM13.3329 17.0666H14.3998V18.1335H13.3329V17.0666ZM15.4667 10.6664H16.5336V11.7333H15.4667V10.6664ZM15.4667 12.7996H16.5336V13.8665H15.4667V12.7996ZM15.4667 14.9334H16.5336V16.0003H15.4667V14.9334ZM15.4667 17.0666H16.5336V18.1335H15.4667V17.0666ZM17.5998 10.6664H18.6667V11.7333H17.5998V10.6664ZM13.3329 8.53326H14.3998V9.60016H13.3329V8.53326ZM15.4667 8.53326H16.5336V9.60016H15.4667V8.53326ZM17.5998 8.53326H18.6667V9.60016H17.5998V8.53326ZM17.5998 12.7996H18.6667V13.8665H17.5998V12.7996ZM17.5998 14.9334H18.6667V16.0003H17.5998V14.9334ZM17.5998 17.0666H18.6667V18.1335H17.5998V17.0666ZM19.733 10.6664H20.7999V11.7333H19.733V10.6664ZM19.733 12.7996H20.7999V13.8665H19.733V12.7996ZM19.733 14.9334H20.7999V16.0003H19.733V14.9334ZM19.733 17.0666H20.7999V18.1335H19.733V17.0666Z"
        fill="#0284C7"></path>
    <path
        d="M31.4675 7.99953H23.4667V0.533136C23.4667 0.238755 23.2286 0 22.9342 0H9.06643C8.77205 0 8.53329 0.238129 8.53329 0.53251V8.00016H0.533135C0.238755 8.00016 0 8.23829 0 8.53267V27.7337C0 28.028 0.238129 28.2668 0.53251 28.2668H1.64816C1.61753 28.4431 1.60128 28.6212 1.60003 28.7999V31.4669C1.60003 31.7612 1.83816 32 2.13254 32H29.8668C30.1612 32 30.4 31.7619 30.4 31.4675V28.7999C30.3987 28.6212 30.3825 28.4424 30.3518 28.2668H31.4669C31.7612 28.2668 32 28.0287 32 27.7343V8.53329C32 8.23891 31.7619 8.00016 31.4675 7.99953ZM22.9329 22.9336C22.9329 23.523 22.4554 24.0005 21.8661 24.0005C21.2767 24.0005 20.7998 23.5223 20.7998 22.9336C20.7998 22.3442 21.2773 21.8667 21.8667 21.8667C22.4554 21.8673 22.9323 22.3448 22.9329 22.9336ZM10.1327 21.8667C10.7221 21.8667 11.1996 22.3442 11.1996 22.9336C11.1996 23.523 10.7221 24.0005 10.1327 24.0005C9.54331 24.0005 9.0658 23.523 9.0658 22.9336C9.06705 22.3448 9.54394 21.8673 10.1327 21.8667ZM6.93263 30.9337H2.66568V28.8006C2.66568 27.6224 3.6207 26.6674 4.79884 26.6674C5.97699 26.6674 6.93201 27.6224 6.93201 28.8006V30.9337H6.93263ZM3.73257 24.5336C3.73257 23.9442 4.21008 23.4667 4.79947 23.4667C5.38886 23.4667 5.86636 23.9442 5.86636 24.5336C5.86636 25.123 5.38886 25.6005 4.79947 25.6005C4.21071 25.5992 3.73382 25.1224 3.73257 24.5336ZM7.01389 26.4949C6.81263 26.3011 6.587 26.1343 6.34325 25.998C7.15701 25.1455 7.12514 23.7955 6.27325 22.9817C5.42136 22.1679 4.0707 22.1998 3.25694 23.0517C2.47005 23.8761 2.47005 25.1736 3.25694 25.9974C2.74755 26.2799 2.32504 26.6949 2.03316 27.1993H1.0669V9.06643H8.53392V21.5373C7.8014 22.3592 7.8264 23.6067 8.59079 24.3986C7.78953 24.8411 7.21639 25.6036 7.01389 26.4949ZM12.2665 30.9337H7.99953V27.2005C7.99953 26.0224 8.95455 25.0674 10.1327 25.0674C11.3108 25.0674 12.2659 26.0224 12.2659 27.2005V30.9337H12.2665ZM18.6666 30.9337H13.3334V27.2005C13.3334 25.728 14.5272 24.5336 16.0003 24.5336C17.4735 24.5336 18.6672 25.7274 18.6672 27.2005V30.9337H18.6666ZM14.3997 21.8667C14.3997 20.9829 15.1159 20.2666 15.9997 20.2666C16.8835 20.2666 17.5997 20.9829 17.5997 21.8667C17.5997 22.7504 16.8835 23.4667 15.9997 23.4667C15.1165 23.4661 14.4003 22.7498 14.3997 21.8667ZM19.2479 25.3667C18.891 24.7374 18.3591 24.2242 17.7178 23.8892C18.8441 22.9404 18.9885 21.2579 18.0397 20.1316C17.091 19.0054 15.4084 18.861 14.2822 19.8098C13.1559 20.7585 13.0115 22.4411 13.9603 23.5673C14.0584 23.6836 14.1659 23.7911 14.2822 23.8892C13.6403 24.2242 13.109 24.7367 12.7521 25.3667C12.4715 24.9667 12.104 24.6355 11.6765 24.3986C12.494 23.5623 12.479 22.2211 11.6421 21.4035C11.1033 20.8773 10.3258 20.676 9.59956 20.876V1.06627H22.3998V20.876C22.2261 20.8279 22.0467 20.8029 21.8667 20.8004C20.6917 20.7973 19.7366 21.7473 19.7335 22.9223C19.7323 23.4723 19.9435 24.0011 20.3235 24.3986C19.896 24.6355 19.5285 24.9667 19.2479 25.3667ZM23.9998 28.7999V30.9337H19.7329V27.2005C19.7329 26.0224 20.6879 25.0674 21.8661 25.0674C23.0442 25.0674 23.9998 26.0218 23.9998 27.1999V28.7999ZM29.3331 30.9337H25.0661V28.8006C25.0661 27.6224 26.0211 26.6674 27.1993 26.6674C28.3774 26.6674 29.3324 27.6224 29.3324 28.8006V30.9337H29.3331ZM26.133 24.5336C26.133 23.9442 26.6105 23.4667 27.1999 23.4667C27.7893 23.4667 28.2668 23.9442 28.2668 24.5336C28.2668 25.123 27.7893 25.6005 27.1999 25.6005C26.6111 25.5992 26.1343 25.1224 26.133 24.5336ZM30.9331 27.1999H29.9668C29.675 26.6961 29.2518 26.2811 28.7431 25.998C29.5568 25.1455 29.525 23.7955 28.6731 22.9817C27.8205 22.1679 26.4705 22.1998 25.6568 23.0517C24.8699 23.8761 24.8699 25.1736 25.6568 25.9974C25.4124 26.133 25.1867 26.2999 24.9861 26.4943C24.7836 25.603 24.2098 24.8399 23.4098 24.3974C24.1742 23.6055 24.1992 22.3579 23.4667 21.536V9.06643H30.9337L30.9331 27.1999Z"
        fill="black"></path>
    <path
        d="M25.0669 12.2665H26.1338V20.7998H25.0669V12.2665ZM28.267 12.2665H29.3339V20.7998H28.267V12.2665ZM2.6665 12.2665H3.7334V20.7998H2.6665V12.2665ZM5.86657 12.2665H6.93346V20.7998H5.86657V12.2665ZM19.2006 2.13318H12.7998C12.5054 2.13318 12.2667 2.37131 12.2667 2.66569V6.93327C12.2667 7.22765 12.5048 7.46641 12.7992 7.46641H19.2C19.4943 7.46641 19.7331 7.22828 19.7331 6.9339V2.66631C19.7337 2.37193 19.495 2.13318 19.2006 2.13318ZM18.6668 6.39951H13.3336V3.19945H18.6668V6.39951Z"
        fill="#0284C7"></path>
    <mask id="mask0_875_27" maskUnits="userSpaceOnUse" x="7" y="20" width="6" height="6">
        <path
            d="M8.02274 23.2511C7.87961 22.3705 8.39024 21.698 8.39024 21.698C9.06838 20.8961 9.83465 20.8204 9.83465 20.8204L10.2578 20.5811L12.8747 21.5867L12.811 24.0761L12.0291 24.7305L10.2897 25.3211L8.39087 25.3374L7.91211 24.2205L8.02274 23.2511Z"
            fill="white"></path>
    </mask>
    <g mask="url(#mask0_875_27)">
        <path
            d="M31.4675 7.99953H23.4667V0.533136C23.4667 0.238755 23.2286 0 22.9342 0H9.06643C8.77205 0 8.53329 0.238129 8.53329 0.53251V8.00016H0.533135C0.238755 8.00016 0 8.23829 0 8.53267V27.7337C0 28.028 0.238129 28.2668 0.53251 28.2668H1.64816C1.61753 28.4431 1.60128 28.6212 1.60003 28.7999V31.4669C1.60003 31.7612 1.83816 32 2.13254 32H29.8668C30.1612 32 30.4 31.7619 30.4 31.4675V28.7999C30.3987 28.6212 30.3825 28.4424 30.3518 28.2668H31.4669C31.7612 28.2668 32 28.0287 32 27.7343V8.53329C32 8.23891 31.7619 8.00016 31.4675 7.99953ZM22.9329 22.9336C22.9329 23.523 22.4554 24.0005 21.8661 24.0005C21.2767 24.0005 20.7998 23.5223 20.7998 22.9336C20.7998 22.3442 21.2773 21.8667 21.8667 21.8667C22.4554 21.8673 22.9323 22.3448 22.9329 22.9336ZM10.1327 21.8667C10.7221 21.8667 11.1996 22.3442 11.1996 22.9336C11.1996 23.523 10.7221 24.0005 10.1327 24.0005C9.54331 24.0005 9.0658 23.523 9.0658 22.9336C9.06705 22.3448 9.54394 21.8673 10.1327 21.8667ZM6.93263 30.9337H2.66568V28.8006C2.66568 27.6224 3.6207 26.6674 4.79884 26.6674C5.97699 26.6674 6.93201 27.6224 6.93201 28.8006V30.9337H6.93263ZM3.73257 24.5336C3.73257 23.9442 4.21008 23.4667 4.79947 23.4667C5.38886 23.4667 5.86636 23.9442 5.86636 24.5336C5.86636 25.123 5.38886 25.6005 4.79947 25.6005C4.21071 25.5992 3.73382 25.1224 3.73257 24.5336ZM7.01389 26.4949C6.81263 26.3011 6.587 26.1343 6.34325 25.998C7.15701 25.1455 7.12514 23.7955 6.27325 22.9817C5.42136 22.1679 4.0707 22.1998 3.25694 23.0517C2.47005 23.8761 2.47005 25.1736 3.25694 25.9974C2.74755 26.2799 2.32504 26.6949 2.03316 27.1993H1.0669V9.06643H8.53392V21.5373C7.8014 22.3592 7.8264 23.6067 8.59079 24.3986C7.78953 24.8411 7.21639 25.6036 7.01389 26.4949ZM12.2665 30.9337H7.99953V27.2005C7.99953 26.0224 8.95455 25.0674 10.1327 25.0674C11.3108 25.0674 12.2659 26.0224 12.2659 27.2005V30.9337H12.2665ZM18.6666 30.9337H13.3334V27.2005C13.3334 25.728 14.5272 24.5336 16.0003 24.5336C17.4735 24.5336 18.6672 25.7274 18.6672 27.2005V30.9337H18.6666ZM14.3997 21.8667C14.3997 20.9829 15.1159 20.2666 15.9997 20.2666C16.8835 20.2666 17.5997 20.9829 17.5997 21.8667C17.5997 22.7504 16.8835 23.4667 15.9997 23.4667C15.1165 23.4661 14.4003 22.7498 14.3997 21.8667ZM19.2479 25.3667C18.891 24.7374 18.3591 24.2242 17.7178 23.8892C18.8441 22.9404 18.9885 21.2579 18.0397 20.1316C17.091 19.0054 15.4084 18.861 14.2822 19.8098C13.1559 20.7585 13.0115 22.4411 13.9603 23.5673C14.0584 23.6836 14.1659 23.7911 14.2822 23.8892C13.6403 24.2242 13.109 24.7367 12.7521 25.3667C12.4715 24.9667 12.104 24.6355 11.6765 24.3986C12.494 23.5623 12.479 22.2211 11.6421 21.4035C11.1033 20.8773 10.3258 20.676 9.59956 20.876V1.06627H22.3998V20.876C22.2261 20.8279 22.0467 20.8029 21.8667 20.8004C20.6917 20.7973 19.7366 21.7473 19.7335 22.9223C19.7323 23.4723 19.9435 24.0011 20.3235 24.3986C19.896 24.6355 19.5285 24.9667 19.2479 25.3667ZM23.9998 28.7999V30.9337H19.7329V27.2005C19.7329 26.0224 20.6879 25.0674 21.8661 25.0674C23.0442 25.0674 23.9998 26.0218 23.9998 27.1999V28.7999ZM29.3331 30.9337H25.0661V28.8006C25.0661 27.6224 26.0211 26.6674 27.1993 26.6674C28.3774 26.6674 29.3324 27.6224 29.3324 28.8006V30.9337H29.3331ZM26.133 24.5336C26.133 23.9442 26.6105 23.4667 27.1999 23.4667C27.7893 23.4667 28.2668 23.9442 28.2668 24.5336C28.2668 25.123 27.7893 25.6005 27.1999 25.6005C26.6111 25.5992 26.1343 25.1224 26.133 24.5336ZM30.9331 27.1999H29.9668C29.675 26.6961 29.2518 26.2811 28.7431 25.998C29.5568 25.1455 29.525 23.7955 28.6731 22.9817C27.8205 22.1679 26.4705 22.1998 25.6568 23.0517C24.8699 23.8761 24.8699 25.1736 25.6568 25.9974C25.4124 26.133 25.1867 26.2999 24.9861 26.4943C24.7836 25.603 24.2098 24.8399 23.4098 24.3974C24.1742 23.6055 24.1992 22.3579 23.4667 21.536V9.06643H30.9337L30.9331 27.1999Z"
            fill="black"></path>
        <path
            d="M25.0669 12.2665H26.1338V20.7998H25.0669V12.2665ZM28.267 12.2665H29.3339V20.7998H28.267V12.2665ZM2.6665 12.2665H3.7334V20.7998H2.6665V12.2665ZM5.86657 12.2665H6.93346V20.7998H5.86657V12.2665ZM19.2006 2.13318H12.7998C12.5054 2.13318 12.2667 2.37131 12.2667 2.66569V6.93327C12.2667 7.22765 12.5048 7.46641 12.7992 7.46641H19.2C19.4943 7.46641 19.7331 7.22828 19.7331 6.9339V2.66631C19.7337 2.37193 19.495 2.13318 19.2006 2.13318ZM18.6668 6.39951H13.3336V3.19945H18.6668V6.39951Z"
            fill="#0284C7"></path>
    </g>
</svg>
