<?xml version="1.0" encoding="utf-8"?>
<!-- Generator: Adobe Illustrator 23.0.1, SVG Export Plug-In . SVG Version: 6.00 Build 0)  -->
<svg version="1.1" id="Layer_1" xmlns="http://www.w3.org/2000/svg" xmlns:xlink="http://www.w3.org/1999/xlink" x="0px" y="0px"
	 viewBox="0 0 30 30" style="enable-background:new 0 0 30 30;" xml:space="preserve">
<style type="text/css">
	.st0{clip-path:url(#SVGID_2_);}
	.st1{fill:#0284C7;}
	.st2{fill:none;}
</style>
<rect x="-173" y="-253" class="st2" width="512" height="512"/>
<g>
	<path d="M28.6,2.8v20.4c0,0.7-0.6,1.4-1.4,1.4h-9c0.2,0.5,0.6,0.9,1,1.1c0.4,0.2,0.8,0.3,0.8,0.3c1,0,1.7,0.8,1.7,1.8
		c0,0.5-0.4,0.9-0.9,0.9H9.1c-0.5,0-0.9-0.4-0.9-0.9c0-0.5,0.2-0.9,0.5-1.2c0.3-0.3,0.7-0.5,1.2-0.6c0.1,0,1.5-0.3,1.8-1.4h-9
		c-0.7,0-1.4-0.6-1.4-1.4V2.8C1.4,2,2,1.4,2.8,1.4h24.4C28,1.4,28.6,2,28.6,2.8z M27.7,23.1v-0.9H2.3v0.9c0,0.2,0.2,0.5,0.5,0.5
		h24.4C27.5,23.6,27.7,23.4,27.7,23.1z M27.7,21.3V2.8c0-0.2-0.2-0.5-0.5-0.5H2.8c-0.2,0-0.5,0.2-0.5,0.5v18.6H27.7z M9.1,27.7h11.8
		c0-0.5-0.4-0.9-0.9-0.9H10C9.5,26.8,9.1,27.2,9.1,27.7z M18.1,25.9L18.1,25.9c-0.4-0.4-0.7-0.8-0.8-1.4h-4.6
		c-0.1,0.5-0.4,1-0.8,1.4H18.1z"/>
	<path class="st1" d="M26.3,9.3c0.1,0.5-0.2,1-0.7,1.1L25,10.6v3.1c0.5,0.1,1,0.4,1.2,0.9c0.4,0.8,0,1.7-0.8,2.1
		c-0.8,0.4-1.7,0-2.1-0.8c-0.4-0.8,0-1.7,0.8-2.1v-3l-1.8,0.4v5.5c0,0.8-0.5,1.4-1.3,1.5c-2,0.3-4,0.4-5.9,0.4c-2,0-4-0.1-5.9-0.4
		c-0.7-0.1-1.3-0.8-1.3-1.5v-5.5l-3.4-0.7c-0.3-0.1-0.6-0.3-0.7-0.7c-0.1-0.5,0.2-1,0.7-1.1l10.4-2.2c0.2,0,0.3,0,0.5,0l10.4,2.2
		C25.9,8.8,26.2,9,26.3,9.3L26.3,9.3z M25.4,9.6L25.4,9.6C25.4,9.6,25.4,9.6,25.4,9.6L15.1,7.3c0,0-0.1,0-0.1,0L4.6,9.6c0,0,0,0,0,0
		l10.3,2.2c0,0,0.1,0,0.1,0L25.4,9.6L25.4,9.6z M25.4,15.2c0-0.4-0.3-0.7-0.7-0.7S24,14.9,24,15.2c0,0.4,0.3,0.7,0.7,0.7
		S25.4,15.6,25.4,15.2z M20.8,17.3c0.3,0,0.5-0.3,0.5-0.6v-5.3l-6.1,1.3c-0.2,0-0.3,0-0.5,0l-6.1-1.3v5.3c0,0.3,0.2,0.6,0.5,0.6
		c1.9,0.3,3.9,0.4,5.8,0.4C16.9,17.7,18.9,17.6,20.8,17.3L20.8,17.3z"/>
</g>
</svg>
