<?xml version="1.0" encoding="utf-8"?>
<!-- Generator: Adobe Illustrator 23.0.1, SVG Export Plug-In . SVG Version: 6.00 Build 0)  -->
<svg version="1.1" id="Layer_1" xmlns="http://www.w3.org/2000/svg" xmlns:xlink="http://www.w3.org/1999/xlink" x="0px" y="0px"
	 viewBox="0 0 30 30" style="enable-background:new 0 0 30 30;" xml:space="preserve">
<style type="text/css">
	.st0{clip-path:url(#SVGID_2_);}
	.st1{fill:#0284C7;}
	.st2{clip-path:url(#SVGID_4_);}
	.st3{fill:none;}
	.st4{clip-path:url(#SVGID_6_);}
	.st5{fill:none;stroke:#000000;stroke-width:0.75;stroke-miterlimit:10;}
</style>
<g>
	<g>
		<defs>
			<rect id="SVGID_1_" x="7.7" y="35.9" width="16.3" height="3.7"/>
		</defs>
		<clipPath id="SVGID_2_">
			<use xlink:href="#SVGID_1_"  style="overflow:visible;"/>
		</clipPath>
		<g class="st0">
			<path class="st1" d="M25.5,21.5c-0.1-0.2-0.3-0.3-0.5-0.3l0,0c-0.2,0.1-0.3,0.3-0.3,0.5c0.1,0.3,0.1,0.6,0.1,0.9
				c0,0.6-0.1,1.1-0.4,1.6s-0.7,0.9-1.1,1.1l-0.2,0.1C23,25.5,23,25.6,23,25.7v0.5h-0.9v-1.6c0.4-0.1,0.7-0.5,0.7-1v-0.8
				c0-0.6-0.5-1.1-1.1-1.1l0,0c-0.6,0-1.1,0.5-1.1,1.1v0.8c0,0.5,0.3,0.9,0.7,1v1.6h-0.9v-0.5c0-0.1-0.1-0.3-0.2-0.3L20,25.3
				c-0.5-0.3-0.8-0.7-1.1-1.1c-0.3-0.5-0.4-1-0.4-1.6c0-1.7,1.4-3.2,3.2-3.2c0.8,0,1.6,0.3,2.2,0.9c0.2,0.1,0.4,0.1,0.5,0
				c0.1-0.2,0.1-0.4,0-0.5l0,0c-0.7-0.7-1.7-1.1-2.7-1.1c-2.2,0-3.9,1.8-3.9,3.9c0,0.7,0.2,1.4,0.5,2s0.8,1,1.4,1.4v0.3
				c-0.2,0.1-0.3,0.3-0.3,0.5v1.7c0,0.3,0.3,0.6,0.6,0.6h0.6v0.5c0,0.4,0.3,0.7,0.7,0.7h1.1c0.4,0,0.7-0.3,0.7-0.7v-0.5h0.6
				c0.3,0,0.6-0.3,0.6-0.6v-1.7c0-0.2-0.1-0.4-0.3-0.5V26c0.6-0.3,1-0.8,1.4-1.4c0.3-0.6,0.5-1.3,0.5-2
				C25.6,22.2,25.6,21.9,25.5,21.5z M21.4,22.8c0-0.2,0.1-0.3,0.3-0.3l0,0c0.2,0,0.3,0.1,0.3,0.3v0.8c0,0.2-0.1,0.3-0.3,0.3l0,0
				c-0.2,0-0.3-0.1-0.3-0.3V22.8z M22.1,29.6h-0.9v-0.4h0.9V29.6z M23.3,28.4h-3.2V27h3.2V28.4z"/>
			<path class="st1" d="M21.7,18.2c0.2,0,0.4-0.2,0.4-0.4v-0.6c0-0.2-0.2-0.4-0.4-0.4s-0.4,0.2-0.4,0.4v0.6
				C21.3,18.1,21.5,18.2,21.7,18.2z"/>
			<path class="st1" d="M19.4,18.4c0.1,0.1,0.2,0.2,0.3,0.2c0.1,0,0.1,0,0.2,0c0.2-0.1,0.3-0.3,0.2-0.5l-0.3-0.6
				c-0.1-0.2-0.3-0.3-0.5-0.2c-0.2,0.1-0.3,0.3-0.2,0.5l0,0L19.4,18.4z"/>
			<path class="st1" d="M17.3,19.3l0.5,0.4c0.1,0.1,0.2,0.1,0.3,0.1c0.1,0,0.2,0,0.3-0.1c0.1-0.2,0.1-0.4,0-0.5l-0.5-0.4
				c-0.2-0.1-0.4-0.1-0.5,0l0,0C17.2,18.9,17.2,19.2,17.3,19.3L17.3,19.3z"/>
			<path class="st1" d="M16.3,21.4l0.6,0.2c0.2,0.1,0.4,0,0.5-0.2l0,0c0.1-0.2,0-0.4-0.2-0.5l0,0l-0.6-0.2c-0.2-0.1-0.4,0-0.5,0.2
				S16.1,21.3,16.3,21.4L16.3,21.4L16.3,21.4z"/>
			<path class="st1" d="M16.2,23.7C16.2,23.7,16.3,23.7,16.2,23.7l0.7-0.1c0.2,0,0.4-0.2,0.3-0.4l0,0c0-0.2-0.2-0.4-0.4-0.3l0,0
				L16.2,23c-0.2,0-0.4,0.2-0.3,0.4C15.9,23.5,16,23.7,16.2,23.7L16.2,23.7z"/>
			<path class="st1" d="M16.8,25.1c-0.2,0.1-0.2,0.3-0.1,0.5l0,0c0.1,0.2,0.3,0.2,0.5,0.1l0.5-0.3c0.2-0.1,0.2-0.3,0.1-0.5l0,0
				c-0.1-0.2-0.3-0.2-0.5-0.1l0,0L16.8,25.1z"/>
			<path class="st1" d="M23.5,18.6c0.2,0.1,0.4,0,0.5-0.2l0.3-0.6c0.1-0.2,0-0.4-0.2-0.5s-0.4,0-0.5,0.2l0,0l-0.3,0.6
				C23.2,18.3,23.3,18.5,23.5,18.6L23.5,18.6L23.5,18.6z"/>
			<path class="st1" d="M25.3,19.8c0.1,0,0.2,0,0.3-0.1l0.5-0.4c0.2-0.1,0.2-0.4,0-0.5c-0.1-0.2-0.4-0.2-0.5,0l0,0L25,19.2
				c-0.2,0.1-0.2,0.4,0,0.5C25.1,19.8,25.2,19.8,25.3,19.8z"/>
			<path class="st1" d="M25.9,21.3c0.1,0.2,0.2,0.3,0.4,0.3h0.1l0.6-0.2c0.2-0.1,0.3-0.3,0.2-0.5c-0.1-0.2-0.3-0.3-0.5-0.2l-0.6,0.2
				C26,20.9,25.9,21.1,25.9,21.3L25.9,21.3L25.9,21.3z"/>
			<path class="st1" d="M27.2,22.9l-0.6-0.1c-0.2,0-0.4,0.1-0.4,0.3c0,0.2,0.1,0.4,0.3,0.4l0,0l0.6,0.1c0.2,0,0.4-0.1,0.4-0.3
				S27.4,22.9,27.2,22.9L27.2,22.9z"/>
			<path class="st1" d="M26.6,25.1L26,24.8c-0.2-0.1-0.4,0-0.5,0.1c-0.1,0.2,0,0.4,0.1,0.5l0,0l0.5,0.3c0.2,0.1,0.4,0,0.5-0.1
				C26.8,25.5,26.8,25.2,26.6,25.1L26.6,25.1z"/>
			<path d="M5.7,25.6h3.9c0.2,0,0.4-0.2,0.4-0.4s-0.2-0.4-0.4-0.4H5.7c-0.2,0-0.4,0.2-0.4,0.4l0,0C5.3,25.5,5.5,25.6,5.7,25.6z"/>
			<path class="st1" d="M14.1,28.9c-1.2,0-2.3,1-2.3,2.3c0,1.2,1,2.3,2.3,2.3c1.2,0,2.3-1,2.3-2.3C16.4,29.9,15.4,28.9,14.1,28.9z
				 M14.1,32.7c-0.8,0-1.5-0.7-1.5-1.5c0-0.5,0.2-0.9,0.6-1.2c0.2,1.1,1.1,1.9,2.2,1.9l0,0C15.2,32.3,14.7,32.7,14.1,32.7z
				 M15.4,31.1c-0.8,0-1.5-0.6-1.5-1.4c0.1,0,0.1,0,0.2,0c0.8,0,1.5,0.6,1.5,1.4C15.6,31.1,15.5,31.1,15.4,31.1z"/>
			<path class="st1" d="M23.4,37.2L23.4,37.2l-1.9-1.1c-0.3-0.1-0.7-0.2-1-0.2h-6.6v-1.2c0.1,0,0.2,0,0.3,0c2.3,0,4.4-1.2,5.5-3.2
				c0.1-0.2,0.1-0.4,0-0.6c-1.1-2-3.2-3.2-5.5-3.2c-0.1,0-0.2,0-0.3,0V23c0-0.4-0.3-0.6-0.6-0.6h-7c-0.2,0-0.4,0.2-0.4,0.4
				C5.8,22.9,6,23,6.2,23h6.9v4.7c-0.3,0-0.5,0.1-0.8,0.2v-0.3c0-0.4-0.3-0.6-0.6-0.6h-8c-0.4,0-0.6,0.3-0.6,0.6v5.3
				c0,0.4,0.3,0.6,0.6,0.6h6.8c0.8,0.5,1.6,0.9,2.6,1.1v1.3H8.5c-0.3,0-0.5,0.2-0.7,0.4H3.9c-0.2,0-0.4,0.2-0.4,0.4S3.7,37,3.9,37
				h3.8v1H3.9c-0.2,0-0.4,0.2-0.4,0.4s0.2,0.4,0.4,0.4h3.8c0,0.4,0.4,0.7,0.8,0.7h4.6V41H2.2V23h2.1c0.2,0,0.4-0.2,0.4-0.4
				c0-0.2-0.2-0.4-0.4-0.4H2.1c-0.4,0-0.6,0.3-0.6,0.6V41c0,0.4,0.3,0.6,0.6,0.6h11.1c0.4,0,0.6-0.3,0.6-0.6v-1.6h6.6
				c0.3,0,0.7-0.1,1-0.2l1.9-1.1c0.2-0.1,0.3-0.3,0.3-0.5C23.7,37.5,23.6,37.3,23.4,37.2z M3.8,32.8v-5.1h7.7v0.5
				c-1.2,0.5-2.2,1.5-2.9,2.6c-0.1,0.2-0.1,0.4,0,0.6c0.3,0.5,0.6,0.9,1,1.3L3.8,32.8L3.8,32.8z M9.3,31.2L9.3,31.2
				c1-1.7,2.8-2.8,4.8-2.8s3.8,1.1,4.8,2.8c-1,1.7-2.8,2.8-4.8,2.8C12.2,33.9,10.3,32.9,9.3,31.2z M10.1,38.8H8.5l0,0v-2.1l0,0h1.6
				V38.8z M19.9,38.8h-9.1v-0.7h5.7c0.2,0,0.4-0.2,0.4-0.4s-0.2-0.4-0.4-0.4h-5.7v-0.7h9.1v0.7h-1.6c-0.2,0-0.4,0.2-0.4,0.4
				s0.2,0.4,0.4,0.4h1.6C19.9,38.1,19.9,38.8,19.9,38.8z M21.5,38.4l-0.4,0.2c-0.1,0.1-0.2,0.1-0.4,0.1v-2.1c0.1,0,0.3,0.1,0.4,0.1
				l0.4,0.2V38.4z M22.3,38v-0.5l0.5,0.3L22.3,38z"/>
		</g>
	</g>
</g>
<g>
	<g>
		<g>
			<defs>
				<rect id="SVGID_3_" x="1.7" y="644.4" width="36.5" height="36.5"/>
			</defs>
			<clipPath id="SVGID_4_">
				<use xlink:href="#SVGID_3_"  style="overflow:visible;"/>
			</clipPath>
			<g transform="matrix(1.33333 0 0 -1.33333 0 682.667)" class="st2">
				<g>
					<path d="M8.5,494.8c-0.2,0-0.4,0.1-0.6,0.2l-4.1,2.4c-0.4,0.2-0.6,0.6-0.6,1.1v4.7c0,0.4,0.2,0.8,0.6,1.1l4.1,2.4
						c0.4,0.2,0.8,0.2,1.2,0l4.1-2.4c0.4-0.2,0.6-0.6,0.6-1.1c0-0.2-0.1-0.3-0.3-0.3s-0.3,0.1-0.3,0.3c0,0.2-0.1,0.4-0.3,0.5
						L8.8,506c-0.2,0.1-0.4,0.1-0.6,0l-4.1-2.4c-0.2-0.1-0.3-0.3-0.3-0.5v-4.7c0-0.2,0.1-0.4,0.3-0.5l4.1-2.4c0.2-0.1,0.4-0.1,0.6,0
						l2,1.2c0.1,0.1,0.3,0,0.4-0.1c0.1-0.1,0-0.3-0.1-0.4l-2-1.2C8.9,494.9,8.7,494.8,8.5,494.8z M8.5,497c-0.2,0-0.4,0.1-0.6,0.2
						l-2.2,1.2c-0.4,0.2-0.6,0.6-0.6,1.1v2.5c0,0.4,0.2,0.8,0.6,1.1l2.2,1.2c0.4,0.2,0.8,0.2,1.2,0l2.2-1.2c0.4-0.2,0.6-0.6,0.6-1.1
						v-2.5l0,0c0-0.4-0.2-0.8-0.6-1.1l-2.2-1.2C8.9,497.1,8.7,497,8.5,497z M8.5,503.9c-0.1,0-0.2,0-0.3-0.1L6,502.5
						c-0.2-0.1-0.3-0.3-0.3-0.5v-2.5c0-0.2,0.1-0.4,0.3-0.5l2.2-1.2c0.2-0.1,0.4-0.1,0.6,0L11,499c0.2,0.1,0.3,0.3,0.3,0.5v2.5
						c0,0.2-0.1,0.4-0.3,0.5l-2.2,1.2C8.7,503.8,8.6,503.9,8.5,503.9z M11.6,499.5L11.6,499.5L11.6,499.5z"/>
				</g>
				<g>
					<path d="M15.7,506.2H6.1c-0.2,0-0.3,0.1-0.3,0.3c0,0.2,0.1,0.3,0.3,0.3h9.7c0.2,0,0.3-0.1,0.3-0.3
						C16,506.4,15.9,506.2,15.7,506.2z"/>
				</g>
				<g>
					<path d="M4.9,506.2H1.3c-0.2,0-0.3,0.1-0.3,0.3c0,0.2,0.1,0.3,0.3,0.3h3.6c0.2,0,0.3-0.1,0.3-0.3C5.2,506.4,5,506.2,4.9,506.2z
						"/>
				</g>
				<g>
					<path d="M15.7,494.7h-3.3c-0.2,0-0.3,0.1-0.3,0.3s0.1,0.3,0.3,0.3h3.3c0.2,0,0.3-0.1,0.3-0.3S15.9,494.7,15.7,494.7z"/>
				</g>
				<g>
					<path d="M11.3,494.7h-10c-0.2,0-0.3,0.1-0.3,0.3s0.1,0.3,0.3,0.3h10c0.2,0,0.3-0.1,0.3-0.3S11.5,494.7,11.3,494.7z"/>
				</g>
				<g>
					<path d="M13.5,492.8c-0.2,0-0.3,0.1-0.3,0.3v3.7c0,0.2,0.1,0.3,0.3,0.3s0.3-0.1,0.3-0.3v-3.7C13.8,493,13.7,492.8,13.5,492.8z"
						/>
				</g>
				<g>
					<path d="M13.5,500.7c-0.2,0-0.3,0.1-0.3,0.3v7.4c0,0.2,0.1,0.3,0.3,0.3s0.3-0.1,0.3-0.3V501C13.8,500.8,13.7,500.7,13.5,500.7z
						"/>
				</g>
				<g>
					<path d="M3.5,492.8c-0.2,0-0.3,0.1-0.3,0.3v15.2c0,0.2,0.1,0.3,0.3,0.3s0.3-0.1,0.3-0.3v-15.2C3.8,493,3.7,492.8,3.5,492.8z"/>
				</g>
				<g>
					<path d="M20.6,503.2c-0.1,0-0.2,0-0.2,0.1c-0.1,0.1-0.1,0.3,0,0.4l0.1,0.1c0.2,0.2,0.4,0.6,0.4,0.9c0,0.4-0.1,0.7-0.4,0.9
						c-0.5,0.5-1.4,0.5-1.9,0l-0.1-0.1c-0.1-0.1-0.3-0.1-0.4,0s-0.1,0.3,0,0.4l0.1,0.1c0.8,0.7,2,0.7,2.7,0c0.4-0.4,0.6-0.8,0.6-1.4
						c0-0.5-0.2-1-0.6-1.4l-0.1-0.1C20.8,503.2,20.7,503.2,20.6,503.2z"/>
				</g>
				<g>
					<path d="M12.5,496.2c-0.1,0-0.2,0-0.2,0.1l-1.1,1.1c-0.1,0.1-0.1,0.3,0,0.4s0.3,0.1,0.4,0l1.1-1.1c0.1-0.1,0.1-0.3,0-0.4
						C12.6,496.2,12.5,496.2,12.5,496.2z"/>
				</g>
				<g>
					<path d="M13.1,498c-0.1,0-0.2,0-0.2,0.1c-0.1,0.1-0.1,0.3,0,0.4l3.2,3.2c0.1,0.1,0.3,0.1,0.4,0s0.1-0.3,0-0.4l-3.2-3.2
						C13.3,498,13.2,498,13.1,498z"/>
				</g>
				<g>
					<path d="M17.3,502.2c-0.1,0-0.2,0-0.2,0.1c-0.1,0.1-0.1,0.3,0,0.4l1.1,1.1c0.1,0.1,0.3,0.1,0.4,0s0.1-0.3,0-0.4l-1.1-1.1
						C17.4,502.2,17.4,502.2,17.3,502.2z"/>
				</g>
				<g>
					<path d="M14.2,496.8L14.2,496.8c-0.2,0-0.3,0.2-0.3,0.4c0.1,0.4,0,0.6-0.1,0.7s-0.4,0.1-0.7,0.1c-0.1,0-0.2,0-0.3,0.1
						s-0.1,0.2-0.1,0.3c0.1,0.4,0,0.6-0.1,0.7s-0.4,0.1-0.7,0.1c-0.2,0-0.3,0.1-0.3,0.2c0,0.2,0.1,0.3,0.2,0.3c0.6,0.1,1,0,1.3-0.2
						c0.2-0.2,0.3-0.5,0.3-0.9c0.4,0,0.7-0.1,0.9-0.3c0.3-0.3,0.3-0.7,0.2-1.3C14.5,496.9,14.4,496.8,14.2,496.8z"/>
				</g>
				<g>
					<path d="M20.1,501.9c-0.3,0-0.6,0.1-0.8,0.3l-2.3,2.3c-0.4,0.4-0.4,1.1,0,1.5c0.2,0.2,0.5,0.3,0.8,0.3s0.6-0.1,0.8-0.3l2.3-2.3
						l0,0c0.2-0.2,0.3-0.5,0.3-0.8s-0.1-0.6-0.3-0.8C20.6,502,20.4,501.9,20.1,501.9z M17.8,505.7c-0.1,0-0.2,0-0.3-0.1
						c-0.2-0.2-0.2-0.5,0-0.7l2.3-2.3c0.1-0.1,0.2-0.1,0.3-0.1c0.1,0,0.2,0,0.3,0.1c0.1,0.1,0.1,0.2,0.1,0.3s0,0.2-0.1,0.3l-2.3,2.3
						C18,505.7,17.9,505.7,17.8,505.7z"/>
				</g>
				<g>
					<path d="M11.4,495.8c-0.2,0-0.4,0.1-0.5,0.2c-0.2,0.2-0.3,0.5-0.2,0.7l1,2.7c0,0,0,0.1,0.1,0.1l5.3,5.3c0.1,0.1,0.3,0.1,0.4,0
						l2.3-2.3c0.1-0.1,0.1-0.3,0-0.4l-5.3-5.3l-0.1-0.1l-2.7-1C11.5,495.9,11.4,495.8,11.4,495.8z M12.2,499.3l-1-2.7
						c0-0.1,0-0.1,0-0.1h0.1l2.7,1l5,5l-1.9,1.9L12.2,499.3z"/>
				</g>
			</g>
		</g>
	</g>
</g>
<g>
	<rect x="-223" y="-246" class="st3" width="512" height="512"/>
</g>
<rect x="-197" y="-237" class="st3" width="512" height="512"/>
<rect x="-219" y="-236" class="st3" width="512" height="512"/>
<g>
	<path class="st1" d="M5.5,8l0.9-3.5l0.8,0.2L6.4,8.2L5.5,8z M8,8l1.6-1.6L8,4.8L7.4,5.4l1,1l-1,1L8,8z M5.4,7.4l-1-1l1-1L4.8,4.8
		L3.2,6.4L4.8,8L5.4,7.4z"/>
	<path d="M27.8,7.9l-4-2H11.1C11,4.8,10.5,3.8,9.7,3C8.8,2.1,7.5,1.6,6.3,1.6C5,1.6,3.9,2.1,3,3c-0.9,0.9-1.4,2-1.4,3.3
		c0,1.2,0.5,2.4,1.3,3.3c0.3,0.3,0.4,0.6,0.4,1v1.7c0,0.8,0.3,1.6,0.9,2.1v10.4H2.5v1.3c0,1.2,1,2.2,2.2,2.2h20.7
		c1.2,0,2.2-1,2.2-2.2v-1.3h-1.7v-14l2-1c0.4-0.2,0.6-0.6,0.6-1C28.4,8.5,28.1,8.1,27.8,7.9z M14.6,23.2H6.8v-7.8
		c1.5-0.2,2.6-1.5,2.6-3V12h13.8v11.2h-0.9L14.6,23.2z M4.3,12.8h4.2c-0.2,1-1.1,1.7-2.1,1.7S4.5,13.8,4.3,12.8z M4.2,11.1h4.3V12
		H4.2L4.2,11.1z M10,9.4h8V8.5h-7.4C10.9,8,11,7.4,11.1,6.8h12.1v1.7h-2.6v0.9h2.6v1.7H9.4v-0.5c0-0.4,0.1-0.7,0.4-1
		C9.9,9.6,10,9.5,10,9.4L10,9.4z M24.1,7.1l1.7,0.9V10l-1.7,0.9V7.1z M2.5,6.3c0-2.1,1.7-3.8,3.8-3.8c0,0,0.1,0,0.1,0
		c1,0,2,0.4,2.7,1.1c0.8,0.7,1.2,1.7,1.2,2.8c0,1-0.4,2-1.1,2.7c-0.3,0.3-0.5,0.8-0.6,1.2H4.2C4.1,9.8,3.9,9.4,3.5,9
		C2.8,8.3,2.5,7.3,2.5,6.3z M26.7,26.2c0,0.7-0.6,1.3-1.3,1.3h-0.4v-0.9h-0.9v0.9h-0.9v-0.9h-0.9v0.9h-0.9v-0.9h-0.9v0.9h-16
		c-0.7,0-1.3-0.6-1.3-1.3v-0.4h23.3V26.2z M24.9,24.9H5.1v-9.8c0.3,0.1,0.6,0.2,0.9,0.3v8.7h18.1V11.8l0.9-0.4V24.9z M27.4,9.2
		l-0.7,0.4V8.4l0.7,0.4c0.1,0,0.1,0.1,0.1,0.2C27.5,9.1,27.5,9.1,27.4,9.2z"/>
	<rect x="18.9" y="8.5" width="0.9" height="0.9"/>
	<rect x="18" y="4.2" class="st1" width="0.9" height="0.9"/>
	<rect x="19.7" y="4.2" class="st1" width="0.9" height="0.9"/>
	<rect x="21.5" y="4.2" class="st1" width="0.9" height="0.9"/>
	<rect x="23.2" y="4.2" class="st1" width="0.9" height="0.9"/>
	<rect x="24.9" y="4.2" class="st1" width="0.9" height="0.9"/>
	<rect x="15.9" y="21.5" width="6" height="0.9"/>
	<rect x="15.9" y="19.7" width="4.3" height="0.9"/>
	<rect x="15.9" y="18" width="5.2" height="0.9"/>
	<rect x="7.7" y="16.3" width="6" height="0.9"/>
	<rect x="9.4" y="14.6" width="0.9" height="0.9"/>
	<rect x="11.1" y="14.6" width="3.5" height="0.9"/>
	<rect x="10.3" y="12.8" width="3.5" height="0.9"/>
</g>
<g>
	<defs>
		<path id="SVGID_5_" d="M25.8,10.9l-0.9,0.4L23.7,12l-0.5,0l-5.1,0.4L9.4,12c0,0,0-0.7,0-0.9l0.4-0.9L10,9.4c0,0,0.4-0.5,0.6-0.9
			L11.1,8l0-1.2c0,0,0-0.4,0-0.9c0,0,1.3-1.8,1.3-1.8c0,0,3.8,1.1,3.8,1.1l2.4,0.3l3.9-0.1l3.1,0.5L28,7.1l1.7,1.7l-1.2,2.4
			L25.8,10.9z"/>
	</defs>
	<clipPath id="SVGID_6_">
		<use xlink:href="#SVGID_5_"  style="overflow:visible;"/>
	</clipPath>
	<g class="st4">
		<path d="M5.5,8l0.9-3.5l0.8,0.2L6.4,8.2L5.5,8z M8,8l1.6-1.6L8,4.8L7.4,5.4l1,1l-1,1L8,8z M5.4,7.4l-1-1l1-1L4.8,4.8L3.2,6.4
			L4.8,8L5.4,7.4z"/>
		<path class="st1" d="M27.8,7.9l-4-2H11.1C11,4.8,10.5,3.8,9.7,3C8.8,2.1,7.5,1.6,6.3,1.6C5,1.6,3.9,2.1,3,3
			c-0.9,0.9-1.4,2-1.4,3.3c0,1.2,0.5,2.4,1.3,3.3c0.3,0.3,0.4,0.6,0.4,1v1.7c0,0.8,0.3,1.6,0.9,2.1v10.4H2.5v1.3
			c0,1.2,1,2.2,2.2,2.2h20.7c1.2,0,2.2-1,2.2-2.2v-1.3h-1.7v-14l2-1c0.4-0.2,0.6-0.6,0.6-1C28.4,8.5,28.1,8.1,27.8,7.9z M16.3,23.2
			h-0.9v-4.3h0.9V23.2z M18,23.2h-0.9v-6H18V23.2z M19.7,23.2h-0.9v-7.8h0.9V23.2z M21.5,23.2h-0.9v-9.5h0.9V23.2z M19.7,12.8v1.7
			H18v1.7h-1.7V18h-1.7v5.2H6.8v-7.8c1.5-0.2,2.6-1.5,2.6-3V12h13.8v11.2h-0.9V12.8L19.7,12.8L19.7,12.8z M4.3,12.8h4.2
			c-0.2,1-1.1,1.7-2.1,1.7S4.5,13.8,4.3,12.8z M4.2,11.1h4.3V12H4.2L4.2,11.1z M10,9.4h8V8.5h-7.4C10.9,8,11,7.4,11.1,6.8h12.1v1.7
			h-2.6v0.9h2.6v1.7H9.4v-0.5c0-0.4,0.1-0.7,0.4-1C9.9,9.6,10,9.5,10,9.4L10,9.4z M24.1,7.1l1.7,0.9V10l-1.7,0.9V7.1z M2.5,6.3
			c0-2.1,1.7-3.8,3.8-3.8c0,0,0.1,0,0.1,0c1,0,2,0.4,2.7,1.1c0.8,0.7,1.2,1.7,1.2,2.8c0,1-0.4,2-1.1,2.7c-0.3,0.3-0.5,0.8-0.6,1.2
			H4.2C4.1,9.8,3.9,9.4,3.5,9C2.8,8.3,2.5,7.3,2.5,6.3z M26.7,26.2c0,0.7-0.6,1.3-1.3,1.3h-0.4v-0.9h-0.9v0.9h-0.9v-0.9h-0.9v0.9
			h-0.9v-0.9h-0.9v0.9h-16c-0.7,0-1.3-0.6-1.3-1.3v-0.4h23.3V26.2z M24.9,24.9H5.1v-9.8c0.3,0.1,0.6,0.2,0.9,0.3v8.7h18.1V11.8
			l0.9-0.4V24.9z M27.4,9.2l-0.7,0.4V8.4l0.7,0.4c0.1,0,0.1,0.1,0.1,0.2C27.5,9.1,27.5,9.1,27.4,9.2z"/>
		<path class="st1" d="M18.9,8.5h0.9v0.9h-0.9V8.5z M18,4.2h0.9v0.9H18V4.2z M19.7,4.2h0.9v0.9h-0.9V4.2z M21.5,4.2h0.9v0.9h-0.9
			V4.2z M23.2,4.2h0.9v0.9h-0.9V4.2z M24.9,4.2h0.9v0.9h-0.9V4.2z M7.7,21.5h6v0.9h-6V21.5z M7.7,19.7H12v0.9H7.7V19.7z M7.7,18h5.2
			v0.9H7.7V18z M7.7,16.3h6v0.9h-6V16.3z M9.4,14.6h0.9v0.9H9.4V14.6z M11.1,14.6h3.5v0.9h-3.5V14.6z M10.3,12.8h3.5v0.9h-3.5V12.8z
			"/>
	</g>
</g>
<rect x="16.2" y="13" class="st5" width="5.4" height="3.8"/>
<rect x="7.7" y="18.4" class="st5" width="6.4" height="3.8"/>
</svg>
