<?xml version="1.0" encoding="utf-8"?>
<!-- Generator: Adobe Illustrator 23.0.1, SVG Export Plug-In . SVG Version: 6.00 Build 0)  -->
<svg version="1.1" id="Layer_1" xmlns="http://www.w3.org/2000/svg" xmlns:xlink="http://www.w3.org/1999/xlink" x="0px" y="0px"
	 viewBox="0 0 30 30" style="enable-background:new 0 0 30 30;" xml:space="preserve">
<style type="text/css">
	.st0{fill:#0284C7;}
	.st1{clip-path:url(#SVGID_2_);}
	.st2{clip-path:url(#SVGID_4_);}
	.st3{clip-path:url(#SVGID_6_);}
	.st4{clip-path:url(#SVGID_8_);}
	.st5{fill:none;}
	.st6{stroke:#000000;stroke-width:0.25;stroke-miterlimit:10;}
	.st7{clip-path:url(#SVGID_10_);}
	.st8{fill:#0284C7;stroke:#0284C7;stroke-width:0.25;stroke-miterlimit:10;}
</style>
<g>
	<g>
		<path class="st6" d="M24.5,21.1c-0.4,0-0.8,0-1.3,0c-0.5,0-0.9-0.4-0.9-0.8c0-0.6,0-1.3,0-1.9c0-0.4,0.4-0.8,0.9-0.8
			c0.6,0,1.1,0,1.7,0c0.1,0,0.2,0,0.2-0.2c0-1.5,0-3,0-4.5l0-1.5c0-0.1,0-0.2-0.2-0.2c-0.8,0-1.5,0-2.3,0c-0.4,0-0.8,0-1.2,0
			c-0.1,0-0.2,0-0.2,0.1c-0.6,0.7-1.4,1.3-2.4,1.5c-0.7,0.2-1.5,0.2-2.2,0c-1-0.2-1.9-0.8-2.6-1.6c0,0-0.1-0.1-0.2-0.1
			c-3.1,0-6.3,0-9.4,0c-0.3,0-0.5,0-0.8,0c0,0-0.1,0-0.2,0c0,0.1,0,0.1,0,0.2c0,3.6,0,7.2,0,10.7c0,0.8,0.4,1.4,1.1,1.8
			c0.3,0.2,0.6,0.2,0.9,0.2c3.6,0,7.3,0,10.9,0c0.3,0,0.7,0,1,0c0.1,0,0.1,0,0.1-0.1c0.1-0.3,0.1-0.6,0-0.9
			c-0.1-0.3-0.1-0.5-0.1-0.8c0-0.1,0-0.1-0.1-0.2c-0.2-0.1-0.5-0.1-0.7-0.2c-0.5,0-1-0.1-1.5-0.1c-0.6-0.1-1.1-0.1-1.7-0.2
			c-0.4,0-0.7-0.1-1.1-0.1c-0.9-0.1-1.8-0.2-2.7-0.2c-0.4,0-0.8-0.1-1.2-0.1c-0.2,0-0.4-0.2-0.3-0.5c0.2-0.4,0.5-0.9,0.7-1.3
			c0.3-0.5,0.6-1.1,0.9-1.6c0,0,0-0.1,0-0.1c-0.2-0.3-0.4-0.7-0.3-1.1c0.1-0.6,0.6-1.4,1.4-1.3c0.1,0,0.2,0,0.3,0.1
			c0.1,0,0.1,0,0.2-0.1c0.3-0.4,0.5-0.9,0.8-1.3c0.3-0.5,0.6-1,0.9-1.5c0.1-0.2,0.3-0.3,0.5,0c0.9,1.1,1.7,2.2,2.6,3.3
			c0.8,1.1,1.7,2.1,2.5,3.2c0.1,0.1,0.3,0.2,0.4,0.3c0.7,0.4,1.3,0.9,2,1.3c0.4,0.3,0.5,0.8,0.3,1.2c-0.2,0.3-0.3,0.6-0.5,0.9
			c-0.2,0.4-0.7,0.6-1.1,0.4c-0.1,0-0.2,0-0.2,0.1c0,0.2-0.1,0.5-0.1,0.7c0,0,0,0.1,0,0.2c0.6,0,1.1,0,1.6,0l0.8,0
			c0.5,0,1.1,0,1.6,0c0.5,0,1-0.2,1.3-0.6c0.3-0.4,0.4-0.8,0.5-1.3c0-0.3,0-0.6,0-1c0-0.2,0-0.2-0.2-0.3L24.5,21.1z M12.6,8
			c0.1,0,0.3,0,0.4,0C13,7.9,13,7.8,13,7.7c0.2-1.4,0.9-2.5,2.1-3.3c0.9-0.6,2-0.8,3.1-0.7c1.2,0.2,2.3,0.7,3.1,1.7
			C21.7,5.8,22,6.4,22.2,7c0.1,0.3,0.1,0.6,0.2,0.9c0,0.1,0,0.1,0.1,0.1c0.4,0,0.7,0,1.1,0c0.9,0.1,1.5,0.6,1.9,1.4
			c0.2,0.4,0.2,0.8,0.2,1.2c0,0.3,0,0.6,0,0.9l0,1.1c0,1.6,0,3.2,0,4.8c0.4,0,0.8,0,1.2,0c0.1,0,0.2,0,0.3,0
			c0.4,0.1,0.7,0.4,0.7,0.9c0,0.6,0,1.1,0,1.7c0,0.5-0.4,0.9-0.9,0.9c-0.4,0-0.7,0-1.1,0c-0.1,0-0.1,0-0.1,0.2c0,0.3,0,0.7,0,1
			c0,0.9-0.3,1.6-1.1,2.1c-0.4,0.3-0.8,0.4-1.3,0.4c-0.7,0-1.3,0-2,0l-1,0c-0.3,0-0.7,0-1,0c-0.1,0-0.1,0-0.2,0.1
			c-0.1,0.3-0.2,0.7-0.4,1c-0.1,0.2-0.3,0.4-0.6,0.5c-0.3,0.1-0.8-0.1-0.9-0.4c-0.1-0.3-0.1-0.5,0-0.8c0-0.1,0-0.3,0.1-0.4
			c-0.1,0-0.1,0-0.2,0c-3.9,0-7.8,0-11.7,0c-1,0-1.7-0.4-2.2-1.2c-0.2-0.4-0.3-0.8-0.3-1.3c0-2.1,0-4.3,0-6.4c0-1.7,0-3.5,0-5.2
			C2.9,9.7,3.3,9,4,8.5C4.4,8.2,4.9,8,5.4,8c2,0,4,0,5.9,0L12.6,8z M10.3,8.6c-1.6,0-3.2,0-4.9,0c-0.4,0-0.7,0.1-1,0.3
			c-0.6,0.4-1,1.2-1,1.9c3.4,0,6.7,0,10.1,0c-0.1-0.1-0.1-0.2-0.2-0.4C13.2,9.9,13,9.3,13,8.7c0-0.1-0.1-0.2-0.2-0.2L10.3,8.6z
			 M17.7,4.2c-2.3,0-4.2,1.9-4.2,4.2c0,2.3,1.9,4.2,4.2,4.2c2.3,0,4.2-1.9,4.2-4.2C21.8,6,19.9,4.1,17.7,4.2z M15.9,21.5
			c0.3,0,0.6,0,0.9,0.1c0.1,0,0.2,0,0.2-0.1c0.3-0.7,0.7-1.3,1-2c0-0.1,0-0.1,0-0.2c-0.3-0.3-0.5-0.7-0.8-1c-1.2-1.5-2.4-3-3.6-4.5
			c-0.1-0.2-0.3-0.3-0.4-0.5c-1.5,2.6-3,5.1-4.5,7.7c0,0,0.1,0,0.1,0c0.8,0.1,1.6,0.1,2.5,0.2c0.5,0,1.1,0.1,1.6,0.1
			c0.6,0.1,1.2,0.1,1.8,0.2L15.9,21.5z M25,20.6c0.6,0,1.2,0,1.8,0c0.3,0,0.4-0.1,0.4-0.4c0-0.5,0-1.1,0-1.6c0-0.3-0.1-0.4-0.4-0.4
			c-1.2,0-2.4,0-3.6,0c-0.3,0-0.4,0.2-0.4,0.4c0,0.5,0,1.1,0,1.6c0,0.3,0.1,0.4,0.4,0.4C23.9,20.6,24.5,20.6,25,20.6z M17.4,21.7
			c0.1,0,0.1,0,0.1,0.1c0.2,0.1,0.3,0.1,0.5,0.2c0.6,0.2,1.1,0.5,1.7,0.7c0.2,0.1,0.4,0,0.5-0.2c0.2-0.3,0.3-0.6,0.5-0.9
			c0.1-0.2,0.1-0.4-0.1-0.5c-0.1-0.1-0.3-0.2-0.4-0.2c-0.6-0.4-1.2-0.7-1.8-1.1C18.1,20.4,17.8,21.1,17.4,21.7z M21.7,10.7
			C21.8,10.8,21.8,10.8,21.7,10.7c1.1,0,2.2,0,3.3,0c0.1,0,0.1,0,0.1-0.1c0-0.4-0.1-0.8-0.3-1.1c-0.3-0.5-0.8-0.9-1.4-0.9
			c-0.3,0-0.6,0-0.8,0c-0.2,0-0.2,0-0.2,0.2c0,0.5-0.2,1-0.4,1.5C21.9,10.4,21.8,10.6,21.7,10.7z M17.9,22.6
			C17.9,22.6,17.9,22.6,17.9,22.6c0,0.2,0,0.4,0,0.6c0.1,0.2,0.1,0.4,0.1,0.6c-0.1,0.3-0.1,0.6-0.2,0.8c-0.1,0.3-0.2,0.6-0.1,1
			c0,0.1,0.1,0.2,0.2,0.2c0.1,0,0.2,0,0.2-0.1c0.2-0.2,0.3-0.5,0.4-0.8c0.1-0.4,0.2-0.7,0.3-1.1c0.1-0.3,0.1-0.5,0.2-0.8
			C18.7,22.8,18.3,22.7,17.9,22.6z M10.9,16.1c-0.2-0.1-0.5,0-0.8,0.3c-0.3,0.4-0.3,0.8,0,1.1C10.3,17,10.6,16.6,10.9,16.1z"/>
		<path d="M1.9,22.6c0,0.4,0.1,0.8,0.2,1.3c0.1,0.2,0.2,0.5,0.4,0.6c0.1,0.1,0.2,0.3,0,0.4c-0.1,0.1-0.3,0.1-0.4,0
			c-0.2-0.2-0.4-0.5-0.5-0.8c-0.2-0.6-0.2-1.2-0.2-1.8c0-0.1,0-0.1,0-0.2c0-0.2,0.1-0.3,0.3-0.2c0.1,0,0.2,0.1,0.2,0.3
			C1.9,22.3,1.9,22.4,1.9,22.6z"/>
		<path d="M27.1,9.7c0,0.2,0,0.3,0,0.5c0,0.1-0.1,0.2-0.2,0.2c-0.2,0-0.3-0.1-0.3-0.2c0-0.1,0-0.1,0-0.2c0-0.6,0-1.1-0.2-1.7
			c-0.1-0.2-0.2-0.4-0.3-0.5c-0.1-0.1-0.2-0.3-0.1-0.4c0.1-0.1,0.3-0.1,0.4,0c0.2,0.2,0.4,0.4,0.5,0.7C27,8.6,27.1,9.1,27.1,9.7z"/>
		<path class="st6" d="M6.5,14.1c0.1,0,0.2,0.1,0.3,0.1c0.7,0.4,1.3,0.7,2,1.1c0.1,0,0.2,0.1,0.2,0.2c0,0.1,0,0.2-0.1,0.3
			c-0.1,0.1-0.2,0.1-0.3,0c-0.3-0.2-0.6-0.3-0.9-0.5c-0.4-0.2-0.9-0.5-1.3-0.7c-0.1-0.1-0.2-0.1-0.2-0.2C6.1,14.3,6.3,14.1,6.5,14.1
			z"/>
		<path class="st0" d="M5.4,9.8c0-0.2,0-0.5,0-0.7c0-0.2,0.1-0.3,0.3-0.3C5.9,8.8,6,9,6,9.2c0,0.3,0,0.6,0,0.9
			c0,0.2-0.1,0.3-0.3,0.3c-0.3,0-0.6,0-0.9,0c-0.2,0-0.3-0.1-0.3-0.3c0-0.2,0.1-0.3,0.3-0.3C5,9.8,5.2,9.8,5.4,9.8z"/>
		<path class="st0" d="M7.4,9.8c0-0.2,0-0.5,0-0.7c0-0.1,0.1-0.2,0.2-0.3c0.1,0,0.2,0,0.3,0.1C7.9,9,8,9.1,8,9.1c0,0.3,0,0.7,0,1
			c0,0.2-0.1,0.3-0.3,0.3c-0.3,0-0.7,0-1,0c-0.2,0-0.3-0.1-0.3-0.3c0-0.1,0.1-0.3,0.3-0.3C7,9.8,7.2,9.8,7.4,9.8z"/>
		<path class="st0" d="M9.5,9.8c0-0.2,0-0.5,0-0.7c0-0.1,0.1-0.2,0.2-0.3c0.1,0,0.2,0,0.3,0.1C10,9,10,9.1,10,9.1c0,0.3,0,0.7,0,1
			c0,0.2-0.1,0.3-0.3,0.3c-0.3,0-0.7,0-1,0c-0.2,0-0.3-0.1-0.3-0.3c0-0.1,0.1-0.3,0.3-0.3C9,9.8,9.2,9.8,9.5,9.8z"/>
		<path class="st6" d="M6.7,17.2c0,0-0.1,0-0.1,0c-0.2,0-0.3-0.1-0.3-0.2c0-0.1,0.1-0.3,0.2-0.3c0.1,0,0.3,0,0.4,0
			c0.4,0,0.9-0.1,1.3-0.1c0.2,0,0.3,0.1,0.3,0.3c0,0.2-0.1,0.3-0.3,0.3c-0.3,0-0.6,0-0.9,0.1C7.2,17.1,7,17.1,6.7,17.2z"/>
		<path class="st6" d="M9.1,13c0.1,0,0.2,0.1,0.2,0.2c0.1,0.3,0.3,0.7,0.4,1c0,0.1,0.1,0.2,0.1,0.3c0.1,0.2,0,0.3-0.2,0.4
			c-0.1,0-0.3,0-0.3-0.2c-0.2-0.4-0.3-0.8-0.5-1.3C8.7,13.2,8.9,13,9.1,13z"/>
		<path class="st6" d="M27.5,22.2c-0.1,0-0.2,0-0.2,0c-0.1-0.1-0.1-0.2-0.1-0.3c0-0.1,0.1-0.2,0.3-0.2c0.2,0,0.3-0.1,0.5-0.1
			c0.1-0.1,0.2-0.2,0.3-0.3c0.1-0.1,0.2-0.2,0.4-0.1c0.1,0.1,0.2,0.2,0.1,0.4c-0.2,0.3-0.4,0.5-0.7,0.6
			C27.7,22.1,27.6,22.1,27.5,22.2z"/>
		<path d="M3.6,25.9c-0.3,0-0.6-0.2-0.8-0.4c-0.1-0.1-0.1-0.3,0-0.4c0.1-0.1,0.2-0.1,0.4,0c0.2,0.2,0.4,0.3,0.6,0.3
			c0.1,0,0.2,0.2,0.2,0.3C4,25.8,3.8,25.9,3.6,25.9z"/>
		<path d="M24.5,6.6c0-0.1,0.1-0.2,0.2-0.3c0.4,0,0.7,0.1,1,0.4c0.1,0.1,0.1,0.3,0,0.4c-0.1,0.1-0.3,0.1-0.4,0
			C25.2,7,25,6.9,24.7,6.9C24.6,6.9,24.5,6.7,24.5,6.6z"/>
		<path class="st0" d="M16.2,9.1c0.3,0,0.5,0,0.8,0c0,0.1,0,0.2,0.1,0.3c0.1,0.2,0.2,0.3,0.3,0.3c0.2,0.1,0.5,0.1,0.7,0
			c0.2-0.1,0.3-0.2,0.3-0.3c0-0.2,0-0.3-0.2-0.4c-0.3-0.1-0.5-0.2-0.8-0.3c-0.3-0.1-0.6-0.3-0.8-0.5c-0.4-0.5-0.2-1.2,0.3-1.5
			c0.2-0.1,0.3-0.1,0.5-0.2c0.1,0,0.1-0.1,0.1-0.2c0-0.1,0-0.3,0-0.4c0-0.2,0.1-0.3,0.3-0.3c0.2,0,0.3,0.1,0.3,0.3
			c0,0.1,0,0.3,0,0.4c0,0.1,0,0.1,0.1,0.1c0.4,0.1,0.8,0.3,0.9,0.7c0,0,0,0,0,0c0.1,0.3,0.1,0.4-0.3,0.4c-0.2,0-0.3,0-0.5,0
			c-0.1-0.5-0.6-0.7-1.1-0.5c-0.3,0.2-0.3,0.5,0,0.7C17.5,7.9,17.8,8,18,8.1c0.3,0.1,0.7,0.3,0.9,0.6c0.3,0.5,0.3,1.3-0.5,1.6
			c-0.1,0-0.2,0.1-0.4,0.1c0,0.1,0,0.3,0,0.4c0,0.1-0.1,0.2-0.2,0.3c-0.1,0-0.2,0-0.3-0.1c-0.1-0.1-0.1-0.2-0.1-0.2
			c0-0.1,0-0.3,0-0.4c-0.1-0.1-0.2-0.1-0.4-0.1c-0.4-0.1-0.7-0.4-0.9-0.8C16.2,9.3,16.2,9.2,16.2,9.1z"/>
		<path class="st6" d="M14.3,16.2c0,0,0.1,0,0.2,0.1c0.6,0.7,1.3,1.4,1.9,2c0.1,0.1,0.1,0.3,0,0.4c-0.1,0.1-0.3,0.1-0.4,0
			c-0.6-0.7-1.3-1.3-1.9-2c-0.1-0.1-0.1-0.2-0.1-0.3C14,16.3,14.1,16.2,14.3,16.2z"/>
	</g>
	<g>
		<path class="st6" d="M22.9,16.8h-3.2c-0.4,0-0.8-0.3-0.8-0.8v-1.5c0-0.4,0.3-0.8,0.8-0.8h3.2c0.4,0,0.8,0.3,0.8,0.8v1.5
			C23.7,16.5,23.3,16.8,22.9,16.8z M19.7,14.3c-0.1,0-0.3,0.1-0.3,0.3v1.5c0,0.1,0.1,0.3,0.3,0.3h3.2c0.1,0,0.3-0.1,0.3-0.3v-1.5
			c0-0.1-0.1-0.3-0.3-0.3H19.7z"/>
	</g>
</g>
<g>
	<defs>
		<path id="SVGID_9_" d="M17.4,23.9l-0.2,1l-0.2,0.9l0.3,0.6c0,0,1.2,0.3,1.2,0.3c0,0,0.7-1,0.8-1c0,0,0-0.9,0-0.9l0.2-0.8l0.3-0.3
			c0,0,1.2-0.4,1.2-0.4c0.1,0,1-1.7,1-1.7l-0.3-0.9l-0.4-0.4L19.7,19l-1.8-2.4l-2.9-3.4l-1.3-1.1l-1.5-0.3l-3.4,0.6L7.1,13l-1.8,0.8
			L5.5,16l0.1,1.3l0.7,1.5l0.8,0.6l0,1.9l2.7,1.5l5.9,0.2L17.4,23.9z"/>
	</defs>
	<clipPath id="SVGID_2_">
		<use xlink:href="#SVGID_9_"  style="overflow:visible;"/>
	</clipPath>
	<g class="st1">
		<g>
			<path class="st8" d="M24.5,21.1c-0.4,0-0.8,0-1.3,0c-0.5,0-0.9-0.4-0.9-0.8c0-0.6,0-1.3,0-1.9c0-0.4,0.4-0.8,0.9-0.8
				c0.6,0,1.1,0,1.7,0c0.1,0,0.2,0,0.2-0.2c0-1.5,0-3,0-4.5l0-1.5c0-0.1,0-0.2-0.2-0.2c-0.8,0-1.5,0-2.3,0c-0.4,0-0.8,0-1.2,0
				c-0.1,0-0.2,0-0.2,0.1c-0.6,0.7-1.4,1.3-2.4,1.5c-0.7,0.2-1.5,0.2-2.2,0c-1-0.2-1.9-0.8-2.6-1.6c0,0-0.1-0.1-0.2-0.1
				c-3.1,0-6.3,0-9.4,0c-0.3,0-0.5,0-0.8,0c0,0-0.1,0-0.2,0c0,0.1,0,0.1,0,0.2c0,3.6,0,7.2,0,10.7c0,0.8,0.4,1.4,1.1,1.8
				c0.3,0.2,0.6,0.2,0.9,0.2c3.6,0,7.3,0,10.9,0c0.3,0,0.7,0,1,0c0.1,0,0.1,0,0.1-0.1c0.1-0.3,0.1-0.6,0-0.9
				c-0.1-0.3-0.1-0.5-0.1-0.8c0-0.1,0-0.1-0.1-0.2c-0.2-0.1-0.5-0.1-0.7-0.2c-0.5,0-1-0.1-1.5-0.1c-0.6-0.1-1.1-0.1-1.7-0.2
				c-0.4,0-0.7-0.1-1.1-0.1c-0.9-0.1-1.8-0.2-2.7-0.2c-0.4,0-0.8-0.1-1.2-0.1c-0.2,0-0.4-0.2-0.3-0.5c0.2-0.4,0.5-0.9,0.7-1.3
				c0.3-0.5,0.6-1.1,0.9-1.6c0,0,0-0.1,0-0.1c-0.2-0.3-0.4-0.7-0.3-1.1c0.1-0.6,0.6-1.4,1.4-1.3c0.1,0,0.2,0,0.3,0.1
				c0.1,0,0.1,0,0.2-0.1c0.3-0.4,0.5-0.9,0.8-1.3c0.3-0.5,0.6-1,0.9-1.5c0.1-0.2,0.3-0.3,0.5,0c0.9,1.1,1.7,2.2,2.6,3.3
				c0.8,1.1,1.7,2.1,2.5,3.2c0.1,0.1,0.3,0.2,0.4,0.3c0.7,0.4,1.3,0.9,2,1.3c0.4,0.3,0.5,0.8,0.3,1.2c-0.2,0.3-0.3,0.6-0.5,0.9
				c-0.2,0.4-0.7,0.6-1.1,0.4c-0.1,0-0.2,0-0.2,0.1c0,0.2-0.1,0.5-0.1,0.7c0,0,0,0.1,0,0.2c0.6,0,1.1,0,1.6,0l0.8,0
				c0.5,0,1.1,0,1.6,0c0.5,0,1-0.2,1.3-0.6c0.3-0.4,0.4-0.8,0.5-1.3c0-0.3,0-0.6,0-1c0-0.2,0-0.2-0.2-0.3 M12.6,8c0.1,0,0.3,0,0.4,0
				C13,7.9,13,7.8,13,7.7c0.2-1.4,0.9-2.5,2.1-3.3c0.9-0.6,2-0.8,3.1-0.7c1.2,0.2,2.3,0.7,3.1,1.7C21.7,5.8,22,6.4,22.2,7
				c0.1,0.3,0.1,0.6,0.2,0.9c0,0.1,0,0.1,0.1,0.1c0.4,0,0.7,0,1.1,0c0.9,0.1,1.5,0.6,1.9,1.4c0.2,0.4,0.2,0.8,0.2,1.2
				c0,0.3,0,0.6,0,0.9l0,1.1c0,1.6,0,3.2,0,4.8c0.4,0,0.8,0,1.2,0c0.1,0,0.2,0,0.3,0c0.4,0.1,0.7,0.4,0.7,0.9c0,0.6,0,1.1,0,1.7
				c0,0.5-0.4,0.9-0.9,0.9c-0.4,0-0.7,0-1.1,0c-0.1,0-0.1,0-0.1,0.2c0,0.3,0,0.7,0,1c0,0.9-0.3,1.6-1.1,2.1
				c-0.4,0.3-0.8,0.4-1.3,0.4c-0.7,0-1.3,0-2,0l-1,0c-0.3,0-0.7,0-1,0c-0.1,0-0.1,0-0.2,0.1c-0.1,0.3-0.2,0.7-0.4,1
				c-0.1,0.2-0.3,0.4-0.6,0.5c-0.3,0.1-0.8-0.1-0.9-0.4c-0.1-0.3-0.1-0.5,0-0.8c0-0.1,0-0.3,0.1-0.4c-0.1,0-0.1,0-0.2,0
				c-3.9,0-7.8,0-11.7,0c-1,0-1.7-0.4-2.2-1.2c-0.2-0.4-0.3-0.8-0.3-1.3c0-2.1,0-4.3,0-6.4c0-1.7,0-3.5,0-5.2C2.9,9.7,3.3,9,4,8.5
				C4.4,8.2,4.9,8,5.4,8c2,0,4,0,5.9,0L12.6,8z M10.3,8.6c-1.6,0-3.2,0-4.9,0c-0.4,0-0.7,0.1-1,0.3c-0.6,0.4-1,1.2-1,1.9
				c3.4,0,6.7,0,10.1,0c-0.1-0.1-0.1-0.2-0.2-0.4C13.2,9.9,13,9.3,13,8.7c0-0.1-0.1-0.2-0.2-0.2L10.3,8.6z M17.7,4.2
				c-2.3,0-4.2,1.9-4.2,4.2c0,2.3,1.9,4.2,4.2,4.2c2.3,0,4.2-1.9,4.2-4.2C21.8,6,19.9,4.1,17.7,4.2z M15.9,21.5c0.3,0,0.6,0,0.9,0.1
				c0.1,0,0.2,0,0.2-0.1c0.3-0.7,0.7-1.3,1-2c0-0.1,0-0.1,0-0.2c-0.3-0.3-0.5-0.7-0.8-1c-1.2-1.5-2.4-3-3.6-4.5
				c-0.1-0.2-0.3-0.3-0.4-0.5c-1.5,2.6-3,5.1-4.5,7.7c0,0,0.1,0,0.1,0c0.8,0.1,1.6,0.1,2.5,0.2c0.5,0,1.1,0.1,1.6,0.1
				c0.6,0.1,1.2,0.1,1.8,0.2L15.9,21.5z M25,20.6c0.6,0,1.2,0,1.8,0c0.3,0,0.4-0.1,0.4-0.4c0-0.5,0-1.1,0-1.6c0-0.3-0.1-0.4-0.4-0.4
				c-1.2,0-2.4,0-3.6,0c-0.3,0-0.4,0.2-0.4,0.4c0,0.5,0,1.1,0,1.6c0,0.3,0.1,0.4,0.4,0.4C23.9,20.6,24.5,20.6,25,20.6z M17.4,21.7
				c0.1,0,0.1,0,0.1,0.1c0.2,0.1,0.3,0.1,0.5,0.2c0.6,0.2,1.1,0.5,1.7,0.7c0.2,0.1,0.4,0,0.5-0.2c0.2-0.3,0.3-0.6,0.5-0.9
				c0.1-0.2,0.1-0.4-0.1-0.5c-0.1-0.1-0.3-0.2-0.4-0.2c-0.6-0.4-1.2-0.7-1.8-1.1C18.1,20.4,17.8,21.1,17.4,21.7z M21.7,10.7
				C21.8,10.8,21.8,10.8,21.7,10.7c1.1,0,2.2,0,3.3,0c0.1,0,0.1,0,0.1-0.1c0-0.4-0.1-0.8-0.3-1.1c-0.3-0.5-0.8-0.9-1.4-0.9
				c-0.3,0-0.6,0-0.8,0c-0.2,0-0.2,0-0.2,0.2c0,0.5-0.2,1-0.4,1.5C21.9,10.4,21.8,10.6,21.7,10.7z M17.9,22.6
				C17.9,22.6,17.9,22.6,17.9,22.6c0,0.2,0,0.4,0,0.6c0.1,0.2,0.1,0.4,0.1,0.6c-0.1,0.3-0.1,0.6-0.2,0.8c-0.1,0.3-0.2,0.6-0.1,1
				c0,0.1,0.1,0.2,0.2,0.2c0.1,0,0.2,0,0.2-0.1c0.2-0.2,0.3-0.5,0.4-0.8c0.1-0.4,0.2-0.7,0.3-1.1c0.1-0.3,0.1-0.5,0.2-0.8
				C18.7,22.8,18.3,22.7,17.9,22.6z M10.9,16.1c-0.2-0.1-0.5,0-0.8,0.3c-0.3,0.4-0.3,0.8,0,1.1C10.3,17,10.6,16.6,10.9,16.1z"/>
			<path class="st0" d="M1.9,22.6c0,0.4,0.1,0.8,0.2,1.3c0.1,0.2,0.2,0.5,0.4,0.6c0.1,0.1,0.2,0.3,0,0.4c-0.1,0.1-0.3,0.1-0.4,0
				c-0.2-0.2-0.4-0.5-0.5-0.8c-0.2-0.6-0.2-1.2-0.2-1.8c0-0.1,0-0.1,0-0.2c0-0.2,0.1-0.3,0.3-0.2c0.1,0,0.2,0.1,0.2,0.3
				C1.9,22.3,1.9,22.4,1.9,22.6z"/>
			<path class="st0" d="M27.1,9.7c0,0.2,0,0.3,0,0.5c0,0.1-0.1,0.2-0.2,0.2c-0.2,0-0.3-0.1-0.3-0.2c0-0.1,0-0.1,0-0.2
				c0-0.6,0-1.1-0.2-1.7c-0.1-0.2-0.2-0.4-0.3-0.5c-0.1-0.1-0.2-0.3-0.1-0.4c0.1-0.1,0.3-0.1,0.4,0c0.2,0.2,0.4,0.4,0.5,0.7
				C27,8.6,27.1,9.1,27.1,9.7z"/>
			<path class="st8" d="M6.5,14.1c0.1,0,0.2,0.1,0.3,0.1c0.7,0.4,1.3,0.7,2,1.1c0.1,0,0.2,0.1,0.2,0.2c0,0.1,0,0.2-0.1,0.3
				c-0.1,0.1-0.2,0.1-0.3,0c-0.3-0.2-0.6-0.3-0.9-0.5c-0.4-0.2-0.9-0.5-1.3-0.7c-0.1-0.1-0.2-0.1-0.2-0.2
				C6.1,14.3,6.3,14.1,6.5,14.1z"/>
			<path class="st0" d="M5.4,9.8c0-0.2,0-0.5,0-0.7c0-0.2,0.1-0.3,0.3-0.3C5.9,8.8,6,9,6,9.2c0,0.3,0,0.6,0,0.9
				c0,0.2-0.1,0.3-0.3,0.3c-0.3,0-0.6,0-0.9,0c-0.2,0-0.3-0.1-0.3-0.3c0-0.2,0.1-0.3,0.3-0.3C5,9.8,5.2,9.8,5.4,9.8z"/>
			<path class="st0" d="M7.4,9.8c0-0.2,0-0.5,0-0.7c0-0.1,0.1-0.2,0.2-0.3c0.1,0,0.2,0,0.3,0.1C7.9,9,8,9.1,8,9.1c0,0.3,0,0.7,0,1
				c0,0.2-0.1,0.3-0.3,0.3c-0.3,0-0.7,0-1,0c-0.2,0-0.3-0.1-0.3-0.3c0-0.1,0.1-0.3,0.3-0.3C7,9.8,7.2,9.8,7.4,9.8z"/>
			<path class="st0" d="M9.5,9.8c0-0.2,0-0.5,0-0.7c0-0.1,0.1-0.2,0.2-0.3c0.1,0,0.2,0,0.3,0.1C10,9,10,9.1,10,9.1c0,0.3,0,0.7,0,1
				c0,0.2-0.1,0.3-0.3,0.3c-0.3,0-0.7,0-1,0c-0.2,0-0.3-0.1-0.3-0.3c0-0.1,0.1-0.3,0.3-0.3C9,9.8,9.2,9.8,9.5,9.8z"/>
			<path class="st8" d="M6.7,17.2c0,0-0.1,0-0.1,0c-0.2,0-0.3-0.1-0.3-0.2c0-0.1,0.1-0.3,0.2-0.3c0.1,0,0.3,0,0.4,0
				c0.4,0,0.9-0.1,1.3-0.1c0.2,0,0.3,0.1,0.3,0.3c0,0.2-0.1,0.3-0.3,0.3c-0.3,0-0.6,0-0.9,0.1C7.2,17.1,7,17.1,6.7,17.2z"/>
			<path class="st8" d="M9.1,13c0.1,0,0.2,0.1,0.2,0.2c0.1,0.3,0.3,0.7,0.4,1c0,0.1,0.1,0.2,0.1,0.3c0.1,0.2,0,0.3-0.2,0.4
				c-0.1,0-0.3,0-0.3-0.2c-0.2-0.4-0.3-0.8-0.5-1.3C8.7,13.2,8.9,13,9.1,13z"/>
			<path class="st0" d="M27.5,22.2c-0.1,0-0.2,0-0.2,0c-0.1-0.1-0.1-0.2-0.1-0.3c0-0.1,0.1-0.2,0.3-0.2c0.2,0,0.3-0.1,0.5-0.1
				c0.1-0.1,0.2-0.2,0.3-0.3c0.1-0.1,0.2-0.2,0.4-0.1c0.1,0.1,0.2,0.2,0.1,0.4c-0.2,0.3-0.4,0.5-0.7,0.6
				C27.7,22.1,27.6,22.1,27.5,22.2z"/>
			<path class="st0" d="M3.6,25.9c-0.3,0-0.6-0.2-0.8-0.4c-0.1-0.1-0.1-0.3,0-0.4c0.1-0.1,0.2-0.1,0.4,0c0.2,0.2,0.4,0.3,0.6,0.3
				c0.1,0,0.2,0.2,0.2,0.3C4,25.8,3.8,25.9,3.6,25.9z"/>
			<path class="st0" d="M24.5,6.6c0-0.1,0.1-0.2,0.2-0.3c0.4,0,0.7,0.1,1,0.4c0.1,0.1,0.1,0.3,0,0.4c-0.1,0.1-0.3,0.1-0.4,0
				C25.2,7,25,6.9,24.7,6.9C24.6,6.9,24.5,6.7,24.5,6.6z"/>
			<path class="st0" d="M16.2,9.1c0.3,0,0.5,0,0.8,0c0,0.1,0,0.2,0.1,0.3c0.1,0.2,0.2,0.3,0.3,0.3c0.2,0.1,0.5,0.1,0.7,0
				c0.2-0.1,0.3-0.2,0.3-0.3c0-0.2,0-0.3-0.2-0.4c-0.3-0.1-0.5-0.2-0.8-0.3c-0.3-0.1-0.6-0.3-0.8-0.5c-0.4-0.5-0.2-1.2,0.3-1.5
				c0.2-0.1,0.3-0.1,0.5-0.2c0.1,0,0.1-0.1,0.1-0.2c0-0.1,0-0.3,0-0.4c0-0.2,0.1-0.3,0.3-0.3c0.2,0,0.3,0.1,0.3,0.3
				c0,0.1,0,0.3,0,0.4c0,0.1,0,0.1,0.1,0.1c0.4,0.1,0.8,0.3,0.9,0.7c0,0,0,0,0,0c0.1,0.3,0.1,0.4-0.3,0.4c-0.2,0-0.3,0-0.5,0
				c-0.1-0.5-0.6-0.7-1.1-0.5c-0.3,0.2-0.3,0.5,0,0.7C17.5,7.9,17.8,8,18,8.1c0.3,0.1,0.7,0.3,0.9,0.6c0.3,0.5,0.3,1.3-0.5,1.6
				c-0.1,0-0.2,0.1-0.4,0.1c0,0.1,0,0.3,0,0.4c0,0.1-0.1,0.2-0.2,0.3c-0.1,0-0.2,0-0.3-0.1c-0.1-0.1-0.1-0.2-0.1-0.2
				c0-0.1,0-0.3,0-0.4c-0.1-0.1-0.2-0.1-0.4-0.1c-0.4-0.1-0.7-0.4-0.9-0.8C16.2,9.3,16.2,9.2,16.2,9.1z"/>
			<path class="st8" d="M14.3,16.2c0,0,0.1,0,0.2,0.1c0.6,0.7,1.3,1.4,1.9,2c0.1,0.1,0.1,0.3,0,0.4c-0.1,0.1-0.3,0.1-0.4,0
				c-0.6-0.7-1.3-1.3-1.9-2c-0.1-0.1-0.1-0.2-0.1-0.3C14,16.3,14.1,16.2,14.3,16.2z"/>
		</g>
		<g>
			<path class="st6" d="M22.9,16.8h-3.2c-0.4,0-0.8-0.3-0.8-0.8v-1.5c0-0.4,0.3-0.8,0.8-0.8h3.2c0.4,0,0.8,0.3,0.8,0.8v1.5
				C23.7,16.5,23.3,16.8,22.9,16.8z M19.7,14.3c-0.1,0-0.3,0.1-0.3,0.3v1.5c0,0.1,0.1,0.3,0.3,0.3h3.2c0.1,0,0.3-0.1,0.3-0.3v-1.5
				c0-0.1-0.1-0.3-0.3-0.3H19.7z"/>
		</g>
	</g>
</g>
</svg>
