<?xml version="1.0" encoding="utf-8"?>
<!-- Generator: Adobe Illustrator 23.0.1, SVG Export Plug-In . SVG Version: 6.00 Build 0)  -->
<svg version="1.1" id="Layer_1" xmlns="http://www.w3.org/2000/svg" xmlns:xlink="http://www.w3.org/1999/xlink" x="0px" y="0px"
	 viewBox="0 0 30 30" style="enable-background:new 0 0 30 30;" xml:space="preserve">
<style type="text/css">
	.st0{fill:#0284C7;}
	.st1{clip-path:url(#SVGID_2_);}
	.st2{clip-path:url(#SVGID_4_);}
	.st3{clip-path:url(#SVGID_6_);}
	.st4{clip-path:url(#SVGID_8_);}
</style>
<g>
	<path d="M26.1,3.5H3.9c-1,0-1.8,0.8-1.8,1.8V21c0,1,0.8,1.8,1.8,1.8h3.4c0.3,0,0.5-0.2,0.5-0.5s-0.2-0.5-0.5-0.5H3.9
		C3.4,21.9,3,21.5,3,21V8.1h6.3c0.5,0,1.1-0.2,1.4-0.6c0.2-0.2,0.5-0.3,0.8-0.3h13.6c0.6,0,0.6-0.9,0-0.9H11.5
		c-0.5,0-1.1,0.2-1.4,0.6C9.9,7,9.6,7.2,9.3,7.2H3V5.3c0-0.5,0.4-0.9,0.9-0.9h22.1c0.5,0,0.9,0.4,0.9,0.9V21c0,0.5-0.4,0.9-0.9,0.9
		h-3.3c-0.3,0-0.5,0.2-0.5,0.5s0.2,0.5,0.5,0.5h3.3c1,0,1.8-0.8,1.8-1.8V5.3C27.9,4.3,27.1,3.5,26.1,3.5z"/>
	<path class="st0" d="M7.9,5.8c0,0.6,0.9,0.6,0.9,0C8.8,5.2,7.9,5.2,7.9,5.8z M6,5.8c0,0.6,0.9,0.6,0.9,0C6.9,5.2,6,5.2,6,5.8z
		 M4.2,5.8c0,0.6,0.9,0.6,0.9,0C5.1,5.2,4.2,5.2,4.2,5.8z M14.3,12.7c0.5,0.1,1.1,0.2,1.5,0.5c0.2,0.1,0.5,0,0.6-0.2
		c0.1-0.2,0-0.5-0.2-0.6c-0.6-0.3-1.2-0.5-1.8-0.5c-1.9-0.2-3.7,0.4-5,1.7c-4.9,5.1,1.3,12.9,7.4,9.3l3.3,3.3c0.5,0.5,1.4,0.5,2,0
		c0.5-0.5,0.5-1.4,0-2l-3.3-3.3c1.3-2,1.2-4.7-0.3-6.7l1.8-1.8v0.8c0,0.6,0.9,0.6,0.9,0v-2c0-0.2-0.1-0.4-0.3-0.4
		c0.1-0.1-2.1,0-2.1,0c-0.3,0-0.5,0.2-0.5,0.5s0.2,0.5,0.5,0.5h0.8l-5.7,5.7l-1.3-1.3c-0.2-0.2-0.5-0.2-0.7,0c0,0,0,0,0,0L10.1,18
		c-0.4,0.4,0.2,1.1,0.7,0.7l1.5-1.5l1.3,1.3c0.2,0.2,0.6,0.1,0.7,0l2.7-2.7c0.5-0.5,0.9-1,0.9-0.8c1.2,1.7,1.1,4.1-0.1,5.8
		c-0.1,0.2,0,0.5,0.1,0.6c0.1,0.1,3.5,3.5,3.5,3.5c0.2,0.2,0.2,0.5,0,0.7c-0.2,0.2-0.5,0.1-0.6,0c-0.1-0.1-3.5-3.5-3.5-3.5
		c-0.2-0.2-0.5-0.1-0.6,0c-3,2.2-7.6,0.1-7.9-3.6C8.1,15.2,11.1,12.3,14.3,12.7L14.3,12.7z"/>
</g>
</svg>
