<?xml version="1.0" encoding="utf-8"?>
<svg width="33" height="32" viewBox="0 0 33 32" fill="none" xmlns="http://www.w3.org/2000/svg"
    class="h-6 md:h-8 text-sky-700 inline-block">
    <path
        d="M10.1025 4.3821C10.1025 3.74287 10.0746 3.206 10.1076 2.67271C10.2063 1.07428 11.2887 0.0277437 12.89 0.014143C15.1784 -0.00590004 17.4677 -0.00303705 19.7561 0.0127111C21.4584 0.0241642 22.5378 1.0707 22.623 2.76863C22.6481 3.27329 22.6266 3.78081 22.6266 4.38281C24.0754 4.38281 25.4147 4.42576 26.7497 4.37136C28.3281 4.30694 29.4283 4.90894 30.1091 6.36636C30.6646 7.55534 31.2515 8.74361 31.9631 9.84312C32.7519 11.0614 32.8135 12.3571 32.6904 13.7064C32.5894 14.8088 32.0254 15.6685 31.0483 16.1646C30.5214 16.4323 30.4076 16.758 30.4105 17.297C30.4312 20.9019 30.4248 24.506 30.4198 28.1109C30.4162 30.6242 29.0568 31.9957 26.5629 31.9971C19.754 32.0007 12.9451 32.0014 6.13617 31.9964C3.72885 31.995 2.35017 30.6342 2.34015 28.2269C2.32512 24.5647 2.32798 20.9033 2.34516 17.2412C2.34731 16.7365 2.24566 16.4301 1.74387 16.1717C0.612155 15.5876 0.110363 14.5862 0.0180216 13.3106C-0.0786146 11.9727 0.207715 10.8138 1.01445 9.70997C1.88918 8.51312 2.6365 7.21962 3.39671 5.94259C4.04882 4.84738 4.9887 4.36134 6.24211 4.37923C7.49337 4.39641 8.74463 4.3821 10.1025 4.3821ZM20.3016 30.622C22.4748 30.622 24.5557 30.6263 26.6359 30.6206C28.2637 30.6156 29.0418 29.8361 29.0447 28.1925C29.0511 24.5597 29.0475 20.9276 29.0447 17.2948C29.0447 17.0722 29.0117 16.8496 29.001 16.7136C28.3138 16.385 27.7039 16.0937 27.0926 15.8016C25.5987 18.3457 22.2715 19.0787 19.8227 16.2834C18.9315 17.375 17.8241 18.0543 16.3732 18.0651C14.8971 18.0758 13.789 17.3471 12.857 16.2533C11.857 17.5196 10.6308 18.1624 9.08393 18.0515C7.51198 17.9391 6.39959 17.0694 5.63008 15.7809C5.1469 16.0264 4.73745 16.3256 4.28075 16.443C3.78755 16.5697 3.66514 16.793 3.66729 17.2705C3.68518 20.9885 3.66514 24.7072 3.68375 28.4252C3.69091 29.7938 4.52628 30.6063 5.88921 30.617C7.7482 30.6328 9.60719 30.6213 11.4669 30.6213C11.7683 30.6213 12.0696 30.6213 12.4232 30.6213C12.4232 28.7273 12.4182 26.9577 12.4247 25.1882C12.434 22.6871 14.0711 20.9455 16.3903 20.9577C18.6595 20.9692 20.288 22.7143 20.3002 25.1603C20.3088 26.9334 20.3016 28.7058 20.3016 30.622ZM1.9758 10.8245C11.6695 10.8245 21.2035 10.8245 30.875 10.8245C30.0568 9.27475 29.3131 7.80517 28.4978 6.37567C28.3403 6.09936 27.9101 5.82878 27.5966 5.81804C25.9774 5.76221 24.3546 5.79227 22.6309 5.79227C22.6309 6.57395 22.6252 7.28333 22.6323 7.992C22.6388 8.62622 22.3517 8.94261 21.7017 8.94189C18.1276 8.93688 14.5535 8.93832 10.9794 8.93975C10.3724 8.93975 10.0925 8.6298 10.0947 8.03566C10.0961 7.49235 10.0732 6.94833 10.0975 6.40645C10.119 5.93472 9.95007 5.74002 9.4583 5.75075C8.31513 5.77581 7.16695 5.70566 6.02951 5.78726C5.59643 5.81876 5.02306 6.04925 4.79256 6.38211C3.82048 7.78369 2.95433 9.25829 1.9758 10.8245ZM11.4862 7.46372C14.8177 7.46372 18.0138 7.46372 21.2479 7.46372C21.2479 5.8209 21.2758 4.2783 21.2365 2.73785C21.215 1.89461 20.7032 1.40141 19.8764 1.39354C17.5328 1.37206 15.1885 1.37564 12.8441 1.39139C12.0345 1.39711 11.5249 1.86097 11.5005 2.65482C11.4519 4.25039 11.4862 5.8481 11.4862 7.46372ZM18.9158 30.5791C18.9158 28.5512 18.9666 26.6127 18.8986 24.6786C18.8521 23.3586 17.7733 22.3872 16.5006 22.3364C15.1512 22.2827 13.9329 23.1553 13.8585 24.4881C13.7461 26.4989 13.8291 28.5204 13.8291 30.5791C15.5335 30.5791 17.1749 30.5791 18.9158 30.5791ZM20.5679 12.2891C20.4526 13.8983 20.3803 15.4058 21.9444 16.3134C22.9838 16.9169 24.0439 16.8417 25.0038 16.1273C26.3281 15.1416 26.2021 13.7336 26.0855 12.2884C24.2308 12.2891 22.4405 12.2891 20.5679 12.2891ZM13.6888 12.2977C13.3187 14.1996 13.7053 15.5003 14.837 16.2404C15.7969 16.8682 17.0389 16.8482 17.9702 16.1782C19.356 15.181 19.2007 13.7572 19.0818 12.2977C17.2415 12.2977 15.4605 12.2977 13.6888 12.2977ZM12.1605 12.3134C10.265 12.3134 8.45472 12.3134 6.62865 12.3134C6.49766 13.8353 6.46616 15.2726 7.92572 16.171C8.91141 16.7773 9.9515 16.7615 10.92 16.1302C12.313 15.2211 12.2758 13.8102 12.1605 12.3134ZM5.15477 12.3242C3.89492 12.3242 2.66514 12.3242 1.41889 12.3242C1.32726 13.3886 1.29577 14.3607 2.30937 14.9613C2.98153 15.3593 3.68161 15.3507 4.33301 14.9262C5.29865 14.297 5.29221 13.3399 5.15477 12.3242ZM27.5686 12.2511C27.4391 13.3993 27.4355 14.3936 28.4978 14.987C29.2114 15.3857 29.9273 15.3263 30.5873 14.8453C31.3117 14.3177 31.5135 13.448 31.185 12.2511C30.2659 12.2511 29.3288 12.2511 28.3918 12.2511C28.1399 12.2511 27.8879 12.2511 27.5686 12.2511Z"
        fill="black"></path>
    <path
        d="M24.5407 26.8575C23.9687 26.8583 23.3975 26.8532 22.8256 26.8597C22.2522 26.8661 21.9916 26.5862 21.9974 26.0186C22.0074 25.0751 21.9716 24.1303 22.0138 23.1889C22.0747 21.8375 23.0861 20.967 24.5421 20.9541C26.074 20.9405 27.1234 21.7809 27.195 23.1481C27.2458 24.1174 27.2086 25.0916 27.2129 26.063C27.215 26.5913 26.9552 26.8561 26.4276 26.8568C25.7984 26.8575 25.1692 26.8568 24.5407 26.8575ZM25.832 25.4373C25.832 24.6635 25.8621 23.9785 25.8234 23.2977C25.7841 22.5934 25.3288 22.3342 24.6609 22.3242C23.9795 22.3142 23.4433 22.506 23.3918 23.2713C23.3445 23.9749 23.3818 24.6843 23.3818 25.4373C24.2193 25.4373 24.9752 25.4373 25.832 25.4373Z"
        fill="#0284C7"></path>
    <path
        d="M8.06681 26.854C7.49558 26.854 6.92507 26.8475 6.35384 26.8554C5.79049 26.864 5.50344 26.6099 5.50917 26.0337C5.51848 25.1203 5.47767 24.2047 5.53351 23.2942C5.61583 21.952 6.75542 20.9549 8.12336 20.957C9.48915 20.9599 10.6216 21.9613 10.7018 23.3078C10.7562 24.2183 10.7168 25.1339 10.7247 26.0473C10.7297 26.6307 10.4197 26.8633 9.86567 26.8554C9.26581 26.8475 8.66667 26.854 8.06681 26.854ZM9.33095 25.4481C9.33095 24.7094 9.38321 24.0258 9.31592 23.3536C9.25078 22.7008 8.80053 22.3464 8.14197 22.3379C7.44189 22.3286 6.97804 22.6922 6.9129 23.3887C6.84991 24.058 6.8993 24.7387 6.8993 25.4481C7.73109 25.4481 8.46767 25.4481 9.33095 25.4481Z"
        fill="#0284C7"></path>
    <path
        d="M18.7588 5.09859H13.9664C13.7882 5.09859 13.6436 4.95399 13.6436 4.77575V3.87166C13.6436 3.69342 13.7882 3.54883 13.9664 3.54883H18.7588C18.9371 3.54883 19.0817 3.69342 19.0817 3.87166V4.77575C19.0817 4.95399 18.9371 5.09859 18.7588 5.09859Z"
        fill="#0284C7"></path>
    <mask id="mask0_875_115" maskUnits="userSpaceOnUse" x="11" y="20" width="10" height="11">
        <path d="M20.9611 20.4617H11.5322V30.5698H20.9611V20.4617Z" fill="white"></path>
    </mask>
    <g mask="url(#mask0_875_115)">
        <path
            d="M10.1025 4.3821C10.1025 3.74287 10.0746 3.206 10.1076 2.67271C10.2063 1.07428 11.2887 0.0277437 12.89 0.014143C15.1784 -0.00590004 17.4677 -0.00303705 19.7561 0.0127111C21.4584 0.0241642 22.5378 1.0707 22.623 2.76863C22.6481 3.27329 22.6266 3.78081 22.6266 4.38281C24.0754 4.38281 25.4147 4.42576 26.7497 4.37136C28.3281 4.30694 29.4283 4.90894 30.1091 6.36636C30.6646 7.55534 31.2515 8.74361 31.9631 9.84312C32.7519 11.0614 32.8135 12.3571 32.6904 13.7064C32.5894 14.8088 32.0254 15.6685 31.0483 16.1646C30.5214 16.4323 30.4076 16.758 30.4105 17.297C30.4312 20.9019 30.4248 24.506 30.4198 28.1109C30.4162 30.6242 29.0568 31.9957 26.5629 31.9971C19.754 32.0007 12.9451 32.0014 6.13617 31.9964C3.72885 31.995 2.35017 30.6342 2.34015 28.2269C2.32512 24.5647 2.32798 20.9033 2.34516 17.2412C2.34731 16.7365 2.24566 16.4301 1.74387 16.1717C0.612155 15.5876 0.110363 14.5862 0.0180216 13.3106C-0.0786146 11.9727 0.207715 10.8138 1.01445 9.70997C1.88918 8.51312 2.6365 7.21962 3.39671 5.94259C4.04882 4.84738 4.9887 4.36134 6.24211 4.37923C7.49337 4.39641 8.74463 4.3821 10.1025 4.3821ZM20.3016 30.622C22.4748 30.622 24.5557 30.6263 26.6359 30.6206C28.2637 30.6156 29.0418 29.8361 29.0447 28.1925C29.0511 24.5597 29.0475 20.9276 29.0447 17.2948C29.0447 17.0722 29.0117 16.8496 29.001 16.7136C28.3138 16.385 27.7039 16.0937 27.0926 15.8016C25.5987 18.3457 22.2715 19.0787 19.8227 16.2834C18.9315 17.375 17.8241 18.0543 16.3732 18.0651C14.8971 18.0758 13.789 17.3471 12.857 16.2533C11.857 17.5196 10.6308 18.1624 9.08393 18.0515C7.51198 17.9391 6.39959 17.0694 5.63008 15.7809C5.1469 16.0264 4.73745 16.3256 4.28075 16.443C3.78755 16.5697 3.66514 16.793 3.66729 17.2705C3.68518 20.9885 3.66514 24.7072 3.68375 28.4252C3.69091 29.7938 4.52628 30.6063 5.88921 30.617C7.7482 30.6328 9.60719 30.6213 11.4669 30.6213C11.7683 30.6213 12.0696 30.6213 12.4232 30.6213C12.4232 28.7273 12.4182 26.9577 12.4247 25.1882C12.434 22.6871 14.0711 20.9455 16.3903 20.9577C18.6595 20.9692 20.288 22.7143 20.3002 25.1603C20.3088 26.9334 20.3016 28.7058 20.3016 30.622ZM1.9758 10.8245C11.6695 10.8245 21.2035 10.8245 30.875 10.8245C30.0568 9.27475 29.3131 7.80517 28.4978 6.37567C28.3403 6.09936 27.9101 5.82878 27.5966 5.81804C25.9774 5.76221 24.3546 5.79227 22.6309 5.79227C22.6309 6.57395 22.6252 7.28333 22.6323 7.992C22.6388 8.62622 22.3517 8.94261 21.7017 8.94189C18.1276 8.93688 14.5535 8.93832 10.9794 8.93975C10.3724 8.93975 10.0925 8.6298 10.0947 8.03566C10.0961 7.49235 10.0732 6.94833 10.0975 6.40645C10.119 5.93472 9.95007 5.74002 9.4583 5.75075C8.31513 5.77581 7.16695 5.70566 6.02951 5.78726C5.59643 5.81876 5.02306 6.04925 4.79256 6.38211C3.82048 7.78369 2.95433 9.25829 1.9758 10.8245ZM11.4862 7.46372C14.8177 7.46372 18.0138 7.46372 21.2479 7.46372C21.2479 5.8209 21.2758 4.2783 21.2365 2.73785C21.215 1.89461 20.7032 1.40141 19.8764 1.39354C17.5328 1.37206 15.1885 1.37564 12.8441 1.39139C12.0345 1.39711 11.5249 1.86097 11.5005 2.65482C11.4519 4.25039 11.4862 5.8481 11.4862 7.46372ZM18.9158 30.5791C18.9158 28.5512 18.9666 26.6127 18.8986 24.6786C18.8521 23.3586 17.7733 22.3872 16.5006 22.3364C15.1512 22.2827 13.9329 23.1553 13.8585 24.4881C13.7461 26.4989 13.8291 28.5204 13.8291 30.5791C15.5335 30.5791 17.1749 30.5791 18.9158 30.5791ZM20.5679 12.2891C20.4526 13.8983 20.3803 15.4058 21.9444 16.3134C22.9838 16.9169 24.0439 16.8417 25.0038 16.1273C26.3281 15.1416 26.2021 13.7336 26.0855 12.2884C24.2308 12.2891 22.4405 12.2891 20.5679 12.2891ZM13.6888 12.2977C13.3187 14.1996 13.7053 15.5003 14.837 16.2404C15.7969 16.8682 17.0389 16.8482 17.9702 16.1782C19.356 15.181 19.2007 13.7572 19.0818 12.2977C17.2415 12.2977 15.4605 12.2977 13.6888 12.2977ZM12.1605 12.3134C10.265 12.3134 8.45472 12.3134 6.62865 12.3134C6.49766 13.8353 6.46616 15.2726 7.92572 16.171C8.91141 16.7773 9.9515 16.7615 10.92 16.1302C12.313 15.2211 12.2758 13.8102 12.1605 12.3134ZM5.15477 12.3242C3.89492 12.3242 2.66514 12.3242 1.41889 12.3242C1.32726 13.3886 1.29577 14.3607 2.30937 14.9613C2.98153 15.3593 3.68161 15.3507 4.33301 14.9262C5.29865 14.297 5.29221 13.3399 5.15477 12.3242ZM27.5686 12.2511C27.4391 13.3993 27.4355 14.3936 28.4978 14.987C29.2114 15.3857 29.9273 15.3263 30.5873 14.8453C31.3117 14.3177 31.5135 13.448 31.185 12.2511C30.2659 12.2511 29.3288 12.2511 28.3918 12.2511C28.1399 12.2511 27.8879 12.2511 27.5686 12.2511Z"
            fill="#0284C7"></path>
    </g>
</svg>