<?xml version="1.0" encoding="utf-8"?>
<!-- Generator: Adobe Illustrator 23.0.1, SVG Export Plug-In . SVG Version: 6.00 Build 0)  -->
<svg version="1.1" id="Layer_1" xmlns="http://www.w3.org/2000/svg" xmlns:xlink="http://www.w3.org/1999/xlink" x="0px" y="0px"
	 viewBox="0 0 30 30" style="enable-background:new 0 0 30 30;" xml:space="preserve">
<style type="text/css">
	.st0{clip-path:url(#SVGID_2_);}
	.st1{fill:#0284C7;}
	.st2{clip-path:url(#SVGID_4_);}
	.st3{fill:none;}
	.st4{clip-path:url(#SVGID_6_);}
	.st5{clip-path:url(#SVGID_8_);}
</style>
<g>
	<g>
		<defs>
			<rect id="SVGID_1_" x="7.7" y="35.9" width="16.3" height="3.7"/>
		</defs>
		<clipPath id="SVGID_2_">
			<use xlink:href="#SVGID_1_"  style="overflow:visible;"/>
		</clipPath>
		<g class="st0">
			<path class="st1" d="M25.5,21.5c-0.1-0.2-0.3-0.3-0.5-0.3l0,0c-0.2,0.1-0.3,0.3-0.3,0.5c0.1,0.3,0.1,0.6,0.1,0.9
				c0,0.6-0.1,1.1-0.4,1.6s-0.7,0.9-1.1,1.1l-0.2,0.1C23,25.5,23,25.6,23,25.7v0.5h-0.9v-1.6c0.4-0.1,0.7-0.5,0.7-1v-0.8
				c0-0.6-0.5-1.1-1.1-1.1l0,0c-0.6,0-1.1,0.5-1.1,1.1v0.8c0,0.5,0.3,0.9,0.7,1v1.6h-0.9v-0.5c0-0.1-0.1-0.3-0.2-0.3L20,25.3
				c-0.5-0.3-0.8-0.7-1.1-1.1c-0.3-0.5-0.4-1-0.4-1.6c0-1.7,1.4-3.2,3.2-3.2c0.8,0,1.6,0.3,2.2,0.9c0.2,0.1,0.4,0.1,0.5,0
				c0.1-0.2,0.1-0.4,0-0.5l0,0c-0.7-0.7-1.7-1.1-2.7-1.1c-2.2,0-3.9,1.8-3.9,3.9c0,0.7,0.2,1.4,0.5,2s0.8,1,1.4,1.4v0.3
				c-0.2,0.1-0.3,0.3-0.3,0.5v1.7c0,0.3,0.3,0.6,0.6,0.6h0.6v0.5c0,0.4,0.3,0.7,0.7,0.7h1.1c0.4,0,0.7-0.3,0.7-0.7v-0.5h0.6
				c0.3,0,0.6-0.3,0.6-0.6v-1.7c0-0.2-0.1-0.4-0.3-0.5V26c0.6-0.3,1-0.8,1.4-1.4c0.3-0.6,0.5-1.3,0.5-2
				C25.6,22.2,25.6,21.9,25.5,21.5z M21.4,22.8c0-0.2,0.1-0.3,0.3-0.3l0,0c0.2,0,0.3,0.1,0.3,0.3v0.8c0,0.2-0.1,0.3-0.3,0.3l0,0
				c-0.2,0-0.3-0.1-0.3-0.3V22.8z M22.1,29.6h-0.9v-0.4h0.9V29.6z M23.3,28.4h-3.2V27h3.2V28.4z"/>
			<path class="st1" d="M21.7,18.2c0.2,0,0.4-0.2,0.4-0.4v-0.6c0-0.2-0.2-0.4-0.4-0.4s-0.4,0.2-0.4,0.4v0.6
				C21.3,18.1,21.5,18.2,21.7,18.2z"/>
			<path class="st1" d="M19.4,18.4c0.1,0.1,0.2,0.2,0.3,0.2c0.1,0,0.1,0,0.2,0c0.2-0.1,0.3-0.3,0.2-0.5l-0.3-0.6
				c-0.1-0.2-0.3-0.3-0.5-0.2c-0.2,0.1-0.3,0.3-0.2,0.5l0,0L19.4,18.4z"/>
			<path class="st1" d="M17.3,19.3l0.5,0.4c0.1,0.1,0.2,0.1,0.3,0.1c0.1,0,0.2,0,0.3-0.1c0.1-0.2,0.1-0.4,0-0.5l-0.5-0.4
				c-0.2-0.1-0.4-0.1-0.5,0l0,0C17.2,18.9,17.2,19.2,17.3,19.3L17.3,19.3z"/>
			<path class="st1" d="M16.3,21.4l0.6,0.2c0.2,0.1,0.4,0,0.5-0.2l0,0c0.1-0.2,0-0.4-0.2-0.5l0,0l-0.6-0.2c-0.2-0.1-0.4,0-0.5,0.2
				S16.1,21.3,16.3,21.4L16.3,21.4L16.3,21.4z"/>
			<path class="st1" d="M16.2,23.7C16.2,23.7,16.3,23.7,16.2,23.7l0.7-0.1c0.2,0,0.4-0.2,0.3-0.4l0,0c0-0.2-0.2-0.4-0.4-0.3l0,0
				L16.2,23c-0.2,0-0.4,0.2-0.3,0.4C15.9,23.5,16,23.7,16.2,23.7L16.2,23.7z"/>
			<path class="st1" d="M16.8,25.1c-0.2,0.1-0.2,0.3-0.1,0.5l0,0c0.1,0.2,0.3,0.2,0.5,0.1l0.5-0.3c0.2-0.1,0.2-0.3,0.1-0.5l0,0
				c-0.1-0.2-0.3-0.2-0.5-0.1l0,0L16.8,25.1z"/>
			<path class="st1" d="M23.5,18.6c0.2,0.1,0.4,0,0.5-0.2l0.3-0.6c0.1-0.2,0-0.4-0.2-0.5s-0.4,0-0.5,0.2l0,0l-0.3,0.6
				C23.2,18.3,23.3,18.5,23.5,18.6L23.5,18.6L23.5,18.6z"/>
			<path class="st1" d="M25.3,19.8c0.1,0,0.2,0,0.3-0.1l0.5-0.4c0.2-0.1,0.2-0.4,0-0.5c-0.1-0.2-0.4-0.2-0.5,0l0,0L25,19.2
				c-0.2,0.1-0.2,0.4,0,0.5C25.1,19.8,25.2,19.8,25.3,19.8z"/>
			<path class="st1" d="M25.9,21.3c0.1,0.2,0.2,0.3,0.4,0.3h0.1l0.6-0.2c0.2-0.1,0.3-0.3,0.2-0.5c-0.1-0.2-0.3-0.3-0.5-0.2l-0.6,0.2
				C26,20.9,25.9,21.1,25.9,21.3L25.9,21.3L25.9,21.3z"/>
			<path class="st1" d="M27.2,22.9l-0.6-0.1c-0.2,0-0.4,0.1-0.4,0.3c0,0.2,0.1,0.4,0.3,0.4l0,0l0.6,0.1c0.2,0,0.4-0.1,0.4-0.3
				S27.4,22.9,27.2,22.9L27.2,22.9z"/>
			<path class="st1" d="M26.6,25.1L26,24.8c-0.2-0.1-0.4,0-0.5,0.1c-0.1,0.2,0,0.4,0.1,0.5l0,0l0.5,0.3c0.2,0.1,0.4,0,0.5-0.1
				C26.8,25.5,26.8,25.2,26.6,25.1L26.6,25.1z"/>
			<path d="M5.7,25.6h3.9c0.2,0,0.4-0.2,0.4-0.4s-0.2-0.4-0.4-0.4H5.7c-0.2,0-0.4,0.2-0.4,0.4l0,0C5.3,25.5,5.5,25.6,5.7,25.6z"/>
			<path class="st1" d="M14.1,28.9c-1.2,0-2.3,1-2.3,2.3c0,1.2,1,2.3,2.3,2.3c1.2,0,2.3-1,2.3-2.3C16.4,29.9,15.4,28.9,14.1,28.9z
				 M14.1,32.7c-0.8,0-1.5-0.7-1.5-1.5c0-0.5,0.2-0.9,0.6-1.2c0.2,1.1,1.1,1.9,2.2,1.9l0,0C15.2,32.3,14.7,32.7,14.1,32.7z
				 M15.4,31.1c-0.8,0-1.5-0.6-1.5-1.4c0.1,0,0.1,0,0.2,0c0.8,0,1.5,0.6,1.5,1.4C15.6,31.1,15.5,31.1,15.4,31.1z"/>
			<path class="st1" d="M23.4,37.2L23.4,37.2l-1.9-1.1c-0.3-0.1-0.7-0.2-1-0.2h-6.6v-1.2c0.1,0,0.2,0,0.3,0c2.3,0,4.4-1.2,5.5-3.2
				c0.1-0.2,0.1-0.4,0-0.6c-1.1-2-3.2-3.2-5.5-3.2c-0.1,0-0.2,0-0.3,0V23c0-0.4-0.3-0.6-0.6-0.6h-7c-0.2,0-0.4,0.2-0.4,0.4
				C5.8,22.9,6,23,6.2,23h6.9v4.7c-0.3,0-0.5,0.1-0.8,0.2v-0.3c0-0.4-0.3-0.6-0.6-0.6h-8c-0.4,0-0.6,0.3-0.6,0.6v5.3
				c0,0.4,0.3,0.6,0.6,0.6h6.8c0.8,0.5,1.6,0.9,2.6,1.1v1.3H8.5c-0.3,0-0.5,0.2-0.7,0.4H3.9c-0.2,0-0.4,0.2-0.4,0.4S3.7,37,3.9,37
				h3.8v1H3.9c-0.2,0-0.4,0.2-0.4,0.4s0.2,0.4,0.4,0.4h3.8c0,0.4,0.4,0.7,0.8,0.7h4.6V41H2.2V23h2.1c0.2,0,0.4-0.2,0.4-0.4
				c0-0.2-0.2-0.4-0.4-0.4H2.1c-0.4,0-0.6,0.3-0.6,0.6V41c0,0.4,0.3,0.6,0.6,0.6h11.1c0.4,0,0.6-0.3,0.6-0.6v-1.6h6.6
				c0.3,0,0.7-0.1,1-0.2l1.9-1.1c0.2-0.1,0.3-0.3,0.3-0.5C23.7,37.5,23.6,37.3,23.4,37.2z M3.8,32.8v-5.1h7.7v0.5
				c-1.2,0.5-2.2,1.5-2.9,2.6c-0.1,0.2-0.1,0.4,0,0.6c0.3,0.5,0.6,0.9,1,1.3L3.8,32.8L3.8,32.8z M9.3,31.2L9.3,31.2
				c1-1.7,2.8-2.8,4.8-2.8s3.8,1.1,4.8,2.8c-1,1.7-2.8,2.8-4.8,2.8C12.2,33.9,10.3,32.9,9.3,31.2z M10.1,38.8H8.5l0,0v-2.1l0,0h1.6
				V38.8z M19.9,38.8h-9.1v-0.7h5.7c0.2,0,0.4-0.2,0.4-0.4s-0.2-0.4-0.4-0.4h-5.7v-0.7h9.1v0.7h-1.6c-0.2,0-0.4,0.2-0.4,0.4
				s0.2,0.4,0.4,0.4h1.6C19.9,38.1,19.9,38.8,19.9,38.8z M21.5,38.4l-0.4,0.2c-0.1,0.1-0.2,0.1-0.4,0.1v-2.1c0.1,0,0.3,0.1,0.4,0.1
				l0.4,0.2V38.4z M22.3,38v-0.5l0.5,0.3L22.3,38z"/>
		</g>
	</g>
</g>
<g>
	<g>
		<g>
			<defs>
				<rect id="SVGID_3_" x="1.7" y="644.4" width="36.5" height="36.5"/>
			</defs>
			<clipPath id="SVGID_4_">
				<use xlink:href="#SVGID_3_"  style="overflow:visible;"/>
			</clipPath>
			<g transform="matrix(1.33333 0 0 -1.33333 0 682.667)" class="st2">
				<g>
					<path d="M8.5,494.8c-0.2,0-0.4,0.1-0.6,0.2l-4.1,2.4c-0.4,0.2-0.6,0.6-0.6,1.1v4.7c0,0.4,0.2,0.8,0.6,1.1l4.1,2.4
						c0.4,0.2,0.8,0.2,1.2,0l4.1-2.4c0.4-0.2,0.6-0.6,0.6-1.1c0-0.2-0.1-0.3-0.3-0.3s-0.3,0.1-0.3,0.3c0,0.2-0.1,0.4-0.3,0.5
						L8.8,506c-0.2,0.1-0.4,0.1-0.6,0l-4.1-2.4c-0.2-0.1-0.3-0.3-0.3-0.5v-4.7c0-0.2,0.1-0.4,0.3-0.5l4.1-2.4c0.2-0.1,0.4-0.1,0.6,0
						l2,1.2c0.1,0.1,0.3,0,0.4-0.1c0.1-0.1,0-0.3-0.1-0.4l-2-1.2C8.9,494.9,8.7,494.8,8.5,494.8z M8.5,497c-0.2,0-0.4,0.1-0.6,0.2
						l-2.2,1.2c-0.4,0.2-0.6,0.6-0.6,1.1v2.5c0,0.4,0.2,0.8,0.6,1.1l2.2,1.2c0.4,0.2,0.8,0.2,1.2,0l2.2-1.2c0.4-0.2,0.6-0.6,0.6-1.1
						v-2.5l0,0c0-0.4-0.2-0.8-0.6-1.1l-2.2-1.2C8.9,497.1,8.7,497,8.5,497z M8.5,503.9c-0.1,0-0.2,0-0.3-0.1L6,502.5
						c-0.2-0.1-0.3-0.3-0.3-0.5v-2.5c0-0.2,0.1-0.4,0.3-0.5l2.2-1.2c0.2-0.1,0.4-0.1,0.6,0L11,499c0.2,0.1,0.3,0.3,0.3,0.5v2.5
						c0,0.2-0.1,0.4-0.3,0.5l-2.2,1.2C8.7,503.8,8.6,503.9,8.5,503.9z M11.6,499.5L11.6,499.5L11.6,499.5z"/>
				</g>
				<g>
					<path d="M15.7,506.2H6.1c-0.2,0-0.3,0.1-0.3,0.3c0,0.2,0.1,0.3,0.3,0.3h9.7c0.2,0,0.3-0.1,0.3-0.3
						C16,506.4,15.9,506.2,15.7,506.2z"/>
				</g>
				<g>
					<path d="M4.9,506.2H1.3c-0.2,0-0.3,0.1-0.3,0.3c0,0.2,0.1,0.3,0.3,0.3h3.6c0.2,0,0.3-0.1,0.3-0.3C5.2,506.4,5,506.2,4.9,506.2z
						"/>
				</g>
				<g>
					<path d="M15.7,494.7h-3.3c-0.2,0-0.3,0.1-0.3,0.3s0.1,0.3,0.3,0.3h3.3c0.2,0,0.3-0.1,0.3-0.3S15.9,494.7,15.7,494.7z"/>
				</g>
				<g>
					<path d="M11.3,494.7h-10c-0.2,0-0.3,0.1-0.3,0.3s0.1,0.3,0.3,0.3h10c0.2,0,0.3-0.1,0.3-0.3S11.5,494.7,11.3,494.7z"/>
				</g>
				<g>
					<path d="M13.5,492.8c-0.2,0-0.3,0.1-0.3,0.3v3.7c0,0.2,0.1,0.3,0.3,0.3s0.3-0.1,0.3-0.3v-3.7C13.8,493,13.7,492.8,13.5,492.8z"
						/>
				</g>
				<g>
					<path d="M13.5,500.7c-0.2,0-0.3,0.1-0.3,0.3v7.4c0,0.2,0.1,0.3,0.3,0.3s0.3-0.1,0.3-0.3V501C13.8,500.8,13.7,500.7,13.5,500.7z
						"/>
				</g>
				<g>
					<path d="M3.5,492.8c-0.2,0-0.3,0.1-0.3,0.3v15.2c0,0.2,0.1,0.3,0.3,0.3s0.3-0.1,0.3-0.3v-15.2C3.8,493,3.7,492.8,3.5,492.8z"/>
				</g>
				<g>
					<path d="M20.6,503.2c-0.1,0-0.2,0-0.2,0.1c-0.1,0.1-0.1,0.3,0,0.4l0.1,0.1c0.2,0.2,0.4,0.6,0.4,0.9c0,0.4-0.1,0.7-0.4,0.9
						c-0.5,0.5-1.4,0.5-1.9,0l-0.1-0.1c-0.1-0.1-0.3-0.1-0.4,0s-0.1,0.3,0,0.4l0.1,0.1c0.8,0.7,2,0.7,2.7,0c0.4-0.4,0.6-0.8,0.6-1.4
						c0-0.5-0.2-1-0.6-1.4l-0.1-0.1C20.8,503.2,20.7,503.2,20.6,503.2z"/>
				</g>
				<g>
					<path d="M12.5,496.2c-0.1,0-0.2,0-0.2,0.1l-1.1,1.1c-0.1,0.1-0.1,0.3,0,0.4s0.3,0.1,0.4,0l1.1-1.1c0.1-0.1,0.1-0.3,0-0.4
						C12.6,496.2,12.5,496.2,12.5,496.2z"/>
				</g>
				<g>
					<path d="M13.1,498c-0.1,0-0.2,0-0.2,0.1c-0.1,0.1-0.1,0.3,0,0.4l3.2,3.2c0.1,0.1,0.3,0.1,0.4,0s0.1-0.3,0-0.4l-3.2-3.2
						C13.3,498,13.2,498,13.1,498z"/>
				</g>
				<g>
					<path d="M17.3,502.2c-0.1,0-0.2,0-0.2,0.1c-0.1,0.1-0.1,0.3,0,0.4l1.1,1.1c0.1,0.1,0.3,0.1,0.4,0s0.1-0.3,0-0.4l-1.1-1.1
						C17.4,502.2,17.4,502.2,17.3,502.2z"/>
				</g>
				<g>
					<path d="M14.2,496.8L14.2,496.8c-0.2,0-0.3,0.2-0.3,0.4c0.1,0.4,0,0.6-0.1,0.7s-0.4,0.1-0.7,0.1c-0.1,0-0.2,0-0.3,0.1
						s-0.1,0.2-0.1,0.3c0.1,0.4,0,0.6-0.1,0.7s-0.4,0.1-0.7,0.1c-0.2,0-0.3,0.1-0.3,0.2c0,0.2,0.1,0.3,0.2,0.3c0.6,0.1,1,0,1.3-0.2
						c0.2-0.2,0.3-0.5,0.3-0.9c0.4,0,0.7-0.1,0.9-0.3c0.3-0.3,0.3-0.7,0.2-1.3C14.5,496.9,14.4,496.8,14.2,496.8z"/>
				</g>
				<g>
					<path d="M20.1,501.9c-0.3,0-0.6,0.1-0.8,0.3l-2.3,2.3c-0.4,0.4-0.4,1.1,0,1.5c0.2,0.2,0.5,0.3,0.8,0.3s0.6-0.1,0.8-0.3l2.3-2.3
						l0,0c0.2-0.2,0.3-0.5,0.3-0.8s-0.1-0.6-0.3-0.8C20.6,502,20.4,501.9,20.1,501.9z M17.8,505.7c-0.1,0-0.2,0-0.3-0.1
						c-0.2-0.2-0.2-0.5,0-0.7l2.3-2.3c0.1-0.1,0.2-0.1,0.3-0.1c0.1,0,0.2,0,0.3,0.1c0.1,0.1,0.1,0.2,0.1,0.3s0,0.2-0.1,0.3l-2.3,2.3
						C18,505.7,17.9,505.7,17.8,505.7z"/>
				</g>
				<g>
					<path d="M11.4,495.8c-0.2,0-0.4,0.1-0.5,0.2c-0.2,0.2-0.3,0.5-0.2,0.7l1,2.7c0,0,0,0.1,0.1,0.1l5.3,5.3c0.1,0.1,0.3,0.1,0.4,0
						l2.3-2.3c0.1-0.1,0.1-0.3,0-0.4l-5.3-5.3l-0.1-0.1l-2.7-1C11.5,495.9,11.4,495.8,11.4,495.8z M12.2,499.3l-1-2.7
						c0-0.1,0-0.1,0-0.1h0.1l2.7,1l5,5l-1.9,1.9L12.2,499.3z"/>
				</g>
			</g>
		</g>
	</g>
</g>
<g>
	<rect x="-223" y="-246" class="st3" width="512" height="512"/>
</g>
<g>
	<path d="M24.6,5h-0.4V4.7c0-0.8-0.6-1.4-1.4-1.4c-0.4,0-0.7,0.3-0.8,0.7l-0.2,0.8c0,0.2-0.2,0.3-0.4,0.3h-1.5
		c-0.5,0-0.9,0.4-0.9,0.9v2.6c0,0.5,0.4,0.9,0.9,0.9h0.9c0.3,0,0.5-0.1,0.7-0.4c0.3,0.2,0.7,0.4,1.1,0.4h2.1c0.7,0,1.3-0.6,1.3-1.3
		V6.3C25.9,5.6,25.3,5,24.6,5z M20.7,8.5h-0.9V5.9h0.9V8.5z M25,8c0,0.2-0.2,0.4-0.4,0.4h-2.1c-0.4,0-0.8-0.2-1-0.5V5.8
		c0.5-0.1,0.9-0.5,1-1l0.2-0.8c0.3,0,0.5,0.2,0.5,0.5v1.2h1.3c0.2,0,0.4,0.2,0.4,0.4V8z M10.2,7.6h0.9v0.9h-0.9V7.6z M6.7,7.6h0.9
		v0.9H6.7V7.6z M8.5,7.6h0.9v0.9H8.5V7.6z"/>
	<path d="M26.4,1.5h-8c-1.1,0-2.1,0.9-2.1,2.1c0,0.1,0,0.2,0,0.3l0.3,2H5v13.1H3.3c-1,0-1.7,0.8-1.7,1.7v0.9c0,1,0.8,1.7,1.7,1.7H5
		v5.2h21.8V10.8c0.6-0.3,1-0.9,1-1.5l0.7-5.4c0.1-1.1-0.7-2.2-1.8-2.3C26.6,1.5,26.5,1.5,26.4,1.5z M16.7,6.7L17,9.3
		c0,0,0,0.1,0,0.1H5.9V6.7H16.7z M5,21.5h7.8v0.9H5V21.5z M13.7,20.1l1.6,0.8c0.1,0,0.1,0.1,0.1,0.2c0,0.1-0.1,0.2-0.1,0.2l-1.6,0.8
		V20.1z M12.8,20.7H5v-0.9h7.8V20.7z M2.4,21.5v-0.9c0-0.5,0.4-0.9,0.9-0.9h0.9v2.6H3.3C2.8,22.4,2.4,22,2.4,21.5z M25.9,27.6h-20
		v-4.4h7.5l2.3-1.2c0.4-0.2,0.6-0.6,0.6-1c0-0.4-0.2-0.8-0.6-1l-2.3-1.2H5.9v-8.7h11.5c0.4,0.5,1,0.9,1.7,0.9h1.6v0.7
		c0,0.6,0.5,1,1.1,1.1c0.3,0,0.5-0.1,0.7-0.3l1.4-1.4h1.9c0,0,0.1,0,0.1,0L25.9,27.6z M27.6,3.7l-0.7,5.4c-0.1,0.6-0.6,1.1-1.2,1.1
		h-2.2l-1.7,1.7c-0.1,0.1-0.3,0-0.3-0.1v-1.6h-2.5c-0.6,0-1.1-0.5-1.2-1.1l-0.7-5.4c-0.1-0.7,0.4-1.3,1-1.3c0,0,0.1,0,0.1,0h8
		c0.7,0,1.2,0.5,1.2,1.2C27.6,3.6,27.6,3.7,27.6,3.7L27.6,3.7z"/>
	<path d="M8.5,26.7h2.6v-2.6H8.5V26.7z M9.3,25h0.9v0.9H9.3V25z M12,26.7h2.6v-2.6H12V26.7z M12.8,25h0.9v0.9h-0.9V25z M15.4,26.7
		H18v-2.6h-2.6V26.7z M16.3,25h0.9v0.9h-0.9V25z M18.9,26.7h2.6v-2.6h-2.6V26.7z M19.8,25h0.9v0.9h-0.9V25z M22.4,26.7H25v-2.6h-2.6
		V26.7z M23.3,25h0.9v0.9h-0.9V25z M17.2,22.4H18v0.9h-0.9V22.4z M18.9,22.4H25v0.9h-6.1V22.4z M17.2,20.7H25v0.9h-7.8V20.7z
		 M17.2,18.9H25v0.9h-7.8V18.9z M18,11.1H6.7v7H18V11.1z M17.2,17.2H7.6V12h9.6V17.2z M18.9,17.2H25V18h-6.1V17.2z M18.9,15.4H25
		v0.9h-6.1V15.4z M18.9,13.7H25v0.9h-6.1V13.7z"/>
</g>
<g>
	<defs>
		<polygon id="SVGID_5_" points="5,18.9 5.9,18.9 13.3,18.8 16.2,19.9 16.6,21 16.4,22.2 13.8,23.6 7.8,23.7 5.9,23.3 5,23.3 
			3.3,23.8 1.8,23.6 1.1,21.3 1.4,19.5 2.2,18.7 3.1,18.4 4.1,18.6 4.9,18.9 		"/>
	</defs>
	<clipPath id="SVGID_6_">
		<use xlink:href="#SVGID_5_"  style="overflow:visible;"/>
	</clipPath>
	<g class="st4">
		<path d="M24.6,5h-0.4V4.7c0-0.8-0.6-1.4-1.4-1.4c-0.4,0-0.7,0.3-0.8,0.7l-0.2,0.8c0,0.2-0.2,0.3-0.4,0.3h-1.5
			c-0.5,0-0.9,0.4-0.9,0.9v2.6c0,0.5,0.4,0.9,0.9,0.9h0.9c0.3,0,0.5-0.1,0.7-0.4c0.3,0.2,0.7,0.4,1.1,0.4h2.1c0.7,0,1.3-0.6,1.3-1.3
			V6.3C25.9,5.6,25.3,5,24.6,5z M20.7,8.5h-0.9V5.9h0.9V8.5z M25,8c0,0.2-0.2,0.4-0.4,0.4h-2.1c-0.4,0-0.8-0.2-1-0.5V5.8
			c0.5-0.1,0.9-0.5,1-1l0.2-0.8c0.3,0,0.5,0.2,0.5,0.5v1.2h1.3c0.2,0,0.4,0.2,0.4,0.4V8z M10.2,7.6h0.9v0.9h-0.9V7.6z M6.7,7.6h0.9
			v0.9H6.7V7.6z M8.5,7.6h0.9v0.9H8.5V7.6z"/>
		<path class="st1" d="M26.4,1.5h-8c-1.1,0-2.1,0.9-2.1,2.1c0,0.1,0,0.2,0,0.3l0.3,2H5v13.1H3.3c-1,0-1.7,0.8-1.7,1.7v0.9
			c0,1,0.8,1.7,1.7,1.7H5v5.2h21.8V10.8c0.6-0.3,1-0.9,1-1.5l0.7-5.4c0.1-1.1-0.7-2.2-1.8-2.3C26.6,1.5,26.5,1.5,26.4,1.5z
			 M16.7,6.7L17,9.3c0,0,0,0.1,0,0.1H5.9V6.7H16.7z M5,21.5h7.8v0.9H5V21.5z M13.7,20.1l1.6,0.8c0.1,0,0.1,0.1,0.1,0.2
			c0,0.1-0.1,0.2-0.1,0.2l-1.6,0.8V20.1z M12.8,20.7H5v-0.9h7.8V20.7z M2.4,21.5v-0.9c0-0.5,0.4-0.9,0.9-0.9h0.9v2.6H3.3
			C2.8,22.4,2.4,22,2.4,21.5z M25.9,27.6h-20v-4.4h7.5l2.3-1.2c0.4-0.2,0.6-0.6,0.6-1c0-0.4-0.2-0.8-0.6-1l-2.3-1.2H5.9v-8.7h11.5
			c0.4,0.5,1,0.9,1.7,0.9h1.6v0.7c0,0.6,0.5,1,1.1,1.1c0.3,0,0.5-0.1,0.7-0.3l1.4-1.4h1.9c0,0,0.1,0,0.1,0L25.9,27.6z M27.6,3.7
			l-0.7,5.4c-0.1,0.6-0.6,1.1-1.2,1.1h-2.2l-1.7,1.7c-0.1,0.1-0.3,0-0.3-0.1v-1.6h-2.5c-0.6,0-1.1-0.5-1.2-1.1l-0.7-5.4
			c-0.1-0.7,0.4-1.3,1-1.3c0,0,0.1,0,0.1,0h8c0.7,0,1.2,0.5,1.2,1.2C27.6,3.6,27.6,3.7,27.6,3.7L27.6,3.7z"/>
		<path d="M8.5,26.7h2.6v-2.6H8.5V26.7z M9.3,25h0.9v0.9H9.3V25z M12,26.7h2.6v-2.6H12V26.7z M12.8,25h0.9v0.9h-0.9V25z M15.4,26.7
			H18v-2.6h-2.6V26.7z M16.3,25h0.9v0.9h-0.9V25z M18.9,26.7h2.6v-2.6h-2.6V26.7z M19.8,25h0.9v0.9h-0.9V25z M22.4,26.7H25v-2.6
			h-2.6V26.7z M23.3,25h0.9v0.9h-0.9V25z M17.2,22.4H18v0.9h-0.9V22.4z M18.9,22.4H25v0.9h-6.1V22.4z M17.2,20.7H25v0.9h-7.8V20.7z
			 M17.2,18.9H25v0.9h-7.8V18.9z M18,11.1H6.7v7H18V11.1z M17.2,17.2H7.6V12h9.6V17.2z M18.9,17.2H25V18h-6.1V17.2z M18.9,15.4H25
			v0.9h-6.1V15.4z M18.9,13.7H25v0.9h-6.1V13.7z"/>
	</g>
</g>
<g>
	<defs>
		<path id="SVGID_7_" d="M16.6,5.9l0.1,0.9l0.2,2.5L17,9.3c0,0,0.2,0.5,0.4,0.9l0.1,0.3l0.2,0.3l0.8,0.3l1.2,0.3l1-0.4l-0.2,0.8
			l0.2,0.9l1.6,0.3l1.1-0.9l2.1-0.8l0.4-0.4c0,0,0.6-0.1,0.9-0.3l0.2,0l0.8-0.6l0.4-1.4c0,0,0.6-3.7,0.6-3.7s0-1.8,0-1.8l-0.3-1.7
			l-3.3-0.9l-5.4,0l-2.6,0.7l-1.4,1.3l0,2.2L16.6,5.9z"/>
	</defs>
	<clipPath id="SVGID_8_">
		<use xlink:href="#SVGID_7_"  style="overflow:visible;"/>
	</clipPath>
	<g class="st5">
		<path class="st1" d="M24.6,5h-0.4V4.7c0-0.8-0.6-1.4-1.4-1.4c-0.4,0-0.7,0.3-0.8,0.7l-0.2,0.8c0,0.2-0.2,0.3-0.4,0.3h-1.5
			c-0.5,0-0.9,0.4-0.9,0.9v2.6c0,0.5,0.4,0.9,0.9,0.9h0.9c0.3,0,0.5-0.1,0.7-0.4c0.3,0.2,0.7,0.4,1.1,0.4h2.1c0.7,0,1.3-0.6,1.3-1.3
			V6.3C25.9,5.6,25.3,5,24.6,5z M20.7,8.5h-0.9V5.9h0.9V8.5z M25,8c0,0.2-0.2,0.4-0.4,0.4h-2.1c-0.4,0-0.8-0.2-1-0.5V5.8
			c0.5-0.1,0.9-0.5,1-1l0.2-0.8c0.3,0,0.5,0.2,0.5,0.5v1.2h1.3c0.2,0,0.4,0.2,0.4,0.4V8z M10.2,7.6h0.9v0.9h-0.9V7.6z M6.7,7.6h0.9
			v0.9H6.7V7.6z M8.5,7.6h0.9v0.9H8.5V7.6z"/>
		<path class="st1" d="M26.4,1.5h-8c-1.1,0-2.1,0.9-2.1,2.1c0,0.1,0,0.2,0,0.3l0.3,2H5v13.1H3.3c-1,0-1.7,0.8-1.7,1.7v0.9
			c0,1,0.8,1.7,1.7,1.7H5v5.2h21.8V10.8c0.6-0.3,1-0.9,1-1.5l0.7-5.4c0.1-1.1-0.7-2.2-1.8-2.3C26.6,1.5,26.5,1.5,26.4,1.5z
			 M16.7,6.7L17,9.3c0,0,0,0.1,0,0.1H5.9V6.7H16.7z M5,21.5h7.8v0.9H5V21.5z M13.7,20.1l1.6,0.8c0.1,0,0.1,0.1,0.1,0.2
			c0,0.1-0.1,0.2-0.1,0.2l-1.6,0.8V20.1z M12.8,20.7H5v-0.9h7.8V20.7z M2.4,21.5v-0.9c0-0.5,0.4-0.9,0.9-0.9h0.9v2.6H3.3
			C2.8,22.4,2.4,22,2.4,21.5z M25.9,27.6h-20v-4.4h7.5l2.3-1.2c0.4-0.2,0.6-0.6,0.6-1c0-0.4-0.2-0.8-0.6-1l-2.3-1.2H5.9v-8.7h11.5
			c0.4,0.5,1,0.9,1.7,0.9h1.6v0.7c0,0.6,0.5,1,1.1,1.1c0.3,0,0.5-0.1,0.7-0.3l1.4-1.4h1.9c0,0,0.1,0,0.1,0L25.9,27.6z M27.6,3.7
			l-0.7,5.4c-0.1,0.6-0.6,1.1-1.2,1.1h-2.2l-1.7,1.7c-0.1,0.1-0.3,0-0.3-0.1v-1.6h-2.5c-0.6,0-1.1-0.5-1.2-1.1l-0.7-5.4
			c-0.1-0.7,0.4-1.3,1-1.3c0,0,0.1,0,0.1,0h8c0.7,0,1.2,0.5,1.2,1.2C27.6,3.6,27.6,3.7,27.6,3.7L27.6,3.7z"/>
		<path d="M8.5,26.7h2.6v-2.6H8.5V26.7z M9.3,25h0.9v0.9H9.3V25z M12,26.7h2.6v-2.6H12V26.7z M12.8,25h0.9v0.9h-0.9V25z M15.4,26.7
			H18v-2.6h-2.6V26.7z M16.3,25h0.9v0.9h-0.9V25z M18.9,26.7h2.6v-2.6h-2.6V26.7z M19.8,25h0.9v0.9h-0.9V25z M22.4,26.7H25v-2.6
			h-2.6V26.7z M23.3,25h0.9v0.9h-0.9V25z M17.2,22.4H18v0.9h-0.9V22.4z M18.9,22.4H25v0.9h-6.1V22.4z M17.2,20.7H25v0.9h-7.8V20.7z
			 M17.2,18.9H25v0.9h-7.8V18.9z M18,11.1H6.7v7H18V11.1z M17.2,17.2H7.6V12h9.6V17.2z M18.9,17.2H25V18h-6.1V17.2z M18.9,15.4H25
			v0.9h-6.1V15.4z M18.9,13.7H25v0.9h-6.1V13.7z"/>
	</g>
</g>
</svg>
