<?xml version="1.0" encoding="utf-8"?>
<svg width="36" height="33" viewBox="0 0 36 33" fill="none" xmlns="http://www.w3.org/2000/svg"
    class="h-6 md:h-8 text-sky-700 inline-block">
    <path d="M23.8052 9.19484H30.3204C31.2199 9.19484 31.9497 9.92458 31.9497 10.8241V29.8279"
        stroke="black" stroke-miterlimit="10" stroke-linecap="round" stroke-linejoin="round"></path>
    <path d="M3.71484 29.8279V10.8241C3.71484 9.92458 4.44458 9.19484 5.3441 9.19484H11.8602"
        stroke="black" stroke-miterlimit="10" stroke-linecap="round" stroke-linejoin="round"></path>
    <path
        d="M19.5856 17.3051H16.077C15.9035 17.3051 15.7428 17.2165 15.6489 17.0711C14.2571 14.8982 13.522 12.3631 13.522 9.73856C13.522 7.88622 13.8805 6.0953 14.5877 4.41637C15.2695 2.79704 16.2413 1.36015 17.4741 0.146327C17.6719 -0.0487506 17.9889 -0.0487506 18.1867 0.146327C19.4195 1.36015 20.3912 2.79704 21.0731 4.41637C21.7803 6.0953 22.1388 7.88622 22.1388 9.73856C22.1388 12.3631 21.4037 14.8982 20.0119 17.0711C19.9207 17.2165 19.759 17.3051 19.5856 17.3051ZM16.3596 16.289H19.3048C20.4969 14.3328 21.1246 12.0741 21.1246 9.73856C21.1246 6.56132 19.9297 3.49246 17.8317 1.23642C15.7338 3.49246 14.5389 6.56132 14.5389 9.73856C14.5389 12.0741 15.1675 14.3328 16.3596 16.289Z"
        fill="#0284C7"></path>
    <path
        d="M20.0039 19.4762H15.6598C15.5036 19.4762 15.3555 19.4039 15.2597 19.2811C15.1631 19.1574 15.1297 18.9966 15.1676 18.8449L15.7104 16.6729C15.7673 16.4471 15.9705 16.2881 16.2035 16.2881H19.4611C19.6942 16.2881 19.8974 16.4471 19.9543 16.6729L20.497 18.8449C20.535 18.9966 20.5007 19.1574 20.4049 19.2811C20.3083 19.4048 20.1602 19.4762 20.0039 19.4762ZM16.311 18.4602H19.3537L19.0647 17.3041H16.6L16.311 18.4602Z"
        fill="#0284C7"></path>
    <path
        d="M11.3166 18.3906C11.2281 18.3906 11.1396 18.3671 11.0601 18.3211C10.9038 18.2299 10.8081 18.0628 10.8081 17.8822V16.2999C10.8081 15.8013 10.9842 15.3154 11.303 14.9316L13.6403 12.1265C13.8201 11.9106 14.1407 11.8817 14.3556 12.0614C14.5715 12.2412 14.6004 12.5618 14.4207 12.7767L12.0833 15.5819C11.9163 15.7833 11.8232 16.0379 11.8232 16.2999V17.0124L14.9327 15.2576C15.1775 15.1195 15.4873 15.2062 15.6245 15.45C15.7627 15.6948 15.676 16.0045 15.4322 16.1418L11.5649 18.3238C11.4882 18.3689 11.4024 18.3906 11.3166 18.3906Z"
        fill="#0284C7"></path>
    <path
        d="M24.3478 18.3906C24.262 18.3906 24.1753 18.3689 24.0985 18.3247L20.2313 16.1427C19.9865 16.0045 19.9007 15.6948 20.038 15.4509C20.1762 15.2071 20.486 15.1204 20.7298 15.2585L23.8402 17.0133V16.3008C23.8402 16.0389 23.7481 15.7842 23.5801 15.5828L21.2428 12.7776C21.0631 12.5618 21.092 12.2421 21.3078 12.0623C21.5237 11.8826 21.8434 11.9115 22.0231 12.1274L24.3604 14.9325C24.6802 15.3154 24.8554 15.8013 24.8554 16.3008V17.8831C24.8554 18.0637 24.7596 18.2308 24.6034 18.322C24.5248 18.3671 24.4363 18.3906 24.3478 18.3906Z"
        fill="#0284C7"></path>
    <path
        d="M20.5465 5.35925H15.1169C14.836 5.35925 14.6084 5.13166 14.6084 4.85079C14.6084 4.56991 14.836 4.34232 15.1169 4.34232H20.5465C20.8274 4.34232 21.055 4.56991 21.055 4.85079C21.055 5.13166 20.8274 5.35925 20.5465 5.35925Z"
        fill="#0284C7"></path>
    <path
        d="M29.0749 30.3364C29.0271 30.3364 28.9774 30.3292 28.9295 30.3148C28.6604 30.2344 28.5078 29.9508 28.5881 29.6826C28.6794 29.3773 28.7263 29.0603 28.7263 28.7415C28.7263 26.9262 27.2488 25.4486 25.4335 25.4486C25.0722 25.4486 24.7101 25.511 24.3569 25.6329C24.2296 25.6771 24.0896 25.669 23.9677 25.6094C23.8467 25.5498 23.7536 25.445 23.7094 25.3168C23.4032 24.4209 22.5678 23.8194 21.6322 23.8194C21.1183 23.8194 20.6306 24.0009 20.2215 24.345C20.049 24.4904 19.8006 24.504 19.6127 24.3793C19.4249 24.2538 19.3418 24.0199 19.4095 23.8049C19.4673 23.6189 19.4944 23.4626 19.4944 23.3118C19.4944 22.3942 18.7484 21.6482 17.8309 21.6482C16.9133 21.6482 16.1673 22.3942 16.1673 23.3118C16.1673 23.4626 16.1944 23.6189 16.2522 23.8049C16.3199 24.0199 16.2368 24.2547 16.049 24.3793C15.8611 24.504 15.6136 24.4904 15.4402 24.345C15.0311 24.0009 14.5434 23.8194 14.0295 23.8194C13.093 23.8194 12.2585 24.4209 11.9523 25.3168C11.909 25.445 11.816 25.5498 11.694 25.6094C11.573 25.669 11.433 25.6771 11.3048 25.6329C10.9526 25.511 10.5904 25.4486 10.2282 25.4486C8.41293 25.4486 6.93539 26.9262 6.93539 28.7415C6.93539 29.0576 6.98235 29.3737 7.07357 29.6826C7.15395 29.9517 7.00042 30.2344 6.73128 30.3148C6.46215 30.3951 6.17946 30.2416 6.09908 29.9725C5.97897 29.5697 5.91846 29.156 5.91846 28.7415C5.91846 26.3653 7.85117 24.4326 10.2273 24.4326C10.547 24.4326 10.8659 24.4687 11.1801 24.541C11.7283 23.4852 12.8202 22.8033 14.0277 22.8033C14.4215 22.8033 14.8044 22.8756 15.1648 23.0147C15.3129 21.6762 16.4509 20.6313 17.8281 20.6313C19.2054 20.6313 20.3434 21.6762 20.4915 23.0147C20.8519 22.8747 21.2348 22.8033 21.6286 22.8033C22.837 22.8033 23.9288 23.4852 24.4761 24.541C24.7904 24.4687 25.1092 24.4326 25.429 24.4326C27.8051 24.4326 29.7378 26.3653 29.7378 28.7415C29.7378 29.1587 29.6764 29.5733 29.5572 29.9734C29.4958 30.1937 29.2935 30.3364 29.0749 30.3364Z"
        fill="#0284C7"></path>
    <path
        d="M17.8316 11.3317C16.6531 11.3317 15.6948 10.3734 15.6948 9.19484C15.6948 8.01624 16.6531 7.05801 17.8316 7.05801C19.0102 7.05801 19.9685 8.01624 19.9685 9.19484C19.9685 10.3734 19.0102 11.3317 17.8316 11.3317ZM17.8316 8.07404C17.2139 8.07404 16.7109 8.57709 16.7109 9.19484C16.7109 9.81259 17.2139 10.3156 17.8316 10.3156C18.4494 10.3156 18.9524 9.81259 18.9524 9.19484C18.9524 8.57709 18.4494 8.07404 17.8316 8.07404Z"
        fill="#0284C7"></path>
    <path
        d="M10.2301 29.828H34.6636V30.9144C34.6636 31.5141 34.1777 32 33.578 32H2.08557C1.48589 32 1 31.5141 1 30.9144V29.828H8.05803"
        stroke="black" stroke-miterlimit="10" stroke-linecap="round" stroke-linejoin="round"></path>
</svg>