<?xml version="1.0" encoding="utf-8"?>
<!-- Generator: Adobe Illustrator 23.0.1, SVG Export Plug-In . SVG Version: 6.00 Build 0)  -->
<svg version="1.1" id="Layer_1" xmlns="http://www.w3.org/2000/svg" xmlns:xlink="http://www.w3.org/1999/xlink" x="0px" y="0px"
	 viewBox="0 0 30 30" style="enable-background:new 0 0 30 30;" xml:space="preserve">
<style type="text/css">
	.st0{fill-rule:evenodd;clip-rule:evenodd;}
	.st1{clip-path:url(#SVGID_2_);}
	.st2{fill-rule:evenodd;clip-rule:evenodd;fill:#0284C7;}
	.st3{clip-path:url(#SVGID_4_);}
	.st4{fill:#0284C7;}
</style>
<g>
	<path class="st0" d="M26.2,11.9l-1.6,0.5c-0.1,0-0.2,0.2-0.3,0.3c-0.2,0.6-0.4,1.3-0.8,1.8c0,0.1-0.1,0.1-0.1,0.2h-0.1
		c-0.5,0-0.9,0.4-0.9,0.8l-1.6-0.1c1.4-1.1,2.2-2.7,2.2-4.5c0-3.1-2.5-5.7-5.7-5.7c-3.8,0-6.5,3.6-5.4,7.3l-1.5,0
		c0,0-0.1-0.1-0.2-0.1l-1.6-0.5l0-1.9l1.6-0.5c0.1,0,0.2-0.2,0.3-0.3c0.2-0.6,0.4-1.3,0.8-1.8c0.1-0.1,0.1-0.3,0-0.4l-0.8-1.5
		l1.3-1.3l1.5,0.8c0.1,0.1,0.3,0.1,0.4,0c0.6-0.3,1.2-0.6,1.8-0.8c0.1,0,0.2-0.1,0.3-0.3l0.5-1.6l1.9,0l0.5,1.6
		c0,0.1,0.2,0.2,0.3,0.3c0.6,0.2,1.3,0.4,1.8,0.8c0.1,0.1,0.3,0.1,0.4,0L23,4.1l1.3,1.3L23.5,7c-0.1,0.1-0.1,0.3,0,0.4
		c0.3,0.6,0.6,1.2,0.8,1.8c0,0.1,0.1,0.2,0.3,0.3l1.6,0.5V11.9z M25.6,15.7c0-0.1-0.1-0.1-0.1-0.1l-2.1,0c-0.1,0-0.1,0.1-0.1,0.1
		l0,9.1c0,0.1,0.1,0.1,0.1,0.1l2.1,0c0.1,0,0.1-0.1,0.1-0.1L25.6,15.7z M21.5,23.8c0.3,0,0.6,0,0.9-0.1l0-7.3l-1.8-0.2
		c-0.5,0-1-0.2-1.5-0.4l-2.3-1.2l-3.2,4.1c0.2,0.4,0.3,0.8,0.3,1.3c0,1.7-2,3-3.4,3.8c0,0,0,0-0.1,0c-0.6,0.2-1,0.5-1.2,0.9
		c-0.3,0.5-0.6,1.1-0.4,1.5c0,0.1,0.1,0.2,0.4,0.3c0.2,0,0.4,0,0.6,0c0.2-0.1,0.3-0.2,0.5-0.3c0.8-0.4,1.4-0.8,2-1
		c1.7-0.8,3.5-1.9,5.4-1.5C19.1,24,20.3,23.9,21.5,23.8L21.5,23.8z M13.1,19.4c0.1,0.2,0.1,0.4,0.1,0.5c0,1.2-1.7,2.3-2.9,3
		L13.1,19.4z M6.5,26.6l10.9-14.1l-1.5-1.2L5,25.4l-0.4,2.1L6.5,26.6z M7.4,20.8c0.7-1.1,1.3-2.5,2.3-3c0.1,0,0.2-0.1,0.3-0.1
		l-3.1,4C7.1,21.3,7.2,21,7.4,20.8z M17.9,11.9l0.6-0.8c0.1-0.1,0.1-0.3-0.1-0.4l-1-0.8c-0.1-0.1-0.3-0.1-0.4,0.1l-0.6,0.8
		L17.9,11.9z M12.6,10.9c0,0.5,0.1,1.1,0.3,1.6H14l2.4-3.1c0.4-0.5,1.1-0.6,1.6-0.2l1,0.8c0.5,0.4,0.6,1.1,0.2,1.6l-1.8,2.3l2.2,1.2
		c0.1,0,0.1,0.1,0.2,0.1c1.6-0.8,2.5-2.5,2.5-4.3c0-2.7-2.2-4.8-4.8-4.8C14.8,6.1,12.6,8.3,12.6,10.9L12.6,10.9z M4.3,23
		c0.3,0.4,0.5,0.5,0.6,0.5c0.4,0,0.9-1.2,1.2-1.9c0.2-0.5,0.4-1,0.6-1.3C7.4,19.1,8,17.6,9.3,17c0.4-0.2,0.8-0.2,1.3-0.2l2.7-3.5
		l-2.8,0c-0.7,0-1.5,0.3-2.1,0.8l-1.8,1.6c-0.4,0.4-0.6,0.8-0.9,1.5l-1.9,5.2C4,22.6,4.1,22.8,4.3,23z M26.7,9.3L25,8.7
		c-0.2-0.6-0.4-1.1-0.7-1.6l0.8-1.6c0.1-0.2,0.1-0.4-0.1-0.5l-1.7-1.7c-0.1-0.1-0.3-0.2-0.5-0.1L21.2,4c-0.5-0.3-1.1-0.5-1.6-0.7
		l-0.6-1.7c-0.1-0.2-0.2-0.3-0.4-0.3l-2.5,0c-0.2,0-0.3,0.1-0.4,0.3l-0.6,1.7c-0.6,0.2-1.1,0.4-1.6,0.7L12,3.2
		c-0.2-0.1-0.4,0-0.5,0.1L9.8,5C9.7,5.2,9.6,5.4,9.7,5.5l0.8,1.6C10.2,7.6,10,8.2,9.9,8.7L8.1,9.3C8,9.4,7.9,9.5,7.9,9.7l0,2.5
		c0,0.2,0.1,0.3,0.3,0.4L9,12.8c-0.4,0.2-0.8,0.4-1.1,0.7l-1.8,1.6C5.5,15.7,5.2,16.4,5,17l-2,5.3c0,0.1,0,0.2,0,0.3
		c0.1,0.3,0.4,0.6,0.6,0.9c0.4,0.6,0.8,0.9,1.2,0.9L4.3,25c0,0.1-0.1,0.1-0.1,0.2l-0.6,3c-0.1,0.3,0.3,0.6,0.6,0.5l2.7-1.3
		c0.1,0,0.1-0.1,0.1-0.1l1-1.2c0,0.6,0.3,1.3,1.1,1.4c0.4,0.1,0.7,0.1,1,0c0.1,0,0.6-0.3,0.6-0.3c0.8-0.4,1.4-0.7,1.9-1
		c1.6-0.7,3.3-1.7,4.9-1.4c1.6,0.3,3.1,0.1,4.7,0v0.3c0,0.5,0.4,0.9,0.9,0.9l2.1,0c0.5,0,0.9-0.4,0.9-0.9l0-9.1
		c0-0.5-0.4-0.9-0.9-0.9h-1.2l0,0c0.3-0.5,0.5-1.1,0.7-1.6l1.7-0.6c0.2-0.1,0.3-0.2,0.3-0.4l0-2.5C27,9.5,26.9,9.4,26.7,9.3
		L26.7,9.3z"/>
</g>
<g>
	<defs>
		<path id="SVGID_1_" d="M12.8,12.5l-0.9,0l-1.2-0.1l-0.3,0.1L9,12.8l-1.1,0.2l-1-0.8l0.6-4.2l1.4-0.8c0,0-0.2-3.7-0.1-3.8
			c0.1-0.1,3-1.5,3-1.5l4-1.2c0,0,1.5-0.1,1.6,0c0.1,0,2.9,0,2.9,0L23,2.4l1.4,0.5l1.9,3.6l-0.1,2l1.7,0.8l0.4,3.2l-1.4,1.4
			l-1.6,0.4l-0.9,0.5l-0.9,0l-1,0.1l0,0.7l-1.6-0.1l-1.1-0.3l-1.6-1.5l2-3.1l-1.8-2.1l-2.4-0.1c0,0-0.6,0.4-0.6,0.4
			c0,0-1.4,2.2-1.4,2.2l0,1.5H12.8z"/>
	</defs>
	<clipPath id="SVGID_2_">
		<use xlink:href="#SVGID_1_"  style="overflow:visible;"/>
	</clipPath>
	<g class="st1">
		<path class="st2" d="M26.2,11.9l-1.6,0.5c-0.1,0-0.2,0.2-0.3,0.3c-0.2,0.6-0.4,1.3-0.8,1.8c0,0.1-0.1,0.1-0.1,0.2h-0.1
			c-0.5,0-0.9,0.4-0.9,0.8l-1.6-0.1c1.4-1.1,2.2-2.7,2.2-4.5c0-3.1-2.5-5.7-5.7-5.7c-3.8,0-6.5,3.6-5.4,7.3l-1.5,0
			c0,0-0.1-0.1-0.2-0.1l-1.6-0.5l0-1.9l1.6-0.5c0.1,0,0.2-0.2,0.3-0.3c0.2-0.6,0.4-1.3,0.8-1.8c0.1-0.1,0.1-0.3,0-0.4l-0.8-1.5
			l1.3-1.3l1.5,0.8c0.1,0.1,0.3,0.1,0.4,0c0.6-0.3,1.2-0.6,1.8-0.8c0.1,0,0.2-0.1,0.3-0.3l0.5-1.6l1.9,0l0.5,1.6
			c0,0.1,0.2,0.2,0.3,0.3c0.6,0.2,1.3,0.4,1.8,0.8c0.1,0.1,0.3,0.1,0.4,0L23,4.1l1.3,1.3L23.5,7c-0.1,0.1-0.1,0.3,0,0.4
			c0.3,0.6,0.6,1.2,0.8,1.8c0,0.1,0.1,0.2,0.3,0.3l1.6,0.5V11.9z M25.6,15.7c0-0.1-0.1-0.1-0.1-0.1l-2.1,0c-0.1,0-0.1,0.1-0.1,0.1
			l0,9.1c0,0.1,0.1,0.1,0.1,0.1l2.1,0c0.1,0,0.1-0.1,0.1-0.1L25.6,15.7z M21.5,23.8c0.3,0,0.6,0,0.9-0.1l0-7.3l-1.8-0.2
			c-0.5,0-1-0.2-1.5-0.4l-2.3-1.2l-3.2,4.1c0.2,0.4,0.3,0.8,0.3,1.3c0,1.7-2,3-3.4,3.8c0,0,0,0-0.1,0c-0.6,0.2-1,0.5-1.2,0.9
			c-0.3,0.5-0.6,1.1-0.4,1.5c0,0.1,0.1,0.2,0.4,0.3c0.2,0,0.4,0,0.6,0c0.2-0.1,0.3-0.2,0.5-0.3c0.8-0.4,1.4-0.8,2-1
			c1.7-0.8,3.5-1.9,5.4-1.5C19.1,24,20.3,23.9,21.5,23.8L21.5,23.8z M13.1,19.4c0.1,0.2,0.1,0.4,0.1,0.5c0,1.2-1.7,2.3-2.9,3
			L13.1,19.4z M6.5,26.6l10.9-14.1l-1.5-1.2L5,25.4l-0.4,2.1L6.5,26.6z M7.4,20.8c0.7-1.1,1.3-2.5,2.3-3c0.1,0,0.2-0.1,0.3-0.1
			l-3.1,4C7.1,21.3,7.2,21,7.4,20.8z M17.9,11.9l0.6-0.8c0.1-0.1,0.1-0.3-0.1-0.4l-1-0.8c-0.1-0.1-0.3-0.1-0.4,0.1l-0.6,0.8
			L17.9,11.9z M12.6,10.9c0,0.5,0.1,1.1,0.3,1.6H14l2.4-3.1c0.4-0.5,1.1-0.6,1.6-0.2l1,0.8c0.5,0.4,0.6,1.1,0.2,1.6l-1.8,2.3
			l2.2,1.2c0.1,0,0.1,0.1,0.2,0.1c1.6-0.8,2.5-2.5,2.5-4.3c0-2.7-2.2-4.8-4.8-4.8C14.8,6.1,12.6,8.3,12.6,10.9L12.6,10.9z M4.3,23
			c0.3,0.4,0.5,0.5,0.6,0.5c0.4,0,0.9-1.2,1.2-1.9c0.2-0.5,0.4-1,0.6-1.3C7.4,19.1,8,17.6,9.3,17c0.4-0.2,0.8-0.2,1.3-0.2l2.7-3.5
			l-2.8,0c-0.7,0-1.5,0.3-2.1,0.8l-1.8,1.6c-0.4,0.4-0.6,0.8-0.9,1.5l-1.9,5.2C4,22.6,4.1,22.8,4.3,23z M26.7,9.3L25,8.7
			c-0.2-0.6-0.4-1.1-0.7-1.6l0.8-1.6c0.1-0.2,0.1-0.4-0.1-0.5l-1.7-1.7c-0.1-0.1-0.3-0.2-0.5-0.1L21.2,4c-0.5-0.3-1.1-0.5-1.6-0.7
			l-0.6-1.7c-0.1-0.2-0.2-0.3-0.4-0.3l-2.5,0c-0.2,0-0.3,0.1-0.4,0.3l-0.6,1.7c-0.6,0.2-1.1,0.4-1.6,0.7L12,3.2
			c-0.2-0.1-0.4,0-0.5,0.1L9.8,5C9.7,5.2,9.6,5.4,9.7,5.5l0.8,1.6C10.2,7.6,10,8.2,9.9,8.7L8.1,9.3C8,9.4,7.9,9.5,7.9,9.7l0,2.5
			c0,0.2,0.1,0.3,0.3,0.4L9,12.8c-0.4,0.2-0.8,0.4-1.1,0.7l-1.8,1.6C5.5,15.7,5.2,16.4,5,17l-2,5.3c0,0.1,0,0.2,0,0.3
			c0.1,0.3,0.4,0.6,0.6,0.9c0.4,0.6,0.8,0.9,1.2,0.9L4.3,25c0,0.1-0.1,0.1-0.1,0.2l-0.6,3c-0.1,0.3,0.3,0.6,0.6,0.5l2.7-1.3
			c0.1,0,0.1-0.1,0.1-0.1l1-1.2c0,0.6,0.3,1.3,1.1,1.4c0.4,0.1,0.7,0.1,1,0c0.1,0,0.6-0.3,0.6-0.3c0.8-0.4,1.4-0.7,1.9-1
			c1.6-0.7,3.3-1.7,4.9-1.4c1.6,0.3,3.1,0.1,4.7,0v0.3c0,0.5,0.4,0.9,0.9,0.9l2.1,0c0.5,0,0.9-0.4,0.9-0.9l0-9.1
			c0-0.5-0.4-0.9-0.9-0.9h-1.2l0,0c0.3-0.5,0.5-1.1,0.7-1.6l1.7-0.6c0.2-0.1,0.3-0.2,0.3-0.4l0-2.5C27,9.5,26.9,9.4,26.7,9.3
			L26.7,9.3z"/>
	</g>
</g>
</svg>
